<svg xmlns="http://www.w3.org/2000/svg" xmlns:xlink="http://www.w3.org/1999/xlink" viewBox="0 0 475.71 458.53"><defs><style>.cls-1,.cls-20{fill:#fff;}.cls-2{fill:#be1e2d;}.cls-3{fill:#ffc7ab;}.cls-4{fill:#00163a;}.cls-10,.cls-11,.cls-12,.cls-13,.cls-14,.cls-16,.cls-17,.cls-18,.cls-19,.cls-20,.cls-21,.cls-22,.cls-23,.cls-24,.cls-25,.cls-32,.cls-5,.cls-6,.cls-7,.cls-8,.cls-9{fill-rule:evenodd;}.cls-6{fill:#212e9e;}.cls-7{fill:#2a4dd8;}.cls-8{fill:#4f6ef7;}.cls-9{fill:#f2aa03;}.cls-10{fill:#ffd400;}.cls-11{fill:#fff418;}.cls-12{fill:#b50400;}.cls-13{fill:#ff2724;}.cls-14{fill:#ff6a76;}.cls-15,.cls-35,.cls-36{fill:none;}.cls-15,.cls-35{stroke:#00163a;}.cls-15{stroke-miterlimit:10;}.cls-16{fill:#9c642b;}.cls-17{fill:#c39739;}.cls-18{fill:#f2cb6b;}.cls-19{fill:#ccced1;}.cls-21{fill:#989b9f;}.cls-22{fill:#7d8286;}.cls-23{fill:#bc8639;}.cls-24{fill:url(#linear-gradient);}.cls-25{fill:url(#linear-gradient-2);}.cls-26{fill:#a36133;}.cls-27{fill:#2169a5;}.cls-28{fill:#074568;}.cls-29{fill:#723b16;}.cls-30{fill:#b4c0c2;}.cls-31,.cls-32{fill:#ea967f;}.cls-33{fill:#d34e40;}.cls-34{fill:#fed640;}.cls-35,.cls-36{stroke-linejoin:round;stroke-width:18px;}.cls-36{stroke:#010d38;}.cls-37{fill:url(#linear-gradient-3);}.cls-38{fill:url(#linear-gradient-10);}</style><linearGradient id="linear-gradient" x1="153.53" y1="136.08" x2="151.58" y2="110.85" gradientUnits="userSpaceOnUse"><stop offset="0.09" stop-color="#7d8286"/><stop offset="0.21" stop-color="#8c9094"/><stop offset="0.45" stop-color="#b3b6b8"/><stop offset="0.77" stop-color="#f1f1f2"/><stop offset="0.83" stop-color="#fff"/></linearGradient><linearGradient id="linear-gradient-2" x1="152.33" y1="114.87" x2="153.29" y2="132.85" xlink:href="#linear-gradient"/><linearGradient id="linear-gradient-3" x1="235.5" y1="293.82" x2="237.13" y2="323.46" gradientUnits="userSpaceOnUse"><stop offset="0" stop-color="#fff"/><stop offset="1" stop-color="#bfbfbf"/></linearGradient><linearGradient id="linear-gradient-10" x1="142.52" y1="301.59" x2="144.08" y2="329.95" xlink:href="#linear-gradient-3"/></defs><g id="Layer_2" data-name="Layer 2"><g id="Layer_1-2" data-name="Layer 1"><path class="cls-1" d="M275.57,2.47A31.79,31.79,0,0,0,261.92,0V3A38.56,38.56,0,0,1,274.26,4.9Z"/><circle class="cls-2" cx="247.57" cy="191.92" r="146.24"/><path class="cls-3" d="M259.21,156.54s24.45-19.89,32-31.93c0,0-4.52,18.38-26.66,33.22,0,0,.22,10.31-5.59,14.72-1.08.73,1.18-6.88,1.18-6.88s-5.21,3.39-5.48,4.89.43,7.36.43,7.36,18.71-7.35,38.37-14.29c0,0-3.33-4.46-3.27-6.45s5.93-28.91,7.07-40.23c0,0-4.76,1.16-6.75-4.64,0,0,4.14,1.39,5,1.12s5.26-3.81,5.05-4.73c-1.94-14.34,7.31-16.49,8.33-21.49,0-1.13-3.23-9.84-6.45-11.66-3.1-.49-18,19.5-19.35,27.89,0,0-4.75-1.11-5.25-2.44s.09-14-.55-16.16a15.07,15.07,0,0,0-2.74-3.11s-3.72,1.57-8.84,3.22a50,50,0,0,1,.35,5.91c0,7.46-1.57,13.82-3.77,16.25a12.42,12.42,0,0,1,3.77,1.06c-7.49,0-19.33,5.19-19.33,5.19,4.84-4.91,9.54-6.27,13.09-6.37,2.95-1.93,4.55-9.13,3.64-17.45-.15-1.29-.35-2.53-.58-3.73a70.32,70.32,0,0,1-12.93,2.65,23,23,0,0,0-2.22,13.42s-2.63-4-1.21-13.29c-11.4-.47-28.16-12.84-34.85-18.9,0,0-1.15,9-1.86,10.82,18.09-1.69,33,33.78,23.46,45.28,0,0,6.56,4.73,13.65.7,0,0-.43,4.68-9.13,4.14a5.29,5.29,0,0,0-.09,1.85c13.2,3.15,27-24.85,40.93-18.72,0,0-2.69,1.23-3.55,2.79s-4.34,23-30.06,28.05c-7.73.94-4.83-5.62.29-6.39a13.54,13.54,0,0,0-.82-3.6s-10.75,4-9.35-4.7c0,0-5-2.9-4.8-4.76.13-1.4,3.36-3.11,3.89-9.63-3,.45-8.2-3.85-12.32-10.4-3.9-6.2-5.55-12.41-4.26-15.18-2-.59-3.73-.67-4.58-.26-1.21,1-.33,5-.33,5s15.16,21.55,6.13,43.48c-1.17,3.57,19.67,6.23,24.72,17.73A135.38,135.38,0,0,0,259.21,156.54ZM301.92,82l-.15,1.2-.14-.16a43.58,43.58,0,0,1-2.92,4.57,3.72,3.72,0,0,1,1.4,2c.32,1.29-1.9,6.23-1.9,6.23s.25-3.65.14-4-1.61-.9-1.61-.9a25,25,0,0,0-2.58,6.34,8.66,8.66,0,0,1,1.39,3.08l.19-.23c-.12,5.51-3.37,6.72-3.37,6.72.54-8-2.15-6.49-2.8-9C289.14,93.66,301.92,82,301.92,82ZM258.47,88.5c2.12,0,3.83,3.32,3.83,7.41s-1.71,7.42-3.83,7.42-3.83-3.32-3.83-7.42S256.36,88.5,258.47,88.5Z"/><path class="cls-3" d="M206.1,100.36a24.14,24.14,0,0,1,4.22-.58L207,93.59a11.37,11.37,0,0,0-2.58,9.24c.22.88,3.91.36,9.07,4.1a31.08,31.08,0,0,0-1.4-3.56C211.68,102.79,208,100.36,206.1,100.36Z"/><path class="cls-3" d="M328.59,245.8s4.84,9.89,6.07,13.17c0,0,7,1.13,8.28,1.66,0,0-10.69,1.19-17.36,7.8,0,0,11.07,6.12,14.08,22.35,0,0,12.69-10.53,14.94-17.52,0,0-5.69,5.05-7.47,5.81.16-2.23,12.15-13,12.15-15,.22-2-6.83-23.7-12.09-28.8A82.34,82.34,0,0,1,328.59,245.8Z"/><path class="cls-3" d="M143.93,210s-2,14.73-1.39,21.72c.52,6.33,11.85,19,13,20.74l10.8-4.08-8.93-35.9C147.34,212.89,143.93,210,143.93,210Z"/><path class="cls-3" d="M209.79,80.51a12.53,12.53,0,0,1,2,0c.62-2.6,1.56-6.71,1.94-9-.78-.65-1.49-1.27-2.11-1.83C211.65,69.69,210.5,78.68,209.79,80.51Z"/><path class="cls-4" d="M356.3,83.19A154,154,0,0,0,313.73,53c-.89,5.22-2.09,10.27-2.78,15.41A138.79,138.79,0,1,1,149.48,93.82q3.22-3.22,6.64-6.21a32.1,32.1,0,0,1-2.35-8.41c0-2.49-1.38-4.71-2.67-7a156.8,156.8,0,0,0-12.26,11,153.76,153.76,0,1,0,217.46,0Z"/><path class="cls-5" d="M137,156.53a51.75,51.75,0,0,1,5.68-.46c-.21,9.76,1.39,19.38,5.4,27.88A52.65,52.65,0,0,0,163.77,203c10.86,7.95,24.63,10.86,35.88,1.95-5.39,10-16.83,10.71-27,8a42.45,42.45,0,0,1-19-11.15C142.1,190.37,135.34,172.77,137,156.53Z"/><path class="cls-6" d="M194.58,209.28c-10.15,9.26-28,1.45-36.51-5.59-13.41-11-20.78-29.23-20.33-46.44.73-.15,2,.2,3.94-.06-1,16.45,5,33.79,17.73,44.63C169.14,210.08,182.37,214.72,194.58,209.28Z"/><path class="cls-7" d="M164.43,208a44,44,0,0,1-6.36-4.31c-13-10.7-20.32-28.13-20.35-44.86l1.2,0a1.18,1.18,0,0,1,1.14,1.13c.22,6.16,1.17,16,4.72,23.06a80.16,80.16,0,0,0,14.9,20.87c1.4,1.32,3.39,3,4.75,4.08Z"/><path class="cls-8" d="M156.31,202.17c-11.9-10.78-18.56-27.38-18.59-43.34l.81,0a.47.47,0,0,1,.46.45c.25,4.68,1.19,15.65,4.73,23.36a75.82,75.82,0,0,0,11,17.48C155.36,201,155.89,201.64,156.31,202.17Z"/><path class="cls-5" d="M148.91,159.18c1.47-.21,5.24-.54,6.7-.54A84.58,84.58,0,0,0,160,184c2.82,9,6.19,16.66,13.61,22.74,8.18,6.7,18.69,5.66,26.15-1-1.17,6.29-10.81,10-16.82,9.84-12.53-.38-22.48-15.09-27.18-25S149.16,170.08,148.91,159.18Z"/><path class="cls-9" d="M175.84,212.82a30.47,30.47,0,0,1-7.76-5.91,59.09,59.09,0,0,1-12.74-21,92.59,92.59,0,0,1-5.24-26.26c.9-.12,3.15-.14,4.07-.24a105.77,105.77,0,0,0,4.16,24.25c2.37,8.14,5.8,16,11.5,21.65,7.06,7,15.66,9.81,25,4.31-3.12,6-14.18,5.69-19,3.21Z"/><path class="cls-10" d="M171.59,210.08a33.93,33.93,0,0,1-3.51-3.17,59.09,59.09,0,0,1-12.74-21,84.85,84.85,0,0,1-4-15.16c.29,0,.53,0,1,0a2.81,2.81,0,0,1,1.31.38,1,1,0,0,1,.52.75,95.4,95.4,0,0,0,6.43,21.91c4.75,10.43,13.15,16.8,11.25,16.4l-.29-.08Z"/><path class="cls-11" d="M165.06,203.51a62.3,62.3,0,0,1-9.72-17.61,84.85,84.85,0,0,1-4-15.16c.29,0,.53,0,1,0h.21a.75.75,0,0,1,.67.66c.41,3.76,2.1,13.64,9.09,27,1,1.87,1.88,3.55,2.72,5.08Z"/><path class="cls-5" d="M169.77,193.33a89.3,89.3,0,0,1-4.08-12.08c-2.32-8.69-3.07-16.49-3.93-24.45a58.59,58.59,0,0,1,6.05-.54c.91,7.54,1.61,16.17,3.47,24.41,1.65,7.27,4.2,14.23,8.6,19.87,4.57,5.88,11.68,10.28,19.17,7.81a3.54,3.54,0,0,1-.43,4.2c-.82.26-3.48.81-3.48.88a20.88,20.88,0,0,1-10.48-2.35c-6.92-3.9-11.68-10.66-14.89-17.75Z"/><path class="cls-12" d="M186.14,210.45a27.58,27.58,0,0,1-7.5-5.91c-10.58-11.6-14-28.8-15.85-46.92.88-.12,3.46-.23,4.36-.33,1.45,16.36,3.78,35.49,13.31,45.63a26.21,26.21,0,0,0,8.43,6.33,13,13,0,0,0,9.32.53,3.54,3.54,0,0,1-.26,1.95c-4.41.93-7.83.8-11.81-1.28Z"/><path class="cls-13" d="M181.72,207.48a30.52,30.52,0,0,1-3.08-2.94C168.45,193.36,164.92,177,163,159.6h1.33a1.54,1.54,0,0,1,1.53,1.33c.77,5.26,3.78,24.8,7.51,33,4.34,9.49,6.64,11.39,8.81,13.56.4.4.18.36-.46,0Z"/><path class="cls-14" d="M177.17,202.83c-9.07-11.1-12.34-26.71-14.17-43.23h.62a1.38,1.38,0,0,1,1.37,1.29,121.05,121.05,0,0,0,3.81,22A67.58,67.58,0,0,0,177.17,202.83Z"/><path class="cls-4" d="M295.53,100.41a8.49,8.49,0,0,0-1.4-3.07A25,25,0,0,1,296.71,91s1.51.57,1.62.89-.15,4-.15,4,2.22-5,1.9-6.24a3.68,3.68,0,0,0-1.39-2,43,43,0,0,0,2.92-4.58l.14.16.14-1.19s-12.77,11.66-12.34,15.89c.64,2.5,3.33,1,2.79,9,0,0,3.25-1.21,3.38-6.72Z"/><path class="cls-4" d="M258.45,88.52c-2.12,0-3.83,3.32-3.83,7.42s1.71,7.42,3.83,7.42,3.83-3.32,3.83-7.42S260.56,88.52,258.45,88.52Zm-.69,6.67c-.54,0-1-1-1-2.24s.45-2.24,1-2.24,1,1,1,2.24S258.31,95.19,257.76,95.19Z"/><path class="cls-4" d="M214,215c-1.93,1.43-8.67,17.41-9,22.57s13.9,14,17.49,14.5,27.3-7.69,31.88-10.06,10.32-23.29,10.32-23.29C240.89,219.87,214,215,214,215Zm38.84,22.93c-9.46,5.23-31,9.74-31,9.74-6.3-1.65-12.54-8.31-12.9-10.75s3.8-13.61,3.8-13.61c21.59,6.61,45.29,4.37,45.29,4.37A53.44,53.44,0,0,1,252.79,237.93Zm-39.41-16.27c.43-1.43,1.72-4.37,1.72-4.37,9.82,4.59,44.57,4.37,44.57,4.37l-1.29,3.66C238.24,228.25,213.38,221.66,213.38,221.66Z"/><path class="cls-4" d="M228.93,271.93c-4.09-3.23-16.7-2.58-16.7-2.58.54.18,3.33,1.9,3.33,1.9a23.11,23.11,0,0,0-1.29,13.39,6.61,6.61,0,0,1-3.72-.24c3.55,4,11.61,4.94,16.09,3.76S230.9,273.9,228.93,271.93ZM217,277.14s4,.07,4.34.43.46,3.06-.25,3.3a16.59,16.59,0,0,1-4.25-.27C216.82,280.51,217,277.14,217,277.14Zm8,8.69c-2.15,1.18-7.63-.47-7.63-.47a6.13,6.13,0,0,1-.33-2.72s4.29.81,5.77-.35,1.35-5.45.24-6.29-4.12-1.37-5.68-1.21a20.83,20.83,0,0,1,.75-3.18s8,.71,8.81,2S227.14,284.65,225,285.83Z"/><path class="cls-4" d="M166.32,248.35l-2.73,1,2.76-1Z"/><path class="cls-4" d="M353.47,232.05s3.79-2.14,4.65-4.94c.87-5.73-24-42-24-42a18.37,18.37,0,0,0-.64-7.36c-.81-2-13-7-13-7s-.39-.82-1.07-2.19S306.18,163,306.18,163s-1.51-1.86-2.08-2.36-5.81-.54-5.81-.54a6.44,6.44,0,0,1-1.36-2.25c-.36-1.22,4-27.3,4-27.3s15.33-11.69,16.2-15.7c.42-7.16-5.59-19.92-5.59-19.92s3.36-4.08,3.36-5.66S313.12,81,313.12,81s4-17.34,3.15-28.38C308.83,30,282.08,18,282.08,18s2.08-4.48,1.18-6c-6.45-10.27-23.81-5.49-24.77-4.14s0,4.94,0,4.94C229,19.09,208.83,35,208.43,35.75a20,20,0,0,0-.79,3.6S176,29,173.25,29.55,157,32.9,150.47,45.32c-10.75,19.77.75,53.84,8.7,56.32s40.59-6.52,40.59-6.52-1.93,9.17-.35,11.6,13.83,4.09,15.61,8.53c1.51,5.38-1.25,19.87-.87,24.7S232.9,152,234.57,153.23s4.14,5.86,4.94,7.17,12.63,3,12.63,3c-2.36,0-7.55,3.9-7.55,3.9a2.72,2.72,0,0,0-1.37-.83c-1-.28-13.79,3.88-14.61,4.19s-3.07,2.85-4,3.57-10.11,2.47-11.34,3.93c-.58,1.36-9.25,14.54-28.88,22.57-2.8,1.11-2.24,6.07-2.4,6.5s-1.62,1.18-1.62,1.18c0-2-2-9.67-2-9.67s9.3-13.11,9.14-19c-1.08-14.09-12.25-21.18-13.22-21.18A34.83,34.83,0,0,0,168.9,160c-.86.26-1.59,2.31-1.59,2.31s0-.11,0-.17l-4,7.62.6,1.92-1.64,2.8s.23-3.88-1.3-5.13-5.39-1.66-7.51-4.06l-.09-.11a29.67,29.67,0,0,0-2.48-2.51l-.56-.46-.11-.1a12.7,12.7,0,0,0-1.48-1l0,0a6.85,6.85,0,0,0-2.45-.77h0c-.19,0-.36-.05-.54-.06a19.72,19.72,0,0,0-5.9.15h0l-.19.06c-1.78.75-11.45,6.7-12.17,7.72s-.27,12.37,0,13.17,6.07,4.81,6.07,4.81.75,10.42,1,10.92,4,3.87,4,3.87l.65.07c-7.17,39.7.13,39.08,4.22,45.29,2.26,2.91,8.24,12.32,9.53,13.47,1.1,1,10.5-3.5,13.36-4.89l24.4-9,1.4-.49s-2.26,15.64-2.2,16.29,3.54,3.59,3.54,3.59a144.33,144.33,0,0,1,.17,15.11s-3.5,8-3.55,9.29,4,7.69,4,7.69c.4,10.87.51,21.84.46,31.86a77.91,77.91,0,0,0,7.61,3.52c-.36-15.26-1.33-28.86-1.33-28.86l7.66,11.47S197,289.68,197,288.15s2.64-7.28,2.64-7.28a21.48,21.48,0,0,0,3.65,1c-.59,9.13,7.09,11,7.09,11s7.74,28.49,8.5,30.42a7.6,7.6,0,0,0,3.11,3.22c-1.5.65-11.07,0-11.07,0,1.29,1.94,20.74,6.77,20.74,6.77l2.41,5.87c1.16.06,2.31.1,3.47.13-1.62-3.35-2.65-5.46-2.65-5.46l11.8,5.43h.25L235.59,330c-3.76-11.07-6.77-33.91-6.77-33.91a10.66,10.66,0,0,0,5.21-.81c3.18-1.18,2.93-6.95,2.93-6.95,11,.93,28.66,0,28.66,0,1,13.62,6.16,12.11,6.16,12.11.22,1.87,3.22,7.45,3.22,7.45s-16.84-8.81-17.63-9.45-3.58-5.38-3.58-5.38.08,4.44,2,6.95,25.94,14.26,25.94,14.26c2.62,2.28,6.23,8.72,10.24,17.26l2.19-.47c-1.85-4-3.68-7.58-5.48-10.77a9.65,9.65,0,0,0,7.17,0l3.71,9.45a60.76,60.76,0,0,0,7.68-2.59c-2.23-5.48-3.59-8.76-3.59-8.76,1.76-1.32,8.5-6.55,8.5-6.55a59.69,59.69,0,0,0,7.13,0c1.14-.29,3.51-2.73,5-3.95s15.92-3.2,17.05-4.22.86-8.07.86-8.07c19.24-14.4,21.49-28.37,21.49-28.37a2.15,2.15,0,0,0,1.72-1.11C366.22,254.69,353.47,232.05,353.47,232.05Zm-2.58-6.3c-7.09,8.24-31.3,18.09-31.3,18.09L317.17,239c16.88-6.55,31.28-18.16,31.28-18.16Zm-52.74,18.62s8.24-6,11.82-7.46c0,0,4.66,12.84,6.88,13.27s6.09-.71,6.09-.71l5,10s-5.09,4.73-6.09,6.37c0,0-5.08-2.31-6.15-2.06s-8.37,9.37-9.48,9.55-3.83-3.15-4.79-3.19-11.26,0-11.26,0c-.13-1.58,10.76-10.58,10.79-10.67C301.12,259.05,298.15,248.39,298.15,244.37ZM328,181.32s-1.07,3.13,2.36,8.53c6.24,9.32,16.77,28.73,16.77,28.73-2.94,4.3-30.67,19.42-30.81,18.27-3.73-11.89-6.23-10.74-6.09-15.19s8.6-26.3,8.6-26.3A169.37,169.37,0,0,0,306,218.58c-.5.86-.29,5.45-.29,5.45-9-11.33-5.73-26.16-5.73-26.16,6.81-8.38,15.76-23.07,15.76-23.07C319.06,176.05,328,181.32,328,181.32Zm-19.78-12.19c4.14-1.07,5.27,1.67,5.27,1.67s-16.16,25.28-26.33,38.89c0,0-9.39,2.51-16.42,0C270.77,209.69,284.71,180.21,308.25,169.13Zm-78.68,30.43s7.49-13.84,10.68-17.67a12,12,0,0,0,12.11,9.89c8,0,17.77-8,36.76-15.23,0,0-12.39,13.65-18.35,23C270.77,199.56,246.34,204.39,229.57,199.56ZM310.51,52.84c1.72,4.08-2.85,21.66-2.85,21.66s-2.85-3.65-4.84-3.55c-6,.91-12.53,10-12.53,10-.87-.49-5.26-2.53-5.26-2.53,14.62-45.57-5.91-55.79-5.91-55.79C297.93,27.9,308.79,48.76,310.51,52.84ZM263.54,11a32.88,32.88,0,0,1,14,2.5L276.22,16a39.74,39.74,0,0,0-12.68-2Zm0,7.58c8.92.43,19.72,7.64,22.68,19.67s-3.44,37.83-3.44,37.83c-13.43-21.6-53.21-28.75-70.19-32.89C216.78,33,254.62,18.12,263.54,18.55Zm-102,76.32c-8.49-11-18.24-50.56,12.89-58.69C194.75,47.3,266.69,52.91,279.12,76.7c0,0-27.23,8.49-34.14,7.74-13.9,0-60.44-44.86-72.59-44.86-4.89,0-10.1,7.72-10.1,7.72s5.91-4.46,9.13-4.46c3.39,0,36.76,24.83,36.76,24.83s-4.46,16.45-4.13,20.59C204.05,88.26,170.14,97.45,161.54,94.87Zm42.85,8A11.39,11.39,0,0,1,207,93.61l3.33,6.2a23.49,23.49,0,0,0-4.23.57c1.94,0,5.59,2.44,6,3a28.81,28.81,0,0,1,1.4,3.56C208.29,103.21,204.6,103.73,204.39,102.85Zm39.16,53.07c-5.06-11.51-25.9-14.16-24.72-17.74,9-21.93-6.13-43.48-6.13-43.48s-.88-4,.32-5c.86-.41,2.54-.33,4.59.27-1.3,2.77.36,9,4.26,15.18,4.11,6.54,9.32,10.85,12.31,10.39-.52,6.53-3.76,8.24-3.89,9.63-.18,1.87,4.8,4.77,4.8,4.77-1.4,8.74,9.35,4.69,9.35,4.69a13.67,13.67,0,0,1,.82,3.61c-5.11.77-8,7.32-.28,6.39,25.71-5,29.2-26.5,30.06-28s3.55-2.79,3.55-2.79c-14-6.13-27.73,21.87-40.94,18.71a5.5,5.5,0,0,1,.09-1.84c8.71.53,9.14-4.14,9.14-4.14-7.1,4-13.65-.7-13.65-.7,9.57-11.5-5.38-47-23.47-45.29.72-1.82,1.86-10.82,1.86-10.82,6.69,6.07,23.46,18.43,34.85,18.9-1.42,9.24,1.21,13.3,1.21,13.3a23.09,23.09,0,0,1,2.23-13.42,70.21,70.21,0,0,0,12.92-2.65c.24,1.19.44,2.44.58,3.72.91,8.33-.69,15.52-3.64,17.45-3.55.11-8.24,1.47-13.08,6.37.37-.15,11.95-5.2,19.32-5.19a12.49,12.49,0,0,0-3.77-1c2.2-2.43,3.77-8.79,3.77-16.25a48.22,48.22,0,0,0-.35-5.92c5.13-1.64,8.84-3.22,8.84-3.22a15.19,15.19,0,0,1,2.75,3.12c.64,2.2.05,14.83.55,16.16s5.25,2.43,5.25,2.43c1.34-8.38,16.25-28.37,19.34-27.89,3.23,1.83,6.45,10.54,6.45,11.67-1,5-10.26,7.14-8.33,21.49.22.91-4.19,4.46-5.05,4.73s-5-1.13-5-1.13c2,5.8,6.76,4.64,6.76,4.64-1.15,11.32-7,38.25-7.08,40.24s3.28,6.44,3.28,6.44c-19.67,6.94-38.37,14.3-38.37,14.3s-.7-5.86-.43-7.36,5.32-4.79,5.47-4.88c-.1.36-2.23,7.58-1.18,6.86,5.81-4.4,5.59-14.72,5.59-14.72,21.8-14.6,26.51-32.64,26.65-33.2-7.53,12-32,31.91-32,31.91A136.53,136.53,0,0,1,243.55,155.92ZM227,97.85c-1.79,1-1.71,4.62.19,8.2s4.88,5.72,6.68,4.77a1.7,1.7,0,0,0,.23-.17,28.54,28.54,0,0,1,.16,2.94c-2.74.25-7.1-3.24-10.47-8.59-3.64-5.81-4.8-11.73-2.77-13.69A24.63,24.63,0,0,1,229.35,98,2.62,2.62,0,0,0,227,97.85Zm3.35,3.63c.46,1.06.32,2.15-.32,2.43s-1.54-.36-2-1.41-.32-2.16.32-2.44S229.88,100.42,230.34,101.48Zm18.08,33.59c-2.29,0-1.65-1.54-1.65-1.54,8.6-4,18.92-16.07,25.73-18.07-2.3,3.37-1.94,6.85-4.38,10.11C264.76,130.37,250.71,135,248.42,135.07Zm16.16-4.59c-5.84,8.42-16.91,10.43-16.91,10.43l-.33-3.77C257,136.43,264.58,130.48,264.58,130.48ZM244.41,173c.75-1.29,6.5-4.2,6.5-4.2s-2.63,10.75,2,13.12,34.39-13.22,46.11-16.12a4.65,4.65,0,0,1,3.87,1.18s-5.23,2.93-6.16,4.22c0,0-10.4,1.8-35.66,15.34C239.78,195.26,241.9,176.44,244.41,173Zm-10.86,3.54c6.42-3.2,7.45-3,7.45-3a18.9,18.9,0,0,1-.57,3.76,66.51,66.51,0,0,0-18.16,31.21s-6.78-.33-10.75-2C211.52,206.43,225.38,181.28,233.55,176.55Zm-16.37,7.13,5.23-2.44c-2.87,2.87-11.68,17.49-11.68,17.49-3.53-.72-14.26,15-14.26,15-.86-2.63-7.09-8.85-7.09-8.85C209.08,196.94,216.12,186.87,217.18,183.68Zm-45.65-18.49c.08-.46,9.74,3,10.25,15.2-.47,6.64-7.6,13.47-7.6,13.47s-2.51-8.71-2.9-9.75,3.44-1.83,4.7-4.51c0,0-9.36,5.82-11.41-2.13C164.25,175.21,166.62,176,171.53,165.19ZM161.35,176.8c0,.44.91,3,.91,3a5.07,5.07,0,0,1-2.6-.91A10.8,10.8,0,0,0,161.35,176.8ZM140.79,195c-.89-1.13-.89-8.65-1.83-11.13s-5.73-5.73-6.27-6.19-1.21-5.31-.64-6.27,12.21-6.92,14.38-7.76c1.4,0,5.48,6.13,12.12,8.25,1,3-1.37,6.21-2.14,6.45-.46.14-8-3.47-9.71-3.63-1.85,0-6.43,2.89-7.2,2.9,4.73,4.31,11.64,4.36,14.15,3.93,3.51,0,7.1,2.18,12,2.47,0,0,2,6.23-1.94,7.31s-5.08,3.44-7.9,3.44a14.22,14.22,0,0,0-8.47,2.77c2.94-.77,10.82-.23,10.82-.23s5-4.08,6.88-3.4,1.94,5.37,1.94,5.37c-6.13,5.45-5.6,7.31-8.5,8.44-4.81,1.83-10.67-.46-11.45-1.15s-1.56-6.05-2.47-7.94S141.69,196.08,140.79,195Zm53.74,42.54L187,240.93l-3.26,1.18-17.4,6.28-2.76,1-8.07,3.06c-1.16-1.8-12.48-14.42-13-20.75-.58-7,1.4-21.71,1.4-21.71s3.4,2.94,13.47,2.47l.06.22,3.91-1.69,2.45-3,.82-.69.76-.73c1.56-1.53,5.08-5,5.55-5.41l0,0c.26-.25.29-1.89.29-1.89l5,17.2,3.92-1.14c2.44-.44,9.46-4.31,9.46-4.31l4.87,6.24c-.93,1-3.51,8.31-3.51,10s3.87,6.95,3.87,6.95A14.08,14.08,0,0,0,194.53,237.49Zm8.77,40.74-3.71-1.77s.37-9.25.42-10.48l4.38,1.56S203,274.36,203.3,278.23Zm29.28,50c-.28-.17-9.16-5.49-10.21-6.34s-7.85-27.62-7.85-27.62c2.26,1.29,12.15,1.72,12.15,1.72A125.32,125.32,0,0,0,232.58,328.21Zm-.22-35.9c-1.5.79-22.92-3.22-24.57-5.51s.22-19.57,2-21.5c1-1.4,23.27,2.11,24.18,4.41S233.87,291.53,232.36,292.31Zm1.06-27.38c-2.67-.62-20.51-4.43-25-2.66a7,7,0,0,0-2.69,2.42s-7.21-3.08-9.4-5.12c0,0,2.69-11.18,2.76-20.85,0,0,5.81,5.52,6.73,6.52.32-3.37-9.09-11.83-10.17-18.28-.22-1.7,6.81-15.26,10.89-19.77,0,0,1.44,5.16,12.68,5.44,6.67.54,8.71-9.53,8.71-9.53s16.55,5.81,40.41,0c0,0-2.52,6.34-1.18,8.82s10.46,5.23,21.93.93c1.87-.76,6-7.38,6-7.38s-.5,19.7,12.83,26.15c0,0-25.66,13.33-28.24,26.37,0,0,8.38-8.89,13.19-10.75-.08,3.48,2.15,7.64,1.79,9.46-.3,1.51-8.81,8.53-8.81,8.53S269.35,267.81,237,269C237,269,236.07,265.55,233.42,264.93Zm33.31,19.18-29,.53c.35-5.71.43-12,.43-12,30,1.77,46.86-2.6,46.86-2.6v1.77c-6.44.92-6.88,8.33-13.61,10.36A10.76,10.76,0,0,0,266.73,284.11Zm68.5,14.44c-14.58,1.07-17.25,6.93-17.63,7s-5.1,1.07-5.1,1.07a13.46,13.46,0,0,0,1.72-3.92,55,55,0,0,1-5.33,4.67c-.69.49-15.53,9.68-16.17,9.68s-7.61-6.06-7.61-6.06a4,4,0,0,0,2.86-2.19s-6,.08-7.34-.64-4.16-7.28-4.16-7.28c4.3.47,5.66-.31,5.66-.31-1.93-1.65-9-2.3-9.92-3.38s-1.36-9.44-1.36-9.44c3.29-2.38,16.89-5.06,17.55-6.53-3-.77-7.84-.08-7.84-.08s2.71-4.29,4.22-4.9a128.44,128.44,0,0,1,15.79-.06c1.45.21,2.31,2.17,6.39,2.38s11.29-8.27,11.29-8.27C337.17,278.77,335.23,298.55,335.23,298.55Zm24-34.45c0,1.95-12,12.77-12.14,15,1.77-.75,7.47-5.8,7.47-5.8-2.26,7-14.94,17.52-14.94,17.52-3-16.23-14.08-22.36-14.08-22.36,6.66-6.61,17.36-7.79,17.36-7.79a82.59,82.59,0,0,0-8.28-1.67c-1.24-3.28-6.07-13.16-6.07-13.16a82.84,82.84,0,0,0,18.59-10.53C352.43,240.4,359.48,262.11,359.25,264.1Z"/><path class="cls-4" d="M246.88,339.23h-.24l.58.27Z"/><path class="cls-15" d="M171.26,199.23s0,1.64-.29,1.89Z"/><path class="cls-4" d="M139.77,160.33l-.19.06h-.06Z"/><path class="cls-5" d="M154,129.28a8.94,8.94,0,0,1,1.52.32c.77.2,1.32-.24,1-1a14.54,14.54,0,0,1,1-14.82c6.15-8,17.31-7.56,23.11.4a14.07,14.07,0,0,1-3.41,19.23c.11,3.64.23,7.29.35,10.93l-6.52.23-.37-4.12c-.38,0-1.57,0-2,0,.18,4.92.28,11,.44,16,0,.84,0,1.72-1.05,1.75l-5.48.19a1.27,1.27,0,0,1-1.32-1.38c-.15-4.19-.41-9.15-.56-13.33a8.1,8.1,0,0,1-4.12,2.65c-.06,3.12,0,7.06-.07,10.17-.21,1.21.24,2-1.31,2h-6c-1.19-.36-.84-.81-.87-2.14l.14-9.78a17.37,17.37,0,0,1-4.32-2.76c-.16,4.18-.31,9-.46,13.23a1.27,1.27,0,0,1-1.32,1.38l-5.48-.19c-1,0-1.08-.91-1-1.75.16-5,.26-10.13.44-15.05l-1.16,0-.12,3.26-7.58-.27c.12-3.64.23-7.29.35-10.93a14.07,14.07,0,0,1-3.41-19.23c5.8-8,17-8.44,23.11-.4a14.54,14.54,0,0,1,1,14.82c-.36.76.19,1.2,1,1a8.94,8.94,0,0,1,1.52-.32,14.39,14.39,0,0,1,3,0Zm-18.72,7.38c0-.19,0-.39,0-.58l1.16,0c0,.2,0,.4,0,.6Zm34.41,0,0-.58-1.16,0c0,.2,0,.4,0,.6l1.16,0Z"/><g id="_197355504" data-name=" 197355504"><path id="_197573928" data-name=" 197573928" class="cls-5" d="M149.22,107a9,9,0,0,1-4.95-5.36,8.22,8.22,0,0,1,2.82-8.76,8.57,8.57,0,0,1,7-1.46A7.58,7.58,0,0,1,159.46,96a11.29,11.29,0,0,1,.72,3.58c0,1.32-.14,3-1.56,3.58a1.75,1.75,0,0,1-2.41-.92c-.11-1-.08-2-.12-3a6.56,6.56,0,0,0-.46-2.58,3.48,3.48,0,0,0-3.14-1.9,4.64,4.64,0,0,0-3,.67,4.37,4.37,0,0,0-1.81,2.38,5.23,5.23,0,0,0,.07,2.93,5.34,5.34,0,0,0,2.34,2.62c1,.47,1.73.78,2.71,1.21a2.72,2.72,0,0,1,1.57,2.48l0,23.27h-4l-.06-21a2.18,2.18,0,0,0-1.16-2.25Z"/><path id="_197382056" data-name=" 197382056" class="cls-16" d="M150,106.11c-2-1.19-3.9-2.34-4.63-4.73a7.18,7.18,0,0,1,0-4.28,6.84,6.84,0,0,1,2.44-3.4,7,7,0,0,1,5-1.32,6.82,6.82,0,0,1,5.62,4.26,8.42,8.42,0,0,1,.43,3.5c0,.72-.12,1.53-.86,1.84-.63,0-.74-.45-.76-1,0-.41.12-1.1.08-2.42a5.27,5.27,0,0,0-1.26-3.45,5.78,5.78,0,0,0-9.06,7,7,7,0,0,0,3.06,2.56c.46.19,1.14.41,1.77.7a2.6,2.6,0,0,1,1.38,2.48c.12,1.38.09,2.78.09,4.17v17.82h-1.77V112.25a32.79,32.79,0,0,0-.11-3.83,2.57,2.57,0,0,0-1.41-2.31Z"/><path id="_197381096" data-name=" 197381096" class="cls-17" d="M150,106.11c-2-1.19-3.9-2.34-4.63-4.73a7.18,7.18,0,0,1,0-4.28,6.84,6.84,0,0,1,2.44-3.4,7,7,0,0,1,5-1.32,6.82,6.82,0,0,1,5.62,4.26,8.42,8.42,0,0,1,.43,3.5c0,.72-.12,1.53-.86,1.84-.63,0-.74-.45-.76-1,0-.41.12-1.1.08-2.42a5.27,5.27,0,0,0-1.26-3.45,5.21,5.21,0,0,0-1.62-1.15,4.15,4.15,0,0,0-2-1c-2-.43-6.13,1.59-6.76,5.09a5.29,5.29,0,0,0,2.85,5.83l.41.14c.33.21.69.41,1.08.61l.52.2a5,5,0,0,1,1.8,1.6c.53,1.06.42,17.71-.32,19.41a3.63,3.63,0,0,1-.53.81V112.25a32.79,32.79,0,0,0-.11-3.83A2.57,2.57,0,0,0,150,106.11Z"/><path id="_197311520" data-name=" 197311520" class="cls-18" d="M150,106.11a12.88,12.88,0,0,1-3.63-2.81c1.64.89,5.2,2.37,5.6,3.27s.09,8.19,0,11.19a13,13,0,0,1-.45,2.83v-8.34a32.79,32.79,0,0,0-.11-3.83A2.57,2.57,0,0,0,150,106.11Zm0-13.51a7.44,7.44,0,0,1,2.77-.22A7.06,7.06,0,0,1,156.53,94a12.72,12.72,0,0,1,1.62,4.71A8.21,8.21,0,0,1,158,102c-.62,0-.73-.45-.75-1,0-.41.12-1.1.08-2.42a7.32,7.32,0,0,0-5.3-6A4.63,4.63,0,0,0,150.07,92.6Z"/></g><path class="cls-6" d="M129.39,143l0-.6,3.7.14,0,.59Zm.05-1.43,0-.94,3.7.14,0,.94Zm.06-1.77,0-1,3.7.14,0,.95Zm.05-1.78,0-.94,3.7.14,0,.94Zm.06-1.77,0-.88,2.23.07c1,.28,1,.28,1.45.38l0,.57Z"/><path class="cls-12" d="M175.5,143l0-.6-3.7.14,0,.59Zm-.05-1.43,0-.94-3.7.14,0,.94,3.7-.14Zm-.06-1.77,0-1-3.7.14,0,.95Zm0-1.78,0-.94-3.7.14,0,.94Zm-.06-1.77,0-.88-2.23.07c-1,.28-1,.28-1.45.38l0,.57,3.69-.14Z"/><g id="_199651384" data-name=" 199651384"><path id="_197778832" data-name=" 197778832" class="cls-19" d="M152.44,132.39a4.85,4.85,0,1,1-4.84,4.84A4.85,4.85,0,0,1,152.44,132.39Z"/><path id="_197356056" data-name=" 197356056" class="cls-20" d="M152.44,132.81a4.36,4.36,0,0,1,2.35.67l-1.76,3.3-.35-.27-.52-3.69Zm-4.27,5.55a4.22,4.22,0,0,1-.15-1.13,4.44,4.44,0,0,1,3.33-4.29l.94,3.69Z"/><path id="_197781040" data-name=" 197781040" class="cls-21" d="M156.57,139a4.39,4.39,0,0,1-8.25,0l4.12-1.76Z"/><path id="_197312576" data-name=" 197312576" class="cls-22" d="M152.44,130.52a6.71,6.71,0,1,1-6.71,6.71A6.72,6.72,0,0,1,152.44,130.52Zm0,.94a5.78,5.78,0,1,1-5.77,5.77A5.77,5.77,0,0,1,152.44,131.46Z"/><path id="_197572176" data-name=" 197572176" class="cls-19" d="M158.58,137.35a6,6,0,0,1-6.19,5.66,6.39,6.39,0,0,1-4.58-1.89,6,6,0,0,0,4.94,2.54,5.74,5.74,0,0,0,5.88-5.58A5.84,5.84,0,0,0,158.58,137.35Z"/><path id="_197433656" data-name=" 197433656" class="cls-19" d="M152.44,130.52a6.72,6.72,0,0,1,6.72,6.71c0,.14,0,.28,0,.42a6.5,6.5,0,0,0-1.47-3.73,6.19,6.19,0,0,0-11.24,4.75,6.38,6.38,0,0,0,1.2,3.23,6.7,6.7,0,0,1,4.81-11.38Z"/></g><g id="_197311688" data-name=" 197311688"><path id="_197614528" data-name=" 197614528" class="cls-16" d="M149.47,157.31c2,.05,3.95.05,5.95,0V146.38a19.78,19.78,0,0,1-5.95,0Zm18.67-1.86c-.14-4-.4-8.11-.61-12.16l-5.84.15c.2,4.2.3,8.39.5,12.59,0,.51-.17,1.32.79,1.29l4.4-.11C168.48,157.18,168.16,156,168.14,155.45Zm-31.4,0c.15-4,.41-8.11.62-12.16l5.84.15c-.2,4.2-.3,8.39-.51,12.59,0,.51.18,1.32-.78,1.29l-4.4-.11C136.41,157.18,136.72,156,136.74,155.45Z"/><path id="_197147608" data-name=" 197147608" class="cls-23" d="M149.47,157.31l2.38,0-.24-10.06-2.14-.71Zm4.26,0,1.69,0V146.38c-.31.05-.63.1-1,.13Zm14.41-1.88c-.14-4-.4-8.11-.61-12.16l-1.43,0c-.4.16-.64.35-.63.54.05.71.45,9.75.61,13.38l1.3,0C168.48,157.18,168.16,156,168.14,155.45Zm-6.43-11.59c.18,4.06.29,8.11.48,12.17,0,.51-.17,1.32.79,1.29l.87,0c-.26-2.65-1.37-13.36-1.37-13.36l-.77-.08Zm-25,11.59c.15-4,.41-8.11.62-12.16l3.29.09.16.63-.53,13.27-2.77-.07C136.41,157.18,136.72,156,136.74,155.45Z"/><path id="_197782936" data-name=" 197782936" class="cls-18" d="M154.69,157.32l.73,0v-9.58C155.33,148.79,154.89,154.21,154.69,157.32Zm13.45-1.87-1.21,1.17v.6h.44c.81,0,.85-.66.81-1.22,0-.2,0-.39-.05-.54Zm-31.4,0c.15-4.06.41-8.11.62-12.16l2,.05c-.14,3.3-.4,9.82-.56,13.9l-1.32,0C136.41,157.18,136.72,156,136.74,155.45Z"/><path id="_197432312" data-name=" 197432312" class="cls-16" d="M147.88,143.51c-2.45-1.45-3.46-4.16-3.19-7.09a11.09,11.09,0,0,1,.79-3.21c-1-.59-1.87,3.29-1.84,4.13a10.42,10.42,0,0,0,0,2.3,8.53,8.53,0,0,0,3.18,4.71,10.76,10.76,0,0,0,11.31,0,8.59,8.59,0,0,0,3.18-4.71,10.42,10.42,0,0,0,0-2.3c0-.84-.8-4.72-1.84-4.13a11.09,11.09,0,0,1,.79,3.21c.27,2.93-.74,5.64-3.19,7.09a9.28,9.28,0,0,1-9.13,0Zm23-5-2.7.11,0,.83,2.71-.09Zm-3.2,3.71a37.46,37.46,0,0,0-.23-6.26c-4.09-.5-5.14-1.62-5,2a9,9,0,0,1-1,4.41ZM134,138.54l2.7.11,0,.83-2.71-.09Zm3.2,3.71a37.46,37.46,0,0,1,.23-6.26c4.09-.5,5.14-1.62,5,2a9,9,0,0,0,1,4.41Z"/><path id="_196512880" data-name=" 196512880" class="cls-23" d="M144.06,135.07a9.2,9.2,0,0,0-.42,2.27,10.42,10.42,0,0,0,0,2.3,8.53,8.53,0,0,0,3.18,4.71,10.18,10.18,0,0,0,6.25,1.58c.18-.17.31-.35.25-.48-.16-.36-4.18-.47-6.83-2.5s-2.11-6.83-2.11-7.26,0-.61-.29-.62Zm14.15,9.2a8.57,8.57,0,0,0,3.07-4.63,10.42,10.42,0,0,0,0-2.3v-.18c-.18-.14-.4.26-.63,1.58a10.44,10.44,0,0,1-2.3,4.48,1.1,1.1,0,0,0-.11,1.05Zm12-5.7-2.06.08,0,.83,2-.07Zm-2.55,3.29a39.72,39.72,0,0,0-.13-4.88c-.49,0-2-.35-2.1.35-.07.47-.26,2.84-.38,4.53Zm-32.53-3.27,1.55.06,0,.83-1.52,0Zm2,3.27a42.15,42.15,0,0,1,.11-4.77,13,13,0,0,0,2.13-.54c1.09-.43,1.36.66,1.36,1.6,0,.68,0,2.55.13,3.71Z"/><path id="_197574936" data-name=" 197574936" class="cls-18" d="M143.79,136.18a6,6,0,0,0-.15,1.16,10.42,10.42,0,0,0,0,2.3,8.53,8.53,0,0,0,3.18,4.71,7.36,7.36,0,0,0,1.06.62,10.37,10.37,0,0,1-2.51-2.79,15,15,0,0,1-1.54-5.66C143.8,136.41,143.8,136.3,143.79,136.18Zm16.43,5.89a9.58,9.58,0,0,0,1.06-2.43,4.19,4.19,0,0,0,0-1.5,11.93,11.93,0,0,0-1,2.64A5.38,5.38,0,0,0,160.22,142.07Zm7.47-.21a39.72,39.72,0,0,0-.13-4.88l-.52-.06a.59.59,0,0,0-.65.65,17.33,17.33,0,0,1,.17,3.7,5.5,5.5,0,0,1-.14.59Zm-31-2.53v.15h0Zm.51,2.53a42.15,42.15,0,0,1,.11-4.77l.32-.06a.48.48,0,0,1,.57.45v.18c0,.53.2,3.27.27,4.2Z"/></g><g id="_197312168" data-name=" 197312168"><path id="_197154304" data-name=" 197154304" class="cls-24" d="M168.88,111.73A10.29,10.29,0,1,1,158.59,122,10.3,10.3,0,0,1,168.88,111.73Zm-32.87,0A10.29,10.29,0,1,1,125.73,122,10.29,10.29,0,0,1,136,111.73Z"/><path id="_197355984" data-name=" 197355984" class="cls-25" d="M178.1,119.8a9.49,9.49,0,0,1-18.35,4.81,25,25,0,0,1,6.8-3.55A30.84,30.84,0,0,1,178.1,119.8Zm-32.53,2.43a9.56,9.56,0,0,1-18.32,3.6,22.34,22.34,0,0,1,8.26-3.36A25.92,25.92,0,0,1,145.57,122.23Z"/><path id="_269011136" data-name=" 269011136" class="cls-22" d="M168.88,113.08a8.94,8.94,0,0,1,8.94,8.94c0,.14,0,.28,0,.42l-1.46-.28V122a7.47,7.47,0,0,0-14.94,0q0,.35,0,.69l-1.41.57a8.69,8.69,0,0,1-.09-1.26A8.94,8.94,0,0,1,168.88,113.08Zm-32.87,0A8.94,8.94,0,0,1,145,122c0,.14,0,.28,0,.42l-1.46-.28V122a7.47,7.47,0,0,0-14.94,0c0,.23,0,.46,0,.69l-1.41.57a8.68,8.68,0,0,1-.1-1.26,8.94,8.94,0,0,1,8.94-8.94Z"/><path id="_269011160" data-name=" 269011160" class="cls-5" d="M168.88,120a1.89,1.89,0,0,1,.82.18l1.2-1.54a1.08,1.08,0,0,1,0-1.26,1.09,1.09,0,0,1,1.73,1.34,1.09,1.09,0,0,1-1.21.37l-1.17,1.51a2,2,0,0,1-1.42,3.38,1.88,1.88,0,0,1-1-.28l-2.9,3.73-.57-.45,2.92-3.75a1.93,1.93,0,0,1-.44-1.24,2,2,0,0,1,2-2ZM136,120a1.9,1.9,0,0,1,.83.18l1.19-1.54a1.1,1.1,0,1,1,.58.45l-1.18,1.51A2,2,0,0,1,138,122a2,2,0,0,1-2,2,2,2,0,0,1-1-.27l-2.9,3.72-.57-.45,2.91-3.75A2,2,0,0,1,136,120Z"/><path id="_269011184" data-name=" 269011184" class="cls-12" d="M179.13,115.5a12.29,12.29,0,0,0-19.23-1.86,12.69,12.69,0,0,0-3.2,7.92,12.24,12.24,0,0,0,11.4,12.94c6.32.37,11.19-3.65,12.73-9.65A12.87,12.87,0,0,0,179.13,115.5Zm.7,9.23a12.35,12.35,0,0,0-1.68-9,11.48,11.48,0,0,0-17.65-1.38,11.79,11.79,0,0,0-2.8,7.45,11.29,11.29,0,0,0,2.87,8,11.11,11.11,0,0,0,7.58,3.7,11.3,11.3,0,0,0,11.68-8.8Z"/><path id="_269011280" data-name=" 269011280" class="cls-6" d="M125.76,115.5A12.29,12.29,0,0,1,145,113.64a12.69,12.69,0,0,1,3.2,7.92,12.24,12.24,0,0,1-11.4,12.94c-6.32.37-11.19-3.65-12.73-9.65A12.87,12.87,0,0,1,125.76,115.5Zm-.7,9.23a12.3,12.3,0,0,1,1.68-9,11.48,11.48,0,0,1,17.65-1.38,11.79,11.79,0,0,1,2.8,7.45,11.34,11.34,0,0,1-2.87,8,11.11,11.11,0,0,1-7.58,3.7,11.3,11.3,0,0,1-11.68-8.8Z"/><path id="_269010608" data-name=" 269010608" class="cls-13" d="M179.13,115.5a12.67,12.67,0,0,0-1.93-2.35,6.74,6.74,0,0,1,0,1.48,11.73,11.73,0,0,1,.92,1.14,12.35,12.35,0,0,1,1.68,9,11.53,11.53,0,0,1-8.38,8.54c0,.36.05.69.08,1a12.33,12.33,0,0,0,9.3-9.4A12.87,12.87,0,0,0,179.13,115.5Zm-16.66-3.93a12,12,0,0,0-2.57,2.07,12.69,12.69,0,0,0-3.2,7.92,12.29,12.29,0,0,0,3.61,9.42c.2-.24.41-.49.62-.76l-.36-.39a11.29,11.29,0,0,1-2.87-8,11.79,11.79,0,0,1,2.8-7.45,10.25,10.25,0,0,1,2.42-2C162.76,112.11,162.61,111.82,162.47,111.57Z"/><path id="_269010728" data-name=" 269010728" class="cls-7" d="M125.76,115.5a12.19,12.19,0,0,1,10.33-5.66c.26,0,.52,0,.78,0,0,.34.09.69.13,1.06a9.49,9.49,0,0,0-1.07,0,11.05,11.05,0,0,0-9.19,4.88,12.3,12.3,0,0,0-1.68,9,12.05,12.05,0,0,0,4.36,6.65c-.3.23-.59.44-.86.62a13.14,13.14,0,0,1-4.5-7.15,12.87,12.87,0,0,1,1.7-9.35Zm21,.65a13.43,13.43,0,0,1,1.45,5.41A12.31,12.31,0,0,1,140,133.87l.33-1.18a10.88,10.88,0,0,0,4-2.86,11.34,11.34,0,0,0,2.87-8,13.26,13.26,0,0,0-1-4.51C146.41,116.93,146.58,116.54,146.74,116.15Z"/><path id="_269010896" data-name=" 269010896" class="cls-14" d="M179.72,119.48a12.35,12.35,0,0,1,.11,5.25,12.75,12.75,0,0,1-1.25,3.09l.15,1.64a14.07,14.07,0,0,0,2.1-4.61,13.83,13.83,0,0,0-.5-6.91C180.12,118.43,179.91,118.94,179.72,119.48Zm-19.1-6.55c-.25.23-.49.47-.72.71a12.69,12.69,0,0,0-3.2,7.92,12.53,12.53,0,0,0,.55,4.39c.17-.14.34-.26.51-.38a3.84,3.84,0,0,0,.34-.28,11.37,11.37,0,0,1-.4-3.45,11.79,11.79,0,0,1,2.8-7.45,8.21,8.21,0,0,1,.59-.59c-.16-.31-.32-.61-.47-.87Z"/><path id="_269011640" data-name=" 269011640" class="cls-8" d="M125.76,115.5a12,12,0,0,1,3.79-3.78c-.19.54-.39,1.1-.59,1.64a12.56,12.56,0,0,0-2.22,2.41,12.3,12.3,0,0,0-1.68,9,12.78,12.78,0,0,0,.73,2.08l-.9.41a14.12,14.12,0,0,1-.83-2.37A12.87,12.87,0,0,1,125.76,115.5Zm22.32,5c0,.36.08.72.11,1.08a12.34,12.34,0,0,1-3.58,9.39c0-.47-.05-.94-.06-1.4a11.24,11.24,0,0,0,2.64-7.56C147.48,121.46,147.78,121,148.08,120.48Z"/></g><path class="cls-26" d="M175.94,179.61c-1.25,2.69-5.09,3.48-4.69,4.52s2.9,9.74,2.9,9.74,7.13-6.82,7.59-13.47c-.51-12.17-10.16-15.65-10.24-15.2-4.92,10.8-7.29,10-7,12.28C166.58,185.44,175.94,179.61,175.94,179.61Z"/><path class="cls-26" d="M285,271.8V270s-16.87,4.37-46.86,2.59c0,0-.08,6.33-.43,12l29-.54a10.77,10.77,0,0,1,4.7-2C278.12,280.13,278.55,272.71,285,271.8Z"/><path class="cls-26" d="M318.21,270.29s-7.2,8.5-11.28,8.28-4.95-2.18-6.4-2.39a128.28,128.28,0,0,0-15.78.06c-1.52.61-4.23,4.91-4.23,4.91s4.86-.7,7.85.07c-.66,1.47-14.26,4.16-17.56,6.54,0,0,.47,8.37,1.36,9.44s8,1.72,9.93,3.37c0,0-1.36.79-5.66.32,0,0,2.79,6.56,4.15,7.28s7.35.64,7.35.64a4,4,0,0,1-2.87,2.19s7,6.05,7.62,6.05,15.47-9.19,16.17-9.67a56.12,56.12,0,0,0,5.32-4.68,13,13,0,0,1-1.72,3.92s4.73-1,5.11-1.07,3-5.91,17.63-7C335.2,298.56,337.13,278.79,318.21,270.29Z"/><path class="cls-26" d="M282.74,76.07s6.4-25.8,3.44-37.83S272.42,19,263.5,18.57,216.75,33,212.56,43.18C229.54,47.31,269.31,54.47,282.74,76.07Z"/><path class="cls-1" d="M221.08,280.88c.72-.23.61-2.94.25-3.29s-4.33-.43-4.33-.43-.22,3.36-.16,3.45A16.51,16.51,0,0,0,221.08,280.88Z"/><path class="cls-26" d="M200,266c0,1.23-.43,10.48-.43,10.48l3.71,1.77c-.32-3.87,1.1-10.7,1.1-10.7Z"/><path class="cls-26" d="M218.07,271.62a20.92,20.92,0,0,0-.75,3.19c1.57-.16,4.59.38,5.69,1.21s1.23,5.13-.24,6.29-5.77.35-5.77.35a6.08,6.08,0,0,0,.32,2.72s5.48,1.65,7.63.46,2.76-10.92,1.94-12.21S218.07,271.62,218.07,271.62Z"/><path class="cls-26" d="M144.49,198.6c.92,1.88,1.69,7.23,2.47,7.93s6.64,3,11.45,1.16c2.91-1.13,2.37-3,8.5-8.44,0,0-.07-4.7-1.93-5.38s-6.88,3.41-6.88,3.41-7.9-.55-10.84.23a14.18,14.18,0,0,1,8.49-2.78c2.81,0,4-2.36,7.9-3.44s1.94-7.3,1.94-7.3c-4.88-.29-8.46-2.49-12-2.48-2.52.43-9.42.38-14.15-3.92.76,0,5.34-2.9,7.2-2.9,1.73.16,9.24,3.76,9.7,3.63.78-.24,3.14-3.5,2.15-6.45-6.64-2.13-10.72-8.25-12.12-8.25-2.17.84-13.81,6.79-14.39,7.75s.11,5.81.65,6.27,5.34,3.73,6.27,6.2.93,10,1.83,11.13S143.58,196.72,144.49,198.6Z"/><path class="cls-27" d="M222.23,208.49a66.6,66.6,0,0,1,18.16-31.2,18.44,18.44,0,0,0,.58-3.77s-1-.15-7.45,3c-8.17,4.73-22,29.88-22,29.88C215.46,208.17,222.23,208.49,222.23,208.49Z"/><path class="cls-27" d="M295.82,320.35a9.72,9.72,0,0,1-7.17,0c1.81,3.18,3.64,6.8,5.49,10.77,1.83-.41,3.63-.84,5.4-1.32Z"/><path class="cls-27" d="M208.15,67.69s-33.37-24.83-36.76-24.83c-3.22,0-9.14,4.45-9.14,4.45s5.22-7.71,10.11-7.71c12.14,0,58.68,44.85,72.58,44.85,6.91.76,34.15-7.73,34.15-7.73C266.66,52.93,194.71,47.31,174.4,36.19,143.26,44.33,153,83.92,161.5,94.88c8.6,2.58,42.51-6.61,42.51-6.61C203.69,84.13,208.15,67.69,208.15,67.69Z"/><path class="cls-27" d="M270.74,209.71c7,2.51,16.41,0,16.41,0,10.18-13.62,26.33-38.89,26.33-38.89s-1.12-2.74-5.26-1.67C284.68,180.22,270.74,209.71,270.74,209.71Z"/><path class="cls-27" d="M199.08,238.73c-.07,9.67-2.75,20.85-2.75,20.85,2.18,2,9.4,5.13,9.4,5.13a7,7,0,0,1,2.69-2.42c4.46-1.78,22.3,2,25,2.66S237,269,237,269c32.36-1.19,48.91-3.77,48.91-3.77s8.52-7,8.81-8.52c.37-1.83-1.86-6-1.79-9.46C288.08,249.12,279.7,258,279.7,258c2.58-13,28.23-26.37,28.23-26.37-13.33-6.45-12.83-26.16-12.83-26.16s-4.15,6.63-6,7.38c-11.46,4.3-20.58,1.54-21.92-.93s1.18-8.81,1.18-8.81c-23.86,5.8-40.41,0-40.41,0s-2.05,10.06-8.71,9.53c-11.25-.29-12.68-5.45-12.68-5.45-4.09,4.52-11.12,18.07-10.89,19.78,1.07,6.45,10.49,14.91,10.17,18.27C204.89,244.25,199.08,238.73,199.08,238.73Zm5.81-1.15c.36-5.16,7.09-21.13,9-22.57,0,0,26.94,4.87,50.66,3.73,0,0-5.73,20.92-10.32,23.29s-28.3,10.51-31.89,10.05S204.53,242.74,204.89,237.58Z"/><path class="cls-27" d="M210.84,326.51s9.56.64,11.07,0a7.65,7.65,0,0,1-3.12-3.23c-.75-1.93-8.49-30.41-8.49-30.41s-7.69-1.88-7.1-11a21.74,21.74,0,0,1-3.65-1s-2.71,5.75-2.63,7.28,11.48,27.1,11.48,27.1l-7.67-11.47s1,13.61,1.33,28.87A99.58,99.58,0,0,0,234,339.15l-2.41-5.87S212.13,328.44,210.84,326.51Z"/><path class="cls-27" d="M232.55,328.23A124.9,124.9,0,0,1,226.64,296s-9.89-.43-12.15-1.72c0,0,6.77,26.77,7.85,27.63S232.55,328.23,232.55,328.23Z"/><path class="cls-27" d="M288.46,332.3l3.49-.71c-4-8.54-7.63-15-10.25-17.26,0,0-24-11.75-25.94-14.26s-2-6.95-2-6.95,2.79,4.73,3.58,5.37S275,308,275,308s-3-5.59-3.23-7.45c0,0-5.16,1.5-6.16-12.11,0,0-17.63.93-28.66,0,0,0,.25,5.77-2.92,6.95a10.71,10.71,0,0,1-5.21.8s3,22.85,6.77,33.92l11.29,9.18a289.75,289.75,0,0,0,32.22-3.18C282.2,336.06,285.33,332.3,288.46,332.3Z"/><path class="cls-27" d="M246.61,339.25l-11.8-5.43s1,2.11,2.65,5.46C240.5,339.36,243.55,339.34,246.61,339.25Z"/><path class="cls-27" d="M258.34,225.33l1.29-3.65s-34.75.21-44.57-4.37c0,0-1.29,2.94-1.72,4.37C213.34,221.68,238.21,228.27,258.34,225.33Z"/><path class="cls-27" d="M221.73,247.69s21.57-4.52,31-9.75a53.49,53.49,0,0,0,5.15-10.24s-23.7,2.23-45.28-4.38c0,0-4.16,11.18-3.8,13.62S215.42,246,221.73,247.69Z"/><path class="cls-1" d="M268.09,125.59c2.44-3.27,2.08-6.74,4.37-10.11-6.81,2-17.13,14-25.72,18.06,0,0-.65,1.58,1.64,1.54S264.72,130.39,268.09,125.59Z"/><path class="cls-1" d="M247.63,140.92s11.07-2,16.91-10.43c0,0-7.59,5.95-17.23,6.67Z"/><path class="cls-1" d="M261,186.56c25.26-13.54,35.65-15.33,35.65-15.33.93-1.29,6.16-4.23,6.16-4.23a4.66,4.66,0,0,0-3.87-1.18c-11.71,2.9-41.49,18.49-46.11,16.12s-2-13.11-2-13.11-5.75,2.9-6.5,4.19C241.86,176.46,239.75,195.27,261,186.56Z"/><path class="cls-1" d="M210.69,198.75s8.82-14.62,11.68-17.49c0,0-5.89,2.72-5.23,2.44-1,3.19-8.1,13.25-27.8,21.21,0,0,6.23,6.21,7.09,8.85C196.43,213.76,207.16,198,210.69,198.75Z"/><path class="cls-1" d="M319.56,243.85s24.2-9.85,31.29-18.09l-2.43-4.91S334,232.46,317.14,239Z"/><path class="cls-1" d="M285,78.44s4.38,2,5.25,2.52c0,0,6.57-9.08,12.54-10,2-.11,4.84,3.54,4.84,3.54s4.56-17.57,2.84-21.66-12.57-24.93-31.38-30.2C279.09,22.65,299.62,32.86,285,78.44Z"/><path class="cls-1" d="M277.53,13.49a32.75,32.75,0,0,0-14-2.5v3a39.77,39.77,0,0,1,12.69,2Z"/><path class="cls-1" d="M252.33,191.8a12,12,0,0,1-12.11-9.89c-3.19,3.83-10.68,17.66-10.68,17.66,16.77,4.84,41.2,0,41.2,0,5.95-9.35,18.34-23,18.34-23C270.1,183.77,260.35,191.8,252.33,191.8Z"/><path class="cls-1" d="M305.71,224s-.22-4.59.29-5.45a170.16,170.16,0,0,1,12.82-23.21s-8.45,21.85-8.6,26.3,2.37,3.29,6.09,15.19c.15,1.14,27.88-14,30.82-18.28,0,0-10.54-19.41-16.77-28.73-3.44-5.39-2.37-8.53-2.37-8.53s-9-5.26-12.25-6.52c0,0-9,14.69-15.76,23.08C300,197.89,296.75,212.72,305.71,224Z"/><path class="cls-1" d="M232.33,292.33c1.51-.79,2.48-20.43,1.62-22.61s-23.13-5.81-24.19-4.41c-1.79,1.94-3.65,19.21-2,21.5S230.83,293.12,232.33,292.33Zm-5.73-4.16c-4.48,1.19-12.54.22-16.09-3.76a6.61,6.61,0,0,0,3.73.25,23,23,0,0,1,1.29-13.4s-2.79-1.72-3.33-1.9c0,0,12.61-.64,16.69,2.58C230.86,273.91,231.08,287,226.6,288.17Z"/><path class="cls-3" d="M194.5,217.23,189.63,211s-7,3.87-9.46,4.3L187,241l7.53-3.44a14.08,14.08,0,0,1,.36-3.36s-3.87-5.31-3.87-7S193.57,218.24,194.5,217.23Z"/><ellipse class="cls-1" cx="257.73" cy="92.96" rx="0.99" ry="2.24"/><path class="cls-1" d="M251.9,109.3a16.74,16.74,0,0,1,7.84-2.27c2.95-1.93,4.55-9.12,3.64-17.45-.14-1.29-.34-2.53-.58-3.72a70.15,70.15,0,0,1-12.93,2.65,23,23,0,0,0-2.22,13.41l0,0C248.38,104.65,249.67,107.6,251.9,109.3Zm6.51-20.76c2.12,0,3.83,3.32,3.83,7.42s-1.71,7.41-3.83,7.41-3.83-3.32-3.83-7.41S256.3,88.54,258.41,88.54Z"/><path class="cls-1" d="M234.22,113.6c0-.9-.06-1.87-.16-2.93a2.07,2.07,0,0,1-.24.17c-1.79.94-4.78-1.19-6.68-4.77s-2-7.26-.19-8.21a2.65,2.65,0,0,1,2.36.14A24.59,24.59,0,0,0,221,91.33c-2,2-.88,7.88,2.77,13.69C227.11,110.37,231.48,113.85,234.22,113.6Z"/><ellipse class="cls-1" cx="229.15" cy="102" rx="1.27" ry="2.1" transform="translate(-21.67 99.98) rotate(-23.53)"/><path class="cls-28" d="M201.31,51.81c5.3,5.33,36.61,28,46.82,28.67,8.74.55,25.18-4.33,29.75-5.75-2.61-3.78-6.79-7.09-12-10C231.19,72.73,201.31,51.81,201.31,51.81Z"/><path class="cls-28" d="M212.45,204.73l-1,1.72c4,1.72,10.75,2,10.75,2a66.57,66.57,0,0,1,18.17-31.2,19,19,0,0,0,.57-3.77,4.17,4.17,0,0,0-1.42.36c-4.06,5.88-15.78,23-20.22,31.17C219.33,205.05,215,204.73,212.45,204.73Z"/><path class="cls-28" d="M208.83,236.94c.36,2.44,6.59,9.1,12.9,10.75,0,0,21.57-4.52,31-9.75a53.21,53.21,0,0,0,5.16-10.24s-1.94.18-5.19.28c-1.51,3-3.08,5.84-3.77,6.24-1.51.86-17.06,6.14-27.7,4.8-5.6-1.29-9.83-5.65-9.94-6.51-.07-.53.3-4.34.59-7.18C210.73,228.66,208.57,235.15,208.83,236.94Z"/><path class="cls-28" d="M291.31,220.53c2.5.65,4.51,5.88,3,9.46s-8.32,1.93-31.1,34.25c-7,9.75.43-15.1,3.72-18.13-6.39,2.53-9.6,16.34-22,18.88a48.56,48.56,0,0,0,10.54-14.58c-3.12-.2-22.12,25.73-44.43,1.67,0,0,2.69,6.72,5.36,10a158.66,158.66,0,0,1,17,2.88C236,265.57,237,269,237,269c32.35-1.19,48.9-3.77,48.9-3.77s8.52-7,8.81-8.52c.37-1.82-1.86-6-1.79-9.46a14.1,14.1,0,0,0-2.66,1.46c1.47,1.78,5,8.15-13.32,13.66,0,0,1.31-2.54,3-5.07,3.33-12.82,28.07-25.67,28.07-25.67-13.33-6.45-12.83-26.16-12.83-26.16s-4.15,6.63-6,7.38c-.86.32-1.69.6-2.51.84-2.18,3.62-7.93,13.31-9.32,17C277.26,230.71,288.8,219.89,291.31,220.53Z"/><path class="cls-28" d="M206.54,207.2c-4.09,4.52-11.12,18.07-10.89,19.78.93,5.59,8.13,12.69,9.82,16.67a18.28,18.28,0,0,0,6.17,2.57c-3.75-2.85-6.92-6.17-6.75-8.64a23.49,23.49,0,0,1,1-4.68c-1.46-2.72-4.61-9.16-4.61-10.54,0-1.66,4.58-11,6.66-13.11A5,5,0,0,1,206.54,207.2Z"/><path class="cls-28" d="M287.15,209.71c10.18-13.61,26.33-38.89,26.33-38.89a3,3,0,0,0-.86-1.07c-7.54,7.7-26,33.92-27.19,34.55-3.59,1.95-9.91,2.35-13,2.11-1.13,2.06-1.72,3.3-1.72,3.3C277.76,212.22,287.15,209.71,287.15,209.71Z"/><path class="cls-28" d="M259.63,221.68s-1.45,0-3.86,0c-.43.93-1.15,2.48-2,4.17,1.54-.12,3.06-.28,4.56-.5Z"/><path class="cls-28" d="M199.09,238.73a109.7,109.7,0,0,1-2.76,20.85c2.18,2,9.4,5.13,9.4,5.13a7,7,0,0,1,2.69-2.42,7.35,7.35,0,0,1,1.86-.39,40.31,40.31,0,0,1-7.56-19.69C200.94,240.49,199.09,238.73,199.09,238.73Z"/><path class="cls-28" d="M257.34,298.49c.79.65,17.63,9.46,17.63,9.46s-3-5.59-3.23-7.45c0,0-5.15,1.5-6.16-12.11l-1.31.06c-.11,2.22-1.45,6.36-10,5.49h0A33.59,33.59,0,0,0,257.34,298.49Z"/><path class="cls-28" d="M253.68,324a4.79,4.79,0,0,0,.57.46Z"/><path class="cls-28" d="M232.55,328.23a120.23,120.23,0,0,1-3.87-15.11c-.91,0-2.76-.05-3.08-.58s-3.11-13.31-3.88-16.9c-2.84-.27-6.06-.71-7.23-1.38,0,0,6.77,26.77,7.85,27.63S232.55,328.23,232.55,328.23Z"/><path class="cls-28" d="M205.89,325.15a34.65,34.65,0,0,1,5.21,1.62,1.06,1.06,0,0,1-.26-.26s9.56.64,11.07,0a7.67,7.67,0,0,1-3.12-3.22c-.22-.58-1.07-3.52-2.14-7.36-15.26-21.07-16.45-31.63-16.37-34.8l-.73-.25s-2.71,5.75-2.63,7.28,11.48,27.1,11.48,27.1l-7.67-11.47s1,13.61,1.34,28.87a85.38,85.38,0,0,0,11.44,3.63C209.6,333.11,206.36,329.29,205.89,325.15Z"/><path class="cls-28" d="M214.53,328.35a20.12,20.12,0,0,1,5.25,3.89,56.37,56.37,0,0,1,4.83,6.09q4.65.59,9.38.82l-2.41-5.87S220.52,330.53,214.53,328.35Z"/><path class="cls-28" d="M163.87,84.89s-.11-11.13.91-13.06,37.35-9.47,41.77,2.11c.86-3.52,1.6-6.25,1.6-6.25s-33.37-24.83-36.76-24.83c-3.22,0-9.14,4.45-9.14,4.45s.38-.56,1-1.37C157.87,52.37,153.13,65.13,163.87,84.89Z"/><path class="cls-28" d="M204,88.27a20.73,20.73,0,0,1,.38-4.2c-5.69.43-13.93,3.38-33.86,5.11-5.79.2-6.67,3.31-9.29,5.36l.26.34C170.1,97.46,204,88.27,204,88.27Z"/><path class="cls-28" d="M292,331.59c-4-8.54-7.63-15-10.25-17.26l-1.29-.64c3.47,5.66,6.25,13.1,8,18.61h0Z"/><path class="cls-28" d="M238.42,322c-1.72-2.58-3.43-14.84-3.43-14.84,4,4.69,16,14.62,18.69,16.88-4.35-4.21-14.56-26.31-14.14-30.37.29-2.86,4.71-4.27,7.56-4.88-3.56,0-7.12-.14-10.18-.4,0,0,.25,5.77-2.92,6.95a10.81,10.81,0,0,1-5.21.81s3,22.84,6.77,33.91l11.29,9.18c3.66-.11,7.32-.34,11-.65C247.71,330.85,239.36,323.41,238.42,322Z"/><path class="cls-28" d="M246.61,339.25l-8.49-3.91c.34.88,1,2.26,1.83,4C242.17,339.34,244.38,339.32,246.61,339.25Z"/><path class="cls-28" d="M281.4,335.48c-7.66-3.88-16.75-8.68-16.75-8.68a75,75,0,0,0,11.23,9.71l3.19-.45A5.92,5.92,0,0,0,281.4,335.48Z"/><path class="cls-28" d="M295.82,320.35a9.08,9.08,0,0,1-4.31.66c.77,1.75,2.26,5.14,4.23,9.74,1.29-.3,2.55-.61,3.8-.95Z"/><path class="cls-28" d="M264.6,207.18s-28.46,2.37-37.76-.65a16.94,16.94,0,0,1-1,1.91C229.26,210.06,244.09,216,264.6,207.18Z"/><path class="cls-29" d="M176.17,173.83c-4-.2-3,4.37-9.87,6.76,3.4,2.9,9.64-1,9.64-1-1.25,2.69-5.09,3.48-4.69,4.52s2.9,9.74,2.9,9.74,4.68-4.48,6.7-9.72C180.49,180.79,179.37,174,176.17,173.83Z"/><path class="cls-29" d="M258,279.5c-1.6,1.18-15.28.95-20.07.84,0,1.4-.12,2.88-.21,4.32l29-.53a10.71,10.71,0,0,1,4.7-2c5.57-1.67,6.83-7,10.75-9.35-6.3.84-20.25,1.9-21.07,2.19C260.06,275.35,259.92,278.07,258,279.5Z"/><path class="cls-29" d="M203.26,278.25a31.87,31.87,0,0,1,.37-6.34c-.92-.27-2.53-.74-3.85-1.07-.11,2.76-.23,5.64-.23,5.64Z"/><path class="cls-29" d="M223.77,277.83c.24,1.6,0,3.72-1,4.48-1.48,1.15-5.77.35-5.77.35a6.08,6.08,0,0,0,.32,2.72s5.48,1.65,7.63.46c1.35-.73,2.09-4.81,2.25-8.08C226.21,277.75,224.74,277.75,223.77,277.83Z"/><path class="cls-29" d="M282.74,76.07s6.4-25.8,3.44-37.83c-2.9-11.82-13.35-19-22.17-19.64-1.08,1.19-.51,1.94-.51,1.94,19.1,9.93,7.78,36.13,5,41.87C274.39,66.18,279.39,70.67,282.74,76.07Z"/><path class="cls-29" d="M138.93,183.84c.93,2.47.93,10,1.83,11.13s2.82,1.75,3.73,3.63,1.69,7.23,2.47,7.93,6.64,3,11.45,1.15a5.28,5.28,0,0,0,1-.5,11.24,11.24,0,0,1-2.68-6.6,14.53,14.53,0,0,1-9.48-3.07,14.18,14.18,0,0,1,8.49-2.78,4.93,4.93,0,0,0,2.47-.68c-4.41-2.54-5.95-5.85-6.38-8.54-2.23.28-7,.71-8.51-.59a5.55,5.55,0,0,1-2.07-3.66s5,.94,7.43.27a16.75,16.75,0,0,1-9.22-3.94c.76,0,5.34-2.9,7.2-2.9a5.7,5.7,0,0,1,1.07.26,25.19,25.19,0,0,1-1.7-4.6c-1.08-1.13-2.34-2.26-3.06-2.24-1.31,0-7.54,4.76-11.12,6.06a9,9,0,0,0,.8,3.47C133.2,178.11,138,181.37,138.93,183.84Z"/><path class="cls-29" d="M330.82,284.36a30.32,30.32,0,0,1-9.92,5.12,18.08,18.08,0,0,0-6.61-7.36s6.82,11.34,1.34,19.45c0,0,.8-12.83-5.8-18.38,0,0,2.08,11.07-.63,16.55-3.4,6.67-16.57,12.9-16.57,12.9a29,29,0,0,1-3.44-3.17s4.84-1.77,7-4.08c0,0-6.94,3.06-9.73,1.56s-4.08-6.67-4.08-6.67,5.75-1.61,7.25-2.9c0,0-14.19-2.2-15.64-4.46-.71-1.11-.48-3.11-.07-4.85q-1.44.18-3.06.27c.12,1.91.57,8,1.32,8.86.9,1.08,8,1.72,9.93,3.37,0,0-1.36.79-5.66.32,0,0,2.79,6.56,4.15,7.27s7.35.65,7.35.65a4,4,0,0,1-2.87,2.18s7,6.06,7.61,6.06,15.48-9.19,16.18-9.67a56.12,56.12,0,0,0,5.32-4.68,13,13,0,0,1-1.72,3.92s4.73-1,5.11-1.07,3-5.91,17.62-7a29.74,29.74,0,0,0-.84-8.94c.16.65.29,1.29.4,1.9A66.72,66.72,0,0,0,330.82,284.36Z"/><path class="cls-30" d="M268.09,125.59c2.44-3.26,2.08-6.74,4.37-10.11-2.26.67-4.92,2.44-7.77,4.67.23,1.95.65,5.77.69,8A11.15,11.15,0,0,0,268.09,125.59Z"/><path class="cls-30" d="M229.54,199.57c16.77,4.84,41.2,0,41.2,0,5.95-9.35,18.35-23,18.35-23-2.1.79-4.07,1.6-5.95,2.4-4.57,4.65-18.41,17.47-33.07,18.54-8.65.39-8.22-7.08-7.6-10.44a12.93,12.93,0,0,1-2.25-5.16C237,185.74,229.54,199.57,229.54,199.57Z"/><path class="cls-30" d="M231.76,278c-.86,1.32-1,10.78-1.53,11.21s-4.7.05-6.46-.6c-4.5.28-10.37-1-13.26-4.2a6.61,6.61,0,0,0,3.73.25,23,23,0,0,1,1.29-13.4s-2-1.25-3-1.73c-.5.44-2,2.31-1.63,8.45a15.53,15.53,0,0,0-3.62-.38c-.33,4.25-.29,8.2.44,9.21,1.64,2.3,23.07,6.31,24.57,5.52,1-.5,1.71-8.7,1.89-15.12A2.51,2.51,0,0,0,231.76,278Z"/><path class="cls-30" d="M285,78.44s4.38,2,5.25,2.52c0,0,6.57-9.08,12.54-10,2-.11,4.84,3.54,4.84,3.54s4.56-17.57,2.84-21.66c0-.08-.08-.18-.12-.29-4.41-.86-15.84-3.86-17.83-12.07-1.58-6.55-5.73-12.57-8.51-16a34.69,34.69,0,0,0-4.92-1.8S299.62,32.86,285,78.44Z"/><path class="cls-30" d="M300,197.89s-3.23,14.83,5.73,26.15c0,0-.22-4.58.29-5.44a169.3,169.3,0,0,1,12.82-23.22s-8.45,21.85-8.6,26.3,2.37,3.29,6.09,15.19c.15,1.14,27.88-14,30.82-18.27l-.07-.13c-2.13,1.32-13.31,8-20.19,7.17-2.1-.24-8.91-19.77-8.91-19.77A115,115,0,0,1,325.2,188a131,131,0,0,0-19.42,20.28s2.34-21.48,13.11-32c-1.24-.63-2.36-1.17-3.15-1.47C315.74,174.81,306.78,189.5,300,197.89Z"/><path class="cls-30" d="M210.69,198.75s.74-1.23,1.86-3c-4.1,3.11-12.81,9.33-20.28,12.3,1.74,2,3.71,4.35,4.16,5.75C196.43,213.76,207.16,198,210.69,198.75Z"/><path class="cls-30" d="M350.85,225.76l-1.22-2.46a87.73,87.73,0,0,1-31.74,17.21l1.67,3.34S343.76,234,350.85,225.76Z"/><path class="cls-31" d="M269.92,85.64c4.76.86,4.33,13.65,5.12,14.72.45.62,1.87.93,3,1.08a1.27,1.27,0,0,1-.28-.4c-.5-1.32.09-14-.55-16.15a14.93,14.93,0,0,0-2.74-3.12s-2.38,1-5.94,2.25C268.78,84.67,269.24,85.52,269.92,85.64Z"/><path class="cls-31" d="M300.05,89.65c.32,1.29-1.9,6.23-1.9,6.23s.25-3.65.14-4-1.61-.9-1.61-.9a25.2,25.2,0,0,0-2.58,6.34,8.66,8.66,0,0,1,1.39,3.08c2.27-2.6,8.09-12.93,8.19-13.91s-1.62-2.9-2.11-3.45a43.58,43.58,0,0,1-2.92,4.57A3.72,3.72,0,0,1,300.05,89.65Z"/><path class="cls-31" d="M259.15,156.58s24.45-19.89,32-31.93c0,0-4.52,18.38-26.66,33.22,0,0,.22,10.32-5.59,14.72-1.08.73,1.18-6.88,1.18-6.88s-5.21,3.39-5.48,4.89S255,178,255,178s18.71-7.36,38.37-14.3c0,0-3.33-4.46-3.27-6.45S296,128.31,297.18,117c0,0-4.76,1.16-6.75-4.64,0,0,4.14,1.39,5,1.13a18.69,18.69,0,0,0,4.43-3.6c-3.71,4-9.09.8-11.15-3,0,0,.48,10.1-2.31,14.88-2.68,4.58-19.52,27.11-31.61,34.8C256.22,156.62,257.7,156.62,259.15,156.58Zm29.08,4.08c-6.57,3.6-20.43,8.56-20.43,8.24,2.58-4.33,22.36-36.83,22.36-36.83C286,151.74,288.23,160.66,288.23,160.66Z"/><path class="cls-31" d="M246.84,126.54a3.12,3.12,0,0,1-.4,1.13h0c2.63-2.23,1.25-5.86,1.25-5.86-3.65,3.06-10.8,4.09-10.69.33a29.31,29.31,0,0,0-.83-6.56c0,4.14-.91,7.77-3,10.27C233.19,125.84,239.75,130.57,246.84,126.54Z"/><path class="cls-31" d="M194.86,234.14a14.2,14.2,0,0,0-.36,3.37L187,241,185.4,235l5.39-3.54c1.13-6.34-3.28-17-3.28-17l-6.62,3.4h0l-.7-2.62h0c2.47-.46,9.43-4.29,9.43-4.29l4.87,6.23c-.93,1-3.51,8.32-3.51,10S194.86,234.14,194.86,234.14Z"/><polygon class="cls-31" points="185.4 235.03 164.78 242.32 157.38 212.45 161.13 210.27 163.29 207.66 171.49 200.01 176.28 216.43 180.17 215.3 180.87 217.92 180.89 217.91 185.4 235.03"/><path class="cls-31" d="M166.28,248.37l-10.8,4.08c-1.15-1.79-12.48-14.41-13-20.74-.59-7,1.39-21.71,1.39-21.71a11.52,11.52,0,0,0,4.67,1.87c-.36,4.15-1.18,14.25-1.12,20.12,0,2.58,4.73,8.61,4.73,8.61s.14-9.61.65-13c0,0,3.87,13.61,5.23,14.54s5.11.74,6.75.15Z"/><path class="cls-31" d="M354.54,273.3s-5.69,5.06-7.47,5.81c.17-2.23,12.15-13,12.15-15,.23-2-6.83-23.71-12.09-28.81a82.34,82.34,0,0,1-18.6,10.53s4.84,9.89,6.08,13.17c0,0,7,1.13,8.27,1.67,0,0-.93.1-2.41.41a77,77,0,0,1,10.9,1.74s-10,9.08-18.51,12.46a36.11,36.11,0,0,1,6.74,15.53S352.29,280.29,354.54,273.3Zm-20-27a52.46,52.46,0,0,0,10.1-6.13A33.36,33.36,0,0,1,352.29,257,18.8,18.8,0,0,1,334.55,246.33Z"/><path class="cls-31" d="M263.4,140.45s-6.56,6.24-21.28,7.31C242.12,147.76,249,155.18,263.4,140.45Z"/><path class="cls-31" d="M243,96c1.82,3.17,3.62,17.44,3.62,17.44a24.08,24.08,0,0,1,5.25-4.1c-2.23-1.7-3.52-4.65-4.28-7.42l0,0h0s-2.63-4.07-1.21-13.29C235.76,88.19,220.39,77.32,213,71l.72.6c-.38,2.25-1.32,6.36-1.94,9,7.18.42,13.71,6.48,18.21,14.21C233,86.32,239.77,90,243,96Z"/><path class="cls-3" d="M230.07,33.57c1.79,3.13,8.78,3.12,15.91-.11,7.32-3.31,12-8.75,10.48-12.15l0-.06c3.23-1.28,5.77-2.22,7-2.68-9-.4-46.73,14.41-50.91,24.61,2.2.54,4.79,1.12,7.65,1.79A23.53,23.53,0,0,1,223,39.31C224.25,37.53,226.81,35.56,230.07,33.57Z"/><path class="cls-3" d="M238.14,272.62s0,.6,0,1.6c3.69.44,12,1,18.39-1.22C251.09,273.11,245,273,238.14,272.62Z"/><path class="cls-3" d="M204.36,267.55,200,266c0,.28,0,1-.08,1.95a32.35,32.35,0,0,0,4.2,1C204.25,268.09,204.36,267.55,204.36,267.55Z"/><path class="cls-3" d="M153.62,181.51a13.8,13.8,0,0,1-1.75.17c-.42,2.32-.68,8.31,6.35,12.37a13.84,13.84,0,0,0,1.29-.78c-1.28-1.24-4-4.25-4.42-7.85,0,0,5.65,1.83,10.84.09a10.94,10.94,0,0,0-.34-1.52C160.71,183.7,157.13,181.5,153.62,181.51Z"/><path class="cls-3" d="M171.5,165.2c-4.92,10.8-7.28,10-7,12.28a3.18,3.18,0,0,0,.1.33,28.84,28.84,0,0,0,8.63-9.36,27.74,27.74,0,0,1,7.49,6.41C178.19,167.15,171.56,164.82,171.5,165.2Z"/><path class="cls-3" d="M147.74,175c.46.15,1,.34,1.58.57a26.57,26.57,0,0,1-1-7.07s5.4,5,10.39,5.58a5,5,0,0,0-.2-2.16c-6.6-2.11-10.67-8.17-12.09-8.25C145.66,164.79,144.49,168,147.74,175Z"/><path class="cls-3" d="M161.24,205.37a31.2,31.2,0,0,1-1.85-4.69c0-.69,4.33-4.46,6.8-5.41a2.38,2.38,0,0,0-1.21-1.4c-1.87-.68-6.88,3.41-6.88,3.41s-.48,0-1.25-.07c-.28,1.78-.59,6.38,2.57,10A7.25,7.25,0,0,0,161.24,205.37Z"/><path class="cls-3" d="M318.21,270.3s-7.2,8.49-11.28,8.27-4.95-2.17-6.4-2.39a130.3,130.3,0,0,0-15.78.06,3.72,3.72,0,0,0-1.09.82c2.23,0,9,0,12.73.81,4.57,1,11.47,12.6,11.47,12.6.21-2.62-1.68-9.82-1.68-9.82s5.66-.32,6.8-.32,6.38,3.26,6.38,3.26a21.14,21.14,0,0,0-5.62-5.16,21,21,0,0,0,5.66-5.05c7.33,2.92,12.83,12.8,15.35,18.14A27.78,27.78,0,0,0,318.21,270.3Z"/><path class="cls-3" d="M288.37,281.22c-.66,1.47-14.26,4.16-17.56,6.54,0,0,0,.22,0,.58C284.79,287.64,288.37,281.22,288.37,281.22Z"/><path class="cls-4" d="M295.49,100.43a8.66,8.66,0,0,0-1.39-3.08A25,25,0,0,1,296.68,91s1.51.57,1.61.9-.14,4-.14,4,2.22-4.94,1.9-6.23a3.72,3.72,0,0,0-1.4-2,44.79,44.79,0,0,0,2.93-4.57l.13.16.15-1.19S289.09,93.7,289.52,97.92c.64,2.51,3.33,1,2.79,9,0,0,3.25-1.21,3.37-6.72Z"/><path class="cls-4" d="M258.41,88.54c-2.11,0-3.83,3.32-3.83,7.42s1.72,7.41,3.83,7.41,3.83-3.32,3.83-7.41S260.53,88.54,258.41,88.54Zm-.68,6.66c-.55,0-1-1-1-2.24s.44-2.23,1-2.23,1,1,1,2.23S258.28,95.2,257.73,95.2Z"/><path class="cls-4" d="M213.92,215c-1.94,1.44-8.67,17.41-9,22.57s13.9,14,17.48,14.5,27.3-7.69,31.89-10.05,10.32-23.29,10.32-23.29C240.86,219.88,213.92,215,213.92,215Zm38.84,22.93c-9.46,5.23-31,9.75-31,9.75-6.31-1.65-12.54-8.31-12.9-10.75s3.8-13.62,3.8-13.62c21.58,6.61,45.29,4.38,45.29,4.38A53.21,53.21,0,0,1,252.76,237.94Zm-39.41-16.26c.43-1.43,1.71-4.37,1.71-4.37,9.82,4.58,44.57,4.37,44.57,4.37l-1.28,3.65C238.21,228.27,213.35,221.68,213.35,221.68Z"/><path class="cls-4" d="M228.89,271.94c-4.08-3.22-16.69-2.58-16.69-2.58.54.18,3.33,1.9,3.33,1.9a23,23,0,0,0-1.29,13.4,6.61,6.61,0,0,1-3.73-.25c3.55,4,11.61,4.95,16.09,3.76S230.87,273.91,228.89,271.94ZM217,277.16s4,.07,4.33.43.47,3.06-.25,3.29a16.51,16.51,0,0,1-4.24-.27C216.78,280.52,217,277.16,217,277.16Zm7.95,8.68c-2.15,1.19-7.63-.46-7.63-.46a6.08,6.08,0,0,1-.32-2.72s4.29.8,5.77-.35,1.34-5.46.24-6.29-4.12-1.37-5.69-1.21a20.92,20.92,0,0,1,.75-3.19s8,.72,8.82,2S227.1,284.66,225,285.84Z"/><path class="cls-4" d="M246.85,339.24h-.24l.57.26Z"/><path class="cls-31" d="M222.71,119.35s1.7,9.45-1.12,17.56c0,0-.81,3.1,12.63,6.63,0,0-8.44-2.22-8.95-8.46A155.15,155.15,0,0,0,222.71,119.35Z"/><polygon class="cls-31" points="185.4 235.02 164.78 242.32 166.28 248.37 186.98 240.95 185.4 235.02"/><polygon class="cls-32" points="180.89 217.91 180.87 217.92 180.17 215.3 180.2 215.29 180.2 215.29 180.89 217.91"/><polygon class="cls-3" points="180.83 217.94 175.88 219.82 170.59 200.82 162.68 208.38 161.31 210.01 157.34 212.47 161.4 228.84 164.74 242.33 185.36 235.04 180.83 217.94"/><path class="cls-33" d="M69.94,360.69s23.68-48,14.9-47c-5.32.63-27.68,23.76-27.68,42.12,0,19.16,18.1,41.24,18.1,62.27,0,11.7-6.39,26-31.13,28.95C17,450.24,9,436.81,9,436.81l13.57-25.29s8.25,10.47,20,9.09c22.62-2.67-4.79-31.9-4.79-60.37,0-18.9,22.35-57.2,51.36-60.62,32.46-3.83,3.19,58.43,3.19,58.43Z"/><path class="cls-34" d="M258.33,326.21s-28.47,72.29-34.06,73c-11.71,1.38,24.22-71.79,24.22-71.79l-23.42,2.77s-7.69,18.58-14.56,38.44c-5.16,9.8-18.75,34.41-25.36,35.19-11.7,1.39,24.49-71.81,24.49-71.81l-32.73,3.87c1.59-5.25,2.39-9.34,2.39-11.73l-16.76,2c-3.4,15.89-11,37.4-18.89,54.82-6,11.23-17.59,29.58-30.08,31.05-6.38.76-8.77-4.54-8-11.82a7.09,7.09,0,0,0,5.06,1.26C137,398.28,153,338.65,129,341.48c-38.85,4.58-70.25,103.82-23.15,98.26a17.72,17.72,0,0,0,5.9-1.86c22.46-7.91,48.21-53.33,60.63-86.35l7.71-.91c-6.92,18.38-17.83,47.6-19.16,61.6-.79,9.94,1.86,20.8,10.91,19.73,9.56-1.13,20.35-15.65,29.21-31a62.46,62.46,0,0,0-1,6.65c-.8,9.94,8.25,20,17.56,18.95,20.49-2.42,61.47-102.79,61.47-102.79ZM126.08,358.32c2.93-.34-4.52,26.08-13.3,27.12a10,10,0,0,1-3.73-.36C113.57,372,120.76,359,126.08,358.32Z"/><path class="cls-33" d="M303.84,291.84a13.07,13.07,0,0,0-11.45,12.52c0,6.13,5.06,10.58,11.45,9.83A13,13,0,0,0,315,301.69,9.78,9.78,0,0,0,303.84,291.84Z"/><path class="cls-34" d="M460,342.32s18.89-42.15-6.92-39.1c-24.61,2.9-33.58,29.09-34.51,41.19-4.92,10-18,33.67-32.28,35.35-6.39.75-8.79-4.55-8-11.83a7,7,0,0,0,5,1.26c26.34-3.11,42.31-62.73,18.36-59.91-19.76,2.33-37.59,29.15-44.15,54.22-6.2,10.21-15.1,21.44-24.77,22.58-19.16,2.26.27-52.2,11.17-53.48,4.8-.57-4,21-7.17,25.06l16-1.89c5.05-5.65,16-42.59-5.85-40-19.47,2.3-36.53,27.64-43.28,52-6.28,10.84-14.67,23.72-19.26,24.27-11.71,1.38,24.22-71.78,24.22-71.78L285.21,323s-23.15,56-25,77.46c-.8,10.21,2.66,20.71,12.77,19.52,9.23-1.09,19.33-15,27.64-29.92.45,15,7.26,25.8,23.18,23.92,11.34-1.34,22.37-14.46,31.23-28.87.77,14.27,7.73,24.27,23.59,22.4s32.49-30.79,42-50.43c4.93,12.94,16.15,20.94,6.16,22.12-7.71.92-10.37-7.55-10.37-7.55s-9.58,17.89-14.64,23.54c0,0,5.32,9,24.75,6.66,18.89-2.23,26.61-19.9,26.61-30,0-14.1-14.37-24.64-14.37-35,0-10.11,5.85-20.38,9.58-20.83,5.85-.69-2.66,21.08-2.66,21.08Zm-61.21-16.19c2.93-.35-4.52,26.08-13.3,27.11a9.77,9.77,0,0,1-3.73-.36C386.33,339.84,393.51,326.75,398.83,326.13Z"/><path class="cls-35" d="M69.94,362.69s23.68-48,14.9-47c-5.32.63-27.68,23.76-27.68,42.12,0,19.16,18.1,41.24,18.1,62.27,0,11.7-6.39,26-31.13,28.95C17,452.24,9,438.81,9,438.81l13.57-25.29s8.25,10.47,20,9.09c22.62-2.67-4.79-31.9-4.79-60.37,0-18.9,22.35-57.2,51.36-60.62,32.46-3.83,3.19,58.43,3.19,58.43Z"/><path class="cls-35" d="M258.33,328.21s-28.47,72.29-34.06,73c-11.71,1.38,24.22-71.79,24.22-71.79l-23.42,2.77s-7.69,18.58-14.56,38.44c-5.16,9.8-18.75,34.41-25.36,35.19-11.7,1.39,24.49-71.81,24.49-71.81l-32.73,3.87c1.59-5.25,2.39-9.34,2.39-11.73l-16.76,2c-3.4,15.89-11,37.4-18.89,54.82-6,11.23-17.59,29.58-30.08,31.05-6.38.76-8.77-4.54-8-11.82a7.09,7.09,0,0,0,5.06,1.26C137,400.28,153,340.65,129,343.48c-38.85,4.58-70.25,103.82-23.15,98.26a17.72,17.72,0,0,0,5.9-1.86c22.46-7.91,48.21-53.33,60.63-86.35l7.71-.91c-6.92,18.38-17.83,47.6-19.16,61.6-.79,9.94,1.86,20.8,10.91,19.73,9.56-1.13,20.35-15.65,29.21-31a62.46,62.46,0,0,0-1,6.65c-.8,9.94,8.25,20,17.56,18.95,20.49-2.42,61.47-102.79,61.47-102.79ZM126.08,360.32c2.93-.34-4.52,26.08-13.3,27.12a10,10,0,0,1-3.73-.36C113.57,374,120.76,361,126.08,360.32Z"/><path class="cls-35" d="M303.84,293.84a13.07,13.07,0,0,0-11.45,12.52c0,6.13,5.06,10.58,11.45,9.83A13,13,0,0,0,315,303.69,9.78,9.78,0,0,0,303.84,293.84Z"/><path class="cls-35" d="M460,344.32s18.89-42.15-6.92-39.1c-24.61,2.9-33.58,29.09-34.51,41.19-4.92,10-18,33.67-32.28,35.35-6.39.75-8.79-4.55-8-11.83a7,7,0,0,0,5,1.26c26.34-3.11,42.31-62.73,18.36-59.91-19.76,2.33-37.59,29.15-44.15,54.22-6.2,10.21-15.1,21.44-24.77,22.58-19.16,2.26.27-52.2,11.17-53.48,4.8-.57-4,21-7.17,25.06l16-1.89c5.05-5.65,16-42.59-5.85-40-19.47,2.3-36.53,27.64-43.28,52-6.28,10.84-14.67,23.72-19.26,24.27-11.71,1.38,24.22-71.78,24.22-71.78L285.21,325s-23.15,56-25,77.46c-.8,10.21,2.66,20.71,12.77,19.52,9.23-1.09,19.33-15,27.64-29.92.45,15,7.26,25.8,23.18,23.92,11.34-1.34,22.37-14.46,31.23-28.87.77,14.27,7.73,24.27,23.59,22.4s32.49-30.79,42-50.43c4.93,12.94,16.15,20.94,6.16,22.12-7.71.92-10.37-7.55-10.37-7.55s-9.58,17.89-14.64,23.54c0,0,5.32,9,24.75,6.66,18.89-2.23,26.61-19.9,26.61-30,0-14.1-14.37-24.64-14.37-35,0-10.11,5.85-20.38,9.58-20.83,5.85-.69-2.66,21.08-2.66,21.08Zm-61.21-16.19c2.93-.35-4.52,26.08-13.3,27.11a9.77,9.77,0,0,1-3.73-.36C386.33,341.84,393.51,328.75,398.83,328.13Z"/><path class="cls-34" d="M69.94,360.69s23.68-48,14.9-47c-5.32.63-27.68,23.76-27.68,42.12,0,19.16,18.1,41.24,18.1,62.27,0,11.7-6.39,26-31.13,28.95C17,450.24,9,436.81,9,436.81l13.57-25.29s8.25,10.47,20,9.09c22.62-2.67-4.79-31.9-4.79-60.37,0-18.9,22.35-57.2,51.36-60.62,32.46-3.83,3.19,58.43,3.19,58.43Z"/><path class="cls-34" d="M258.33,326.21s-28.47,72.29-34.06,73c-11.71,1.38,24.22-71.79,24.22-71.79l-23.42,2.77s-7.69,18.58-14.56,38.44c-5.16,9.8-18.75,34.41-25.36,35.19-11.7,1.39,24.49-71.81,24.49-71.81l-32.73,3.87c1.59-5.25,2.39-9.34,2.39-11.73l-16.76,2c-3.4,15.89-11,37.4-18.89,54.82-6,11.23-17.59,29.58-30.08,31.05-6.38.76-8.77-4.54-8-11.82a7.09,7.09,0,0,0,5.06,1.26C137,398.28,153,338.65,129,341.48c-38.85,4.58-70.25,103.82-23.15,98.26a17.72,17.72,0,0,0,5.9-1.86c22.46-7.91,48.21-53.33,60.63-86.35l7.71-.91c-6.92,18.38-17.83,47.6-19.16,61.6-.79,9.94,1.86,20.8,10.91,19.73,9.56-1.13,20.35-15.65,29.21-31a62.46,62.46,0,0,0-1,6.65c-.8,9.94,8.25,20,17.56,18.95,20.49-2.42,61.47-102.79,61.47-102.79ZM126.08,358.32c2.93-.34-4.52,26.08-13.3,27.12a10,10,0,0,1-3.73-.36C113.57,372,120.76,359,126.08,358.32Z"/><path class="cls-34" d="M303.84,291.84a13.07,13.07,0,0,0-11.45,12.52c0,6.13,5.06,10.58,11.45,9.83A13,13,0,0,0,315,301.69,9.78,9.78,0,0,0,303.84,291.84Z"/><path class="cls-34" d="M460,342.32s18.89-42.15-6.92-39.1c-24.61,2.9-33.58,29.09-34.51,41.19-4.92,10-18,33.67-32.28,35.35-6.39.75-8.79-4.55-8-11.83a7,7,0,0,0,5,1.26c26.34-3.11,42.31-62.73,18.36-59.91-19.76,2.33-37.59,29.15-44.15,54.22-6.2,10.21-15.1,21.44-24.77,22.58-19.16,2.26.27-52.2,11.17-53.48,4.8-.57-4,21-7.17,25.06l16-1.89c5.05-5.65,16-42.59-5.85-40-19.47,2.3-36.53,27.64-43.28,52-6.28,10.84-14.67,23.72-19.26,24.27-11.71,1.38,24.22-71.78,24.22-71.78L285.21,323s-23.15,56-25,77.46c-.8,10.21,2.66,20.71,12.77,19.52,9.23-1.09,19.33-15,27.64-29.92.45,15,7.26,25.8,23.18,23.92,11.34-1.34,22.37-14.46,31.23-28.87.77,14.27,7.73,24.27,23.59,22.4s32.49-30.79,42-50.43c4.93,12.94,16.15,20.94,6.16,22.12-7.71.92-10.37-7.55-10.37-7.55s-9.58,17.89-14.64,23.54c0,0,5.32,9,24.75,6.66,18.89-2.23,26.61-19.9,26.61-30,0-14.1-14.37-24.64-14.37-35,0-10.11,5.85-20.38,9.58-20.83,5.85-.69-2.66,21.08-2.66,21.08Zm-61.21-16.19c2.93-.35-4.52,26.08-13.3,27.11a9.77,9.77,0,0,1-3.73-.36C386.33,339.84,393.51,326.75,398.83,326.13Z"/><path class="cls-33" d="M212.13,299.51a1.42,1.42,0,0,0-.66-1.41,3,3,0,0,0-1.74-.2,13.72,13.72,0,0,0-5.15,1.91,26.73,26.73,0,0,0-5.25,4.11,24.47,24.47,0,0,0-4.36,5.69,15.27,15.27,0,0,0-2,6.59,4.55,4.55,0,0,1-2.73-.31,1.74,1.74,0,0,1-.86-1.63q0-1.81,2.13-4.83a36.7,36.7,0,0,1,5.33-5.9,41.62,41.62,0,0,1,7-5.16,19.09,19.09,0,0,1,7.09-2.63,5.34,5.34,0,0,1,2.58.2,2.62,2.62,0,0,1,1.5,1.66,5.29,5.29,0,0,1,.25,1.55,27,27,0,0,1-1.72,7.87l-.86,2.32q-.71,1.88-1.08,3a18.32,18.32,0,0,0-1.19,5.26,1.2,1.2,0,0,0,.2.72.64.64,0,0,0,.64.27,4.22,4.22,0,0,0,2.56-1.62,11.27,11.27,0,0,0,1.32-2.41l2.07-5a2.18,2.18,0,0,1,.55-.83,1.56,1.56,0,0,1,.88-.35l.1,0L216,314.82a18.74,18.74,0,0,1-1.43,2.84,6.68,6.68,0,0,1-4.72,3.34,2.1,2.1,0,0,1-2.08-.83,3.67,3.67,0,0,1-.65-2.26,17.76,17.76,0,0,1,.44-3.71,4.53,4.53,0,0,1-1.14.9,3.94,3.94,0,0,1-1.53.53,3.55,3.55,0,0,1-.94-.05,4.43,4.43,0,0,1-1.26-.4q-6.54,11.42-11.65,12a5.69,5.69,0,0,1-3.25-.35,2.32,2.32,0,0,1-1.28-2.22,3.72,3.72,0,0,1,1.26-2.49,1.52,1.52,0,0,0,1.1,1.47,4.69,4.69,0,0,0,2.24.2q4.24-.49,10.32-10.06a2.06,2.06,0,0,1-.09-.62,1.51,1.51,0,0,1,.37-1,1.88,1.88,0,0,1,1.09-.68q1.88-3.14,3.84-7,.76-1.51,1.56-3.15c.41-.84.83-1.72,1.26-2.65a2,2,0,0,1,1,0c.14.08.22.17.22.28a15.66,15.66,0,0,1-1.1,2.46c-.71,1.45-1.32,2.71-1.81,3.77q-2.15,4.62-4,8.12a2.26,2.26,0,0,0,2,.56,7.06,7.06,0,0,0,2.09-.67c.26-1,.62-2.18,1.1-3.5l.89-2.41c.75-1.91,1.25-3.23,1.51-4A14.76,14.76,0,0,0,212.13,299.51Z"/><path class="cls-33" d="M217.88,317.57a.67.67,0,0,0,.66.25,3.75,3.75,0,0,0,2.46-1.65,10.55,10.55,0,0,0,1.32-2.42l2.08-5.08a2,2,0,0,1,.55-.83,1.53,1.53,0,0,1,.83-.32l-1.06,2.59L223.13,314a18.86,18.86,0,0,1-1.43,2.85c-1.3,2-2.8,3.11-4.52,3.31a2,2,0,0,1-2.08-.9,3.7,3.7,0,0,1-.6-2.15,12.93,12.93,0,0,1,.37-2.8c.16-.76.42-1.71.78-2.84.44-1.38.71-2.23.79-2.54a7.41,7.41,0,0,0,.35-1.86,2,2,0,0,0,0-.22c0-.1,0-.18,0-.23a.28.28,0,0,1,.05-.12.12.12,0,0,1,.1-.05l.92-.08a9.08,9.08,0,0,1,1.15,0c.91.05,1.37.28,1.37.68a7.17,7.17,0,0,1-.42,1.87c-.11.33-.42,1.21-.94,2.66a18.76,18.76,0,0,0-1.36,5.22A1.17,1.17,0,0,0,217.88,317.57Zm4-14.69a2.59,2.59,0,0,1-.23.95,2.72,2.72,0,0,1-1.13,1.28,2.59,2.59,0,0,1-.74.25,1.55,1.55,0,0,1-.71-.08,1.42,1.42,0,0,1-.92-1,1.7,1.7,0,0,1-.09-.54,2.83,2.83,0,0,1,.23-1.07,2.53,2.53,0,0,1,1.13-1.26,2.15,2.15,0,0,1,.72-.26,1.75,1.75,0,0,1,.73.07,1.48,1.48,0,0,1,.94,1A3,3,0,0,1,221.84,302.88Z"/><path class="cls-33" d="M226.25,307.54a1.37,1.37,0,0,0,.64-.25,1.67,1.67,0,0,0,.38-.41l.08-.25a.64.64,0,0,1,.58-.38,4,4,0,0,1,.7,0,6.6,6.6,0,0,1,.92.12c.76.16,1.15.4,1.15.72a5.83,5.83,0,0,1-.37,1.43c-.07.23-.31.9-.71,2s-.68,2-.86,2.68a9.18,9.18,0,0,0-.35,2.27,1.3,1.3,0,0,0,.23.81.69.69,0,0,0,.67.25,3.75,3.75,0,0,0,2.46-1.65,10.8,10.8,0,0,0,1.33-2.43l2.08-5.07a1.87,1.87,0,0,1,.54-.83,1.56,1.56,0,0,1,.82-.32l-2.65,6.46a18,18,0,0,1-1.43,2.85c-1.28,2-2.79,3.11-4.51,3.31a2,2,0,0,1-2.07-.9,3.65,3.65,0,0,1-.61-2.16,16.84,16.84,0,0,1,.48-3.7c.23-1,.59-2.32,1.08-3.86a4.86,4.86,0,0,1-1.05.83,2.85,2.85,0,0,1-1.13.44,1.8,1.8,0,0,1-1.75-.6,3,3,0,0,1-.5-1.88,3.87,3.87,0,0,1,.53-2,2.79,2.79,0,0,1,.5-.64,1.07,1.07,0,0,1,.55-.28,2,2,0,0,1,1.51.65,2.82,2.82,0,0,1,.55.6.94.94,0,0,1,.21.48,2.06,2.06,0,0,1-.14.64l-.16.44a1.49,1.49,0,0,0-.1.26q-.06.17-.12.3A1.24,1.24,0,0,0,226.25,307.54Z"/><path class="cls-33" d="M236.27,315.18a1.58,1.58,0,0,0,1.49.54,5.67,5.67,0,0,0,3.08-1.45,8,8,0,0,0,2-2.95l2.09-5.08a1.85,1.85,0,0,1,.55-.83,1.49,1.49,0,0,1,.82-.32l-1.06,2.59-1.59,3.87a12.49,12.49,0,0,1-2.8,4.27,7.71,7.71,0,0,1-4.52,2.23,3.06,3.06,0,0,1-1.4-.17,3.28,3.28,0,0,1-1.28-.78,3.92,3.92,0,0,1-.89-1.35,4.94,4.94,0,0,1-.35-1.87,11.69,11.69,0,0,1,.55-3.55,12,12,0,0,1,1.5-3.15,9.11,9.11,0,0,1,2.25-2.33,6.13,6.13,0,0,1,2.79-1.11,2,2,0,0,1,1.66.46,1.69,1.69,0,0,1,.61,1.37,3.25,3.25,0,0,1-.94,2.4,3.79,3.79,0,0,1-2.37,1.07A2.9,2.9,0,0,0,239,308a5.67,5.67,0,0,0,.2-1.38c0-.53-.11-.78-.35-.76s-.4.23-.73.61a7.75,7.75,0,0,0-1,1.6,11.77,11.77,0,0,0-.93,2.42,11.93,11.93,0,0,0-.4,3.07A2.43,2.43,0,0,0,236.27,315.18Z"/><path class="cls-33" d="M257.07,304.81a2,2,0,0,1,.55-.83,1.52,1.52,0,0,1,.83-.31l-.76,1.82a12,12,0,0,1-1.95,3.4,5.68,5.68,0,0,1-3.44,1.91,11.35,11.35,0,0,1-2.32,3.89,7.74,7.74,0,0,1-1.73,1.47,5.23,5.23,0,0,1-2.05.73,3,3,0,0,1-1.41-.17,3.05,3.05,0,0,1-1.26-.77,3.74,3.74,0,0,1-.91-1.36,4.94,4.94,0,0,1-.35-1.87,12.72,12.72,0,0,1,.41-3.1,16.46,16.46,0,0,1,1.08-3.15,9.76,9.76,0,0,1,1.63-2.49,3.37,3.37,0,0,1,2-1.17,1.4,1.4,0,0,1,.79.13,1.88,1.88,0,0,1,.87-.32,3.14,3.14,0,0,1,1.42.16,3.48,3.48,0,0,1,1.26.79,3.7,3.7,0,0,1,.91,1.36,4.87,4.87,0,0,1,.35,1.87,11.84,11.84,0,0,1-.38,2.93,4.88,4.88,0,0,0,2.46-1.5,8.45,8.45,0,0,0,1.66-2.63ZM245.83,314c.21.48.51.69.88.65s.9-.51,1.39-1.36a12.53,12.53,0,0,0,1.16-2.85,4.53,4.53,0,0,1-1.67-1.38,4.31,4.31,0,0,1-.78-2,11.82,11.82,0,0,0-1.24,5.33A4.08,4.08,0,0,0,245.83,314Zm3.7-7.84a1.9,1.9,0,0,0-.5-.81c-.27.13-.41.49-.41,1.07a4.33,4.33,0,0,0,.26,1.43,2.43,2.43,0,0,0,.68,1.11,10.6,10.6,0,0,0,.15-1.78A3,3,0,0,0,249.53,306.11Z"/><path class="cls-33" d="M256.53,302.11a1.09,1.09,0,0,1,0-.2.19.19,0,0,1,0-.12.14.14,0,0,1,.1-.05,6.24,6.24,0,0,1,.71,0c.37,0,.71,0,1,.05.9.1,1.36.29,1.36.58a8,8,0,0,1-.38,1.74l-1.08,3.51a17.75,17.75,0,0,0-.94,4.9,26.17,26.17,0,0,1,.69-3,29.61,29.61,0,0,1,1.77-4.14,20.32,20.32,0,0,1,2.35-3.76,4.33,4.33,0,0,1,2.51-1.78,1,1,0,0,1,.65.17,2.62,2.62,0,0,1,.58.54,3.54,3.54,0,0,1,.42.73,2.15,2.15,0,0,1,.16.72,6.9,6.9,0,0,1-.41,1.57l-1.14,3.3a14.78,14.78,0,0,0-1,4.41,1.33,1.33,0,0,0,.23.82.71.71,0,0,0,.67.25,3.75,3.75,0,0,0,2.46-1.65,10.8,10.8,0,0,0,1.33-2.43l2.08-5.08a2,2,0,0,1,.54-.83,1.59,1.59,0,0,1,.83-.31L271,304.64l-1.59,3.88a18.42,18.42,0,0,1-1.43,2.85c-1.28,2-2.79,3.1-4.51,3.31a2.05,2.05,0,0,1-2.07-.9,3.65,3.65,0,0,1-.61-2.16,17.61,17.61,0,0,1,.55-3.84c.26-1.13.63-2.49,1.11-4.1q-.29,0-1.05,1.26c-.49.78-1,1.73-1.55,2.84a35.4,35.4,0,0,0-1.39,3.28,8.38,8.38,0,0,0-.61,2.54,1.13,1.13,0,0,0,.07.44,1.07,1.07,0,0,1,.06.23.16.16,0,0,1,0,.12.14.14,0,0,1-.09.05,13,13,0,0,1-1.36.11,3.08,3.08,0,0,1-1.1-.16,1.38,1.38,0,0,1-.75-.65,2.91,2.91,0,0,1-.27-1.36,10.73,10.73,0,0,1,.33-2.33c.13-.56.47-1.77,1-3.61a17.15,17.15,0,0,0,.83-4.08C256.55,302.3,256.54,302.21,256.53,302.11Z"/><path class="cls-33" d="M278.63,310.4a.67.67,0,0,0,.66.25,4,4,0,0,0,2.46-1.65,10.07,10.07,0,0,0,1.32-2.43l2.08-5.07a2,2,0,0,1,.55-.83,1.56,1.56,0,0,1,.83-.32l-1.06,2.58-1.59,3.88a17.14,17.14,0,0,1-1.45,2.85c-1.28,2-2.78,3.11-4.5,3.31a2.07,2.07,0,0,1-2.08-.9,3.71,3.71,0,0,1-.59-2.16,17.11,17.11,0,0,1,.4-3.47,26.42,26.42,0,0,1-2.66,4.87c-1.18,1.63-2.23,2.5-3.17,2.62a1.08,1.08,0,0,1-.65-.17,2.28,2.28,0,0,1-.59-.54,2.9,2.9,0,0,1-.44-.73,2.15,2.15,0,0,1-.16-.72,17.88,17.88,0,0,1,.5-4,18.49,18.49,0,0,1,1.79-4.23,12.94,12.94,0,0,1,2.84-3.46,7.29,7.29,0,0,1,3.87-1.72.79.79,0,0,1,.61.19,1.46,1.46,0,0,1,.35.64c.53-1.44.86-2.33,1-2.68.35-1,.64-1.82.86-2.52a15.19,15.19,0,0,0,.84-4.23,1.22,1.22,0,0,0-.23-.81.7.7,0,0,0-.68-.26l-.39.11a2.42,2.42,0,0,1,.45-.85,1.45,1.45,0,0,1,1-.49,2,2,0,0,1,2.07.9,3.69,3.69,0,0,1,.61,2.15,18.75,18.75,0,0,1-.8,4.86c-.35,1.27-1.23,3.87-2.66,7.78-.34.93-.61,1.73-.81,2.39a14.58,14.58,0,0,0-.8,4A1.17,1.17,0,0,0,278.63,310.4ZM277,301.81a4,4,0,0,0-2.14,1.22,11.37,11.37,0,0,0-1.86,2.45,16.17,16.17,0,0,0-1.28,2.78,7.17,7.17,0,0,0-.48,2.23c.66-.08,1.61-1.07,2.88-3a29.07,29.07,0,0,0,2.43-4.36Q276.76,302.52,277,301.81Z"/><path class="cls-36" d="M212.13,301.51a1.42,1.42,0,0,0-.66-1.41,3,3,0,0,0-1.74-.2,13.72,13.72,0,0,0-5.15,1.91,26.73,26.73,0,0,0-5.25,4.11,24.47,24.47,0,0,0-4.36,5.69,15.27,15.27,0,0,0-2,6.59,4.55,4.55,0,0,1-2.73-.31,1.74,1.74,0,0,1-.86-1.63q0-1.81,2.13-4.83a36.7,36.7,0,0,1,5.33-5.9,41.62,41.62,0,0,1,7-5.16,19.09,19.09,0,0,1,7.09-2.63,5.34,5.34,0,0,1,2.58.2,2.62,2.62,0,0,1,1.5,1.66,5.29,5.29,0,0,1,.25,1.55,27,27,0,0,1-1.72,7.87l-.86,2.32q-.71,1.88-1.08,3a18.32,18.32,0,0,0-1.19,5.26,1.2,1.2,0,0,0,.2.72.64.64,0,0,0,.64.27,4.22,4.22,0,0,0,2.56-1.62,11.27,11.27,0,0,0,1.32-2.41l2.07-5a2.18,2.18,0,0,1,.55-.83,1.56,1.56,0,0,1,.88-.35l.1,0L216,316.82a18.74,18.74,0,0,1-1.43,2.84,6.68,6.68,0,0,1-4.72,3.34,2.1,2.1,0,0,1-2.08-.83,3.67,3.67,0,0,1-.65-2.26,17.76,17.76,0,0,1,.44-3.71,4.53,4.53,0,0,1-1.14.9,3.94,3.94,0,0,1-1.53.53,3.55,3.55,0,0,1-.94-.05,4.43,4.43,0,0,1-1.26-.4q-6.54,11.42-11.65,12a5.69,5.69,0,0,1-3.25-.35,2.32,2.32,0,0,1-1.28-2.22,3.72,3.72,0,0,1,1.26-2.49,1.52,1.52,0,0,0,1.1,1.47,4.69,4.69,0,0,0,2.24.2q4.24-.49,10.32-10.06a2.06,2.06,0,0,1-.09-.62,1.51,1.51,0,0,1,.37-1,1.88,1.88,0,0,1,1.09-.68q1.88-3.14,3.84-7,.76-1.51,1.56-3.15c.41-.84.83-1.72,1.26-2.65a2,2,0,0,1,1,0c.14.08.22.17.22.28a15.66,15.66,0,0,1-1.1,2.46c-.71,1.45-1.32,2.71-1.81,3.77q-2.15,4.62-4,8.12a2.26,2.26,0,0,0,2,.56,7.06,7.06,0,0,0,2.09-.67c.26-1,.62-2.18,1.1-3.5l.89-2.41c.75-1.91,1.25-3.23,1.51-4A14.76,14.76,0,0,0,212.13,301.51Z"/><path class="cls-36" d="M217.88,319.57a.67.67,0,0,0,.66.25,3.75,3.75,0,0,0,2.46-1.65,10.55,10.55,0,0,0,1.32-2.42l2.08-5.08a2,2,0,0,1,.55-.83,1.53,1.53,0,0,1,.83-.32l-1.06,2.59L223.13,316a18.86,18.86,0,0,1-1.43,2.85c-1.3,2-2.8,3.11-4.52,3.31a2,2,0,0,1-2.08-.9,3.7,3.7,0,0,1-.6-2.15,12.93,12.93,0,0,1,.37-2.8c.16-.76.42-1.71.78-2.84.44-1.38.71-2.23.79-2.54a7.41,7.41,0,0,0,.35-1.86,2,2,0,0,0,0-.22c0-.1,0-.18,0-.23a.28.28,0,0,1,.05-.12.12.12,0,0,1,.1-.05l.92-.08a9.08,9.08,0,0,1,1.15,0c.91.05,1.37.28,1.37.68a7.17,7.17,0,0,1-.42,1.87c-.11.33-.42,1.21-.94,2.66a18.76,18.76,0,0,0-1.36,5.22A1.17,1.17,0,0,0,217.88,319.57Zm4-14.69a2.59,2.59,0,0,1-.23.95,2.72,2.72,0,0,1-1.13,1.28,2.59,2.59,0,0,1-.74.25,1.55,1.55,0,0,1-.71-.08,1.42,1.42,0,0,1-.92-1,1.7,1.7,0,0,1-.09-.54,2.83,2.83,0,0,1,.23-1.07,2.53,2.53,0,0,1,1.13-1.26,2.15,2.15,0,0,1,.72-.26,1.75,1.75,0,0,1,.73.07,1.48,1.48,0,0,1,.94,1A3,3,0,0,1,221.84,304.88Z"/><path class="cls-36" d="M226.25,309.54a1.37,1.37,0,0,0,.64-.25,1.67,1.67,0,0,0,.38-.41l.08-.25a.64.64,0,0,1,.58-.38,4,4,0,0,1,.7,0,6.6,6.6,0,0,1,.92.12c.76.16,1.15.4,1.15.72a5.83,5.83,0,0,1-.37,1.43c-.07.23-.31.9-.71,2s-.68,2-.86,2.68a9.18,9.18,0,0,0-.35,2.27,1.3,1.3,0,0,0,.23.81.69.69,0,0,0,.67.25,3.75,3.75,0,0,0,2.46-1.65,10.8,10.8,0,0,0,1.33-2.43l2.08-5.07a1.87,1.87,0,0,1,.54-.83,1.56,1.56,0,0,1,.82-.32l-2.65,6.46a18,18,0,0,1-1.43,2.85c-1.28,2-2.79,3.11-4.51,3.31a2,2,0,0,1-2.07-.9,3.65,3.65,0,0,1-.61-2.16,16.84,16.84,0,0,1,.48-3.7c.23-1,.59-2.32,1.08-3.86a4.86,4.86,0,0,1-1.05.83,2.85,2.85,0,0,1-1.13.44,1.8,1.8,0,0,1-1.75-.6,3,3,0,0,1-.5-1.88,3.87,3.87,0,0,1,.53-2,2.79,2.79,0,0,1,.5-.64,1.07,1.07,0,0,1,.55-.28,2,2,0,0,1,1.51.65,2.82,2.82,0,0,1,.55.6.94.94,0,0,1,.21.48,2.06,2.06,0,0,1-.14.64l-.16.44a1.49,1.49,0,0,0-.1.26q-.06.17-.12.3A1.24,1.24,0,0,0,226.25,309.54Z"/><path class="cls-36" d="M236.27,317.18a1.58,1.58,0,0,0,1.49.54,5.67,5.67,0,0,0,3.08-1.45,8,8,0,0,0,2-2.95l2.09-5.08a1.85,1.85,0,0,1,.55-.83,1.49,1.49,0,0,1,.82-.32l-1.06,2.59-1.59,3.87a12.49,12.49,0,0,1-2.8,4.27,7.71,7.71,0,0,1-4.52,2.23,3.06,3.06,0,0,1-1.4-.17,3.28,3.28,0,0,1-1.28-.78,3.92,3.92,0,0,1-.89-1.35,4.94,4.94,0,0,1-.35-1.87,11.69,11.69,0,0,1,.55-3.55,12,12,0,0,1,1.5-3.15,9.11,9.11,0,0,1,2.25-2.33,6.13,6.13,0,0,1,2.79-1.11,2,2,0,0,1,1.66.46,1.69,1.69,0,0,1,.61,1.37,3.25,3.25,0,0,1-.94,2.4,3.79,3.79,0,0,1-2.37,1.07A2.9,2.9,0,0,0,239,310a5.67,5.67,0,0,0,.2-1.38c0-.53-.11-.78-.35-.76s-.4.23-.73.61a7.75,7.75,0,0,0-1,1.6,11.77,11.77,0,0,0-.93,2.42,11.93,11.93,0,0,0-.4,3.07A2.43,2.43,0,0,0,236.27,317.18Z"/><path class="cls-36" d="M257.07,306.81a2,2,0,0,1,.55-.83,1.52,1.52,0,0,1,.83-.31l-.76,1.82a12,12,0,0,1-1.95,3.4,5.68,5.68,0,0,1-3.44,1.91,11.35,11.35,0,0,1-2.32,3.89,7.74,7.74,0,0,1-1.73,1.47,5.23,5.23,0,0,1-2.05.73,3,3,0,0,1-1.41-.17,3.05,3.05,0,0,1-1.26-.77,3.74,3.74,0,0,1-.91-1.36,4.94,4.94,0,0,1-.35-1.87,12.72,12.72,0,0,1,.41-3.1,16.46,16.46,0,0,1,1.08-3.15,9.76,9.76,0,0,1,1.63-2.49,3.37,3.37,0,0,1,2-1.17,1.4,1.4,0,0,1,.79.13,1.88,1.88,0,0,1,.87-.32,3.14,3.14,0,0,1,1.42.16,3.48,3.48,0,0,1,1.26.79,3.7,3.7,0,0,1,.91,1.36,4.87,4.87,0,0,1,.35,1.87,11.84,11.84,0,0,1-.38,2.93,4.88,4.88,0,0,0,2.46-1.5,8.45,8.45,0,0,0,1.66-2.63ZM245.83,316c.21.48.51.69.88.65s.9-.51,1.39-1.36a12.53,12.53,0,0,0,1.16-2.85,4.53,4.53,0,0,1-1.67-1.38,4.31,4.31,0,0,1-.78-2,11.82,11.82,0,0,0-1.24,5.33A4.08,4.08,0,0,0,245.83,316Zm3.7-7.84a1.9,1.9,0,0,0-.5-.81c-.27.13-.41.49-.41,1.07a4.33,4.33,0,0,0,.26,1.43,2.43,2.43,0,0,0,.68,1.11,10.6,10.6,0,0,0,.15-1.78A3,3,0,0,0,249.53,308.11Z"/><path class="cls-36" d="M256.53,304.11a1.09,1.09,0,0,1,0-.2.19.19,0,0,1,0-.12.14.14,0,0,1,.1-.05,6.24,6.24,0,0,1,.71,0c.37,0,.71,0,1,.05.9.1,1.36.29,1.36.58a8,8,0,0,1-.38,1.74l-1.08,3.51a17.75,17.75,0,0,0-.94,4.9,26.17,26.17,0,0,1,.69-3,29.61,29.61,0,0,1,1.77-4.14,20.32,20.32,0,0,1,2.35-3.76,4.33,4.33,0,0,1,2.51-1.78,1,1,0,0,1,.65.17,2.62,2.62,0,0,1,.58.54,3.54,3.54,0,0,1,.42.73,2.15,2.15,0,0,1,.16.72,6.9,6.9,0,0,1-.41,1.57l-1.14,3.3a14.78,14.78,0,0,0-1,4.41,1.33,1.33,0,0,0,.23.82.71.71,0,0,0,.67.25,3.75,3.75,0,0,0,2.46-1.65,10.8,10.8,0,0,0,1.33-2.43l2.08-5.08a2,2,0,0,1,.54-.83,1.59,1.59,0,0,1,.83-.31L271,306.64l-1.59,3.88a18.42,18.42,0,0,1-1.43,2.85c-1.28,2-2.79,3.1-4.51,3.31a2.05,2.05,0,0,1-2.07-.9,3.65,3.65,0,0,1-.61-2.16,17.61,17.61,0,0,1,.55-3.84c.26-1.13.63-2.49,1.11-4.1q-.29,0-1.05,1.26c-.49.78-1,1.73-1.55,2.84a35.4,35.4,0,0,0-1.39,3.28,8.38,8.38,0,0,0-.61,2.54,1.13,1.13,0,0,0,.07.44,1.07,1.07,0,0,1,.06.23.16.16,0,0,1,0,.12.14.14,0,0,1-.09.05,13,13,0,0,1-1.36.11,3.08,3.08,0,0,1-1.1-.16,1.38,1.38,0,0,1-.75-.65,2.91,2.91,0,0,1-.27-1.36,10.73,10.73,0,0,1,.33-2.33c.13-.56.47-1.77,1-3.61a17.15,17.15,0,0,0,.83-4.08C256.55,304.3,256.54,304.21,256.53,304.11Z"/><path class="cls-36" d="M278.63,312.4a.67.67,0,0,0,.66.25,4,4,0,0,0,2.46-1.65,10.07,10.07,0,0,0,1.32-2.43l2.08-5.07a2,2,0,0,1,.55-.83,1.56,1.56,0,0,1,.83-.32l-1.06,2.58-1.59,3.88a17.14,17.14,0,0,1-1.45,2.85c-1.28,2-2.78,3.11-4.5,3.31a2.07,2.07,0,0,1-2.08-.9,3.71,3.71,0,0,1-.59-2.16,17.11,17.11,0,0,1,.4-3.47,26.42,26.42,0,0,1-2.66,4.87c-1.18,1.63-2.23,2.5-3.17,2.62a1.08,1.08,0,0,1-.65-.17,2.28,2.28,0,0,1-.59-.54,2.9,2.9,0,0,1-.44-.73,2.15,2.15,0,0,1-.16-.72,17.88,17.88,0,0,1,.5-4,18.49,18.49,0,0,1,1.79-4.23,12.94,12.94,0,0,1,2.84-3.46,7.29,7.29,0,0,1,3.87-1.72.79.79,0,0,1,.61.19,1.46,1.46,0,0,1,.35.64c.53-1.44.86-2.33,1-2.68.35-1,.64-1.82.86-2.52a15.19,15.19,0,0,0,.84-4.23,1.22,1.22,0,0,0-.23-.81.7.7,0,0,0-.68-.26l-.39.11a2.42,2.42,0,0,1,.45-.85,1.45,1.45,0,0,1,1-.49,2,2,0,0,1,2.07.9,3.69,3.69,0,0,1,.61,2.15,18.75,18.75,0,0,1-.8,4.86c-.35,1.27-1.23,3.87-2.66,7.78-.34.93-.61,1.73-.81,2.39a14.58,14.58,0,0,0-.8,4A1.17,1.17,0,0,0,278.63,312.4ZM277,303.81a4,4,0,0,0-2.14,1.22,11.37,11.37,0,0,0-1.86,2.45,16.17,16.17,0,0,0-1.28,2.78,7.17,7.17,0,0,0-.48,2.23c.66-.08,1.61-1.07,2.88-3a29.07,29.07,0,0,0,2.43-4.36Q276.76,304.52,277,303.81Z"/><path class="cls-37" d="M212.13,299.51a1.42,1.42,0,0,0-.66-1.41,3,3,0,0,0-1.74-.2,13.72,13.72,0,0,0-5.15,1.91,26.73,26.73,0,0,0-5.25,4.11,24.47,24.47,0,0,0-4.36,5.69,15.27,15.27,0,0,0-2,6.59,4.55,4.55,0,0,1-2.73-.31,1.74,1.74,0,0,1-.86-1.63q0-1.81,2.13-4.83a36.7,36.7,0,0,1,5.33-5.9,41.62,41.62,0,0,1,7-5.16,19.09,19.09,0,0,1,7.09-2.63,5.34,5.34,0,0,1,2.58.2,2.62,2.62,0,0,1,1.5,1.66,5.29,5.29,0,0,1,.25,1.55,27,27,0,0,1-1.72,7.87l-.86,2.32q-.71,1.88-1.08,3a18.32,18.32,0,0,0-1.19,5.26,1.2,1.2,0,0,0,.2.72.64.64,0,0,0,.64.27,4.22,4.22,0,0,0,2.56-1.62,11.27,11.27,0,0,0,1.32-2.41l2.07-5a2.18,2.18,0,0,1,.55-.83,1.56,1.56,0,0,1,.88-.35l.1,0L216,314.82a18.74,18.74,0,0,1-1.43,2.84,6.68,6.68,0,0,1-4.72,3.34,2.1,2.1,0,0,1-2.08-.83,3.67,3.67,0,0,1-.65-2.26,17.76,17.76,0,0,1,.44-3.71,4.53,4.53,0,0,1-1.14.9,3.94,3.94,0,0,1-1.53.53,3.55,3.55,0,0,1-.94-.05,4.43,4.43,0,0,1-1.26-.4q-6.54,11.42-11.65,12a5.69,5.69,0,0,1-3.25-.35,2.32,2.32,0,0,1-1.28-2.22,3.72,3.72,0,0,1,1.26-2.49,1.52,1.52,0,0,0,1.1,1.47,4.69,4.69,0,0,0,2.24.2q4.24-.49,10.32-10.06a2.06,2.06,0,0,1-.09-.62,1.51,1.51,0,0,1,.37-1,1.88,1.88,0,0,1,1.09-.68q1.88-3.14,3.84-7,.76-1.51,1.56-3.15c.41-.84.83-1.72,1.26-2.65a2,2,0,0,1,1,0c.14.08.22.17.22.28a15.66,15.66,0,0,1-1.1,2.46c-.71,1.45-1.32,2.71-1.81,3.77q-2.15,4.62-4,8.12a2.26,2.26,0,0,0,2,.56,7.06,7.06,0,0,0,2.09-.67c.26-1,.62-2.18,1.1-3.5l.89-2.41c.75-1.91,1.25-3.23,1.51-4A14.76,14.76,0,0,0,212.13,299.51Z"/><path class="cls-37" d="M217.88,317.57a.67.67,0,0,0,.66.25,3.75,3.75,0,0,0,2.46-1.65,10.55,10.55,0,0,0,1.32-2.42l2.08-5.08a2,2,0,0,1,.55-.83,1.53,1.53,0,0,1,.83-.32l-1.06,2.59L223.13,314a18.86,18.86,0,0,1-1.43,2.85c-1.3,2-2.8,3.11-4.52,3.31a2,2,0,0,1-2.08-.9,3.7,3.7,0,0,1-.6-2.15,12.93,12.93,0,0,1,.37-2.8c.16-.76.42-1.71.78-2.84.44-1.38.71-2.23.79-2.54a7.41,7.41,0,0,0,.35-1.86,2,2,0,0,0,0-.22c0-.1,0-.18,0-.23a.28.28,0,0,1,.05-.12.12.12,0,0,1,.1-.05l.92-.08a9.08,9.08,0,0,1,1.15,0c.91.05,1.37.28,1.37.68a7.17,7.17,0,0,1-.42,1.87c-.11.33-.42,1.21-.94,2.66a18.76,18.76,0,0,0-1.36,5.22A1.17,1.17,0,0,0,217.88,317.57Zm4-14.69a2.59,2.59,0,0,1-.23.95,2.72,2.72,0,0,1-1.13,1.28,2.59,2.59,0,0,1-.74.25,1.55,1.55,0,0,1-.71-.08,1.42,1.42,0,0,1-.92-1,1.7,1.7,0,0,1-.09-.54,2.83,2.83,0,0,1,.23-1.07,2.53,2.53,0,0,1,1.13-1.26,2.15,2.15,0,0,1,.72-.26,1.75,1.75,0,0,1,.73.07,1.48,1.48,0,0,1,.94,1A3,3,0,0,1,221.84,302.88Z"/><path class="cls-37" d="M226.25,307.54a1.37,1.37,0,0,0,.64-.25,1.67,1.67,0,0,0,.38-.41l.08-.25a.64.64,0,0,1,.58-.38,4,4,0,0,1,.7,0,6.6,6.6,0,0,1,.92.12c.76.16,1.15.4,1.15.72a5.83,5.83,0,0,1-.37,1.43c-.07.23-.31.9-.71,2s-.68,2-.86,2.68a9.18,9.18,0,0,0-.35,2.27,1.3,1.3,0,0,0,.23.81.69.69,0,0,0,.67.25,3.75,3.75,0,0,0,2.46-1.65,10.8,10.8,0,0,0,1.33-2.43l2.08-5.07a1.87,1.87,0,0,1,.54-.83,1.56,1.56,0,0,1,.82-.32l-2.65,6.46a18,18,0,0,1-1.43,2.85c-1.28,2-2.79,3.11-4.51,3.31a2,2,0,0,1-2.07-.9,3.65,3.65,0,0,1-.61-2.16,16.84,16.84,0,0,1,.48-3.7c.23-1,.59-2.32,1.08-3.86a4.86,4.86,0,0,1-1.05.83,2.85,2.85,0,0,1-1.13.44,1.8,1.8,0,0,1-1.75-.6,3,3,0,0,1-.5-1.88,3.87,3.87,0,0,1,.53-2,2.79,2.79,0,0,1,.5-.64,1.07,1.07,0,0,1,.55-.28,2,2,0,0,1,1.51.65,2.82,2.82,0,0,1,.55.6.94.94,0,0,1,.21.48,2.06,2.06,0,0,1-.14.64l-.16.44a1.49,1.49,0,0,0-.1.26q-.06.17-.12.3A1.24,1.24,0,0,0,226.25,307.54Z"/><path class="cls-37" d="M236.27,315.18a1.58,1.58,0,0,0,1.49.54,5.67,5.67,0,0,0,3.08-1.45,8,8,0,0,0,2-2.95l2.09-5.08a1.85,1.85,0,0,1,.55-.83,1.49,1.49,0,0,1,.82-.32l-1.06,2.59-1.59,3.87a12.49,12.49,0,0,1-2.8,4.27,7.71,7.71,0,0,1-4.52,2.23,3.06,3.06,0,0,1-1.4-.17,3.28,3.28,0,0,1-1.28-.78,3.92,3.92,0,0,1-.89-1.35,4.94,4.94,0,0,1-.35-1.87,11.69,11.69,0,0,1,.55-3.55,12,12,0,0,1,1.5-3.15,9.11,9.11,0,0,1,2.25-2.33,6.13,6.13,0,0,1,2.79-1.11,2,2,0,0,1,1.66.46,1.69,1.69,0,0,1,.61,1.37,3.25,3.25,0,0,1-.94,2.4,3.79,3.79,0,0,1-2.37,1.07A2.9,2.9,0,0,0,239,308a5.67,5.67,0,0,0,.2-1.38c0-.53-.11-.78-.35-.76s-.4.23-.73.61a7.75,7.75,0,0,0-1,1.6,11.77,11.77,0,0,0-.93,2.42,11.93,11.93,0,0,0-.4,3.07A2.43,2.43,0,0,0,236.27,315.18Z"/><path class="cls-37" d="M257.07,304.81a2,2,0,0,1,.55-.83,1.52,1.52,0,0,1,.83-.31l-.76,1.82a12,12,0,0,1-1.95,3.4,5.68,5.68,0,0,1-3.44,1.91,11.35,11.35,0,0,1-2.32,3.89,7.74,7.74,0,0,1-1.73,1.47,5.23,5.23,0,0,1-2.05.73,3,3,0,0,1-1.41-.17,3.05,3.05,0,0,1-1.26-.77,3.74,3.74,0,0,1-.91-1.36,4.94,4.94,0,0,1-.35-1.87,12.72,12.72,0,0,1,.41-3.1,16.46,16.46,0,0,1,1.08-3.15,9.76,9.76,0,0,1,1.63-2.49,3.37,3.37,0,0,1,2-1.17,1.4,1.4,0,0,1,.79.13,1.88,1.88,0,0,1,.87-.32,3.14,3.14,0,0,1,1.42.16,3.48,3.48,0,0,1,1.26.79,3.7,3.7,0,0,1,.91,1.36,4.87,4.87,0,0,1,.35,1.87,11.84,11.84,0,0,1-.38,2.93,4.88,4.88,0,0,0,2.46-1.5,8.45,8.45,0,0,0,1.66-2.63ZM245.83,314c.21.48.51.69.88.65s.9-.51,1.39-1.36a12.53,12.53,0,0,0,1.16-2.85,4.53,4.53,0,0,1-1.67-1.38,4.31,4.31,0,0,1-.78-2,11.82,11.82,0,0,0-1.24,5.33A4.08,4.08,0,0,0,245.83,314Zm3.7-7.84a1.9,1.9,0,0,0-.5-.81c-.27.13-.41.49-.41,1.07a4.33,4.33,0,0,0,.26,1.43,2.43,2.43,0,0,0,.68,1.11,10.6,10.6,0,0,0,.15-1.78A3,3,0,0,0,249.53,306.11Z"/><path class="cls-37" d="M256.53,302.11a1.09,1.09,0,0,1,0-.2.19.19,0,0,1,0-.12.14.14,0,0,1,.1-.05,6.24,6.24,0,0,1,.71,0c.37,0,.71,0,1,.05.9.1,1.36.29,1.36.58a8,8,0,0,1-.38,1.74l-1.08,3.51a17.75,17.75,0,0,0-.94,4.9,26.17,26.17,0,0,1,.69-3,29.61,29.61,0,0,1,1.77-4.14,20.32,20.32,0,0,1,2.35-3.76,4.33,4.33,0,0,1,2.51-1.78,1,1,0,0,1,.65.17,2.62,2.62,0,0,1,.58.54,3.54,3.54,0,0,1,.42.73,2.15,2.15,0,0,1,.16.72,6.9,6.9,0,0,1-.41,1.57l-1.14,3.3a14.78,14.78,0,0,0-1,4.41,1.33,1.33,0,0,0,.23.82.71.71,0,0,0,.67.25,3.75,3.75,0,0,0,2.46-1.65,10.8,10.8,0,0,0,1.33-2.43l2.08-5.08a2,2,0,0,1,.54-.83,1.59,1.59,0,0,1,.83-.31L271,304.64l-1.59,3.88a18.42,18.42,0,0,1-1.43,2.85c-1.28,2-2.79,3.1-4.51,3.31a2.05,2.05,0,0,1-2.07-.9,3.65,3.65,0,0,1-.61-2.16,17.61,17.61,0,0,1,.55-3.84c.26-1.13.63-2.49,1.11-4.1q-.29,0-1.05,1.26c-.49.78-1,1.73-1.55,2.84a35.4,35.4,0,0,0-1.39,3.28,8.38,8.38,0,0,0-.61,2.54,1.13,1.13,0,0,0,.07.44,1.07,1.07,0,0,1,.06.23.16.16,0,0,1,0,.12.14.14,0,0,1-.09.05,13,13,0,0,1-1.36.11,3.08,3.08,0,0,1-1.1-.16,1.38,1.38,0,0,1-.75-.65,2.91,2.91,0,0,1-.27-1.36,10.73,10.73,0,0,1,.33-2.33c.13-.56.47-1.77,1-3.61a17.15,17.15,0,0,0,.83-4.08C256.55,302.3,256.54,302.21,256.53,302.11Z"/><path class="cls-37" d="M278.63,310.4a.67.67,0,0,0,.66.25,4,4,0,0,0,2.46-1.65,10.07,10.07,0,0,0,1.32-2.43l2.08-5.07a2,2,0,0,1,.55-.83,1.56,1.56,0,0,1,.83-.32l-1.06,2.58-1.59,3.88a17.14,17.14,0,0,1-1.45,2.85c-1.28,2-2.78,3.11-4.5,3.31a2.07,2.07,0,0,1-2.08-.9,3.71,3.71,0,0,1-.59-2.16,17.11,17.11,0,0,1,.4-3.47,26.42,26.42,0,0,1-2.66,4.87c-1.18,1.63-2.23,2.5-3.17,2.62a1.08,1.08,0,0,1-.65-.17,2.28,2.28,0,0,1-.59-.54,2.9,2.9,0,0,1-.44-.73,2.15,2.15,0,0,1-.16-.72,17.88,17.88,0,0,1,.5-4,18.49,18.49,0,0,1,1.79-4.23,12.94,12.94,0,0,1,2.84-3.46,7.29,7.29,0,0,1,3.87-1.72.79.79,0,0,1,.61.19,1.46,1.46,0,0,1,.35.64c.53-1.44.86-2.33,1-2.68.35-1,.64-1.82.86-2.52a15.19,15.19,0,0,0,.84-4.23,1.22,1.22,0,0,0-.23-.81.7.7,0,0,0-.68-.26l-.39.11a2.42,2.42,0,0,1,.45-.85,1.45,1.45,0,0,1,1-.49,2,2,0,0,1,2.07.9,3.69,3.69,0,0,1,.61,2.15,18.75,18.75,0,0,1-.8,4.86c-.35,1.27-1.23,3.87-2.66,7.78-.34.93-.61,1.73-.81,2.39a14.58,14.58,0,0,0-.8,4A1.17,1.17,0,0,0,278.63,310.4ZM277,301.81a4,4,0,0,0-2.14,1.22,11.37,11.37,0,0,0-1.86,2.45,16.17,16.17,0,0,0-1.28,2.78,7.17,7.17,0,0,0-.48,2.23c.66-.08,1.61-1.07,2.88-3a29.07,29.07,0,0,0,2.43-4.36Q276.76,302.52,277,301.81Z"/><path class="cls-33" d="M115.81,322.05a3.69,3.69,0,0,1-1.31-1.3,9.07,9.07,0,0,1-1-4.7,18.21,18.21,0,0,1,2.35-8.75,11.47,11.47,0,0,1,2.91-3.39,8,8,0,0,1,4-1.67,12.36,12.36,0,0,1,2.72,0c.59.08,1.42.24,2.5.47s1.78.37,2.11.42a8.93,8.93,0,0,0,2.3,0,7.45,7.45,0,0,0,3-1,7.06,7.06,0,0,0,2.33-2.28,3.05,3.05,0,0,1,.85,2,3.28,3.28,0,0,1-.38,1.54,4.5,4.5,0,0,1-1.06,1.31,6.41,6.41,0,0,1-3.53,1.47A10.75,10.75,0,0,1,130,306a15.48,15.48,0,0,1-3-1.05q-1.74-.76-2.19-.93a4.92,4.92,0,0,0-2.1-.34A4.41,4.41,0,0,0,120,305.2a10.6,10.6,0,0,0-2,3.19,21.13,21.13,0,0,0-1.2,4.13,24.14,24.14,0,0,0-.39,4.27,16,16,0,0,0,.3,3.31,5.18,5.18,0,0,0,.92,2.27A3.12,3.12,0,0,1,115.81,322.05Zm9.7,9.62a1,1,0,0,0,0,.2.32.32,0,0,1,0,.08.19.19,0,0,1,0,.12.17.17,0,0,1-.12.08,5.72,5.72,0,0,1-2.27-.31,4.46,4.46,0,0,1-1.06-.46q-.45-.3-.45-.63a23.8,23.8,0,0,1,.81-5.22q.56-2.26,1.83-6.51c-.66-.07-1.57-.18-2.75-.34a.53.53,0,0,1-.33-.11.73.73,0,0,1,0-.31c0-.19,0-.32.13-.38a1,1,0,0,1,.47-.15,11,11,0,0,1,2.83.32q1.68-5.66,2.07-7.11a22.65,22.65,0,0,0,.75-4.1,1.75,1.75,0,0,0,0-.25c0-.11,0-.18,0-.2a.16.16,0,0,1,0-.12.2.2,0,0,1,.11-.06,4.47,4.47,0,0,1,1.87.21,2.6,2.6,0,0,1,.8.4.67.67,0,0,1,.31.53,26.74,26.74,0,0,1-.55,3.95q-.5,2.31-1.67,6.87a21,21,0,0,0,9.82-3.32,2.23,2.23,0,0,1,0,.32,1.55,1.55,0,0,1-.13.48,1.52,1.52,0,0,1-.65.88q-2.16,1.86-9.3,2.71Q125.51,328.65,125.51,331.67Z"/><path class="cls-33" d="M171.4,311.83a2.35,2.35,0,0,1,.59-.91,1.78,1.78,0,0,1,.92-.34l-1.17,2.84L170,317.68a26.24,26.24,0,0,1-4.31,7.37,7.88,7.88,0,0,1-4.79,2.94,3.65,3.65,0,0,1-3.38-1.53,12.79,12.79,0,0,1-1.94-4c-.19-.57-.48-1.55-.87-2.93a17.44,17.44,0,0,0-.8-2.49c-.18-.32-.37-.48-.56-.45A5.16,5.16,0,0,1,150.8,319a33.64,33.64,0,0,0-2,9.77,1.48,1.48,0,0,0,0,.34.39.39,0,0,1,0,.12.15.15,0,0,1,0,.11.17.17,0,0,1-.13.08,5.78,5.78,0,0,1-2.26-.3,4.65,4.65,0,0,1-1.08-.46.8.8,0,0,1-.44-.64q0-5.58,3.8-14.7t3.81-12.58a1.5,1.5,0,0,0-.13-.66,10.31,10.31,0,0,0-4,1.8,17.18,17.18,0,0,0-4,3.93,21.08,21.08,0,0,0-3,6,25.47,25.47,0,0,0-1.21,8,2.17,2.17,0,0,1-2.21-1,5.06,5.06,0,0,1-.73-3,14.86,14.86,0,0,1,1-5.1,21.92,21.92,0,0,1,3-5.55,19.1,19.1,0,0,1,4.88-4.64,15.22,15.22,0,0,1,6.64-2.44,2.37,2.37,0,0,1,2.32.93,4.09,4.09,0,0,1,.74,2.51,18.81,18.81,0,0,1-.69,4.63c-.32,1.22-1,3.2-1.95,5.93s-1.61,4.52-1.91,5.4a4.93,4.93,0,0,0,1.35-1.56,19,19,0,0,0,1.27-2.59c.32-.74.79-1.94,1.4-3.59s1-2.72,1.23-3.23a33.2,33.2,0,0,1,3.21-6.53c1.35-2,2.81-3.05,4.37-3.24a5,5,0,0,1,4.23,1.06,3.85,3.85,0,0,1,.93,1.45,5,5,0,0,1,.29,1.7,7.91,7.91,0,0,1-.49,2.74,7.69,7.69,0,0,1-1.29,2.22,6.61,6.61,0,0,1-1.8,1.56,5,5,0,0,1-2,.72,1.59,1.59,0,0,1,.32-.55l.05-.05,0-.05a.76.76,0,0,0,.08-.11l.18-.24.36-.58a8.13,8.13,0,0,0,1-4.05c0-2-.69-2.87-2.06-2.71a4.26,4.26,0,0,0-2.5,1.41,15,15,0,0,0-2.16,3.1c-.56,1-1.28,2.49-2.16,4.49s-1.44,3.24-1.67,3.75c.74-.09,1.43.59,2.06,2a37.92,37.92,0,0,1,1.59,5.06q1,3.68,1.32,4.53a6.07,6.07,0,0,0,.83,1.54,1.09,1.09,0,0,0,1,.5c2.28-.26,4.74-3.62,7.38-10.05Z"/><path class="cls-36" d="M115.81,324.05a3.69,3.69,0,0,1-1.31-1.3,9.07,9.07,0,0,1-1-4.7,18.21,18.21,0,0,1,2.35-8.75,11.47,11.47,0,0,1,2.91-3.39,8,8,0,0,1,4-1.67,12.36,12.36,0,0,1,2.72,0c.59.08,1.42.24,2.5.47s1.78.37,2.11.42a8.93,8.93,0,0,0,2.3,0,7.45,7.45,0,0,0,3-1,7.06,7.06,0,0,0,2.33-2.28,3.05,3.05,0,0,1,.85,2,3.28,3.28,0,0,1-.38,1.54,4.5,4.5,0,0,1-1.06,1.31,6.41,6.41,0,0,1-3.53,1.47A10.75,10.75,0,0,1,130,308a15.48,15.48,0,0,1-3-1.05q-1.74-.76-2.19-.93a4.92,4.92,0,0,0-2.1-.34A4.41,4.41,0,0,0,120,307.2a10.6,10.6,0,0,0-2,3.19,21.13,21.13,0,0,0-1.2,4.13,24.14,24.14,0,0,0-.39,4.27,16,16,0,0,0,.3,3.31,5.18,5.18,0,0,0,.92,2.27A3.12,3.12,0,0,1,115.81,324.05Zm9.7,9.62a1,1,0,0,0,0,.2.32.32,0,0,1,0,.08.19.19,0,0,1,0,.12.17.17,0,0,1-.12.08,5.72,5.72,0,0,1-2.27-.31,4.46,4.46,0,0,1-1.06-.46q-.45-.3-.45-.63a23.8,23.8,0,0,1,.81-5.22q.56-2.26,1.83-6.51c-.66-.07-1.57-.18-2.75-.34a.53.53,0,0,1-.33-.11.73.73,0,0,1,0-.31c0-.19,0-.32.13-.38a1,1,0,0,1,.47-.15,11,11,0,0,1,2.83.32q1.68-5.66,2.07-7.11a22.65,22.65,0,0,0,.75-4.1,1.75,1.75,0,0,0,0-.25c0-.11,0-.18,0-.2a.16.16,0,0,1,0-.12.2.2,0,0,1,.11-.06,4.47,4.47,0,0,1,1.87.21,2.6,2.6,0,0,1,.8.4.67.67,0,0,1,.31.53,26.74,26.74,0,0,1-.55,3.95q-.5,2.31-1.67,6.87a21,21,0,0,0,9.82-3.32,2.23,2.23,0,0,1,0,.32,1.55,1.55,0,0,1-.13.48,1.52,1.52,0,0,1-.65.88q-2.16,1.86-9.3,2.71Q125.51,330.65,125.51,333.67Z"/><path class="cls-36" d="M171.4,313.83a2.35,2.35,0,0,1,.59-.91,1.78,1.78,0,0,1,.92-.34l-1.17,2.84L170,319.68a26.24,26.24,0,0,1-4.31,7.37,7.88,7.88,0,0,1-4.79,2.94,3.65,3.65,0,0,1-3.38-1.53,12.79,12.79,0,0,1-1.94-4c-.19-.57-.48-1.55-.87-2.93a17.44,17.44,0,0,0-.8-2.49c-.18-.32-.37-.48-.56-.45A5.16,5.16,0,0,1,150.8,321a33.64,33.64,0,0,0-2,9.77,1.48,1.48,0,0,0,0,.34.39.39,0,0,1,0,.12.15.15,0,0,1,0,.11.17.17,0,0,1-.13.08,5.78,5.78,0,0,1-2.26-.3,4.65,4.65,0,0,1-1.08-.46.8.8,0,0,1-.44-.64q0-5.58,3.8-14.7t3.81-12.58a1.5,1.5,0,0,0-.13-.66,10.31,10.31,0,0,0-4,1.8,17.18,17.18,0,0,0-4,3.93,21.08,21.08,0,0,0-3,6,25.47,25.47,0,0,0-1.21,8,2.17,2.17,0,0,1-2.21-1,5.06,5.06,0,0,1-.73-3,14.86,14.86,0,0,1,1-5.1,21.92,21.92,0,0,1,3-5.55,19.1,19.1,0,0,1,4.88-4.64,15.22,15.22,0,0,1,6.64-2.44,2.37,2.37,0,0,1,2.32.93,4.09,4.09,0,0,1,.74,2.51,18.81,18.81,0,0,1-.69,4.63c-.32,1.22-1,3.2-1.95,5.93s-1.61,4.52-1.91,5.4a4.93,4.93,0,0,0,1.35-1.56,19,19,0,0,0,1.27-2.59c.32-.74.79-1.94,1.4-3.59s1-2.72,1.23-3.23a33.2,33.2,0,0,1,3.21-6.53c1.35-2,2.81-3.05,4.37-3.24a5,5,0,0,1,4.23,1.06,3.85,3.85,0,0,1,.93,1.45,5,5,0,0,1,.29,1.7,7.91,7.91,0,0,1-.49,2.74,7.69,7.69,0,0,1-1.29,2.22,6.61,6.61,0,0,1-1.8,1.56,5,5,0,0,1-2,.72,1.59,1.59,0,0,1,.32-.55l.05-.05,0-.05a.76.76,0,0,0,.08-.11l.18-.24.36-.58a8.13,8.13,0,0,0,1-4.05c0-2-.69-2.87-2.06-2.71a4.26,4.26,0,0,0-2.5,1.41,15,15,0,0,0-2.16,3.1c-.56,1-1.28,2.49-2.16,4.49s-1.44,3.24-1.67,3.75c.74-.09,1.43.59,2.06,2a37.92,37.92,0,0,1,1.59,5.06q1,3.68,1.32,4.53a6.07,6.07,0,0,0,.83,1.54,1.09,1.09,0,0,0,1,.5c2.28-.26,4.74-3.62,7.38-10.05Z"/><path class="cls-38" d="M115.81,322.05a3.69,3.69,0,0,1-1.31-1.3,9.07,9.07,0,0,1-1-4.7,18.21,18.21,0,0,1,2.35-8.75,11.47,11.47,0,0,1,2.91-3.39,8,8,0,0,1,4-1.67,12.36,12.36,0,0,1,2.72,0c.59.08,1.42.24,2.5.47s1.78.37,2.11.42a8.93,8.93,0,0,0,2.3,0,7.45,7.45,0,0,0,3-1,7.06,7.06,0,0,0,2.33-2.28,3.05,3.05,0,0,1,.85,2,3.28,3.28,0,0,1-.38,1.54,4.5,4.5,0,0,1-1.06,1.31,6.41,6.41,0,0,1-3.53,1.47A10.75,10.75,0,0,1,130,306a15.48,15.48,0,0,1-3-1.05q-1.74-.76-2.19-.93a4.92,4.92,0,0,0-2.1-.34A4.41,4.41,0,0,0,120,305.2a10.6,10.6,0,0,0-2,3.19,21.13,21.13,0,0,0-1.2,4.13,24.14,24.14,0,0,0-.39,4.27,16,16,0,0,0,.3,3.31,5.18,5.18,0,0,0,.92,2.27A3.12,3.12,0,0,1,115.81,322.05Zm9.7,9.62a1,1,0,0,0,0,.2.32.32,0,0,1,0,.08.19.19,0,0,1,0,.12.17.17,0,0,1-.12.08,5.72,5.72,0,0,1-2.27-.31,4.46,4.46,0,0,1-1.06-.46q-.45-.3-.45-.63a23.8,23.8,0,0,1,.81-5.22q.56-2.26,1.83-6.51c-.66-.07-1.57-.18-2.75-.34a.53.53,0,0,1-.33-.11.73.73,0,0,1,0-.31c0-.19,0-.32.13-.38a1,1,0,0,1,.47-.15,11,11,0,0,1,2.83.32q1.68-5.66,2.07-7.11a22.65,22.65,0,0,0,.75-4.1,1.75,1.75,0,0,0,0-.25c0-.11,0-.18,0-.2a.16.16,0,0,1,0-.12.2.2,0,0,1,.11-.06,4.47,4.47,0,0,1,1.87.21,2.6,2.6,0,0,1,.8.4.67.67,0,0,1,.31.53,26.74,26.74,0,0,1-.55,3.95q-.5,2.31-1.67,6.87a21,21,0,0,0,9.82-3.32,2.23,2.23,0,0,1,0,.32,1.55,1.55,0,0,1-.13.48,1.52,1.52,0,0,1-.65.88q-2.16,1.86-9.3,2.71Q125.51,328.65,125.51,331.67Z"/><path class="cls-38" d="M171.4,311.83a2.35,2.35,0,0,1,.59-.91,1.78,1.78,0,0,1,.92-.34l-1.17,2.84L170,317.68a26.24,26.24,0,0,1-4.31,7.37,7.88,7.88,0,0,1-4.79,2.94,3.65,3.65,0,0,1-3.38-1.53,12.79,12.79,0,0,1-1.94-4c-.19-.57-.48-1.55-.87-2.93a17.44,17.44,0,0,0-.8-2.49c-.18-.32-.37-.48-.56-.45A5.16,5.16,0,0,1,150.8,319a33.64,33.64,0,0,0-2,9.77,1.48,1.48,0,0,0,0,.34.39.39,0,0,1,0,.12.15.15,0,0,1,0,.11.17.17,0,0,1-.13.08,5.78,5.78,0,0,1-2.26-.3,4.65,4.65,0,0,1-1.08-.46.8.8,0,0,1-.44-.64q0-5.58,3.8-14.7t3.81-12.58a1.5,1.5,0,0,0-.13-.66,10.31,10.31,0,0,0-4,1.8,17.18,17.18,0,0,0-4,3.93,21.08,21.08,0,0,0-3,6,25.47,25.47,0,0,0-1.21,8,2.17,2.17,0,0,1-2.21-1,5.06,5.06,0,0,1-.73-3,14.86,14.86,0,0,1,1-5.1,21.92,21.92,0,0,1,3-5.55,19.1,19.1,0,0,1,4.88-4.64,15.22,15.22,0,0,1,6.64-2.44,2.37,2.37,0,0,1,2.32.93,4.09,4.09,0,0,1,.74,2.51,18.81,18.81,0,0,1-.69,4.63c-.32,1.22-1,3.2-1.95,5.93s-1.61,4.52-1.91,5.4a4.93,4.93,0,0,0,1.35-1.56,19,19,0,0,0,1.27-2.59c.32-.74.79-1.94,1.4-3.59s1-2.72,1.23-3.23a33.2,33.2,0,0,1,3.21-6.53c1.35-2,2.81-3.05,4.37-3.24a5,5,0,0,1,4.23,1.06,3.85,3.85,0,0,1,.93,1.45,5,5,0,0,1,.29,1.7,7.91,7.91,0,0,1-.49,2.74,7.69,7.69,0,0,1-1.29,2.22,6.61,6.61,0,0,1-1.8,1.56,5,5,0,0,1-2,.72,1.59,1.59,0,0,1,.32-.55l.05-.05,0-.05a.76.76,0,0,0,.08-.11l.18-.24.36-.58a8.13,8.13,0,0,0,1-4.05c0-2-.69-2.87-2.06-2.71a4.26,4.26,0,0,0-2.5,1.41,15,15,0,0,0-2.16,3.1c-.56,1-1.28,2.49-2.16,4.49s-1.44,3.24-1.67,3.75c.74-.09,1.43.59,2.06,2a37.92,37.92,0,0,1,1.59,5.06q1,3.68,1.32,4.53a6.07,6.07,0,0,0,.83,1.54,1.09,1.09,0,0,0,1,.5c2.28-.26,4.74-3.62,7.38-10.05Z"/><path class="cls-3" d="M180.4,218.1l.95-.43,4.75,16.89s-.25.36-1.5.75Z"/></g></g></svg>