<svg xmlns="http://www.w3.org/2000/svg" xmlns:xlink="http://www.w3.org/1999/xlink" viewBox="0 0 307.52 345.68"><defs><style>.cls-1,.cls-20{fill:#fff;}.cls-2{fill:#be1e2d;}.cls-3{fill:#ffc7ab;}.cls-4{fill:#00163a;}.cls-10,.cls-11,.cls-12,.cls-13,.cls-14,.cls-16,.cls-17,.cls-18,.cls-19,.cls-20,.cls-21,.cls-22,.cls-23,.cls-24,.cls-25,.cls-32,.cls-5,.cls-6,.cls-7,.cls-8,.cls-9{fill-rule:evenodd;}.cls-6{fill:#212e9e;}.cls-7{fill:#2a4dd8;}.cls-8{fill:#4f6ef7;}.cls-9{fill:#f2aa03;}.cls-10{fill:#ffd400;}.cls-11{fill:#fff418;}.cls-12{fill:#b50400;}.cls-13{fill:#ff2724;}.cls-14{fill:#ff6a76;}.cls-15{fill:none;stroke:#00163a;stroke-miterlimit:10;}.cls-16{fill:#9c642b;}.cls-17{fill:#c39739;}.cls-18{fill:#f2cb6b;}.cls-19{fill:#ccced1;}.cls-21{fill:#989b9f;}.cls-22{fill:#7d8286;}.cls-23{fill:#bc8639;}.cls-24{fill:url(#linear-gradient);}.cls-25{fill:url(#linear-gradient-2);}.cls-26{fill:#a36133;}.cls-27{fill:#2169a5;}.cls-28{fill:#074568;}.cls-29{fill:#723b16;}.cls-30{fill:#b4c0c2;}.cls-31,.cls-32{fill:#ea967f;}</style><linearGradient id="linear-gradient" x1="59.72" y1="136.08" x2="57.77" y2="110.85" gradientUnits="userSpaceOnUse"><stop offset="0.09" stop-color="#7d8286"/><stop offset="0.21" stop-color="#8c9094"/><stop offset="0.45" stop-color="#b3b6b8"/><stop offset="0.77" stop-color="#f1f1f2"/><stop offset="0.83" stop-color="#fff"/></linearGradient><linearGradient id="linear-gradient-2" x1="58.52" y1="114.87" x2="59.48" y2="132.85" xlink:href="#linear-gradient"/></defs><g id="Layer_2" data-name="Layer 2"><g id="Layer_1-2" data-name="Layer 1"><path class="cls-1" d="M181.76,2.47A31.79,31.79,0,0,0,168.11,0V3A38.67,38.67,0,0,1,180.46,4.9Z"/><circle class="cls-2" cx="153.76" cy="191.92" r="146.24"/><path class="cls-3" d="M165.4,156.54s24.45-19.89,32-31.93c0,0-4.52,18.38-26.66,33.22,0,0,.22,10.31-5.59,14.72-1.08.73,1.19-6.88,1.19-6.88s-5.22,3.39-5.49,4.89.43,7.36.43,7.36,18.71-7.35,38.38-14.29c0,0-3.34-4.46-3.28-6.45s5.93-28.91,7.07-40.23c0,0-4.76,1.16-6.75-4.64,0,0,4.14,1.39,5,1.12s5.26-3.81,5-4.73c-1.94-14.34,7.31-16.49,8.33-21.49,0-1.13-3.23-9.84-6.45-11.66-3.1-.49-18,19.5-19.35,27.89,0,0-4.74-1.11-5.25-2.44s.09-14-.55-16.16a15.07,15.07,0,0,0-2.74-3.11S177,83.3,171.88,85a50,50,0,0,1,.35,5.91c0,7.46-1.57,13.82-3.77,16.25a12.42,12.42,0,0,1,3.77,1.06c-7.49,0-19.33,5.19-19.33,5.19,4.84-4.91,9.54-6.27,13.09-6.37,2.95-1.93,4.55-9.13,3.64-17.45-.14-1.29-.34-2.53-.58-3.73a70.15,70.15,0,0,1-12.93,2.65,23,23,0,0,0-2.22,13.42s-2.63-4-1.21-13.29c-11.4-.47-28.16-12.84-34.85-18.9,0,0-1.15,9-1.86,10.82,18.09-1.69,33,33.78,23.46,45.28,0,0,6.56,4.73,13.65.7,0,0-.43,4.68-9.13,4.14a5.29,5.29,0,0,0-.09,1.85c13.2,3.15,27-24.85,40.93-18.72,0,0-2.68,1.23-3.54,2.79s-4.35,23-30.07,28.05c-7.73.94-4.83-5.62.29-6.39a13.54,13.54,0,0,0-.82-3.6s-10.75,4-9.35-4.7c0,0-5-2.9-4.8-4.76.13-1.4,3.36-3.11,3.89-9.63-3,.45-8.2-3.85-12.32-10.4-3.9-6.2-5.55-12.41-4.26-15.18-2-.59-3.72-.67-4.58-.26-1.21,1-.33,5-.33,5s15.16,21.55,6.13,43.48c-1.17,3.57,19.67,6.23,24.72,17.73A135.38,135.38,0,0,0,165.4,156.54ZM208.11,82l-.15,1.2-.13-.16a44.79,44.79,0,0,1-2.93,4.57,3.72,3.72,0,0,1,1.4,2c.32,1.29-1.9,6.23-1.9,6.23s.25-3.65.14-4-1.61-.9-1.61-.9a25,25,0,0,0-2.58,6.34,8.66,8.66,0,0,1,1.39,3.08l.19-.23c-.12,5.51-3.37,6.72-3.37,6.72.54-8-2.15-6.49-2.79-9C195.34,93.66,208.11,82,208.11,82ZM164.66,88.5c2.12,0,3.83,3.32,3.83,7.41s-1.71,7.42-3.83,7.42-3.83-3.32-3.83-7.42S162.55,88.5,164.66,88.5Z"/><path class="cls-3" d="M112.29,100.36a24.14,24.14,0,0,1,4.22-.58l-3.33-6.19a11.37,11.37,0,0,0-2.58,9.24c.22.88,3.91.36,9.07,4.1a31.08,31.08,0,0,0-1.4-3.56C117.88,102.79,114.22,100.36,112.29,100.36Z"/><path class="cls-3" d="M234.78,245.8s4.84,9.89,6.08,13.17a84.34,84.34,0,0,1,8.27,1.66s-10.69,1.19-17.36,7.8c0,0,11.07,6.12,14.08,22.35,0,0,12.69-10.53,14.94-17.52,0,0-5.69,5.05-7.47,5.81.17-2.23,12.15-13,12.15-15,.23-2-6.83-23.7-12.09-28.8A82.34,82.34,0,0,1,234.78,245.8Z"/><path class="cls-3" d="M50.12,210s-2,14.73-1.39,21.72c.52,6.33,11.85,19,13,20.74l10.81-4.08-8.94-35.9C53.53,212.89,50.12,210,50.12,210Z"/><path class="cls-3" d="M116,80.51a12.53,12.53,0,0,1,2,0c.62-2.6,1.57-6.71,1.94-9-.78-.65-1.49-1.27-2.11-1.83C117.84,69.69,116.69,78.68,116,80.51Z"/><path class="cls-4" d="M262.49,83.19A154,154,0,0,0,219.92,53c-.89,5.22-2.08,10.27-2.78,15.41A138.77,138.77,0,1,1,55.67,93.82q3.22-3.22,6.64-6.21A32.49,32.49,0,0,1,60,79.2c0-2.49-1.38-4.71-2.67-7A154.88,154.88,0,0,0,45,83.19,153.76,153.76,0,1,0,262.49,300.64a153.77,153.77,0,0,0,0-217.45Z"/><path class="cls-5" d="M43.14,156.53a51.75,51.75,0,0,1,5.68-.46c-.21,9.76,1.39,19.38,5.4,27.88A52.65,52.65,0,0,0,70,203C80.82,211,94.59,213.88,105.84,205c-5.39,10-16.83,10.71-26.95,8a42.45,42.45,0,0,1-19-11.15C48.29,190.37,41.53,172.77,43.14,156.53Z"/><path class="cls-6" d="M100.77,209.28c-10.15,9.26-27.95,1.45-36.51-5.59-13.41-11-20.78-29.23-20.33-46.44.73-.15,2,.2,3.94-.06-1,16.45,5,33.79,17.73,44.63C75.33,210.08,88.56,214.72,100.77,209.28Z"/><path class="cls-7" d="M70.62,208a44,44,0,0,1-6.36-4.31c-13-10.7-20.32-28.13-20.35-44.86l1.2,0A1.18,1.18,0,0,1,46.25,160c.22,6.16,1.17,16,4.72,23.06a80.16,80.16,0,0,0,14.9,20.87c1.4,1.32,3.39,3,4.75,4.08Z"/><path class="cls-8" d="M62.5,202.17c-11.9-10.78-18.56-27.38-18.59-43.34l.81,0a.47.47,0,0,1,.46.45c.25,4.68,1.19,15.65,4.73,23.36a75.82,75.82,0,0,0,11,17.48C61.55,201,62.08,201.64,62.5,202.17Z"/><path class="cls-5" d="M55.1,159.18c1.47-.21,5.24-.54,6.7-.54A84.58,84.58,0,0,0,66.19,184c2.82,9,6.19,16.66,13.61,22.74,8.18,6.7,18.69,5.66,26.15-1-1.17,6.29-10.81,10-16.82,9.84-12.53-.38-22.48-15.09-27.18-25S55.35,170.08,55.1,159.18Z"/><path class="cls-9" d="M82,212.82a30.34,30.34,0,0,1-7.77-5.91,59.23,59.23,0,0,1-12.74-21,92.59,92.59,0,0,1-5.24-26.26c.9-.12,3.15-.14,4.07-.24a105.77,105.77,0,0,0,4.16,24.25c2.37,8.14,5.8,16,11.5,21.65,7.06,7,15.66,9.81,25,4.31-3.12,6-14.18,5.69-19,3.21Z"/><path class="cls-10" d="M77.78,210.08a33.93,33.93,0,0,1-3.51-3.17,59.23,59.23,0,0,1-12.74-21,85.71,85.71,0,0,1-4-15.16c.29,0,.53,0,1,0a2.81,2.81,0,0,1,1.31.38,1,1,0,0,1,.52.75,95.4,95.4,0,0,0,6.43,21.91c4.75,10.43,13.15,16.8,11.25,16.4l-.29-.08Z"/><path class="cls-11" d="M71.25,203.51a62.3,62.3,0,0,1-9.72-17.61,85.71,85.71,0,0,1-4-15.16c.29,0,.53,0,1,0h.21a.75.75,0,0,1,.67.66c.41,3.76,2.1,13.64,9.09,27,1,1.87,1.88,3.55,2.72,5.08Z"/><path class="cls-5" d="M76,193.33a89.3,89.3,0,0,1-4.08-12.08c-2.32-8.69-3.07-16.49-3.93-24.45a58.59,58.59,0,0,1,6-.54c.91,7.54,1.61,16.17,3.47,24.41,1.65,7.27,4.2,14.23,8.6,19.87,4.57,5.88,11.68,10.28,19.17,7.81a3.54,3.54,0,0,1-.43,4.2c-.82.26-3.48.81-3.48.88a20.88,20.88,0,0,1-10.48-2.35c-6.92-3.9-11.68-10.66-14.89-17.75Z"/><path class="cls-12" d="M92.33,210.45a27.73,27.73,0,0,1-7.5-5.91c-10.58-11.6-14-28.8-15.85-46.92.88-.12,3.46-.23,4.36-.33,1.46,16.36,3.78,35.49,13.31,45.63a26.21,26.21,0,0,0,8.43,6.33,13,13,0,0,0,9.32.53,3.54,3.54,0,0,1-.26,1.95c-4.41.93-7.83.8-11.81-1.28Z"/><path class="cls-13" d="M87.91,207.48a30.52,30.52,0,0,1-3.08-2.94C74.64,193.36,71.11,177,69.19,159.6h1.33a1.55,1.55,0,0,1,1.54,1.33c.76,5.26,3.77,24.8,7.5,33,4.34,9.49,6.64,11.39,8.81,13.56.41.4.18.36-.46,0Z"/><path class="cls-14" d="M83.36,202.83C74.29,191.73,71,176.12,69.19,159.6h.62a1.37,1.37,0,0,1,1.37,1.29,121.05,121.05,0,0,0,3.81,22A67.58,67.58,0,0,0,83.36,202.83Z"/><path class="cls-4" d="M201.72,100.41a8.62,8.62,0,0,0-1.39-3.07A24.62,24.62,0,0,1,202.91,91s1.5.57,1.61.89-.15,4-.15,4,2.23-5,1.9-6.24a3.68,3.68,0,0,0-1.39-2,43,43,0,0,0,2.92-4.58l.14.16.14-1.19s-12.77,11.66-12.34,15.89c.64,2.5,3.33,1,2.79,9,0,0,3.25-1.21,3.38-6.72Z"/><path class="cls-4" d="M164.64,88.52c-2.12,0-3.83,3.32-3.83,7.42s1.71,7.42,3.83,7.42,3.83-3.32,3.83-7.42S166.75,88.52,164.64,88.52ZM164,95.19c-.54,0-1-1-1-2.24s.45-2.24,1-2.24,1,1,1,2.24S164.5,95.19,164,95.19Z"/><path class="cls-4" d="M120.14,215c-1.93,1.43-8.67,17.41-9,22.57s13.91,14,17.49,14.5,27.3-7.69,31.89-10.06,10.31-23.29,10.31-23.29C147.09,219.87,120.14,215,120.14,215ZM159,237.93c-9.46,5.23-31,9.74-31,9.74-6.3-1.65-12.54-8.31-12.89-10.75s3.79-13.61,3.79-13.61c21.59,6.61,45.29,4.37,45.29,4.37A53.44,53.44,0,0,1,159,237.93Zm-39.41-16.27c.43-1.43,1.72-4.37,1.72-4.37,9.82,4.59,44.57,4.37,44.57,4.37l-1.29,3.66C144.43,228.25,119.57,221.66,119.57,221.66Z"/><path class="cls-4" d="M135.12,271.93c-4.09-3.23-16.7-2.58-16.7-2.58.54.18,3.34,1.9,3.34,1.9a23,23,0,0,0-1.29,13.39,6.64,6.64,0,0,1-3.73-.24c3.55,4,11.61,4.94,16.09,3.76S137.09,273.9,135.12,271.93Zm-11.9,5.21s4,.07,4.34.43.47,3.06-.25,3.3a16.59,16.59,0,0,1-4.25-.27C123,280.51,123.22,277.14,123.22,277.14Zm8,8.69c-2.15,1.18-7.63-.47-7.63-.47a6.13,6.13,0,0,1-.33-2.72s4.29.81,5.77-.35,1.35-5.45.24-6.29-4.12-1.37-5.68-1.21a20.83,20.83,0,0,1,.75-3.18s8,.71,8.81,2S133.33,284.65,131.18,285.83Z"/><path class="cls-4" d="M72.51,248.35l-2.73,1,2.76-1Z"/><path class="cls-4" d="M259.66,232.05s3.8-2.14,4.65-4.94c.87-5.73-24-42-24-42a18.37,18.37,0,0,0-.64-7.36c-.81-2-13-7-13-7s-.39-.82-1.07-2.19S212.37,163,212.37,163s-1.51-1.86-2.08-2.36-5.8-.54-5.8-.54a6.4,6.4,0,0,1-1.37-2.25c-.36-1.22,4-27.3,4-27.3s15.33-11.69,16.19-15.7c.43-7.16-5.59-19.92-5.59-19.92s3.37-4.08,3.37-5.66-1.8-8.31-1.8-8.31,4-17.34,3.16-28.38C215,30,188.27,18,188.27,18s2.08-4.48,1.18-6C183,1.78,165.64,6.56,164.68,7.91s0,4.94,0,4.94C135.23,19.09,115,35,114.62,35.75a20,20,0,0,0-.79,3.6S82.17,29,79.44,29.55,63.16,32.9,56.66,45.32c-10.75,19.77.75,53.84,8.7,56.32S106,95.12,106,95.12s-1.93,9.17-.35,11.6,13.83,4.09,15.61,8.53c1.51,5.38-1.25,19.87-.87,24.7s18.75,12.09,20.42,13.28,4.14,5.86,4.94,7.17,12.63,3,12.63,3c-2.36,0-7.55,3.9-7.55,3.9a2.72,2.72,0,0,0-1.37-.83c-1-.28-13.79,3.88-14.61,4.19s-3.07,2.85-4,3.57-10.11,2.47-11.34,3.93c-.58,1.36-9.25,14.54-28.88,22.57-2.79,1.11-2.24,6.07-2.4,6.5s-1.62,1.18-1.62,1.18c0-2-2-9.67-2-9.67s9.3-13.11,9.14-19c-1.08-14.09-12.25-21.18-13.22-21.18A34.83,34.83,0,0,0,75.09,160c-.86.26-1.59,2.31-1.59,2.31a1,1,0,0,1,0-.17l-4,7.62.6,1.92-1.64,2.8s.23-3.88-1.3-5.13-5.39-1.66-7.5-4.06l-.1-.11a29.67,29.67,0,0,0-2.48-2.51l-.56-.46a.52.52,0,0,0-.11-.1,12.7,12.7,0,0,0-1.48-1l0,0a6.85,6.85,0,0,0-2.45-.77h0c-.18,0-.36-.05-.54-.06a19.72,19.72,0,0,0-5.9.15h0l-.19.06c-1.78.75-11.45,6.7-12.17,7.72s-.27,12.37,0,13.17,6.07,4.81,6.07,4.81.76,10.42,1,10.92,4,3.87,4,3.87l.65.07c-7.17,39.7.13,39.08,4.22,45.29,2.26,2.91,8.24,12.32,9.53,13.47,1.1,1,10.5-3.5,13.36-4.89l24.4-9,1.4-.49s-2.26,15.64-2.2,16.29,3.55,3.59,3.55,3.59a146,146,0,0,1,.16,15.11s-3.5,8-3.55,9.29,4,7.69,4,7.69c.4,10.87.51,21.84.46,31.86a77.91,77.91,0,0,0,7.61,3.52c-.36-15.26-1.33-28.86-1.33-28.86l7.66,11.47s-11.4-25.57-11.48-27.1,2.64-7.28,2.64-7.28a21.48,21.48,0,0,0,3.65,1c-.59,9.13,7.09,11,7.09,11s7.75,28.49,8.5,30.42a7.6,7.6,0,0,0,3.11,3.22c-1.5.65-11.07,0-11.07,0,1.29,1.94,20.74,6.77,20.74,6.77l2.42,5.87c1.15.06,2.3.1,3.46.13-1.62-3.35-2.65-5.46-2.65-5.46l11.8,5.43h.25L141.78,330C138,319,135,296.13,135,296.13a10.66,10.66,0,0,0,5.21-.81c3.18-1.18,2.93-6.95,2.93-6.95,11,.93,28.66,0,28.66,0,1,13.62,6.16,12.11,6.16,12.11.22,1.87,3.22,7.45,3.22,7.45s-16.84-8.81-17.63-9.45S160,293.1,160,293.1s.08,4.44,2,6.95,25.94,14.26,25.94,14.26c2.62,2.28,6.23,8.72,10.24,17.26l2.19-.47c-1.84-4-3.67-7.58-5.48-10.77a9.65,9.65,0,0,0,7.17,0l3.71,9.45a60.23,60.23,0,0,0,7.68-2.59c-2.23-5.48-3.59-8.76-3.59-8.76,1.76-1.32,8.5-6.55,8.5-6.55a59.69,59.69,0,0,0,7.13,0c1.14-.29,3.51-2.73,5-3.95s15.92-3.2,17.05-4.22.86-8.07.86-8.07c19.24-14.4,21.49-28.37,21.49-28.37a2.15,2.15,0,0,0,1.72-1.11C272.41,254.69,259.66,232.05,259.66,232.05Zm-2.58-6.3c-7.09,8.24-31.3,18.09-31.3,18.09L223.36,239c16.88-6.55,31.28-18.16,31.28-18.16Zm-52.74,18.62s8.24-6,11.82-7.46c0,0,4.66,12.84,6.88,13.27s6.09-.71,6.09-.71l5,10s-5.09,4.73-6.09,6.37c0,0-5.07-2.31-6.15-2.06s-8.37,9.37-9.47,9.55-3.84-3.15-4.8-3.19-11.25,0-11.25,0c-.14-1.58,10.75-10.58,10.78-10.67C207.31,259.05,204.34,248.39,204.34,244.37Zm29.88-63.05s-1.07,3.13,2.37,8.53c6.23,9.32,16.76,28.73,16.76,28.73-2.94,4.3-30.67,19.42-30.81,18.27-3.73-11.89-6.23-10.74-6.09-15.19s8.6-26.3,8.6-26.3a170.64,170.64,0,0,0-12.83,23.22c-.5.86-.29,5.45-.29,5.45-9-11.33-5.73-26.16-5.73-26.16C213,189.49,222,174.8,222,174.8,225.25,176.05,234.22,181.32,234.22,181.32Zm-19.78-12.19c4.14-1.07,5.27,1.67,5.27,1.67s-16.16,25.28-26.33,38.89c0,0-9.39,2.51-16.42,0C177,209.69,190.9,180.21,214.44,169.13Zm-78.68,30.43s7.49-13.84,10.68-17.67a12,12,0,0,0,12.11,9.89c8,0,17.77-8,36.76-15.23,0,0-12.39,13.65-18.35,23C177,199.56,152.53,204.39,135.76,199.56ZM216.7,52.84c1.72,4.08-2.85,21.66-2.85,21.66S211,70.85,209,71c-6,.91-12.53,10-12.53,10-.87-.49-5.26-2.53-5.26-2.53,14.62-45.57-5.9-55.79-5.9-55.79C204.12,27.9,215,48.76,216.7,52.84ZM169.73,11a32.93,32.93,0,0,1,14,2.5L182.41,16a39.74,39.74,0,0,0-12.68-2Zm0,7.58c8.92.43,19.72,7.64,22.68,19.67S189,76.05,189,76.05c-13.43-21.6-53.21-28.75-70.19-32.89C123,33,160.81,18.12,169.73,18.55Zm-102,76.32c-8.49-11-18.24-50.56,12.9-58.69C100.94,47.3,172.88,52.91,185.32,76.7c0,0-27.24,8.49-34.15,7.74-13.9,0-60.44-44.86-72.59-44.86-4.89,0-10.1,7.72-10.1,7.72s5.91-4.46,9.13-4.46c3.39,0,36.76,24.83,36.76,24.83s-4.46,16.45-4.13,20.59C110.24,88.26,76.33,97.45,67.73,94.87Zm42.85,8a11.39,11.39,0,0,1,2.58-9.24l3.33,6.2a23.49,23.49,0,0,0-4.23.57c1.94,0,5.59,2.44,6,3a30.22,30.22,0,0,1,1.39,3.56C114.48,103.21,110.79,103.73,110.58,102.85Zm39.16,53.07c-5.06-11.51-25.9-14.16-24.72-17.74,9-21.93-6.13-43.48-6.13-43.48s-.88-4,.32-5c.86-.41,2.54-.33,4.59.27-1.29,2.77.36,9,4.26,15.18,4.11,6.54,9.32,10.85,12.31,10.39-.52,6.53-3.76,8.24-3.89,9.63-.18,1.87,4.8,4.77,4.8,4.77-1.4,8.74,9.35,4.69,9.35,4.69a13.67,13.67,0,0,1,.82,3.61c-5.11.77-8,7.32-.28,6.39,25.71-5,29.2-26.5,30.06-28s3.55-2.79,3.55-2.79c-14-6.13-27.73,21.87-40.94,18.71a5.5,5.5,0,0,1,.09-1.84c8.71.53,9.14-4.14,9.14-4.14-7.1,4-13.65-.7-13.65-.7,9.57-11.5-5.38-47-23.47-45.29.72-1.82,1.86-10.82,1.86-10.82,6.69,6.07,23.46,18.43,34.85,18.9-1.42,9.24,1.21,13.3,1.21,13.3a23.09,23.09,0,0,1,2.23-13.42A70.21,70.21,0,0,0,169,85.84c.24,1.19.44,2.44.58,3.72.91,8.33-.69,15.52-3.64,17.45-3.55.11-8.24,1.47-13.08,6.37.37-.15,12-5.2,19.32-5.19a12.49,12.49,0,0,0-3.77-1c2.2-2.43,3.77-8.79,3.77-16.25a48.22,48.22,0,0,0-.35-5.92c5.13-1.64,8.84-3.22,8.84-3.22a15.19,15.19,0,0,1,2.75,3.12c.64,2.2.05,14.83.55,16.16s5.25,2.43,5.25,2.43c1.34-8.38,16.25-28.37,19.34-27.89C211.81,77.4,215,86.11,215,87.24c-1,5-10.27,7.14-8.34,21.49.22.91-4.19,4.46-5,4.73s-5-1.13-5-1.13c2,5.8,6.76,4.64,6.76,4.64-1.15,11.32-7,38.25-7.08,40.24s3.28,6.44,3.28,6.44c-19.67,6.94-38.37,14.3-38.37,14.3s-.7-5.86-.43-7.36,5.32-4.79,5.47-4.88c-.1.36-2.23,7.58-1.17,6.86,5.8-4.4,5.58-14.72,5.58-14.72,21.8-14.6,26.52-32.64,26.65-33.2-7.53,12-32,31.91-32,31.91A136.53,136.53,0,0,1,149.74,155.92ZM133.18,97.85c-1.79,1-1.71,4.62.19,8.2s4.88,5.72,6.68,4.77a1.7,1.7,0,0,0,.23-.17,28.54,28.54,0,0,1,.16,2.94c-2.74.25-7.1-3.24-10.47-8.59-3.64-5.81-4.8-11.73-2.77-13.69A24.54,24.54,0,0,1,135.54,98,2.62,2.62,0,0,0,133.18,97.85Zm3.35,3.63c.47,1.06.32,2.15-.32,2.43s-1.54-.36-2-1.41-.32-2.16.32-2.44S136.07,100.42,136.53,101.48Zm18.08,33.59c-2.29,0-1.65-1.54-1.65-1.54,8.6-4,18.92-16.07,25.73-18.07-2.3,3.37-1.94,6.85-4.38,10.11C171,130.37,156.9,135,154.61,135.07Zm16.16-4.59c-5.84,8.42-16.91,10.43-16.91,10.43l-.33-3.77C163.17,136.43,170.77,130.48,170.77,130.48ZM150.6,173c.75-1.29,6.5-4.2,6.5-4.2s-2.63,10.75,2,13.12,34.39-13.22,46.11-16.12a4.65,4.65,0,0,1,3.87,1.18s-5.23,2.93-6.16,4.22c0,0-10.4,1.8-35.66,15.34C146,195.26,148.09,176.44,150.6,173Zm-10.86,3.54c6.42-3.2,7.45-3,7.45-3a18.9,18.9,0,0,1-.57,3.76,66.51,66.51,0,0,0-18.16,31.21s-6.78-.33-10.75-2C117.71,206.43,131.57,181.28,139.74,176.55Zm-16.37,7.13,5.23-2.44c-2.87,2.87-11.68,17.49-11.68,17.49-3.53-.72-14.26,15-14.26,15-.86-2.63-7.09-8.85-7.09-8.85C115.27,196.94,122.31,186.87,123.37,183.68ZM77.73,165.19c.07-.46,9.73,3,10.24,15.2-.47,6.64-7.59,13.47-7.59,13.47s-2.52-8.71-2.91-9.75,3.44-1.83,4.7-4.51c0,0-9.36,5.82-11.4-2.13C70.44,175.21,72.81,176,77.73,165.19ZM67.55,176.8c0,.44.9,3,.9,3a5.07,5.07,0,0,1-2.6-.91A11,11,0,0,0,67.55,176.8ZM47,195c-.89-1.13-.89-8.65-1.83-11.13s-5.73-5.73-6.27-6.19-1.21-5.31-.64-6.27,12.21-6.92,14.38-7.76c1.4,0,5.48,6.13,12.12,8.25,1,3-1.37,6.21-2.14,6.45-.46.14-8-3.47-9.71-3.63-1.85,0-6.43,2.89-7.2,2.9,4.73,4.31,11.64,4.36,14.16,3.93,3.5,0,7.09,2.18,12,2.47,0,0,2,6.23-1.93,7.31s-5.09,3.44-7.9,3.44a14.23,14.23,0,0,0-8.48,2.77c2.94-.77,10.83-.23,10.83-.23s5-4.08,6.87-3.4,1.94,5.37,1.94,5.37c-6.13,5.45-5.59,7.31-8.5,8.44-4.81,1.83-10.67-.46-11.45-1.15s-1.56-6.05-2.47-7.94S47.88,196.08,47,195Zm53.74,42.54-7.52,3.44-3.26,1.18-17.4,6.28-2.76,1-8.07,3.06c-1.16-1.8-12.48-14.42-13-20.75-.58-7,1.4-21.71,1.4-21.71s3.41,2.94,13.47,2.47l.06.22L67.55,211,70,208l.83-.69.75-.73c1.56-1.53,5.08-5,5.55-5.41l0,0c.26-.25.3-1.89.3-1.89l5,17.2,3.93-1.14c2.43-.44,9.45-4.31,9.45-4.31l4.87,6.24c-.92,1-3.51,8.31-3.51,10s3.87,6.95,3.87,6.95A14.08,14.08,0,0,0,100.72,237.49Zm8.77,40.74-3.71-1.77s.37-9.25.42-10.48l4.38,1.56S109.16,274.36,109.49,278.23Zm29.28,50c-.28-.17-9.15-5.49-10.21-6.34s-7.85-27.62-7.85-27.62c2.27,1.29,12.15,1.72,12.15,1.72A125.32,125.32,0,0,0,138.77,328.21Zm-.21-35.9c-1.51.79-22.93-3.22-24.58-5.51s.22-19.57,2-21.5c1.05-1.4,23.27,2.11,24.18,4.41S140.07,291.53,138.56,292.31Zm1.05-27.38c-2.66-.62-20.51-4.43-25-2.66a7,7,0,0,0-2.68,2.42s-7.22-3.08-9.41-5.12c0,0,2.69-11.18,2.76-20.85,0,0,5.81,5.52,6.73,6.52.32-3.37-9.09-11.83-10.17-18.28-.22-1.7,6.81-15.26,10.89-19.77,0,0,1.44,5.16,12.68,5.44,6.67.54,8.71-9.53,8.71-9.53s16.55,5.81,40.42,0c0,0-2.53,6.34-1.19,8.82s10.46,5.23,21.93.93c1.87-.76,6-7.38,6-7.38s-.5,19.7,12.83,26.15c0,0-25.66,13.33-28.24,26.37,0,0,8.39-8.89,13.19-10.75-.07,3.48,2.15,7.64,1.79,9.46-.3,1.51-8.81,8.53-8.81,8.53s-16.55,2.58-48.91,3.76C143.18,269,142.26,265.55,139.61,264.93Zm33.31,19.18-29,.53c.35-5.71.43-12,.43-12,30,1.77,46.86-2.6,46.86-2.6v1.77c-6.44.92-6.88,8.33-13.61,10.36A10.76,10.76,0,0,0,172.92,284.11Zm68.5,14.44c-14.58,1.07-17.25,6.93-17.63,7s-5.1,1.07-5.1,1.07a13.46,13.46,0,0,0,1.72-3.92,56,56,0,0,1-5.32,4.67c-.7.49-15.53,9.68-16.18,9.68S191.3,311,191.3,311a4,4,0,0,0,2.86-2.19s-6,.08-7.34-.64-4.15-7.28-4.15-7.28c4.29.47,5.65-.31,5.65-.31-1.93-1.65-9-2.3-9.92-3.38s-1.36-9.44-1.36-9.44c3.29-2.38,16.9-5.06,17.55-6.53-3-.77-7.84-.08-7.84-.08s2.71-4.29,4.22-4.9a128.44,128.44,0,0,1,15.79-.06c1.45.21,2.31,2.17,6.4,2.38s11.28-8.27,11.28-8.27C243.36,278.77,241.42,298.55,241.42,298.55Zm24-34.45c0,1.95-12,12.77-12.14,15,1.77-.75,7.47-5.8,7.47-5.8-2.26,7-14.94,17.52-14.94,17.52-3-16.23-14.08-22.36-14.08-22.36,6.66-6.61,17.36-7.79,17.36-7.79a82.59,82.59,0,0,0-8.28-1.67c-1.24-3.28-6.07-13.16-6.07-13.16a82.57,82.57,0,0,0,18.59-10.53C258.62,240.4,265.67,262.11,265.44,264.1Z"/><path class="cls-4" d="M153.08,339.23h-.25l.58.27Z"/><path class="cls-15" d="M77.46,199.23s0,1.64-.3,1.89Z"/><path class="cls-4" d="M46,160.33l-.19.06h-.06Z"/><path class="cls-5" d="M60.15,129.28a8.94,8.94,0,0,1,1.52.32c.77.2,1.32-.24,1-1a14.54,14.54,0,0,1,1-14.82c6.15-8,17.31-7.56,23.11.4a14.07,14.07,0,0,1-3.41,19.23c.11,3.64.23,7.29.35,10.93l-6.51.23-.38-4.12c-.38,0-1.57,0-2,0,.18,4.92.28,11,.44,16,0,.84,0,1.72-1,1.75l-5.48.19A1.27,1.27,0,0,1,67.43,157c-.14-4.19-.41-9.15-.56-13.33a8.1,8.1,0,0,1-4.12,2.65c-.06,3.12,0,7.06-.07,10.17-.21,1.21.24,2-1.31,2h-6c-1.19-.36-.84-.81-.87-2.14l.14-9.78a17.56,17.56,0,0,1-4.32-2.76c-.16,4.18-.31,9-.46,13.23a1.27,1.27,0,0,1-1.32,1.38L43,158.19c-1,0-1.08-.91-1-1.75.16-5,.26-10.13.44-15.05l-1.16,0-.12,3.26-7.58-.27c.12-3.64.24-7.29.35-10.93a14.07,14.07,0,0,1-3.41-19.23c5.8-8,17-8.44,23.11-.4a14.54,14.54,0,0,1,1,14.82c-.36.76.19,1.2,1,1a8.94,8.94,0,0,1,1.52-.32,14.39,14.39,0,0,1,3,0Zm-18.72,7.38c0-.19,0-.39,0-.58l1.16,0c0,.2,0,.4,0,.6Zm34.41,0,0-.58-1.16,0c0,.2,0,.4,0,.6l1.16,0Z"/><g id="_197355504" data-name=" 197355504"><path id="_197573928" data-name=" 197573928" class="cls-5" d="M55.41,107a9,9,0,0,1-4.95-5.36,8.24,8.24,0,0,1,2.82-8.76,8.57,8.57,0,0,1,7-1.46A7.61,7.61,0,0,1,65.66,96a11.57,11.57,0,0,1,.71,3.58c0,1.32-.14,3-1.55,3.58a1.75,1.75,0,0,1-2.42-.92c-.11-1-.08-2-.12-3a6.75,6.75,0,0,0-.45-2.58,3.51,3.51,0,0,0-3.15-1.9,4.64,4.64,0,0,0-3,.67,4.37,4.37,0,0,0-1.81,2.38A5.23,5.23,0,0,0,54,100.7a5.31,5.31,0,0,0,2.35,2.62c1,.47,1.72.78,2.7,1.21A2.71,2.71,0,0,1,60.6,107l0,23.27h-4l-.06-21A2.18,2.18,0,0,0,55.41,107Z"/><path id="_197382056" data-name=" 197382056" class="cls-16" d="M56.23,106.11c-2-1.19-3.9-2.34-4.63-4.73a7.26,7.26,0,0,1,0-4.28A6.84,6.84,0,0,1,54,93.7a7,7,0,0,1,5-1.32,6.82,6.82,0,0,1,5.61,4.26,8.26,8.26,0,0,1,.43,3.5c0,.72-.11,1.53-.86,1.84-.63,0-.74-.45-.76-1,0-.41.12-1.1.09-2.42a5.34,5.34,0,0,0-1.27-3.45,5.78,5.78,0,0,0-9.06,7,7,7,0,0,0,3.06,2.56c.47.19,1.14.41,1.77.7a2.6,2.6,0,0,1,1.38,2.48c.12,1.38.09,2.78.09,4.17v17.82H57.75V112.25a32.79,32.79,0,0,0-.11-3.83,2.57,2.57,0,0,0-1.41-2.31Z"/><path id="_197381096" data-name=" 197381096" class="cls-17" d="M56.23,106.11c-2-1.19-3.9-2.34-4.63-4.73a7.26,7.26,0,0,1,0-4.28A6.84,6.84,0,0,1,54,93.7a7,7,0,0,1,5-1.32,6.82,6.82,0,0,1,5.61,4.26,8.26,8.26,0,0,1,.43,3.5c0,.72-.11,1.53-.86,1.84-.63,0-.74-.45-.76-1,0-.41.12-1.1.09-2.42a5.34,5.34,0,0,0-1.27-3.45,5.21,5.21,0,0,0-1.62-1.15,4.15,4.15,0,0,0-2-1c-2-.43-6.13,1.59-6.76,5.09a5.29,5.29,0,0,0,2.85,5.83l.41.14c.33.21.69.41,1.08.61l.53.2a5,5,0,0,1,1.79,1.6c.53,1.06.42,17.71-.32,19.41a3.32,3.32,0,0,1-.53.81V112.25a32.79,32.79,0,0,0-.11-3.83A2.57,2.57,0,0,0,56.23,106.11Z"/><path id="_197311520" data-name=" 197311520" class="cls-18" d="M56.23,106.11a12.88,12.88,0,0,1-3.63-2.81c1.64.89,5.2,2.37,5.6,3.27s.1,8.19,0,11.19a13,13,0,0,1-.45,2.83v-8.34a32.79,32.79,0,0,0-.11-3.83A2.57,2.57,0,0,0,56.23,106.11Zm0-13.51A7.48,7.48,0,0,1,59,92.38,7.07,7.07,0,0,1,62.72,94a12.72,12.72,0,0,1,1.62,4.71,8.21,8.21,0,0,1-.13,3.32c-.62,0-.73-.45-.75-1,0-.41.12-1.1.09-2.42a5.34,5.34,0,0,0-1.27-3.45,5.28,5.28,0,0,0-.81-.69,5.28,5.28,0,0,0-3.22-1.88A4.67,4.67,0,0,0,56.26,92.6Z"/></g><path class="cls-6" d="M35.58,143l0-.6,3.7.14,0,.59Zm.05-1.43,0-.94,3.7.14,0,.94Zm.06-1.77,0-1,3.7.14,0,.95Zm.05-1.78,0-.94,3.7.14,0,.94Zm.06-1.77,0-.88,2.23.07c1,.28,1,.28,1.45.38l0,.57Z"/><path class="cls-12" d="M81.69,143l0-.6-3.7.14,0,.59Zm0-1.43,0-.94-3.7.14,0,.94,3.7-.14Zm-.06-1.77,0-1-3.7.14,0,.95Zm0-1.78,0-.94-3.7.14,0,.94Zm-.06-1.77,0-.88-2.23.07c-1,.28-1,.28-1.45.38l0,.57,3.69-.14Z"/><g id="_199651384" data-name=" 199651384"><path id="_197778832" data-name=" 197778832" class="cls-19" d="M58.64,132.39a4.85,4.85,0,1,1-4.85,4.84A4.84,4.84,0,0,1,58.64,132.39Z"/><path id="_197356056" data-name=" 197356056" class="cls-20" d="M58.64,132.81a4.41,4.41,0,0,1,2.35.67l-1.77,3.3-.35-.27-.52-3.69Zm-4.28,5.55a4.22,4.22,0,0,1-.15-1.13,4.44,4.44,0,0,1,3.33-4.29l.94,3.69Z"/><path id="_197781040" data-name=" 197781040" class="cls-21" d="M62.76,139a4.39,4.39,0,0,1-8.25,0l4.13-1.76Z"/><path id="_197312576" data-name=" 197312576" class="cls-22" d="M58.64,130.52a6.71,6.71,0,1,1-6.72,6.71A6.72,6.72,0,0,1,58.64,130.52Zm0,.94a5.78,5.78,0,1,1-5.78,5.77A5.77,5.77,0,0,1,58.64,131.46Z"/><path id="_197572176" data-name=" 197572176" class="cls-19" d="M64.77,137.35A6,6,0,0,1,58.58,143,6.41,6.41,0,0,1,54,141.12a6,6,0,0,0,4.94,2.54,5.74,5.74,0,0,0,5.88-5.58A5.84,5.84,0,0,0,64.77,137.35Z"/><path id="_197433656" data-name=" 197433656" class="cls-19" d="M58.64,130.52a6.72,6.72,0,0,1,6.71,6.71c0,.14,0,.28,0,.42a6.5,6.5,0,0,0-1.47-3.73,6.19,6.19,0,0,0-11.24,4.75,6.47,6.47,0,0,0,1.2,3.23,6.7,6.7,0,0,1,4.82-11.38Z"/></g><g id="_197311688" data-name=" 197311688"><path id="_197614528" data-name=" 197614528" class="cls-16" d="M55.66,157.31c2,.05,4,.05,6,0V146.38a19.78,19.78,0,0,1-6,0Zm18.68-1.86c-.15-4-.41-8.11-.62-12.16l-5.84.15c.2,4.2.3,8.39.51,12.59,0,.51-.18,1.32.78,1.29l4.4-.11C74.67,157.18,74.36,156,74.34,155.45Zm-31.4,0c.14-4,.4-8.11.61-12.16l5.84.15c-.2,4.2-.3,8.39-.5,12.59,0,.51.17,1.32-.79,1.29l-4.4-.11C42.6,157.18,42.92,156,42.94,155.45Z"/><path id="_197147608" data-name=" 197147608" class="cls-23" d="M55.66,157.31l2.38,0-.24-10.06-2.14-.71Zm4.26,0,1.69,0V146.38c-.31.05-.63.1-1,.13Zm14.42-1.88c-.15-4-.41-8.11-.62-12.16l-1.43,0c-.4.16-.64.35-.63.54.06.71.45,9.75.61,13.38l1.3,0C74.67,157.18,74.36,156,74.34,155.45ZM67.9,143.86c.19,4.06.29,8.11.49,12.17,0,.51-.18,1.32.78,1.29l.87,0c-.26-2.65-1.37-13.36-1.37-13.36l-.77-.08Zm-25,11.59c.14-4,.4-8.11.61-12.16l3.29.09L47,144l-.52,13.27-2.78-.07C42.6,157.18,42.92,156,42.94,155.45Z"/><path id="_197782936" data-name=" 197782936" class="cls-18" d="M60.88,157.32l.73,0v-9.58C61.52,148.79,61.08,154.21,60.88,157.32Zm13.46-1.87-1.22,1.17v.6h.44c.81,0,.85-.66.81-1.22,0-.2,0-.39,0-.54Zm-31.4,0c.14-4.06.4-8.11.61-12.16l2,.05c-.14,3.3-.4,9.82-.56,13.9l-1.32,0C42.6,157.18,42.92,156,42.94,155.45Z"/><path id="_197432312" data-name=" 197432312" class="cls-16" d="M54.07,143.51c-2.45-1.45-3.46-4.16-3.19-7.09a11.09,11.09,0,0,1,.79-3.21c-1-.59-1.87,3.29-1.84,4.13a10.42,10.42,0,0,0,0,2.3A8.59,8.59,0,0,0,53,144.35a10.76,10.76,0,0,0,11.31,0,8.53,8.53,0,0,0,3.18-4.71,10.42,10.42,0,0,0,0-2.3c0-.84-.8-4.72-1.84-4.13a11.09,11.09,0,0,1,.79,3.21c.27,2.93-.74,5.64-3.19,7.09a9.28,9.28,0,0,1-9.13,0Zm23-5-2.7.11,0,.83,2.71-.09Zm-3.2,3.71a37.46,37.46,0,0,0-.23-6.26c-4.09-.5-5.14-1.62-5,2a9,9,0,0,1-1,4.41ZM40.2,138.54l2.7.11,0,.83-2.71-.09Zm3.2,3.71a37.46,37.46,0,0,1,.23-6.26c4.09-.5,5.14-1.62,5,2a9,9,0,0,0,1,4.41Z"/><path id="_196512880" data-name=" 196512880" class="cls-23" d="M50.25,135.07a9.71,9.71,0,0,0-.42,2.27,10.42,10.42,0,0,0,0,2.3A8.59,8.59,0,0,0,53,144.35a10.19,10.19,0,0,0,6.26,1.58c.17-.17.3-.35.24-.48-.16-.36-4.18-.47-6.83-2.5s-2.11-6.83-2.11-7.26,0-.61-.29-.62Zm14.15,9.2a8.57,8.57,0,0,0,3.07-4.63,10.42,10.42,0,0,0,0-2.3v-.18c-.18-.14-.4.26-.63,1.58a10.44,10.44,0,0,1-2.3,4.48,1.12,1.12,0,0,0-.11,1.05Zm12-5.7-2.06.08,0,.83,2-.07Zm-2.55,3.29a41.8,41.8,0,0,0-.12-4.88c-.5,0-2-.35-2.11.35-.07.47-.26,2.84-.38,4.53Zm-32.53-3.27,1.55.06,0,.83-1.52,0Zm2,3.27a42.15,42.15,0,0,1,.12-4.77,13.1,13.1,0,0,0,2.12-.54c1.09-.43,1.36.66,1.36,1.6,0,.68,0,2.55.13,3.71Z"/><path id="_197574936" data-name=" 197574936" class="cls-18" d="M50,136.18a6,6,0,0,0-.15,1.16,10.42,10.42,0,0,0,0,2.3A8.59,8.59,0,0,0,53,144.35,7.36,7.36,0,0,0,54,145a10.37,10.37,0,0,1-2.51-2.79A15,15,0,0,1,50,136.52C50,136.41,50,136.3,50,136.18Zm16.43,5.89a9.58,9.58,0,0,0,1.06-2.43,4.19,4.19,0,0,0,0-1.5,11.93,11.93,0,0,0-.95,2.64A5.38,5.38,0,0,0,66.41,142.07Zm7.47-.21a41.8,41.8,0,0,0-.12-4.88l-.53-.06a.58.58,0,0,0-.64.65,17.93,17.93,0,0,1,.16,3.7,5.5,5.5,0,0,1-.14.59Zm-31-2.53v.15h0Zm.51,2.53a42.15,42.15,0,0,1,.12-4.77l.31-.06a.48.48,0,0,1,.57.45v.18c0,.53.2,3.27.27,4.2Z"/></g><g id="_197312168" data-name=" 197312168"><path id="_197154304" data-name=" 197154304" class="cls-24" d="M75.07,111.73A10.29,10.29,0,1,1,64.78,122,10.3,10.3,0,0,1,75.07,111.73Zm-32.87,0A10.29,10.29,0,1,1,31.92,122,10.29,10.29,0,0,1,42.2,111.73Z"/><path id="_197355984" data-name=" 197355984" class="cls-25" d="M84.29,119.8a9.49,9.49,0,0,1-18.35,4.81,25,25,0,0,1,6.8-3.55A30.84,30.84,0,0,1,84.29,119.8Zm-32.53,2.43a9.56,9.56,0,0,1-18.32,3.6,22.34,22.34,0,0,1,8.26-3.36A25.92,25.92,0,0,1,51.76,122.23Z"/><path id="_269011136" data-name=" 269011136" class="cls-22" d="M75.07,113.08A8.94,8.94,0,0,1,84,122c0,.14,0,.28,0,.42l-1.47-.28V122a7.47,7.47,0,0,0-14.94,0q0,.35,0,.69l-1.41.57a8.69,8.69,0,0,1-.09-1.26A8.94,8.94,0,0,1,75.07,113.08Zm-32.87,0A8.94,8.94,0,0,1,51.14,122c0,.14,0,.28,0,.42l-1.46-.28V122a7.47,7.47,0,1,0-14.94,0c0,.23,0,.46,0,.69l-1.41.57a8.68,8.68,0,0,1-.1-1.26,8.94,8.94,0,0,1,8.94-8.94Z"/><path id="_269011160" data-name=" 269011160" class="cls-5" d="M75.07,120a1.89,1.89,0,0,1,.82.18l1.2-1.54a1.08,1.08,0,0,1,0-1.26,1.11,1.11,0,0,1,1.54-.19,1.09,1.09,0,0,1-1,1.9l-1.17,1.51A2,2,0,0,1,75.07,124a1.88,1.88,0,0,1-1-.28l-2.9,3.73L70.6,127l2.92-3.75a1.93,1.93,0,0,1-.44-1.24,2,2,0,0,1,2-2ZM42.2,120a1.9,1.9,0,0,1,.83.18l1.2-1.54a1.08,1.08,0,0,1,.05-1.26A1.09,1.09,0,0,1,46,118.75a1.09,1.09,0,0,1-1.21.37l-1.17,1.51A2,2,0,0,1,42.2,124a2,2,0,0,1-1-.27l-2.9,3.72-.57-.45,2.91-3.75A2,2,0,0,1,42.2,120Z"/><path id="_269011184" data-name=" 269011184" class="cls-12" d="M85.32,115.5a12.29,12.29,0,0,0-19.23-1.86,12.69,12.69,0,0,0-3.2,7.92,12.24,12.24,0,0,0,11.4,12.94c6.32.37,11.19-3.65,12.73-9.65A12.87,12.87,0,0,0,85.32,115.5Zm.7,9.23a12.3,12.3,0,0,0-1.68-9,11.48,11.48,0,0,0-17.65-1.38,11.79,11.79,0,0,0-2.8,7.45,11.34,11.34,0,0,0,2.87,8,11.11,11.11,0,0,0,7.58,3.7A11.3,11.3,0,0,0,86,124.73Z"/><path id="_269011280" data-name=" 269011280" class="cls-6" d="M32,115.5a12.29,12.29,0,0,1,19.23-1.86,12.69,12.69,0,0,1,3.2,7.92A12.24,12.24,0,0,1,43,134.5c-6.32.37-11.19-3.65-12.73-9.65A12.87,12.87,0,0,1,32,115.5Zm-.7,9.23a12.35,12.35,0,0,1,1.68-9,11.48,11.48,0,0,1,17.65-1.38,11.79,11.79,0,0,1,2.8,7.45,11.29,11.29,0,0,1-2.87,8,11.11,11.11,0,0,1-7.58,3.7,11.3,11.3,0,0,1-11.68-8.8Z"/><path id="_269010608" data-name=" 269010608" class="cls-13" d="M85.32,115.5a12.28,12.28,0,0,0-1.93-2.35,6.18,6.18,0,0,1,0,1.48,11.73,11.73,0,0,1,.92,1.14,12.3,12.3,0,0,1,1.68,9,11.53,11.53,0,0,1-8.38,8.54c0,.36,0,.69.08,1a12.33,12.33,0,0,0,9.3-9.4A12.87,12.87,0,0,0,85.32,115.5Zm-16.65-3.93a11.79,11.79,0,0,0-2.58,2.07,12.69,12.69,0,0,0-3.2,7.92A12.33,12.33,0,0,0,66.5,131c.2-.24.41-.49.62-.76l-.36-.39a11.34,11.34,0,0,1-2.87-8,11.79,11.79,0,0,1,2.8-7.45,10.25,10.25,0,0,1,2.42-2Z"/><path id="_269010728" data-name=" 269010728" class="cls-7" d="M32,115.5a12.19,12.19,0,0,1,10.33-5.66c.26,0,.52,0,.78,0,0,.34.09.69.13,1.06a9.49,9.49,0,0,0-1.07,0,11.05,11.05,0,0,0-9.19,4.88,12.35,12.35,0,0,0-1.68,9,12.07,12.07,0,0,0,4.37,6.65c-.31.23-.6.44-.87.62a13.19,13.19,0,0,1-4.5-7.15A12.87,12.87,0,0,1,32,115.5Zm21,.65a13.43,13.43,0,0,1,1.45,5.41,12.31,12.31,0,0,1-8.21,12.31l.33-1.18a10.88,10.88,0,0,0,4-2.86,11.29,11.29,0,0,0,2.87-8,13,13,0,0,0-1-4.51C52.6,116.93,52.77,116.54,52.93,116.15Z"/><path id="_269010896" data-name=" 269010896" class="cls-14" d="M85.91,119.48a12.35,12.35,0,0,1,.11,5.25,12.75,12.75,0,0,1-1.25,3.09l.15,1.64a12.14,12.14,0,0,0,1.6-11.52C86.31,118.43,86.1,118.94,85.91,119.48Zm-19.1-6.55c-.25.23-.49.47-.72.71a12.69,12.69,0,0,0-3.2,7.92,12.53,12.53,0,0,0,.55,4.39c.17-.14.34-.26.51-.38a3.84,3.84,0,0,0,.34-.28,11.37,11.37,0,0,1-.4-3.45,11.79,11.79,0,0,1,2.8-7.45c.19-.21.39-.4.59-.59-.16-.31-.32-.61-.47-.87Z"/><path id="_269011640" data-name=" 269011640" class="cls-8" d="M32,115.5a12,12,0,0,1,3.79-3.78l-.58,1.64a12.61,12.61,0,0,0-2.23,2.41,12.35,12.35,0,0,0-1.68,9,12.78,12.78,0,0,0,.73,2.08l-.9.41a14.12,14.12,0,0,1-.83-2.37A12.87,12.87,0,0,1,32,115.5Zm22.32,5c0,.36.09.72.11,1.08A12.3,12.3,0,0,1,50.8,131c0-.47,0-.94-.06-1.4A11.19,11.19,0,0,0,53.38,122C53.67,121.46,54,121,54.27,120.48Z"/></g><path class="cls-26" d="M82.13,179.61c-1.25,2.69-5.09,3.48-4.69,4.52s2.9,9.74,2.9,9.74,7.13-6.82,7.59-13.47c-.51-12.17-10.16-15.65-10.24-15.2-4.92,10.8-7.28,10-7,12.28C72.77,185.44,82.13,179.61,82.13,179.61Z"/><path class="cls-26" d="M191.19,271.8V270s-16.87,4.37-46.86,2.59c0,0-.08,6.33-.43,12l29-.54a10.77,10.77,0,0,1,4.7-2C184.31,280.13,184.74,272.71,191.19,271.8Z"/><path class="cls-26" d="M224.4,270.29s-7.2,8.5-11.28,8.28-5-2.18-6.4-2.39a128.28,128.28,0,0,0-15.78.06c-1.51.61-4.23,4.91-4.23,4.91s4.86-.7,7.85.07c-.66,1.47-14.26,4.16-17.56,6.54,0,0,.47,8.37,1.36,9.44s8,1.72,9.93,3.37c0,0-1.36.79-5.66.32,0,0,2.79,6.56,4.15,7.28s7.35.64,7.35.64a4,4,0,0,1-2.87,2.19s7,6.05,7.62,6.05,15.47-9.19,16.17-9.67a56.12,56.12,0,0,0,5.32-4.68,13,13,0,0,1-1.72,3.92s4.73-1,5.11-1.07,3-5.91,17.63-7C241.39,298.56,243.32,278.79,224.4,270.29Z"/><path class="cls-26" d="M188.93,76.07s6.4-25.8,3.44-37.83S178.62,19,169.69,18.57,122.94,33,118.75,43.18C135.73,47.31,175.5,54.47,188.93,76.07Z"/><path class="cls-1" d="M127.27,280.88c.72-.23.61-2.94.25-3.29s-4.33-.43-4.33-.43-.22,3.36-.16,3.45A16.51,16.51,0,0,0,127.27,280.88Z"/><path class="cls-26" d="M106.17,266c0,1.23-.43,10.48-.43,10.48l3.71,1.77c-.32-3.87,1.1-10.7,1.1-10.7Z"/><path class="cls-26" d="M124.26,271.62a20.92,20.92,0,0,0-.75,3.19c1.57-.16,4.59.38,5.69,1.21s1.24,5.13-.24,6.29-5.77.35-5.77.35a6.08,6.08,0,0,0,.32,2.72s5.48,1.65,7.63.46,2.76-10.92,1.94-12.21S124.26,271.62,124.26,271.62Z"/><path class="cls-26" d="M50.68,198.6c.92,1.88,1.7,7.23,2.47,7.93s6.64,3,11.45,1.16c2.91-1.13,2.38-3,8.5-8.44,0,0-.07-4.7-1.93-5.38s-6.88,3.41-6.88,3.41-7.9-.55-10.84.23a14.18,14.18,0,0,1,8.49-2.78c2.81,0,4-2.36,7.9-3.44s1.94-7.3,1.94-7.3c-4.88-.29-8.46-2.49-12-2.48-2.52.43-9.42.38-14.15-3.92.76,0,5.34-2.9,7.2-2.9,1.73.16,9.24,3.76,9.7,3.63.78-.24,3.14-3.5,2.15-6.45-6.64-2.13-10.72-8.25-12.12-8.25-2.17.84-13.81,6.79-14.38,7.75s.1,5.81.64,6.27,5.34,3.73,6.27,6.2.93,10,1.83,11.13S49.77,196.72,50.68,198.6Z"/><path class="cls-27" d="M128.42,208.49a66.57,66.57,0,0,1,18.17-31.2,19,19,0,0,0,.57-3.77s-1-.15-7.45,3c-8.17,4.73-22,29.88-22,29.88C121.65,208.17,128.42,208.49,128.42,208.49Z"/><path class="cls-27" d="M202,320.35a9.68,9.68,0,0,1-7.16,0c1.8,3.18,3.63,6.8,5.48,10.77,1.83-.41,3.63-.84,5.4-1.32Z"/><path class="cls-27" d="M114.34,67.69S81,42.86,77.58,42.86c-3.22,0-9.14,4.45-9.14,4.45s5.22-7.71,10.11-7.71c12.14,0,58.68,44.85,72.58,44.85,6.91.76,34.15-7.73,34.15-7.73C172.85,52.93,100.9,47.31,80.59,36.19,49.46,44.33,59.2,83.92,67.69,94.88c8.6,2.58,42.51-6.61,42.51-6.61C109.88,84.13,114.34,67.69,114.34,67.69Z"/><path class="cls-27" d="M176.93,209.71c7,2.51,16.41,0,16.41,0,10.18-13.62,26.33-38.89,26.33-38.89s-1.12-2.74-5.26-1.67C190.87,180.22,176.93,209.71,176.93,209.71Z"/><path class="cls-27" d="M105.28,238.73a109.7,109.7,0,0,1-2.76,20.85c2.18,2,9.4,5.13,9.4,5.13a7,7,0,0,1,2.69-2.42c4.46-1.78,22.3,2,25,2.66s3.58,4.06,3.58,4.06c32.35-1.19,48.9-3.77,48.9-3.77s8.52-7,8.81-8.52c.37-1.83-1.86-6-1.79-9.46-4.8,1.86-13.18,10.75-13.18,10.75,2.58-13,28.23-26.37,28.23-26.37-13.33-6.45-12.83-26.16-12.83-26.16s-4.15,6.63-6,7.38c-11.47,4.3-20.59,1.54-21.93-.93s1.18-8.81,1.18-8.81c-23.86,5.8-40.41,0-40.41,0s-2.05,10.06-8.71,9.53c-11.25-.29-12.68-5.45-12.68-5.45-4.09,4.52-11.12,18.07-10.89,19.78,1.07,6.45,10.49,14.91,10.17,18.27C111.08,244.25,105.28,238.73,105.28,238.73Zm5.8-1.15c.36-5.16,7.09-21.13,9-22.57,0,0,26.94,4.87,50.66,3.73,0,0-5.73,20.92-10.32,23.29s-28.3,10.51-31.89,10.05S110.72,242.74,111.08,237.58Z"/><path class="cls-27" d="M117,326.51s9.56.64,11.07,0a7.65,7.65,0,0,1-3.12-3.23c-.75-1.93-8.49-30.41-8.49-30.41s-7.69-1.88-7.09-11a21.71,21.71,0,0,1-3.66-1s-2.71,5.75-2.63,7.28,11.48,27.1,11.48,27.1l-7.67-11.47s1,13.61,1.34,28.87a99.47,99.47,0,0,0,31.92,6.49l-2.41-5.87S118.32,328.44,117,326.51Z"/><path class="cls-27" d="M138.74,328.23A124.9,124.9,0,0,1,132.83,296s-9.89-.43-12.15-1.72c0,0,6.77,26.77,7.85,27.63S138.74,328.23,138.74,328.23Z"/><path class="cls-27" d="M194.65,332.3l3.49-.71c-4-8.54-7.63-15-10.25-17.26,0,0-24-11.75-25.93-14.26s-2-6.95-2-6.95,2.79,4.73,3.58,5.37S181.16,308,181.16,308s-3-5.59-3.23-7.45c0,0-5.15,1.5-6.16-12.11,0,0-17.63.93-28.66,0,0,0,.25,5.77-2.92,6.95a10.71,10.71,0,0,1-5.21.8s3,22.85,6.77,33.92L153,339.24a289.52,289.52,0,0,0,32.22-3.18C188.39,336.06,191.52,332.3,194.65,332.3Z"/><path class="cls-27" d="M152.8,339.25,141,333.82s1,2.11,2.65,5.46C146.69,339.36,149.74,339.34,152.8,339.25Z"/><path class="cls-27" d="M164.54,225.33l1.28-3.65s-34.75.21-44.57-4.37c0,0-1.29,2.94-1.71,4.37C119.54,221.68,144.4,228.27,164.54,225.33Z"/><path class="cls-27" d="M127.92,247.69s21.57-4.52,31-9.75a53.21,53.21,0,0,0,5.16-10.24s-23.71,2.23-45.29-4.38c0,0-4.16,11.18-3.8,13.62S121.61,246,127.92,247.69Z"/><path class="cls-1" d="M174.28,125.59c2.44-3.27,2.08-6.74,4.37-10.11-6.81,2-17.12,14-25.72,18.06,0,0-.65,1.58,1.64,1.54S170.91,130.39,174.28,125.59Z"/><path class="cls-1" d="M153.82,140.92s11.07-2,16.91-10.43c0,0-7.59,5.95-17.23,6.67Z"/><path class="cls-1" d="M167.22,186.56c25.26-13.54,35.65-15.33,35.65-15.33C203.8,169.94,209,167,209,167a4.66,4.66,0,0,0-3.87-1.18c-11.71,2.9-41.48,18.49-46.11,16.12s-2-13.11-2-13.11-5.75,2.9-6.5,4.19C148.05,176.46,145.94,195.27,167.22,186.56Z"/><path class="cls-1" d="M116.88,198.75s8.82-14.62,11.68-17.49c0,0-5.89,2.72-5.23,2.44-1,3.19-8.09,13.25-27.8,21.21,0,0,6.23,6.21,7.09,8.85C102.62,213.76,113.35,198,116.88,198.75Z"/><path class="cls-1" d="M225.75,243.85S250,234,257,225.76l-2.43-4.91S240.2,232.46,223.33,239Z"/><path class="cls-1" d="M191.19,78.44s4.38,2,5.25,2.52c0,0,6.57-9.08,12.54-10,2-.11,4.84,3.54,4.84,3.54s4.56-17.57,2.84-21.66-12.57-24.93-31.38-30.2C185.28,22.65,205.81,32.86,191.19,78.44Z"/><path class="cls-1" d="M183.72,13.49a32.75,32.75,0,0,0-14-2.5v3a39.77,39.77,0,0,1,12.69,2Z"/><path class="cls-1" d="M158.52,191.8a12,12,0,0,1-12.11-9.89c-3.19,3.83-10.68,17.66-10.68,17.66,16.77,4.84,41.2,0,41.2,0,5.95-9.35,18.35-23,18.35-23C176.29,183.77,166.54,191.8,158.52,191.8Z"/><path class="cls-1" d="M211.9,224s-.22-4.59.29-5.45A170.16,170.16,0,0,1,225,195.38s-8.45,21.85-8.6,26.3,2.37,3.29,6.09,15.19c.15,1.14,27.88-14,30.82-18.28,0,0-10.54-19.41-16.77-28.73-3.44-5.39-2.37-8.53-2.37-8.53s-9-5.26-12.25-6.52c0,0-9,14.69-15.76,23.08C206.17,197.89,202.94,212.72,211.9,224Z"/><path class="cls-1" d="M138.52,292.33c1.51-.79,2.48-20.43,1.62-22.61S117,263.91,116,265.31c-1.79,1.94-3.65,19.21-2,21.5S137,293.12,138.52,292.33Zm-5.73-4.16c-4.48,1.19-12.54.22-16.09-3.76a6.61,6.61,0,0,0,3.73.25,23,23,0,0,1,1.29-13.4s-2.79-1.72-3.33-1.9c0,0,12.61-.64,16.69,2.58C137.05,273.91,137.27,287,132.79,288.17Z"/><path class="cls-3" d="M100.69,217.23,95.82,211s-7,3.87-9.46,4.3L93.16,241l7.53-3.44a14.08,14.08,0,0,1,.36-3.36s-3.87-5.31-3.87-7S99.76,218.24,100.69,217.23Z"/><ellipse class="cls-1" cx="163.92" cy="92.96" rx="0.99" ry="2.24"/><path class="cls-1" d="M158.09,109.3a16.74,16.74,0,0,1,7.84-2.27c2.95-1.93,4.55-9.12,3.64-17.45-.14-1.29-.34-2.53-.58-3.72a70.15,70.15,0,0,1-12.93,2.65,23,23,0,0,0-2.22,13.41l0,0C154.57,104.65,155.86,107.6,158.09,109.3Zm6.51-20.76c2.12,0,3.83,3.32,3.83,7.42s-1.71,7.41-3.83,7.41-3.83-3.32-3.83-7.41S162.49,88.54,164.6,88.54Z"/><path class="cls-1" d="M140.41,113.6a28.35,28.35,0,0,0-.16-2.93,2.07,2.07,0,0,1-.24.17c-1.79.94-4.78-1.19-6.68-4.77s-2-7.26-.19-8.21a2.65,2.65,0,0,1,2.36.14,24.59,24.59,0,0,0-8.33-6.67c-2,2-.88,7.88,2.77,13.69C133.3,110.37,137.67,113.85,140.41,113.6Z"/><ellipse class="cls-1" cx="135.34" cy="102" rx="1.27" ry="2.1" transform="translate(-29.47 62.52) rotate(-23.53)"/><path class="cls-28" d="M107.5,51.81c5.3,5.33,36.61,28,46.82,28.67,8.74.55,25.18-4.33,29.75-5.75-2.61-3.78-6.79-7.09-12-10C137.38,72.73,107.5,51.81,107.5,51.81Z"/><path class="cls-28" d="M118.64,204.73l-1,1.72c4,1.72,10.75,2,10.75,2a66.57,66.57,0,0,1,18.17-31.2,19,19,0,0,0,.57-3.77,4.17,4.17,0,0,0-1.42.36c-4.06,5.88-15.78,23-20.22,31.17C125.52,205.05,121.19,204.73,118.64,204.73Z"/><path class="cls-28" d="M115,236.94c.36,2.44,6.59,9.1,12.9,10.75,0,0,21.57-4.52,31-9.75a53.21,53.21,0,0,0,5.16-10.24s-1.93.18-5.19.28c-1.51,3-3.08,5.84-3.77,6.24-1.51.86-17.06,6.14-27.7,4.8-5.6-1.29-9.83-5.65-9.94-6.51-.06-.53.3-4.34.59-7.18C116.93,228.66,114.76,235.15,115,236.94Z"/><path class="cls-28" d="M197.5,220.53c2.51.65,4.51,5.88,3,9.46s-8.31,1.93-31.1,34.25c-7,9.75.43-15.1,3.72-18.13-6.38,2.53-9.6,16.34-22,18.88a48.56,48.56,0,0,0,10.54-14.58c-3.12-.2-22.12,25.73-44.43,1.67,0,0,2.69,6.72,5.36,10a158.66,158.66,0,0,1,17,2.88c2.66.62,3.58,4.06,3.58,4.06,32.35-1.19,48.9-3.77,48.9-3.77s8.52-7,8.82-8.52c.36-1.82-1.87-6-1.8-9.46a14.1,14.1,0,0,0-2.66,1.46c1.47,1.78,5,8.15-13.32,13.66,0,0,1.32-2.54,3-5.07,3.33-12.82,28.07-25.67,28.07-25.67-13.33-6.45-12.82-26.16-12.82-26.16s-4.16,6.63-6,7.38c-.85.32-1.69.6-2.51.84-2.18,3.62-7.93,13.31-9.32,17C183.45,230.71,195,219.89,197.5,220.53Z"/><path class="cls-28" d="M112.73,207.2c-4.09,4.52-11.12,18.07-10.89,19.78.93,5.59,8.13,12.69,9.82,16.67a18.26,18.26,0,0,0,6.18,2.57c-3.76-2.85-6.93-6.17-6.76-8.64a23.49,23.49,0,0,1,1-4.68c-1.46-2.72-4.6-9.16-4.6-10.54,0-1.66,4.58-11,6.65-13.11A5,5,0,0,1,112.73,207.2Z"/><path class="cls-28" d="M193.34,209.71c10.18-13.61,26.34-38.89,26.34-38.89a3.13,3.13,0,0,0-.87-1.07c-7.54,7.7-26,33.92-27.19,34.55-3.59,1.95-9.91,2.35-13,2.11-1.13,2.06-1.72,3.3-1.72,3.3C184,212.22,193.34,209.71,193.34,209.71Z"/><path class="cls-28" d="M165.83,221.68s-1.46,0-3.86,0c-.44.93-1.16,2.48-2,4.17,1.54-.12,3.06-.28,4.56-.5Z"/><path class="cls-28" d="M105.28,238.73a109.7,109.7,0,0,1-2.76,20.85c2.18,2,9.4,5.13,9.4,5.13a7,7,0,0,1,2.69-2.42,7.35,7.35,0,0,1,1.86-.39,40.31,40.31,0,0,1-7.56-19.69C107.13,240.49,105.28,238.73,105.28,238.73Z"/><path class="cls-28" d="M163.53,298.49c.79.65,17.63,9.46,17.63,9.46s-3-5.59-3.22-7.45c0,0-5.16,1.5-6.17-12.11l-1.31.06c-.11,2.22-1.45,6.36-10,5.49h0A33.59,33.59,0,0,0,163.53,298.49Z"/><path class="cls-28" d="M159.87,324a4.79,4.79,0,0,0,.57.46Z"/><path class="cls-28" d="M138.74,328.23a120.23,120.23,0,0,1-3.87-15.11c-.91,0-2.76-.05-3.08-.58s-3.11-13.31-3.88-16.9c-2.84-.27-6.06-.71-7.23-1.38,0,0,6.77,26.77,7.85,27.63S138.74,328.23,138.74,328.23Z"/><path class="cls-28" d="M112.08,325.15a34.65,34.65,0,0,1,5.21,1.62,1.06,1.06,0,0,1-.26-.26s9.56.64,11.07,0a7.67,7.67,0,0,1-3.12-3.22c-.22-.58-1.07-3.52-2.14-7.36-15.26-21.07-16.45-31.63-16.37-34.8l-.73-.25s-2.71,5.75-2.63,7.28,11.48,27.1,11.48,27.1l-7.67-11.47s1,13.61,1.34,28.87a85.38,85.38,0,0,0,11.44,3.63C115.79,333.11,112.56,329.29,112.08,325.15Z"/><path class="cls-28" d="M120.72,328.35a20.33,20.33,0,0,1,5.26,3.89,56.27,56.27,0,0,1,4.82,6.09q4.65.59,9.38.82l-2.41-5.87S126.71,330.53,120.72,328.35Z"/><path class="cls-28" d="M70.06,84.89S70,73.76,71,71.83s37.35-9.47,41.77,2.11c.86-3.52,1.6-6.25,1.6-6.25S81,42.86,77.58,42.86c-3.22,0-9.13,4.45-9.13,4.45s.37-.56,1-1.37C64.06,52.37,59.32,65.13,70.06,84.89Z"/><path class="cls-28" d="M110.2,88.27a20.73,20.73,0,0,1,.38-4.2c-5.69.43-13.93,3.38-33.86,5.11-5.79.2-6.67,3.31-9.29,5.36l.26.34C76.29,97.46,110.2,88.27,110.2,88.27Z"/><path class="cls-28" d="M198.14,331.59c-4-8.54-7.63-15-10.24-17.26l-1.3-.64c3.47,5.66,6.25,13.1,8,18.61h0Z"/><path class="cls-28" d="M144.62,322c-1.72-2.58-3.44-14.84-3.44-14.84,4,4.69,16,14.62,18.69,16.88-4.35-4.21-14.55-26.31-14.14-30.37.29-2.86,4.71-4.27,7.56-4.88-3.55,0-7.12-.14-10.18-.4,0,0,.25,5.77-2.92,6.95a10.81,10.81,0,0,1-5.21.81s3,22.84,6.77,33.91L153,339.24c3.66-.11,7.32-.34,11-.65C153.9,330.85,145.56,323.41,144.62,322Z"/><path class="cls-28" d="M152.8,339.25l-8.49-3.91c.35.88,1,2.26,1.83,4Q149.47,339.35,152.8,339.25Z"/><path class="cls-28" d="M187.59,335.48c-7.66-3.88-16.75-8.68-16.75-8.68a75,75,0,0,0,11.23,9.71l3.19-.45A5.92,5.92,0,0,0,187.59,335.48Z"/><path class="cls-28" d="M202,320.35a9.08,9.08,0,0,1-4.31.66c.77,1.75,2.26,5.14,4.24,9.74,1.28-.3,2.54-.61,3.79-.95Z"/><path class="cls-28" d="M170.8,207.18s-28.47,2.37-37.77-.65a16.94,16.94,0,0,1-.95,1.91C135.45,210.06,150.28,216,170.8,207.18Z"/><path class="cls-29" d="M82.36,173.83c-4-.2-3,4.37-9.87,6.76,3.4,2.9,9.64-1,9.64-1-1.25,2.69-5.09,3.48-4.69,4.52s2.9,9.74,2.9,9.74,4.68-4.48,6.71-9.72C86.68,180.79,85.56,174,82.36,173.83Z"/><path class="cls-29" d="M164.18,279.5c-1.6,1.18-15.28.95-20.06.84-.06,1.4-.13,2.88-.22,4.32l29-.53a10.71,10.71,0,0,1,4.7-2c5.57-1.67,6.83-7,10.75-9.35-6.3.84-20.25,1.9-21.07,2.19C166.26,275.35,166.11,278.07,164.18,279.5Z"/><path class="cls-29" d="M109.45,278.25a31.87,31.87,0,0,1,.37-6.34c-.92-.27-2.53-.74-3.85-1.07-.11,2.76-.23,5.64-.23,5.64Z"/><path class="cls-29" d="M130,277.83c.24,1.6,0,3.72-1,4.48-1.48,1.15-5.77.35-5.77.35a6.08,6.08,0,0,0,.32,2.72s5.48,1.65,7.63.46c1.35-.73,2.09-4.81,2.25-8.08C132.4,277.75,130.93,277.75,130,277.83Z"/><path class="cls-29" d="M188.93,76.07s6.4-25.8,3.44-37.83c-2.9-11.82-13.35-19-22.17-19.64-1.08,1.19-.5,1.94-.5,1.94,19.09,9.93,7.77,36.13,5,41.87C180.58,66.18,185.58,70.67,188.93,76.07Z"/><path class="cls-29" d="M45.12,183.84c.93,2.47.93,10,1.83,11.13s2.82,1.75,3.73,3.63,1.69,7.23,2.47,7.93,6.64,3,11.45,1.15a5.28,5.28,0,0,0,1-.5,11.31,11.31,0,0,1-2.68-6.6,14.53,14.53,0,0,1-9.48-3.07,14.18,14.18,0,0,1,8.49-2.78,4.93,4.93,0,0,0,2.47-.68c-4.41-2.54-5.95-5.85-6.38-8.54-2.23.28-7,.71-8.5-.59a5.53,5.53,0,0,1-2.08-3.66s5,.94,7.43.27a16.78,16.78,0,0,1-9.22-3.94c.76,0,5.34-2.9,7.2-2.9a5.7,5.7,0,0,1,1.07.26,25.19,25.19,0,0,1-1.7-4.6c-1.08-1.13-2.34-2.26-3.06-2.24-1.31,0-7.54,4.76-11.12,6.06a9,9,0,0,0,.8,3.47C39.39,178.11,44.19,181.37,45.12,183.84Z"/><path class="cls-29" d="M237,284.36a30.32,30.32,0,0,1-9.92,5.12,18.08,18.08,0,0,0-6.61-7.36s6.82,11.34,1.34,19.45c0,0,.8-12.83-5.8-18.38,0,0,2.08,11.07-.63,16.55-3.4,6.67-16.57,12.9-16.57,12.9a29,29,0,0,1-3.44-3.17s4.84-1.77,7-4.08c0,0-6.93,3.06-9.73,1.56s-4.08-6.67-4.08-6.67,5.75-1.61,7.25-2.9c0,0-14.19-2.2-15.64-4.46-.71-1.11-.48-3.11-.07-4.85q-1.44.18-3.06.27c.12,1.91.57,8,1.32,8.86.9,1.08,8,1.72,9.93,3.37,0,0-1.36.79-5.66.32,0,0,2.79,6.56,4.15,7.27s7.35.65,7.35.65a4,4,0,0,1-2.87,2.18s7,6.06,7.62,6.06,15.47-9.19,16.17-9.67a56.12,56.12,0,0,0,5.32-4.68,13,13,0,0,1-1.72,3.92s4.73-1,5.11-1.07,3-5.91,17.62-7a29.74,29.74,0,0,0-.84-8.94c.16.65.29,1.29.4,1.9A66.72,66.72,0,0,0,237,284.36Z"/><path class="cls-30" d="M174.28,125.59c2.44-3.26,2.08-6.74,4.37-10.11-2.26.67-4.92,2.44-7.77,4.67.23,1.95.65,5.77.69,8A11.15,11.15,0,0,0,174.28,125.59Z"/><path class="cls-30" d="M135.73,199.57c16.77,4.84,41.2,0,41.2,0,5.95-9.35,18.35-23,18.35-23-2.09.79-4.07,1.6-5.94,2.4-4.58,4.65-18.42,17.47-33.08,18.54-8.65.39-8.22-7.08-7.6-10.44a12.93,12.93,0,0,1-2.25-5.16C143.22,185.74,135.73,199.57,135.73,199.57Z"/><path class="cls-30" d="M138,278c-.86,1.32-1,10.78-1.53,11.21s-4.7.05-6.46-.6c-4.5.28-10.37-1-13.25-4.2a6.56,6.56,0,0,0,3.72.25,23,23,0,0,1,1.29-13.4s-2-1.25-3-1.73c-.5.44-2,2.31-1.62,8.45a15.65,15.65,0,0,0-3.63-.38c-.33,4.25-.29,8.2.44,9.21,1.64,2.3,23.07,6.31,24.57,5.52,1-.5,1.71-8.7,1.9-15.12A2.52,2.52,0,0,0,138,278Z"/><path class="cls-30" d="M191.19,78.44s4.38,2,5.26,2.52c0,0,6.57-9.08,12.53-10,2-.11,4.84,3.54,4.84,3.54s4.57-17.57,2.85-21.66a2.73,2.73,0,0,1-.13-.29c-4.41-.86-15.84-3.86-17.82-12.07-1.59-6.55-5.74-12.57-8.52-16a34.69,34.69,0,0,0-4.92-1.8S205.81,32.86,191.19,78.44Z"/><path class="cls-30" d="M206.17,197.89s-3.23,14.83,5.73,26.15c0,0-.21-4.58.29-5.44A169.3,169.3,0,0,1,225,195.38s-8.45,21.85-8.6,26.3,2.37,3.29,6.1,15.19c.14,1.14,27.87-14,30.81-18.27l-.07-.13c-2.13,1.32-13.31,8-20.19,7.17-2.1-.24-8.91-19.77-8.91-19.77A115,115,0,0,1,231.39,188,131,131,0,0,0,212,208.28s2.35-21.48,13.11-32c-1.24-.63-2.36-1.17-3.15-1.47C221.93,174.81,213,189.5,206.17,197.89Z"/><path class="cls-30" d="M116.88,198.75s.74-1.23,1.86-3c-4.1,3.11-12.81,9.33-20.28,12.3,1.74,2,3.71,4.35,4.16,5.75C102.62,213.76,113.36,198,116.88,198.75Z"/><path class="cls-30" d="M257,225.76l-1.22-2.46a87.73,87.73,0,0,1-31.74,17.21l1.67,3.34S250,234,257,225.76Z"/><path class="cls-31" d="M176.11,85.64c4.76.86,4.33,13.65,5.12,14.72.45.62,1.87.93,3,1.08a1.27,1.27,0,0,1-.28-.4c-.5-1.32.09-14-.55-16.15a14.93,14.93,0,0,0-2.74-3.12s-2.38,1-5.94,2.25C175,84.67,175.43,85.52,176.11,85.64Z"/><path class="cls-31" d="M206.24,89.65c.32,1.29-1.9,6.23-1.9,6.23s.25-3.65.14-4-1.61-.9-1.61-.9a25.2,25.2,0,0,0-2.58,6.34,8.66,8.66,0,0,1,1.39,3.08c2.28-2.6,8.09-12.93,8.19-13.91s-1.62-2.9-2.1-3.45a44.79,44.79,0,0,1-2.93,4.57A3.72,3.72,0,0,1,206.24,89.65Z"/><path class="cls-31" d="M165.34,156.58s24.45-19.89,32-31.93c0,0-4.52,18.38-26.66,33.22,0,0,.22,10.32-5.59,14.72-1.08.73,1.19-6.88,1.19-6.88s-5.22,3.39-5.49,4.89.43,7.37.43,7.37,18.71-7.36,38.38-14.3c0,0-3.34-4.46-3.28-6.45s5.93-28.91,7.07-40.23c0,0-4.76,1.16-6.75-4.64,0,0,4.14,1.39,5,1.13a18.69,18.69,0,0,0,4.43-3.6c-3.71,4-9.09.8-11.15-3,0,0,.48,10.1-2.31,14.88-2.67,4.58-19.52,27.11-31.61,34.8C162.41,156.62,163.89,156.62,165.34,156.58Zm29.08,4.08c-6.57,3.6-20.43,8.56-20.43,8.24,2.58-4.33,22.36-36.83,22.36-36.83C192.16,151.74,194.42,160.66,194.42,160.66Z"/><path class="cls-31" d="M153,126.54a3.3,3.3,0,0,1-.41,1.13h0c2.63-2.23,1.25-5.86,1.25-5.86-3.65,3.06-10.8,4.09-10.69.33a28.74,28.74,0,0,0-.83-6.56c0,4.14-.91,7.77-3,10.27C139.38,125.84,145.94,130.57,153,126.54Z"/><path class="cls-31" d="M101.05,234.14a14.2,14.2,0,0,0-.36,3.37L93.17,241,91.59,235,97,231.49c1.13-6.34-3.27-17-3.27-17l-6.63,3.4h0l-.7-2.62h0c2.47-.46,9.43-4.29,9.43-4.29l4.87,6.23c-.93,1-3.51,8.32-3.51,10S101.05,234.14,101.05,234.14Z"/><polygon class="cls-31" points="91.59 235.03 70.97 242.32 63.57 212.45 67.32 210.27 69.49 207.66 77.68 200.01 82.47 216.43 86.36 215.3 87.06 217.92 87.08 217.91 91.59 235.03"/><path class="cls-31" d="M72.47,248.37l-10.8,4.08c-1.15-1.79-12.48-14.41-13-20.74-.58-7,1.4-21.71,1.4-21.71a11.41,11.41,0,0,0,4.66,1.87c-.35,4.15-1.18,14.25-1.12,20.12,0,2.58,4.73,8.61,4.73,8.61s.14-9.61.65-13c0,0,3.87,13.61,5.23,14.54s5.11.74,6.75.15Z"/><path class="cls-31" d="M260.73,273.3s-5.69,5.06-7.47,5.81c.17-2.23,12.15-13,12.15-15,.23-2-6.83-23.71-12.09-28.81a82.34,82.34,0,0,1-18.6,10.53s4.84,9.89,6.08,13.17c0,0,7,1.13,8.27,1.67,0,0-.93.1-2.41.41a77,77,0,0,1,10.9,1.74s-10,9.08-18.51,12.46a36.11,36.11,0,0,1,6.74,15.53S258.48,280.29,260.73,273.3Zm-20-27a52.73,52.73,0,0,0,10.11-6.13A33.4,33.4,0,0,1,258.48,257,18.8,18.8,0,0,1,240.74,246.33Z"/><path class="cls-31" d="M169.59,140.45s-6.56,6.24-21.28,7.31C148.31,147.76,155.18,155.18,169.59,140.45Z"/><path class="cls-31" d="M149.22,96c1.82,3.17,3.62,17.44,3.62,17.44a24.08,24.08,0,0,1,5.25-4.1c-2.23-1.7-3.52-4.65-4.27-7.42l0,0h0s-2.63-4.07-1.21-13.29c-10.68-.44-26-11.31-33.46-17.67l.72.6c-.38,2.25-1.32,6.36-1.94,9,7.18.42,13.72,6.48,18.21,14.21C139.21,86.32,146,90,149.22,96Z"/><path class="cls-3" d="M136.26,33.57c1.79,3.13,8.78,3.12,15.91-.11,7.32-3.31,12-8.75,10.48-12.15l0-.06c3.23-1.28,5.77-2.22,7-2.68-9-.4-46.73,14.41-50.92,24.61,2.2.54,4.79,1.12,7.65,1.79a23.53,23.53,0,0,1,2.77-5.66C130.44,37.53,133,35.56,136.26,33.57Z"/><path class="cls-3" d="M144.33,272.62s0,.6,0,1.6c3.7.44,12,1,18.39-1.22C157.28,273.11,151.14,273,144.33,272.62Z"/><path class="cls-3" d="M110.55,267.55,106.17,266c0,.28,0,1-.08,1.95a32.75,32.75,0,0,0,4.2,1C110.44,268.09,110.55,267.55,110.55,267.55Z"/><path class="cls-3" d="M59.81,181.51a13.8,13.8,0,0,1-1.75.17c-.42,2.32-.68,8.31,6.35,12.37a13.84,13.84,0,0,0,1.29-.78c-1.28-1.24-4-4.25-4.42-7.85,0,0,5.65,1.83,10.85.09a11.77,11.77,0,0,0-.35-1.52C66.9,183.7,63.32,181.5,59.81,181.51Z"/><path class="cls-3" d="M77.69,165.2c-4.92,10.8-7.28,10-7,12.28,0,.12.07.22.1.33a28.84,28.84,0,0,0,8.63-9.36A27.74,27.74,0,0,1,87,174.86C84.38,167.15,77.76,164.82,77.69,165.2Z"/><path class="cls-3" d="M53.93,175c.46.15,1,.34,1.58.57a26.18,26.18,0,0,1-1-7.07s5.39,5,10.38,5.58a5,5,0,0,0-.2-2.16c-6.59-2.11-10.67-8.17-12.09-8.25C51.85,164.79,50.68,168,53.93,175Z"/><path class="cls-3" d="M67.43,205.37a31.2,31.2,0,0,1-1.85-4.69c0-.69,4.33-4.46,6.8-5.41a2.38,2.38,0,0,0-1.21-1.4c-1.87-.68-6.88,3.41-6.88,3.41s-.48,0-1.25-.07c-.27,1.78-.58,6.38,2.57,10A7.25,7.25,0,0,0,67.43,205.37Z"/><path class="cls-3" d="M224.4,270.3s-7.2,8.49-11.28,8.27-5-2.17-6.4-2.39a130.3,130.3,0,0,0-15.78.06,3.72,3.72,0,0,0-1.09.82c2.23,0,9,0,12.74.81,4.56,1,11.46,12.6,11.46,12.6.22-2.62-1.68-9.82-1.68-9.82s5.66-.32,6.8-.32,6.38,3.26,6.38,3.26a21.14,21.14,0,0,0-5.62-5.16,21,21,0,0,0,5.66-5.05c7.33,2.92,12.83,12.8,15.35,18.14A27.78,27.78,0,0,0,224.4,270.3Z"/><path class="cls-3" d="M194.56,281.22c-.66,1.47-14.26,4.16-17.56,6.54,0,0,0,.22,0,.58C191,287.64,194.56,281.22,194.56,281.22Z"/><path class="cls-4" d="M201.68,100.43a8.66,8.66,0,0,0-1.39-3.08A25,25,0,0,1,202.87,91s1.51.57,1.61.9-.14,4-.14,4,2.22-4.94,1.9-6.23a3.72,3.72,0,0,0-1.4-2,44.79,44.79,0,0,0,2.93-4.57l.13.16.15-1.19S195.28,93.7,195.71,97.92c.64,2.51,3.33,1,2.79,9,0,0,3.25-1.21,3.37-6.72Z"/><path class="cls-4" d="M164.6,88.54c-2.11,0-3.83,3.32-3.83,7.42s1.72,7.41,3.83,7.41,3.83-3.32,3.83-7.41S166.72,88.54,164.6,88.54Zm-.68,6.66c-.55,0-1-1-1-2.24s.44-2.23,1-2.23,1,1,1,2.23S164.47,95.2,163.92,95.2Z"/><path class="cls-4" d="M120.11,215c-1.94,1.44-8.67,17.41-9,22.57s13.9,14,17.48,14.5,27.31-7.69,31.89-10.05,10.32-23.29,10.32-23.29C147.05,219.88,120.11,215,120.11,215ZM159,237.94c-9.46,5.23-31,9.75-31,9.75-6.31-1.65-12.54-8.31-12.9-10.75s3.8-13.62,3.8-13.62c21.59,6.61,45.29,4.38,45.29,4.38A53.21,53.21,0,0,1,159,237.94Zm-39.41-16.26c.43-1.43,1.72-4.37,1.72-4.37,9.81,4.58,44.57,4.37,44.57,4.37l-1.29,3.65C144.4,228.27,119.54,221.68,119.54,221.68Z"/><path class="cls-4" d="M135.09,271.94c-4.09-3.22-16.7-2.58-16.7-2.58.54.18,3.33,1.9,3.33,1.9a23,23,0,0,0-1.29,13.4,6.56,6.56,0,0,1-3.72-.25c3.54,4,11.6,4.95,16.08,3.76S137.06,273.91,135.09,271.94Zm-11.9,5.22s4,.07,4.34.43.46,3.06-.26,3.29a16.51,16.51,0,0,1-4.24-.27C123,280.52,123.19,277.16,123.19,277.16Zm7.95,8.68c-2.15,1.19-7.63-.46-7.63-.46a6.08,6.08,0,0,1-.32-2.72s4.29.8,5.77-.35,1.34-5.46.24-6.29-4.12-1.37-5.69-1.21a19.94,19.94,0,0,1,.76-3.19s8,.72,8.81,2S133.29,284.66,131.14,285.84Z"/><path class="cls-4" d="M153,339.24h-.24l.58.26Z"/><path class="cls-31" d="M128.91,119.35s1.69,9.45-1.13,17.56c0,0-.81,3.1,12.63,6.63,0,0-8.44-2.22-8.95-8.46A156.32,156.32,0,0,0,128.91,119.35Z"/><polygon class="cls-31" points="91.59 235.02 70.97 242.32 72.48 248.37 93.17 240.95 91.59 235.02"/><polygon class="cls-32" points="87.08 217.91 87.06 217.92 86.36 215.3 86.39 215.29 86.39 215.29 87.08 217.91"/><polygon class="cls-3" points="87.02 217.94 82.07 219.82 76.78 200.82 68.87 208.38 67.5 210.01 63.53 212.47 67.59 228.84 70.93 242.33 91.56 235.04 87.02 217.94"/><path class="cls-3" d="M86.59,218.1l1-.43,4.75,16.89s-.25.36-1.5.75Z"/></g></g></svg>