<svg xmlns="http://www.w3.org/2000/svg" xmlns:xlink="http://www.w3.org/1999/xlink" viewBox="0 0 441.29 151.85"><defs><style>.cls-1,.cls-20{fill:#fff;}.cls-2{fill:#be1e2d;}.cls-3{fill:#ffc7ab;}.cls-4{fill:#00163a;}.cls-10,.cls-11,.cls-12,.cls-13,.cls-14,.cls-16,.cls-17,.cls-18,.cls-19,.cls-20,.cls-21,.cls-22,.cls-23,.cls-24,.cls-25,.cls-32,.cls-5,.cls-6,.cls-7,.cls-8,.cls-9{fill-rule:evenodd;}.cls-6{fill:#212e9e;}.cls-7{fill:#2a4dd8;}.cls-8{fill:#4f6ef7;}.cls-9{fill:#f2aa03;}.cls-10{fill:#ffd400;}.cls-11{fill:#fff418;}.cls-12{fill:#b50400;}.cls-13{fill:#ff2724;}.cls-14{fill:#ff6a76;}.cls-15,.cls-35,.cls-36{fill:none;}.cls-15,.cls-35{stroke:#00163a;}.cls-15{stroke-miterlimit:10;}.cls-16{fill:#9c642b;}.cls-17{fill:#c39739;}.cls-18{fill:#f2cb6b;}.cls-19{fill:#ccced1;}.cls-21{fill:#989b9f;}.cls-22{fill:#7d8286;}.cls-23{fill:#bc8639;}.cls-24{fill:url(#linear-gradient);}.cls-25{fill:url(#linear-gradient-2);}.cls-26{fill:#a36133;}.cls-27{fill:#2169a5;}.cls-28{fill:#074568;}.cls-29{fill:#723b16;}.cls-30{fill:#b4c0c2;}.cls-31,.cls-32{fill:#ea967f;}.cls-33{fill:#d34e40;}.cls-34{fill:#fed640;}.cls-35,.cls-36{stroke-linejoin:round;stroke-width:18px;}.cls-36{stroke:#010d38;}.cls-37{fill:url(#linear-gradient-3);}.cls-38{fill:url(#linear-gradient-10);}</style><linearGradient id="linear-gradient" x1="26.23" y1="59.78" x2="25.38" y2="48.69" gradientUnits="userSpaceOnUse"><stop offset="0.09" stop-color="#7d8286"/><stop offset="0.21" stop-color="#8c9094"/><stop offset="0.45" stop-color="#b3b6b8"/><stop offset="0.77" stop-color="#f1f1f2"/><stop offset="0.83" stop-color="#fff"/></linearGradient><linearGradient id="linear-gradient-2" x1="25.7" y1="50.46" x2="26.13" y2="58.36" xlink:href="#linear-gradient"/><linearGradient id="linear-gradient-3" x1="331.4" y1="31.19" x2="332.4" y2="49.43" gradientTransform="translate(-41.36 -13.36)" gradientUnits="userSpaceOnUse"><stop offset="0" stop-color="#fff"/><stop offset="1" stop-color="#bfbfbf"/></linearGradient><linearGradient id="linear-gradient-10" x1="274.2" y1="35.97" x2="275.16" y2="53.42" xlink:href="#linear-gradient-3"/></defs><g id="Layer_2" data-name="Layer 2"><g id="Layer_1-2" data-name="Layer 1"><path class="cls-1" d="M79.84,1.08a14.06,14.06,0,0,0-6-1.06V1.3a17,17,0,0,1,5.42.85Z"/><circle class="cls-2" cx="67.54" cy="84.3" r="64.24"/><path class="cls-3" d="M72.66,68.76s10.74-8.73,14-14c0,0-2,8.07-11.71,14.59,0,0,.1,4.53-2.45,6.47-.48.32.52-3,.52-3s-2.29,1.49-2.41,2.15a21.69,21.69,0,0,0,.19,3.24s8.21-3.23,16.85-6.28c0,0-1.46-2-1.44-2.84s2.61-12.7,3.11-17.67c0,0-2.09.51-3-2a8.27,8.27,0,0,0,2.19.5c.38-.12,2.31-1.68,2.22-2.08C90,41.45,94,40.5,94.47,38.31c0-.5-1.42-4.32-2.83-5.13-1.37-.21-7.91,8.57-8.5,12.26,0,0-2.09-.49-2.31-1.07s0-6.13-.24-7.1a6.73,6.73,0,0,0-1.21-1.37s-1.63.69-3.88,1.41a21.54,21.54,0,0,1,.15,2.6c0,3.28-.69,6.07-1.65,7.14a5.67,5.67,0,0,1,1.65.46c-3.29,0-8.48,2.29-8.48,2.29A8.29,8.29,0,0,1,72.91,47c1.3-.85,2-4,1.6-7.67-.06-.57-.15-1.11-.25-1.63a31.45,31.45,0,0,1-5.68,1.16,10.14,10.14,0,0,0-1,5.89s-1.15-1.78-.53-5.84c-5-.2-12.37-5.63-15.31-8.3a42.5,42.5,0,0,1-.82,4.75c8-.73,14.52,14.85,10.31,19.9a5.81,5.81,0,0,0,6,.3s-.19,2.06-4,1.82c0,0-.13.68,0,.81C69,59.58,75,47.28,81.18,50a4,4,0,0,0-1.56,1.23c-.38.68-1.91,10.12-13.21,12.32-3.39.41-2.12-2.47.13-2.81a6,6,0,0,0-.36-1.58s-4.72,1.78-4.11-2.06c0,0-2.19-1.28-2.11-2.1.06-.61,1.48-1.36,1.71-4.23-1.31.2-3.6-1.69-5.41-4.56s-2.44-5.46-1.87-6.67a3.26,3.26,0,0,0-2-.12c-.53.45-.14,2.2-.14,2.2s6.65,9.47,2.69,19.1c-.52,1.57,8.64,2.74,10.86,7.79A58.17,58.17,0,0,0,72.66,68.76ZM91.42,36l-.07.52-.06-.07a18.92,18.92,0,0,1-1.28,2,1.66,1.66,0,0,1,.61.88,9,9,0,0,1-.83,2.74s.11-1.6.06-1.75-.71-.39-.71-.39A10.84,10.84,0,0,0,88,42.75a3.78,3.78,0,0,1,.61,1.35l.08-.1c0,2.42-1.48,3-1.48,3,.24-3.5-.94-2.85-1.23-4C85.8,41.14,91.42,36,91.42,36ZM72.33,38.87c.93,0,1.68,1.46,1.68,3.26s-.75,3.26-1.68,3.26-1.68-1.46-1.68-3.26S71.4,38.87,72.33,38.87Z"/><path class="cls-3" d="M49.32,44.08a11.21,11.21,0,0,1,1.86-.25l-1.46-2.72a5,5,0,0,0-1.14,4.06c.1.39,1.72.16,4,1.8A12.33,12.33,0,0,0,52,45.41,5.39,5.39,0,0,0,49.32,44.08Z"/><path class="cls-3" d="M103.13,108s2.13,4.35,2.67,5.79a35.64,35.64,0,0,1,3.64.73s-4.7.52-7.63,3.42c0,0,4.86,2.69,6.19,9.82,0,0,5.57-4.63,6.56-7.69a25.83,25.83,0,0,1-3.28,2.55c.07-1,5.33-5.73,5.33-6.59s-3-10.41-5.31-12.65A36,36,0,0,1,103.13,108Z"/><path class="cls-3" d="M22,92.23a64.08,64.08,0,0,0-.62,9.53c.24,2.78,5.21,8.33,5.72,9.12l4.74-1.8L27.94,93.31C23.51,93.52,22,92.23,22,92.23Z"/><path class="cls-3" d="M51,35.36a8.81,8.81,0,0,1,.89,0c.27-1.14.69-2.94.85-3.93l-.93-.81A44.49,44.49,0,0,1,51,35.36Z"/><path class="cls-4" d="M115.3,36.54A67.67,67.67,0,0,0,96.6,23.3c-.39,2.29-.91,4.51-1.22,6.77a61.26,61.26,0,0,1,15.25,11.14,60.94,60.94,0,1,1-86.18,86.18,60.93,60.93,0,0,1,0-86.18c.95-.94,1.92-1.85,2.92-2.73a14,14,0,0,1-1-3.69,6.6,6.6,0,0,0-1.18-3.09,69.94,69.94,0,0,0-5.38,4.84,67.54,67.54,0,1,0,95.52,95.52,67.55,67.55,0,0,0,0-95.52Z"/><path class="cls-5" d="M19,68.76a23.44,23.44,0,0,1,2.49-.21A27.35,27.35,0,0,0,23.82,80.8a23.07,23.07,0,0,0,6.91,8.38C35.5,92.67,41.55,94,46.49,90c-2.37,4.38-7.39,4.7-11.84,3.52a18.64,18.64,0,0,1-8.35-4.9A25.49,25.49,0,0,1,19,68.76Z"/><path class="cls-6" d="M44.26,91.93c-4.45,4.07-12.27.64-16-2.46-5.89-4.84-9.13-12.84-8.93-20.4.32-.06.87.09,1.73,0-.44,7.23,2.18,14.84,7.79,19.61C33.09,92.28,38.9,94.32,44.26,91.93Z"/><path class="cls-7" d="M31,91.37a19.09,19.09,0,0,1-2.79-1.9c-5.71-4.7-8.93-12.35-8.94-19.7h.52a.51.51,0,0,1,.5.5c.1,2.7.52,7,2.08,10.13a35.25,35.25,0,0,0,6.55,9.17c.61.57,1.48,1.3,2.08,1.79Z"/><path class="cls-8" d="M27.46,88.81a26.21,26.21,0,0,1-8.17-19h.35a.22.22,0,0,1,.21.2c.11,2,.52,6.87,2.07,10.26a34.11,34.11,0,0,0,4.84,7.68Z"/><path class="cls-5" d="M24.2,69.92c.65-.09,2.3-.24,2.95-.24a37,37,0,0,0,1.93,11.16c1.23,4,2.71,7.32,6,10a8.62,8.62,0,0,0,11.49-.42c-.51,2.76-4.75,4.4-7.39,4.32-5.5-.17-9.87-6.63-11.94-11A33.76,33.76,0,0,1,24.2,69.92Z"/><path class="cls-9" d="M36,93.49a13.29,13.29,0,0,1-3.42-2.6A26,26,0,0,1,27,81.66a40.24,40.24,0,0,1-2.3-11.53c.39-.06,1.38-.07,1.78-.11a46.29,46.29,0,0,0,1.83,10.65,21.85,21.85,0,0,0,5.05,9.51c3.11,3.1,6.88,4.31,11,1.9C43,94.71,38.14,94.57,36,93.49Z"/><path class="cls-10" d="M34.17,92.28a14.52,14.52,0,0,1-1.55-1.39A26,26,0,0,1,27,81.66,37.58,37.58,0,0,1,25.28,75c.13,0,.23,0,.44,0a1.2,1.2,0,0,1,.58.17.49.49,0,0,1,.23.33,42,42,0,0,0,2.82,9.62c2.09,4.59,5.78,7.38,4.94,7.21l-.12,0Z"/><path class="cls-11" d="M31.3,89.39A27,27,0,0,1,27,81.66,37.58,37.58,0,0,1,25.28,75c.13,0,.23,0,.44,0h.09a.32.32,0,0,1,.3.29,34.69,34.69,0,0,0,4,11.88q.64,1.22,1.2,2.22Z"/><path class="cls-5" d="M33.37,84.92a38.83,38.83,0,0,1-1.79-5.3,67,67,0,0,1-1.73-10.74,26.28,26.28,0,0,1,2.66-.24A102.24,102.24,0,0,0,34,79.36a22,22,0,0,0,3.78,8.73c2,2.58,5.13,4.52,8.42,3.43A1.56,1.56,0,0,1,46,93.36c-.36.12-1.53.36-1.53.39a9.13,9.13,0,0,1-4.6-1,16.43,16.43,0,0,1-6.54-7.8Z"/><path class="cls-12" d="M40.56,92.44a12.21,12.21,0,0,1-3.3-2.59c-4.64-5.1-6.14-12.65-7-20.61.39-.06,1.52-.1,1.92-.15.64,7.19,1.66,15.59,5.84,20a11.49,11.49,0,0,0,3.7,2.78,5.8,5.8,0,0,0,4.1.23,1.5,1.5,0,0,1-.12.86,7,7,0,0,1-5.18-.57Z"/><path class="cls-13" d="M38.62,91.14a15,15,0,0,1-1.36-1.29c-4.47-4.91-6-12.11-6.87-19.74H31a.68.68,0,0,1,.67.58C32,73,33.31,81.58,35,85.17c1.9,4.17,2.92,5,3.87,6,.18.18.08.17-.2,0Z"/><path class="cls-14" d="M36.62,89.1c-4-4.88-5.42-11.74-6.23-19h.27a.6.6,0,0,1,.61.56,52.7,52.7,0,0,0,1.67,9.68A29.87,29.87,0,0,0,36.62,89.1Z"/><path class="cls-4" d="M88.61,44.11A3.94,3.94,0,0,0,88,42.76,10.84,10.84,0,0,1,89.13,40s.66.25.71.39-.06,1.75-.06,1.75a9,9,0,0,0,.83-2.74,1.66,1.66,0,0,0-.61-.88,18.92,18.92,0,0,0,1.28-2l.06.07L91.4,36S85.79,41.15,86,43c.29,1.1,1.47.46,1.23,4,0,0,1.43-.53,1.48-3Z"/><path class="cls-4" d="M72.32,38.89c-.93,0-1.68,1.45-1.68,3.25s.75,3.26,1.68,3.26S74,43.94,74,42.14,73.25,38.89,72.32,38.89ZM72,41.81c-.24,0-.44-.44-.44-1s.2-1,.44-1,.44.44.44,1S72.26,41.81,72,41.81Z"/><path class="cls-4" d="M52.78,94.44c-.85.63-3.81,7.65-4,9.92s6.11,6.17,7.68,6.37,12-3.38,14-4.42S75,96.08,75,96.08A115.6,115.6,0,0,1,52.78,94.44Zm17.06,10.07c-4.16,2.3-13.63,4.28-13.63,4.28-2.77-.72-5.51-3.65-5.67-4.72s1.67-6,1.67-6C61.69,101,72.1,100,72.1,100A23.21,23.21,0,0,1,69.84,104.51ZM52.52,97.37c.19-.63.76-1.92.76-1.92,4.31,2,19.58,1.92,19.58,1.92L72.29,99C63.45,100.26,52.52,97.37,52.52,97.37Z"/><path class="cls-4" d="M59.35,119.45C57.56,118,52,118.32,52,118.32a16.1,16.1,0,0,1,1.46.83,10.08,10.08,0,0,0-.56,5.88,2.9,2.9,0,0,1-1.64-.1c1.56,1.74,5.1,2.17,7.07,1.65S60.22,120.31,59.35,119.45Zm-5.22,2.29a8.42,8.42,0,0,1,1.9.19c.16.16.21,1.34-.11,1.45a7.25,7.25,0,0,1-1.86-.12S54.13,121.74,54.13,121.74Zm3.49,3.82c-.94.52-3.35-.21-3.35-.21a2.73,2.73,0,0,1-.14-1.19s1.88.35,2.53-.16a2.47,2.47,0,0,0,.11-2.76,4.7,4.7,0,0,0-2.5-.53,9.15,9.15,0,0,1,.33-1.4s3.51.31,3.87.88S58.57,125,57.62,125.56Z"/><path class="cls-4" d="M31.85,109.09l-1.2.46,1.21-.44Z"/><path class="cls-4" d="M114.06,101.93a4.86,4.86,0,0,0,2-2.17c.38-2.52-10.55-18.43-10.55-18.43a8.05,8.05,0,0,0-.28-3.23c-.35-.9-5.72-3.06-5.72-3.06s-.17-.36-.47-1-5.79-2.46-5.79-2.46-.67-.82-.92-1a11.08,11.08,0,0,0-2.55-.23,2.88,2.88,0,0,1-.6-1c-.15-.54,1.77-12,1.77-12s6.73-5.13,7.11-6.89c.19-3.15-2.45-8.75-2.45-8.75s1.47-1.8,1.47-2.49a31.64,31.64,0,0,0-.78-3.65S98.1,28,97.72,23.12c-3.27-10-15-15.21-15-15.21s.92-2,.52-2.62C80.39.78,72.76,2.88,72.34,3.48s0,2.17,0,2.17c-12.94,2.73-21.82,9.72-22,10A9,9,0,0,0,50,17.28S36.09,12.73,34.9,13s-7.16,1.47-10,6.93c-4.72,8.68.33,23.65,3.82,24.74s17.83-2.87,17.83-2.87-.85,4-.15,5.1,6.07,1.8,6.86,3.75c.66,2.36-.55,8.72-.39,10.85s8.24,5.31,9,5.83A14.11,14.11,0,0,1,64,70.46c.36.58,5.55,1.32,5.55,1.32-1,0-3.32,1.71-3.32,1.71a1.19,1.19,0,0,0-.6-.36c-.42-.13-6,1.7-6.42,1.84a23.07,23.07,0,0,0-1.77,1.57c-.42.32-4.44,1.09-5,1.72-.25.6-4.06,6.39-12.68,9.92-1.23.49-1,2.67-1.06,2.86s-.71.51-.71.51a33.38,33.38,0,0,0-.9-4.25s4.09-5.76,4-8.33c-.47-6.19-5.38-9.3-5.81-9.3a15.41,15.41,0,0,0-2.34.59c-.37.12-.7,1-.7,1a.2.2,0,0,0,0-.07l-1.75,3.35.27.84-.72,1.23s.1-1.7-.57-2.25-2.37-.73-3.3-1.78l0,0a12.64,12.64,0,0,0-1.09-1.1l-.25-.21-.05,0a5.53,5.53,0,0,0-.64-.45h0A3,3,0,0,0,23,70.39h0l-.24,0a8.64,8.64,0,0,0-2.59.07h0l-.09,0a37.44,37.44,0,0,0-5.34,3.39c-.33.47-.12,5.43,0,5.78a18.5,18.5,0,0,0,2.67,2.11s.33,4.58.45,4.8,1.75,1.7,1.75,1.7l.29,0c-3.15,17.44.06,17.17,1.85,19.9,1,1.27,3.62,5.41,4.19,5.91s4.61-1.53,5.87-2.15l10.71-4,.62-.21s-1,6.87-1,7.15,1.56,1.58,1.56,1.58a61.88,61.88,0,0,1,.07,6.64,34.52,34.52,0,0,0-1.56,4.08c0,.59,1.76,3.38,1.76,3.38.18,4.77.23,9.59.21,14a32.55,32.55,0,0,0,3.34,1.55c-.16-6.7-.59-12.68-.59-12.68l3.37,5s-5-11.23-5-11.9a14.12,14.12,0,0,1,1.16-3.2,9.68,9.68,0,0,0,1.6.42,4.42,4.42,0,0,0,3.11,4.84s3.41,12.51,3.74,13.36a3.39,3.39,0,0,0,1.36,1.42c-.66.28-4.86,0-4.86,0,.57.85,9.11,3,9.11,3L61.59,149l1.52.06L62,146.63,67.13,149h.11l-5-4c-1.65-4.87-3-14.9-3-14.9a4.68,4.68,0,0,0,2.29-.35c1.39-.52,1.28-3.06,1.28-3.06a118.2,118.2,0,0,0,12.59,0c.44,6,2.71,5.32,2.71,5.32a17.18,17.18,0,0,0,1.41,3.28s-7.39-3.88-7.74-4.16a19.68,19.68,0,0,1-1.58-2.36,6.12,6.12,0,0,0,.89,3.05c.85,1.11,11.39,6.27,11.39,6.27,1.15,1,2.74,3.83,4.5,7.58l1-.21c-.81-1.74-1.61-3.33-2.4-4.73a4.24,4.24,0,0,0,3.14,0l1.64,4.15a25.18,25.18,0,0,0,3.37-1.14c-1-2.4-1.58-3.84-1.58-3.84.78-.58,3.73-2.88,3.73-2.88a27,27,0,0,0,3.14,0,12,12,0,0,0,2.2-1.73c.66-.54,7-1.41,7.49-1.86s.38-3.54.38-3.54c8.45-6.33,9.44-12.47,9.44-12.47a.94.94,0,0,0,.76-.48C119.66,111.88,114.06,101.93,114.06,101.93Zm-1.13-2.77c-3.12,3.62-13.75,8-13.75,8L98.12,105a59.27,59.27,0,0,0,13.74-8Zm-23.17,8.19A38.36,38.36,0,0,1,95,104.07s2,5.64,3,5.83a7.45,7.45,0,0,0,2.67-.32l2.2,4.41a27.28,27.28,0,0,0-2.67,2.8,10.56,10.56,0,0,0-2.7-.91c-.47.11-3.68,4.12-4.16,4.2s-1.69-1.39-2.11-1.4-4.94,0-4.94,0C86.21,118,91,114,91,114S89.76,109.11,89.76,107.35Zm13.12-27.7s-.47,1.37,1,3.74c2.74,4.1,7.37,12.63,7.37,12.63-1.29,1.88-13.47,8.52-13.53,8-1.64-5.22-2.74-4.72-2.68-6.67s3.78-11.55,3.78-11.55A73.69,73.69,0,0,0,93.22,96a9.39,9.39,0,0,0-.12,2.39c-3.94-5-2.52-11.49-2.52-11.49A116.57,116.57,0,0,0,97.5,76.78C98.94,77.33,102.88,79.65,102.88,79.65ZM94.2,74.3c1.82-.48,2.31.73,2.31.73S89.41,86.13,85,92.11c0,0-4.13,1.1-7.21,0C77.74,92.11,83.86,79.16,94.2,74.3ZM59.64,87.66a80.65,80.65,0,0,1,4.69-7.76,5.25,5.25,0,0,0,5.32,4.34c3.52,0,7.8-3.52,16.14-6.69a99,99,0,0,0-8.05,10.11S67,89.78,59.64,87.66ZM95.19,23.21c.75,1.79-1.25,9.52-1.25,9.52s-1.25-1.61-2.13-1.57c-2.62.41-5.5,4.4-5.5,4.4-.39-.22-2.31-1.11-2.31-1.11,6.42-20-2.6-24.51-2.6-24.51C89.66,12.26,94.43,21.42,95.19,23.21ZM74.56,4.82a14.31,14.31,0,0,1,6.16,1.1L80.13,7a17.38,17.38,0,0,0-5.57-.88Zm0,3.33a11.4,11.4,0,0,1,10,8.64C85.82,22.08,83,33.41,83,33.41,77.11,23.92,59.64,20.78,52.18,19,54,14.47,70.64,8,74.56,8.15ZM29.75,41.67c-3.73-4.81-8-22.21,5.67-25.78,8.92,4.89,40.52,7.35,46,17.8,0,0-12,3.73-15,3.4-6.1,0-26.54-19.7-31.88-19.7-2.15,0-4.44,3.39-4.44,3.39s2.6-2,4-2S50.24,29.73,50.24,29.73s-2,7.22-1.82,9C48.42,38.77,33.53,42.81,29.75,41.67Zm18.82,3.51a5,5,0,0,1,1.14-4.06l1.46,2.72a10.84,10.84,0,0,0-1.86.26,5.48,5.48,0,0,1,2.63,1.32A11.4,11.4,0,0,1,52.55,47C50.29,45.34,48.67,45.57,48.57,45.18ZM65.78,68.49c-2.23-5-11.38-6.22-10.86-7.79,4-9.63-2.7-19.1-2.7-19.1s-.38-1.75.15-2.2a3.26,3.26,0,0,1,2,.12c-.57,1.22.16,3.94,1.87,6.67s4.1,4.76,5.41,4.56C61.43,53.62,60,54.37,60,55c-.08.82,2.11,2.09,2.11,2.09-.61,3.84,4.11,2.06,4.11,2.06a6,6,0,0,1,.36,1.58c-2.25.34-3.53,3.22-.13,2.81,11.3-2.2,12.83-11.64,13.21-12.32A4,4,0,0,1,81.17,50C75,47.29,69,59.59,63.19,58.2c-.09-.13,0-.81,0-.81,3.83.24,4-1.81,4-1.81a5.82,5.82,0,0,1-6-.31c4.21-5.05-2.36-20.63-10.31-19.89a43,43,0,0,0,.82-4.76c2.94,2.67,10.3,8.1,15.31,8.31-.62,4,.53,5.83.53,5.83a10.18,10.18,0,0,1,1-5.89,30.62,30.62,0,0,0,5.68-1.16c.1.52.19,1.07.25,1.63.4,3.66-.3,6.82-1.6,7.67a8.29,8.29,0,0,0-5.74,2.8c.16-.07,5.24-2.29,8.48-2.29A5.67,5.67,0,0,0,74,47.06c1-1.07,1.65-3.86,1.65-7.14a21.25,21.25,0,0,0-.15-2.59c2.25-.73,3.88-1.42,3.88-1.42a6.73,6.73,0,0,1,1.21,1.37c.28,1,0,6.52.24,7.1s2.31,1.07,2.31,1.07c.59-3.68,7.13-12.47,8.49-12.25,1.42.8,2.84,4.62,2.84,5.12C94,40.52,90,41.46,90.8,47.76c.09.4-1.84,2-2.22,2.08a8.36,8.36,0,0,1-2.2-.5c.88,2.55,3,2,3,2-.5,5-3.08,16.8-3.11,17.68s1.44,2.83,1.44,2.83c-8.64,3-16.85,6.28-16.85,6.28a21.69,21.69,0,0,1-.19-3.24c.11-.65,2.33-2.1,2.4-2.14,0,.16-1,3.33-.51,3C75.08,73.87,75,69.34,75,69.34,84.56,62.92,86.63,55,86.69,54.75c-3.31,5.29-14,14-14,14A58.08,58.08,0,0,1,65.78,68.49ZM58.5,43c-.79.42-.75,2,.08,3.61s2.15,2.51,2.94,2.09l.1-.07a11.91,11.91,0,0,1,.07,1.29c-1.2.1-3.12-1.43-4.6-3.78-1.6-2.55-2.11-5.15-1.21-6A10.84,10.84,0,0,1,59.54,43,1.17,1.17,0,0,0,58.5,43ZM60,44.58c.21.46.14.94-.14,1.07s-.67-.16-.88-.63-.14-.94.15-1.07S59.77,44.11,60,44.58Zm8,14.75c-1,0-.73-.68-.73-.68,3.78-1.76,8.31-7.06,11.3-7.93-1,1.48-.85,3-1.92,4.44C75.09,57.27,68.92,59.31,67.92,59.33Zm7.09-2C72.45,61,67.59,61.9,67.59,61.9l-.15-1.66A15.54,15.54,0,0,0,75,57.32ZM66.15,76c.33-.57,2.86-1.85,2.86-1.85s-1.16,4.73.87,5.76S85,74.11,90.14,72.83a2.07,2.07,0,0,1,1.7.52,14.84,14.84,0,0,0-2.71,1.86S84.57,76,73.47,82C64.12,85.77,65.05,77.51,66.15,76Zm-4.77,1.55c2.82-1.4,3.28-1.33,3.28-1.33a7.87,7.87,0,0,1-.26,1.65,29.21,29.21,0,0,0-8,13.71,17.37,17.37,0,0,1-4.73-.9S57.79,79.63,61.38,77.55Zm-7.19,3.14,2.3-1.08c-1.26,1.27-5.13,7.69-5.13,7.69-1.55-.32-6.27,6.59-6.27,6.59C44.72,92.73,42,90,42,90,50.63,86.51,53.73,82.09,54.19,80.69Zm-20-8.13c0-.2,4.28,1.33,4.5,6.68-.2,2.92-3.33,5.92-3.33,5.92S34.2,81.33,34,80.88s1.51-.81,2.06-2c0,0-4.11,2.56-5-.93C30.94,77,32,77.31,34.14,72.56Zm-4.47,5.1c0,.2.4,1.34.4,1.34a2.25,2.25,0,0,1-1.15-.41A4.76,4.76,0,0,0,29.67,77.66Zm-9,8c-.39-.5-.39-3.8-.8-4.89S17.32,78.23,17.08,78a5.12,5.12,0,0,1-.28-2.76c.25-.42,5.36-3,6.32-3.4.61,0,2.4,2.69,5.32,3.62a2.75,2.75,0,0,1-.94,2.83c-.2.06-3.51-1.52-4.27-1.59S20.41,78,20.07,78a8.12,8.12,0,0,0,6.22,1.73c1.54,0,3.11,1,5.25,1.08,0,0,.88,2.74-.85,3.21s-2.23,1.51-3.47,1.51a6.25,6.25,0,0,0-3.72,1.22,23.21,23.21,0,0,1,4.76-.1s2.2-1.79,3-1.49.85,2.36.85,2.36c-2.69,2.39-2.46,3.21-3.74,3.7a6.53,6.53,0,0,1-5-.5c-.34-.31-.68-2.66-1.08-3.49S21,86.13,20.64,85.64Zm23.6,18.68-3.3,1.51-1.43.52-7.65,2.76-1.21.44-3.54,1.34c-.51-.79-5.49-6.33-5.72-9.11A64.13,64.13,0,0,1,22,92.24s1.49,1.29,5.92,1.08l0,.1,1.72-.74,1.07-1.32.37-.3.33-.32c.69-.68,2.23-2.19,2.44-2.38v0c.12-.1.13-.82.13-.82l2.21,7.55,1.72-.5a24.91,24.91,0,0,0,4.15-1.89l2.14,2.74a15.3,15.3,0,0,0-1.54,4.37c0,.73,1.7,3.06,1.7,3.06A6,6,0,0,0,44.24,104.32Zm3.85,17.9-1.62-.78s.16-4.06.18-4.6l1.93.68A22,22,0,0,0,48.09,122.22ZM61,144.17c-.12-.07-4-2.41-4.49-2.78S53,129.25,53,129.25c1,.57,5.33.76,5.33.76A54.78,54.78,0,0,0,61,144.17Zm-.1-15.77c-.66.35-10.07-1.41-10.79-2.42s.09-8.59.88-9.44c.46-.62,10.22.92,10.62,1.93S61.53,128.06,60.86,128.4Zm.47-12c-1.17-.28-9-1.95-11-1.17a3.08,3.08,0,0,0-1.18,1.06A21.42,21.42,0,0,1,45.05,114a47.81,47.81,0,0,0,1.21-9.16s2.55,2.42,3,2.87c.14-1.48-4-5.2-4.47-8-.1-.75,3-6.71,4.78-8.69,0,0,.63,2.27,5.57,2.39,2.93.24,3.83-4.18,3.83-4.18s7.27,2.55,17.75,0c0,0-1.11,2.78-.52,3.87s4.6,2.3,9.63.41c.83-.33,2.65-3.24,2.65-3.24s-.22,8.65,5.63,11.48c0,0-11.27,5.86-12.4,11.59,0,0,3.68-3.91,5.79-4.72,0,1.52,1,3.35.79,4.15s-3.87,3.75-3.87,3.75a205.29,205.29,0,0,1-21.49,1.65S62.49,116.65,61.33,116.38ZM76,124.8,63.22,125c.16-2.51.19-5.28.19-5.28,13.18.78,20.59-1.14,20.59-1.14v.78c-2.83.4-3,3.66-6,4.54A4.72,4.72,0,0,0,76,124.8Zm30.09,6.34c-6.41.47-7.58,3.05-7.74,3.07s-2.25.47-2.25.47a6,6,0,0,0,.76-1.72,24.51,24.51,0,0,1-2.34,2c-.31.22-6.82,4.25-7.11,4.25A34.82,34.82,0,0,1,84,136.6a1.74,1.74,0,0,0,1.26-1,12.9,12.9,0,0,1-3.23-.28c-.59-.31-1.82-3.2-1.82-3.2a4.53,4.53,0,0,0,2.48-.14c-.85-.72-4-1-4.35-1.48s-.6-4.14-.6-4.14c1.45-1.05,7.42-2.23,7.71-2.87a11.29,11.29,0,0,0-3.45,0s1.2-1.88,1.86-2.15a57.52,57.52,0,0,1,6.93,0c.64.09,1,1,2.81,1s5-3.64,5-3.64C106.9,122.46,106.05,131.14,106.05,131.14ZM116.6,116c0,.86-5.26,5.61-5.33,6.59a25.83,25.83,0,0,0,3.28-2.55c-1,3.07-6.57,7.69-6.57,7.69-1.32-7.12-6.18-9.82-6.18-9.82,2.93-2.9,7.63-3.42,7.63-3.42a35.64,35.64,0,0,0-3.64-.73c-.54-1.44-2.67-5.79-2.67-5.79a36.22,36.22,0,0,0,8.17-4.62C113.6,105.6,116.7,115.14,116.6,116Z"/><path class="cls-4" d="M67.24,149h-.1l.25.11Z"/><path class="cls-15" d="M34,87.52s0,.72-.13.82Z"/><path class="cls-4" d="M20.19,70.43l-.09,0h0Z"/><path class="cls-5" d="M26.42,56.79a3.8,3.8,0,0,1,.67.14c.34.09.58-.11.42-.44A6.4,6.4,0,0,1,28,50a6.21,6.21,0,0,1,10.15.17,6.18,6.18,0,0,1-1.5,8.45c0,1.6.11,3.2.16,4.81l-2.86.09-.17-1.81c-.17,0-.69,0-.86,0,.07,2.16.12,4.81.19,7,0,.37,0,.75-.46.77l-2.41.08a.55.55,0,0,1-.58-.6c-.06-1.84-.18-4-.25-5.86a3.6,3.6,0,0,1-1.81,1.17c0,1.36,0,3.09,0,4.46-.09.53.11.86-.57.86H24.32c-.53-.15-.38-.35-.39-.94L24,64.37a7.9,7.9,0,0,1-1.9-1.22C22,65,22,67.13,21.89,69a.55.55,0,0,1-.58.6l-2.41-.08c-.44,0-.47-.4-.45-.77.07-2.22.11-4.45.19-6.61l-.51,0c0,.48,0,.95-.05,1.43l-3.33-.11.15-4.81a6.18,6.18,0,0,1-1.5-8.45A6.22,6.22,0,0,1,23.56,50,6.38,6.38,0,0,1,24,56.49c-.16.33.09.53.42.44a4,4,0,0,1,.67-.14,4.83,4.83,0,0,1,.67,0A4.78,4.78,0,0,1,26.42,56.79ZM18.2,60a2.09,2.09,0,0,1,0-.25h.51a2.44,2.44,0,0,0,0,.27Zm15.11,0v-.25H32.8v.27l.51,0Z"/><g id="_197355504" data-name=" 197355504"><path id="_197573928" data-name=" 197573928" class="cls-5" d="M24.34,47a3.91,3.91,0,0,1-2.17-2.35,3.61,3.61,0,0,1,1.23-3.85,3.77,3.77,0,0,1,3.1-.64,3.32,3.32,0,0,1,2.34,2,4.77,4.77,0,0,1,.31,1.57c0,.58-.06,1.31-.68,1.58a.77.77,0,0,1-1.06-.41c-.05-.43,0-.88-.05-1.32a3.09,3.09,0,0,0-.2-1.14,1.54,1.54,0,0,0-1.38-.83,2,2,0,0,0-1.3.29,1.91,1.91,0,0,0-.8,1.05,2.32,2.32,0,0,0,0,1.28,2.38,2.38,0,0,0,1,1.16l1.19.53A1.18,1.18,0,0,1,26.62,47V57.23H24.88l0-9.25a1,1,0,0,0-.51-1Z"/><path id="_197382056" data-name=" 197382056" class="cls-16" d="M24.7,46.61a3.83,3.83,0,0,1-2-2.08,3.17,3.17,0,0,1,0-1.88,3.06,3.06,0,0,1,3.27-2.07,3,3,0,0,1,2.47,1.87A3.72,3.72,0,0,1,28.59,44c0,.31-.05.67-.38.81s-.33-.2-.33-.46.05-.48,0-1.06a2.3,2.3,0,0,0-.55-1.51,2.54,2.54,0,0,0-4,3.07A3.08,3.08,0,0,0,24.72,46c.21.09.5.18.78.31a1.18,1.18,0,0,1,.61,1.09c.05.61,0,1.22,0,1.83V57h-.77V49.31a15.71,15.71,0,0,0-.05-1.68,1.15,1.15,0,0,0-.62-1Z"/><path id="_197381096" data-name=" 197381096" class="cls-17" d="M24.7,46.61a3.83,3.83,0,0,1-2-2.08,3.17,3.17,0,0,1,0-1.88,3.06,3.06,0,0,1,3.27-2.07,3,3,0,0,1,2.47,1.87A3.72,3.72,0,0,1,28.59,44c0,.31-.05.67-.38.81s-.33-.2-.33-.46.05-.48,0-1.06a2.3,2.3,0,0,0-.55-1.51,2.33,2.33,0,0,0-.71-.51,1.93,1.93,0,0,0-.86-.42,2.93,2.93,0,0,0-3,2.23,2.34,2.34,0,0,0,1.25,2.57l.18.06a4.13,4.13,0,0,0,.47.26l.23.09a2.22,2.22,0,0,1,.79.7,43.75,43.75,0,0,1-.14,8.53,1.38,1.38,0,0,1-.23.36V49.31a15.71,15.71,0,0,0-.05-1.68A1.15,1.15,0,0,0,24.7,46.61Z"/><path id="_197311520" data-name=" 197311520" class="cls-18" d="M24.7,46.61a5.59,5.59,0,0,1-1.59-1.23c.72.39,2.28,1,2.46,1.43a33.06,33.06,0,0,1,0,4.92,5.71,5.71,0,0,1-.2,1.24V49.31a15.71,15.71,0,0,0-.05-1.68A1.15,1.15,0,0,0,24.7,46.61Zm0-5.93a3.3,3.3,0,0,1,1.21-.1,3.06,3.06,0,0,1,1.62.69,5.55,5.55,0,0,1,.71,2.07,3.51,3.51,0,0,1-.05,1.46c-.28,0-.33-.2-.33-.46s.05-.48,0-1.06a2.3,2.3,0,0,0-.55-1.51,2.11,2.11,0,0,0-.36-.31,2.29,2.29,0,0,0-1.41-.82A1.84,1.84,0,0,0,24.72,40.68Z"/></g><path class="cls-6" d="M15.63,62.83v-.26l1.62.06v.26Zm0-.63v-.41l1.63.06v.41Zm0-.78V61l1.63.06,0,.41Zm0-.78v-.41l1.63.06v.41Zm0-.78v-.38l1,0c.44.12.44.12.64.16v.25Z"/><path class="cls-12" d="M35.88,62.83v-.26l-1.62.06v.26Zm0-.63v-.41l-1.63.06,0,.41,1.62-.06Zm0-.78,0-.41-1.62.06v.41Zm0-.78v-.41l-1.63.06,0,.41Zm0-.78,0-.38-1,0-.63.16v.25l1.63-.06Z"/><g id="_199651384" data-name=" 199651384"><path id="_197778832" data-name=" 197778832" class="cls-19" d="M25.76,58.15a2.13,2.13,0,1,1-2.13,2.13A2.13,2.13,0,0,1,25.76,58.15Z"/><path id="_197356056" data-name=" 197356056" class="cls-20" d="M25.76,58.34a1.91,1.91,0,0,1,1,.3L26,60.08,25.86,60l-.23-1.62Zm-1.88,2.44a2.08,2.08,0,0,1-.07-.5,2,2,0,0,1,1.46-1.88L25.69,60Z"/><path id="_197781040" data-name=" 197781040" class="cls-21" d="M27.57,61a1.94,1.94,0,0,1-3.63,0l1.82-.77Z"/><path id="_197312576" data-name=" 197312576" class="cls-22" d="M25.76,57.33a3,3,0,1,1-3,3A2.95,2.95,0,0,1,25.76,57.33Zm0,.41a2.54,2.54,0,1,1-2.54,2.54A2.54,2.54,0,0,1,25.76,57.74Z"/><path id="_197572176" data-name=" 197572176" class="cls-19" d="M28.45,60.34a2.64,2.64,0,0,1-2.72,2.48,2.82,2.82,0,0,1-2-.83,2.63,2.63,0,0,0,2.17,1.12,2.52,2.52,0,0,0,2.58-2.46A1.62,1.62,0,0,0,28.45,60.34Z"/><path id="_197433656" data-name=" 197433656" class="cls-19" d="M25.76,57.33a3,3,0,0,1,2.94,3v.19a2.85,2.85,0,0,0-.65-1.64,2.71,2.71,0,0,0-5,1.45,2.59,2.59,0,0,0,.07.63,2.88,2.88,0,0,0,.53,1.42,2.95,2.95,0,0,1,2.12-5Z"/></g><g id="_197311688" data-name=" 197311688"><path id="_197614528" data-name=" 197614528" class="cls-16" d="M24.45,69.1c.88,0,1.74,0,2.61,0V64.3a8.46,8.46,0,0,1-2.61,0Zm8.2-.81c-.06-1.79-.18-3.57-.27-5.35L29.82,63c.09,1.84.13,3.69.22,5.53,0,.23-.08.58.35.57l1.93,0C32.8,69.05,32.66,68.54,32.65,68.29Zm-13.79,0c.06-1.79.18-3.57.27-5.35L21.7,63c-.09,1.84-.14,3.69-.23,5.53,0,.23.08.58-.34.57l-1.93,0C18.71,69.05,18.85,68.54,18.86,68.29Z"/><path id="_197147608" data-name=" 197147608" class="cls-23" d="M24.45,69.1H25.5l-.11-4.41-.94-.32Zm1.87,0h.74V64.3l-.42.06Zm6.33-.82c-.06-1.79-.18-3.57-.27-5.35l-.63,0c-.17.07-.28.15-.27.24,0,.31.2,4.28.27,5.87h.57C32.8,69.05,32.66,68.54,32.65,68.29Zm-2.82-5.1c.08,1.79.12,3.57.21,5.35,0,.23-.08.58.35.57h.38l-.6-5.87-.34,0Zm-11,5.1c.06-1.79.18-3.57.27-5.35l1.44,0,.07.28-.22,5.83-1.22,0C18.71,69.05,18.85,68.54,18.86,68.29Z"/><path id="_197782936" data-name=" 197782936" class="cls-18" d="M26.74,69.11h.32V64.89C27,65.36,26.83,67.74,26.74,69.11Zm5.91-.82-.53.51v.26h.2c.35,0,.37-.29.35-.54a1.4,1.4,0,0,0,0-.23Zm-13.79,0c.06-1.79.18-3.57.27-5.35L20,63c-.06,1.44-.18,4.31-.24,6.1H19.2C18.71,69.05,18.85,68.54,18.86,68.29Z"/><path id="_197432312" data-name=" 197432312" class="cls-16" d="M23.75,63a3.14,3.14,0,0,1-1.4-3.12,4.8,4.8,0,0,1,.35-1.4c-.46-.26-.82,1.44-.81,1.81a4.27,4.27,0,0,0,0,1,3.75,3.75,0,0,0,1.39,2.07,4.73,4.73,0,0,0,5,0,3.71,3.71,0,0,0,1.4-2.07,4.88,4.88,0,0,0,0-1c0-.37-.36-2.07-.81-1.81a4.77,4.77,0,0,1,.34,1.4A3.12,3.12,0,0,1,27.76,63a4.09,4.09,0,0,1-4,0Zm10.11-2.18-1.19,0c0,.12,0,.24,0,.36l1.19,0Zm-1.41,1.63a16.83,16.83,0,0,0-.1-2.75c-1.8-.22-2.26-.72-2.21.89a3.87,3.87,0,0,1-.45,1.94ZM17.66,60.86l1.19,0c0,.12,0,.24,0,.36l-1.19,0Zm1.41,1.63a15.78,15.78,0,0,1,.1-2.75c1.79-.22,2.25-.72,2.21.89a3.86,3.86,0,0,0,.44,1.94Z"/><path id="_196512880" data-name=" 196512880" class="cls-23" d="M22.07,59.33a3.83,3.83,0,0,0-.18,1,4.27,4.27,0,0,0,0,1,3.75,3.75,0,0,0,1.39,2.07A4.55,4.55,0,0,0,26,64.1c.08-.07.13-.15.11-.21s-1.84-.21-3-1.1-.93-3-.93-3.18,0-.27-.13-.28Zm6.22,4a3.76,3.76,0,0,0,1.35-2,4.88,4.88,0,0,0,0-1s0,0,0-.08-.17.11-.27.69a4.61,4.61,0,0,1-1,2,.49.49,0,0,0-.05.46Zm5.28-2.5-.9,0c0,.12,0,.24,0,.36l.89,0Zm-1.12,1.44a17,17,0,0,0-.05-2.14c-.22,0-.88-.15-.93.16s-.11,1.24-.16,2ZM18.16,60.88l.69,0c0,.12,0,.24,0,.36l-.66,0C18.17,61.12,18.16,61,18.16,60.88Zm.9,1.43a18.23,18.23,0,0,1,.05-2.09A5.47,5.47,0,0,0,20,60c.48-.19.6.29.6.71s0,1.11.06,1.62Z"/><path id="_197574936" data-name=" 197574936" class="cls-18" d="M22,59.82a2.39,2.39,0,0,0-.06.51,4.27,4.27,0,0,0,0,1,3.75,3.75,0,0,0,1.39,2.07,3.59,3.59,0,0,0,.47.27,4.59,4.59,0,0,1-1.11-1.23A6.53,6.53,0,0,1,22,60,.76.76,0,0,0,22,59.82Zm7.22,2.59a4.46,4.46,0,0,0,.47-1.07,1.63,1.63,0,0,0,0-.66,5.84,5.84,0,0,0-.41,1.16A2.62,2.62,0,0,0,29.17,62.41Zm3.28-.1a17,17,0,0,0-.05-2.14l-.23,0a.27.27,0,0,0-.29.29A7.84,7.84,0,0,1,32,62.05a2.44,2.44,0,0,1-.06.26Zm-13.62-1.1v.06h0Zm.23,1.1a18.23,18.23,0,0,1,.05-2.09l.14,0a.22.22,0,0,1,.25.2v.08c0,.23.09,1.44.12,1.84Z"/></g><g id="_197312168" data-name=" 197312168"><path id="_197154304" data-name=" 197154304" class="cls-24" d="M33,49.08a4.52,4.52,0,1,1-4.51,4.52A4.52,4.52,0,0,1,33,49.08Zm-14.43,0A4.52,4.52,0,1,1,14,53.6,4.52,4.52,0,0,1,18.54,49.08Z"/><path id="_197355984" data-name=" 197355984" class="cls-25" d="M37,52.62a4.53,4.53,0,0,1,.11,1A4.16,4.16,0,0,1,29,54.74a10.64,10.64,0,0,1,3-1.56A13.78,13.78,0,0,1,37,52.62ZM22.74,53.69a4.2,4.2,0,0,1-8,1.59,9.65,9.65,0,0,1,3.63-1.48A11.24,11.24,0,0,1,22.74,53.69Z"/><path id="_269011136" data-name=" 269011136" class="cls-22" d="M33,49.67A3.93,3.93,0,0,1,36.9,53.6v.18l-.65-.12V53.6a3.29,3.29,0,0,0-6.57,0c0,.1,0,.2,0,.3l-.62.25a3.31,3.31,0,0,1,0-.55A3.93,3.93,0,0,1,33,49.67Zm-14.43,0a3.93,3.93,0,0,1,3.93,3.93c0,.06,0,.12,0,.18l-.64-.12V53.6a3.28,3.28,0,0,0-6.56,0c0,.1,0,.2,0,.3l-.62.25a4.91,4.91,0,0,1,0-.55,3.93,3.93,0,0,1,3.93-3.93Z"/><path id="_269011160" data-name=" 269011160" class="cls-5" d="M33,52.73a.9.9,0,0,1,.37.07l.52-.67a.48.48,0,0,1,.7-.64.49.49,0,0,1,.09.68.51.51,0,0,1-.54.16L33.6,53a.89.89,0,0,1,.25.61.87.87,0,0,1-.88.87.8.8,0,0,1-.43-.12L31.26,56l-.25-.2,1.28-1.65a.83.83,0,0,1-.19-.54.87.87,0,0,1,.87-.87Zm-14.43,0a.86.86,0,0,1,.36.07l.53-.67a.47.47,0,0,1,0-.55.49.49,0,0,1,.68-.09.5.5,0,0,1,.08.68.49.49,0,0,1-.53.16l-.52.66a.85.85,0,0,1,.25.61.87.87,0,0,1-.87.87.83.83,0,0,1-.44-.12L16.83,56l-.25-.2,1.28-1.65a.83.83,0,0,1-.19-.54A.87.87,0,0,1,18.54,52.73Z"/><path id="_269011184" data-name=" 269011184" class="cls-12" d="M37.48,50.73A5.4,5.4,0,0,0,29,49.92a5.54,5.54,0,0,0-1.4,3.48,5.36,5.36,0,0,0,10.6,1.44A5.69,5.69,0,0,0,37.48,50.73Zm.31,4.06a5.38,5.38,0,0,0-.74-3.93,5,5,0,0,0-7.76-.61,5.1,5.1,0,0,0-1.22,3.27A4.93,4.93,0,0,0,29.33,57a4.83,4.83,0,0,0,3.32,1.62,5,5,0,0,0,5.14-3.86Z"/><path id="_269011280" data-name=" 269011280" class="cls-6" d="M14,50.73a5.39,5.39,0,0,1,8.44-.81,5.6,5.6,0,0,1,1.41,3.48,5.36,5.36,0,0,1-10.6,1.44A5.64,5.64,0,0,1,14,50.73Zm-.31,4.06a5.38,5.38,0,0,1,.74-3.93,5,5,0,0,1,7.75-.61,5.16,5.16,0,0,1,1.23,3.27A5,5,0,0,1,22.19,57a4.87,4.87,0,0,1-3.33,1.62,4.94,4.94,0,0,1-5.13-3.86Z"/><path id="_269010608" data-name=" 269010608" class="cls-13" d="M37.48,50.73a6.05,6.05,0,0,0-.85-1,2.86,2.86,0,0,1,0,.65c.14.16.28.33.41.51a5.38,5.38,0,0,1,.74,3.93,5.08,5.08,0,0,1-3.68,3.75c0,.16,0,.31,0,.43a5.42,5.42,0,0,0,4.09-4.13A5.69,5.69,0,0,0,37.48,50.73ZM30.16,49a5.25,5.25,0,0,0-1.13.91,5.54,5.54,0,0,0-1.4,3.48,5.41,5.41,0,0,0,1.58,4.14l.27-.34L29.33,57a4.93,4.93,0,0,1-1.26-3.51,5.1,5.1,0,0,1,1.22-3.27,4.45,4.45,0,0,1,1.07-.86Z"/><path id="_269010728" data-name=" 269010728" class="cls-7" d="M14,50.73a5.32,5.32,0,0,1,4.53-2.48h.34l.06.46H18.5a4.85,4.85,0,0,0-4,2.15,5.38,5.38,0,0,0-.74,3.93,5.29,5.29,0,0,0,1.91,2.92l-.38.27a5.75,5.75,0,0,1-2-3.14A5.64,5.64,0,0,1,14,50.73Zm9.21.29a6,6,0,0,1,.64,2.38,5.41,5.41,0,0,1-3.61,5.4c0-.15.09-.33.15-.52A4.7,4.7,0,0,0,22.19,57a5,5,0,0,0,1.26-3.51,5.93,5.93,0,0,0-.42-2C23.1,51.36,23.18,51.19,23.25,51Z"/><path id="_269010896" data-name=" 269010896" class="cls-14" d="M37.74,52.48a4.69,4.69,0,0,1-.5,3.67l.06.72A5.31,5.31,0,0,0,38,51.81,6.69,6.69,0,0,0,37.74,52.48Zm-8.39-2.87c-.11.1-.22.2-.32.31a5.54,5.54,0,0,0-1.4,3.48,5.39,5.39,0,0,0,.24,1.93l.22-.17a.87.87,0,0,0,.15-.13,5,5,0,0,1-.17-1.51,5.1,5.1,0,0,1,1.22-3.27l.26-.26a2.69,2.69,0,0,0-.2-.38Z"/><path id="_269011640" data-name=" 269011640" class="cls-8" d="M14,50.73a5.37,5.37,0,0,1,1.66-1.66c-.08.24-.17.49-.26.73a5.23,5.23,0,0,0-1,1.06,5.38,5.38,0,0,0-.74,3.93,5.55,5.55,0,0,0,.32.92l-.4.17a5.8,5.8,0,0,1-.36-1A5.64,5.64,0,0,1,14,50.73Zm9.8,2.19c0,.16,0,.32.05.48a5.41,5.41,0,0,1-1.57,4.12c0-.2,0-.41,0-.61a5,5,0,0,0,1.16-3.33Z"/></g><path class="cls-26" d="M36.08,78.9c-.55,1.18-2.24,1.53-2.06,2s1.27,4.28,1.27,4.28,3.13-3,3.34-5.91c-.23-5.35-4.47-6.88-4.5-6.68C32,77.31,30.93,77,31.07,78,32,81.46,36.08,78.9,36.08,78.9Z"/><path class="cls-26" d="M84,119.39v-.78s-7.41,1.92-20.58,1.15c0,0,0,2.77-.19,5.28l12.73-.23a4.72,4.72,0,0,1,2.06-.87C81,123.05,81.15,119.79,84,119.39Z"/><path class="cls-26" d="M98.57,118.73s-3.16,3.73-4.95,3.64-2.18-1-2.81-1.05a57.48,57.48,0,0,0-6.94,0c-.66.27-1.85,2.16-1.85,2.16a11.1,11.1,0,0,1,3.44,0c-.28.65-6.26,1.83-7.71,2.87,0,0,.21,3.68.6,4.15s3.51.76,4.36,1.48a4.59,4.59,0,0,1-2.49.14s1.23,2.88,1.83,3.2a13.32,13.32,0,0,0,3.22.28,1.74,1.74,0,0,1-1.25,1,34.82,34.82,0,0,0,3.34,2.66c.28,0,6.8-4,7.11-4.25A25.66,25.66,0,0,0,96.8,133a5.78,5.78,0,0,1-.75,1.72s2.08-.45,2.24-.47,1.34-2.6,7.74-3.07C106,131.15,106.88,122.46,98.57,118.73Z"/><path class="cls-26" d="M83,33.42S85.8,22.08,84.5,16.8a11.39,11.39,0,0,0-10-8.64C70.62,8,54,14.48,52.16,19,59.62,20.78,77.09,23.93,83,33.42Z"/><path class="cls-1" d="M55.91,123.38c.31-.1.27-1.29.11-1.45a9.12,9.12,0,0,0-1.91-.18s-.09,1.48-.07,1.51A6.9,6.9,0,0,0,55.91,123.38Z"/><path class="cls-26" d="M46.64,116.84c0,.55-.19,4.61-.19,4.61l1.63.78a22.22,22.22,0,0,1,.48-4.7Z"/><path class="cls-26" d="M54.59,119.31a9.71,9.71,0,0,0-.34,1.41,4.59,4.59,0,0,1,2.5.53,2.45,2.45,0,0,1-.1,2.76c-.65.51-2.54.15-2.54.15a2.77,2.77,0,0,0,.14,1.2s2.41.72,3.36.2,1.21-4.8.85-5.36S54.59,119.31,54.59,119.31Z"/><path class="cls-26" d="M22.26,87.24c.4.83.75,3.18,1.09,3.48a6.5,6.5,0,0,0,5,.51c1.28-.5,1-1.31,3.73-3.71,0,0,0-2.06-.85-2.36s-3,1.5-3,1.5a23.21,23.21,0,0,0-4.76.1,6.22,6.22,0,0,1,3.73-1.22c1.23,0,1.75-1,3.47-1.51s.85-3.21.85-3.21c-2.14-.13-3.72-1.09-5.26-1.09A8,8,0,0,1,20.06,78c.33,0,2.34-1.28,3.16-1.28s4.06,1.66,4.26,1.6a2.76,2.76,0,0,0,.94-2.83c-2.91-.94-4.7-3.63-5.32-3.63-1,.37-6.07,3-6.32,3.41A5.08,5.08,0,0,0,17.07,78c.23.21,2.34,1.64,2.75,2.73s.41,4.39.8,4.88S21.86,86.41,22.26,87.24Z"/><path class="cls-27" d="M56.41,91.58a29.27,29.27,0,0,1,8-13.7,8.47,8.47,0,0,0,.25-1.66s-.45-.07-3.27,1.34c-3.59,2.08-9.68,13.13-9.68,13.13A17.15,17.15,0,0,0,56.41,91.58Z"/><path class="cls-27" d="M88.74,140.72a4.26,4.26,0,0,1-3.15,0c.79,1.4,1.6,3,2.41,4.73.8-.18,1.59-.37,2.37-.58Z"/><path class="cls-27" d="M50.23,29.73s-14.66-10.9-16.15-10.9-4,2-4,2,2.29-3.39,4.43-3.39c5.34,0,25.78,19.71,31.89,19.71,3,.33,15-3.4,15-3.4-5.46-10.45-37.07-12.92-46-17.8-13.68,3.57-9.4,21-5.67,25.78,3.78,1.13,18.68-2.91,18.68-2.91C48.27,37,50.23,29.73,50.23,29.73Z"/><path class="cls-27" d="M77.72,92.12c3.09,1.1,7.21,0,7.21,0C89.4,86.14,96.5,75,96.5,75s-.5-1.21-2.32-.74C83.84,79.17,77.72,92.12,77.72,92.12Z"/><path class="cls-27" d="M46.24,104.87A47.81,47.81,0,0,1,45,114a22,22,0,0,0,4.13,2.25,3.15,3.15,0,0,1,1.18-1.07c2-.77,9.8.9,11,1.17s1.57,1.79,1.57,1.79a202.91,202.91,0,0,0,21.48-1.66s3.74-3.08,3.87-3.74-.81-2.63-.78-4.16c-2.11.82-5.79,4.72-5.79,4.72,1.13-5.72,12.4-11.58,12.4-11.58-5.86-2.83-5.64-11.49-5.64-11.49s-1.82,2.91-2.64,3.24c-5,1.89-9,.68-9.63-.41s.52-3.87.52-3.87c-10.49,2.55-17.76,0-17.76,0s-.89,4.43-3.82,4.19C50.15,93.28,49.52,91,49.52,91c-1.8,2-4.88,7.94-4.79,8.68.48,2.84,4.61,6.55,4.47,8C48.79,107.29,46.24,104.87,46.24,104.87Zm2.55-.51c.16-2.26,3.12-9.28,4-9.91A115.11,115.11,0,0,0,75,96.08s-2.51,9.2-4.53,10.23-12.43,4.62-14,4.42S48.64,106.63,48.79,104.36Z"/><path class="cls-27" d="M51.41,143.43s4.2.28,4.86,0A3.38,3.38,0,0,1,54.9,142c-.33-.85-3.73-13.36-3.73-13.36a4.42,4.42,0,0,1-3.12-4.84,9.43,9.43,0,0,1-1.6-.43,14.82,14.82,0,0,0-1.16,3.2c0,.67,5.05,11.9,5.05,11.9l-3.37-5s.43,6,.58,12.68a43.89,43.89,0,0,0,14,2.85l-1.06-2.58S52,144.28,51.41,143.43Z"/><path class="cls-27" d="M60.94,144.18A55,55,0,0,1,58.35,130s-4.35-.19-5.34-.76c0,0,3,11.76,3.45,12.14S60.94,144.18,60.94,144.18Z"/><path class="cls-27" d="M85.51,146l1.53-.31c-1.77-3.76-3.36-6.58-4.5-7.59,0,0-10.55-5.16-11.4-6.26a6.07,6.07,0,0,1-.88-3.05,21.61,21.61,0,0,0,1.57,2.36c.35.28,7.75,4.15,7.75,4.15A17.58,17.58,0,0,1,78.16,132s-2.27.66-2.71-5.32a118.2,118.2,0,0,1-12.59,0s.11,2.53-1.28,3a4.77,4.77,0,0,1-2.29.36s1.32,10,3,14.89l5,4a127.9,127.9,0,0,0,14.15-1.4C82.75,147.62,84.13,146,85.51,146Z"/><path class="cls-27" d="M67.12,149l-5.18-2.38L63.1,149C64.43,149.07,65.78,149.06,67.12,149Z"/><path class="cls-27" d="M72.28,99l.56-1.6s-15.26.09-19.58-1.92c0,0-.56,1.29-.75,1.92C52.51,97.38,63.43,100.27,72.28,99Z"/><path class="cls-27" d="M56.19,108.8s9.48-2,13.63-4.28a23.64,23.64,0,0,0,2.27-4.5s-10.41,1-19.9-1.92c0,0-1.82,4.91-1.66,6S53.42,108.08,56.19,108.8Z"/><path class="cls-1" d="M76.56,55.17c1.07-1.44.91-3,1.92-4.44-3,.87-7.53,6.17-11.3,7.93,0,0-.29.69.72.68S75.08,57.27,76.56,55.17Z"/><path class="cls-1" d="M67.57,61.9S72.43,61,75,57.32a15.67,15.67,0,0,1-7.57,2.93Z"/><path class="cls-1" d="M73.46,82c11.09-6,15.65-6.73,15.65-6.73a14.84,14.84,0,0,1,2.71-1.86,2,2,0,0,0-1.7-.52C85,74.11,71.9,81,69.87,79.92S69,74.16,69,74.16A13,13,0,0,0,66.14,76C65,77.51,64.11,85.78,73.46,82Z"/><path class="cls-1" d="M51.34,87.3s3.88-6.42,5.13-7.68c0,0-2.59,1.2-2.29,1.07C53.71,82.09,50.62,86.52,42,90c0,0,2.74,2.73,3.12,3.89C45.08,93.9,49.79,87,51.34,87.3Z"/><path class="cls-1" d="M99.16,107.12s10.63-4.33,13.75-8L111.84,97a59.27,59.27,0,0,1-13.74,8Z"/><path class="cls-1" d="M84,34.45s1.93.9,2.31,1.11c0,0,2.89-4,5.51-4.39.87,0,2.12,1.56,2.12,1.56s2-7.72,1.25-9.51S89.65,12.26,81.39,10C81.39,10,90.41,14.44,84,34.45Z"/><path class="cls-1" d="M80.7,5.92a14.39,14.39,0,0,0-6.16-1.09V6.15A17.48,17.48,0,0,1,80.11,7Z"/><path class="cls-1" d="M69.63,84.25a5.25,5.25,0,0,1-5.32-4.34,80.65,80.65,0,0,0-4.69,7.76c7.37,2.12,18.1,0,18.1,0a98.59,98.59,0,0,1,8.06-10.11C77.44,80.72,73.16,84.25,69.63,84.25Z"/><path class="cls-1" d="M93.08,98.41A9.49,9.49,0,0,1,93.21,96a74.91,74.91,0,0,1,5.63-10.2s-3.71,9.6-3.78,11.56,1,1.44,2.68,6.67c.06.5,12.24-6.14,13.53-8,0,0-4.62-8.53-7.36-12.62-1.51-2.37-1-3.75-1-3.75s-3.94-2.31-5.38-2.86a119.31,119.31,0,0,1-6.93,10.14S89.15,93.44,93.08,98.41Z"/><path class="cls-1" d="M60.85,128.41c.66-.35,1.09-9,.71-9.93s-10.16-2.55-10.63-1.94c-.78.85-1.6,8.44-.88,9.45S60.19,128.76,60.85,128.41Zm-2.52-1.82c-2,.51-5.51.09-7.07-1.66a2.86,2.86,0,0,0,1.64.11,10.13,10.13,0,0,1,.57-5.88s-1.23-.76-1.47-.84c0,0,5.54-.28,7.34,1.14C60.2,120.32,60.3,126.07,58.33,126.59Z"/><path class="cls-3" d="M44.23,95.42l-2.14-2.74a25.1,25.1,0,0,1-4.16,1.89l3,11.27,3.31-1.51a6.15,6.15,0,0,1,.16-1.48s-1.7-2.33-1.7-3A15.06,15.06,0,0,1,44.23,95.42Z"/><ellipse class="cls-1" cx="72.01" cy="40.84" rx="0.44" ry="0.98"/><path class="cls-1" d="M69.44,48a7.43,7.43,0,0,1,3.45-1c1.29-.84,2-4,1.6-7.66-.07-.57-.15-1.11-.26-1.64a30.47,30.47,0,0,1-5.68,1.17,10.08,10.08,0,0,0-1,5.89v0A6.08,6.08,0,0,0,69.44,48Zm2.87-9.12c.92,0,1.68,1.46,1.68,3.26s-.76,3.26-1.68,3.26S70.62,44,70.62,42.15,71.38,38.89,72.31,38.89Z"/><path class="cls-1" d="M61.68,49.9c0-.39,0-.82-.07-1.29l-.11.08c-.78.41-2.1-.52-2.93-2.1s-.87-3.18-.08-3.6a1.12,1.12,0,0,1,1,.06,10.63,10.63,0,0,0-3.66-2.93c-.89.86-.38,3.46,1.22,6C58.56,48.48,60.47,50,61.68,49.9Z"/><ellipse class="cls-1" cx="59.45" cy="44.81" rx="0.56" ry="0.92" transform="translate(-12.95 27.46) rotate(-23.53)"/><path class="cls-28" d="M47.22,22.76C49.55,25.1,63.3,35.07,67.79,35.35c3.84.24,11.06-1.9,13.07-2.52a15.32,15.32,0,0,0-5.28-4.4C60.35,32,47.22,22.76,47.22,22.76Z"/><path class="cls-28" d="M52.12,89.93c-.28.48-.43.76-.43.76a17.15,17.15,0,0,0,4.72.89,29.27,29.27,0,0,1,8-13.7,8.47,8.47,0,0,0,.25-1.66,2.15,2.15,0,0,0-.62.16c-1.78,2.58-6.93,10.1-8.88,13.69C55.14,90.07,53.23,89.93,52.12,89.93Z"/><path class="cls-28" d="M50.53,104.08c.15,1.07,2.89,4,5.66,4.72,0,0,9.48-2,13.63-4.28a23.64,23.64,0,0,0,2.27-4.5s-.85.08-2.28.13a11.13,11.13,0,0,1-1.66,2.73c-.66.38-7.49,2.7-12.16,2.11a7.37,7.37,0,0,1-4.37-2.85c0-.24.13-1.91.26-3.16C51.36,100.44,50.41,103.29,50.53,104.08Z"/><path class="cls-28" d="M86.75,96.87c1.11.29,2,2.58,1.33,4.16s-3.65.85-13.66,15c-3.09,4.28.18-6.63,1.63-8-2.8,1.11-4.22,7.18-9.66,8.29A21.47,21.47,0,0,0,71,110c-1.37-.09-9.72,11.3-19.52.73a21.79,21.79,0,0,0,2.35,4.39,70.06,70.06,0,0,1,7.46,1.26c1.17.27,1.57,1.79,1.57,1.79a202.91,202.91,0,0,0,21.48-1.66s3.74-3.08,3.87-3.74-.81-2.63-.78-4.16a6.94,6.94,0,0,0-1.17.64c.64.79,2.19,3.58-5.85,6,0,0,.57-1.11,1.3-2.22,1.46-5.63,12.33-11.28,12.33-11.28-5.86-2.83-5.64-11.49-5.64-11.49s-1.82,2.91-2.64,3.24c-.37.14-.74.27-1.1.37a73.27,73.27,0,0,0-4.09,7.47S85.65,96.59,86.75,96.87Z"/><path class="cls-28" d="M49.52,91c-1.8,2-4.88,7.94-4.79,8.68.41,2.46,3.57,5.58,4.32,7.33a8,8,0,0,0,2.71,1.12c-1.65-1.24-3-2.7-3-3.79a11.1,11.1,0,0,1,.46-2,24,24,0,0,1-2-4.64,19.28,19.28,0,0,1,2.92-5.75A2.18,2.18,0,0,1,49.52,91Z"/><path class="cls-28" d="M84.93,92.12C89.4,86.14,96.5,75,96.5,75a1.41,1.41,0,0,0-.38-.47c-3.32,3.38-11.44,14.9-12,15.17a12.18,12.18,0,0,1-5.69.93c-.5.9-.76,1.45-.76,1.45C80.81,93.22,84.93,92.12,84.93,92.12Z"/><path class="cls-28" d="M72.84,97.38H71.15c-.19.41-.51,1.09-.87,1.83.67,0,1.34-.12,2-.22Z"/><path class="cls-28" d="M46.24,104.87A47.81,47.81,0,0,1,45,114a22,22,0,0,0,4.13,2.25,3.15,3.15,0,0,1,1.18-1.07,3.21,3.21,0,0,1,.82-.16,17.81,17.81,0,0,1-3.32-8.66Z"/><path class="cls-28" d="M71.83,131.12c.35.28,7.75,4.15,7.75,4.15A17.58,17.58,0,0,1,78.16,132s-2.26.66-2.71-5.32l-.57,0c0,1-.64,2.79-4.4,2.41h0A15.09,15.09,0,0,0,71.83,131.12Z"/><path class="cls-28" d="M70.23,142.34a2,2,0,0,0,.25.2Z"/><path class="cls-28" d="M60.94,144.18a53.8,53.8,0,0,1-1.7-6.64c-.39,0-1.21,0-1.35-.25s-1.37-5.85-1.7-7.43a10.63,10.63,0,0,1-3.18-.6S56,141,56.46,141.4,60.94,144.18,60.94,144.18Z"/><path class="cls-28" d="M49.23,142.83a15.9,15.9,0,0,1,2.29.71l-.11-.11s4.2.28,4.86,0A3.38,3.38,0,0,1,54.9,142c-.1-.25-.47-1.54-.94-3.23-6.71-9.26-7.23-13.9-7.19-15.29l-.32-.11a14.82,14.82,0,0,0-1.16,3.2c0,.67,5.05,11.9,5.05,11.9l-3.37-5s.43,6,.58,12.68a37.16,37.16,0,0,0,5,1.59C50.86,146.32,49.44,144.65,49.23,142.83Z"/><path class="cls-28" d="M53,144.23a9.17,9.17,0,0,1,2.31,1.71,25,25,0,0,1,2.12,2.68c1.36.17,2.73.29,4.12.36l-1.06-2.58S55.66,145.19,53,144.23Z"/><path class="cls-28" d="M30.77,37.29s0-4.89.41-5.74,16.4-4.16,18.34.93c.38-1.55.71-2.75.71-2.75s-14.66-10.9-16.15-10.9-4,2-4,2,.16-.24.45-.6C28.14,23,26.06,28.61,30.77,37.29Z"/><path class="cls-28" d="M48.41,38.77a9.05,9.05,0,0,1,.17-1.84c-2.5.19-6.12,1.48-14.88,2.25-2.54.08-2.93,1.45-4.08,2.35l.12.15C33.51,42.81,48.41,38.77,48.41,38.77Z"/><path class="cls-28" d="M87,145.66c-1.77-3.76-3.36-6.58-4.5-7.59l-.57-.28A41.26,41.26,0,0,1,85.5,146h0Z"/><path class="cls-28" d="M63.53,141.44c-.76-1.13-1.52-6.51-1.52-6.51a101.79,101.79,0,0,0,8.22,7.41c-1.91-1.85-6.4-11.56-6.22-13.34.13-1.26,2.08-1.87,3.33-2.14-1.57,0-3.13-.07-4.48-.18,0,0,.11,2.53-1.28,3a4.77,4.77,0,0,1-2.29.36s1.32,10,3,14.89l5,4c1.6-.05,3.21-.15,4.82-.29A73,73,0,0,1,63.53,141.44Z"/><path class="cls-28" d="M67.12,149l-3.73-1.71c.15.38.43,1,.81,1.74C65.17,149.06,66.14,149.05,67.12,149Z"/><path class="cls-28" d="M82.4,147.36c-3.36-1.7-7.35-3.81-7.35-3.81A32.38,32.38,0,0,0,80,147.82l1.4-.2A2.41,2.41,0,0,0,82.4,147.36Z"/><path class="cls-28" d="M88.74,140.72a3.93,3.93,0,0,1-1.9.29c.34.77,1,2.26,1.86,4.28.57-.13,1.12-.27,1.67-.42Z"/><path class="cls-28" d="M75,91s-12.51,1-16.59-.29c-.12.27-.26.56-.42.84C59.5,92.27,66,94.89,75,91Z"/><path class="cls-29" d="M36.18,76.36c-1.75-.09-1.32,1.92-4.34,3,1.5,1.27,4.24-.43,4.24-.43-.55,1.18-2.24,1.53-2.06,2s1.27,4.28,1.27,4.28a13.87,13.87,0,0,0,3-4.27C38.08,79.42,37.58,76.43,36.18,76.36Z"/><path class="cls-29" d="M72.12,122.78c-.7.52-6.71.42-8.81.36,0,.62-.06,1.27-.1,1.9l12.73-.23a4.8,4.8,0,0,1,2.06-.87c2.45-.73,3-3.09,4.73-4.11-2.77.37-8.9.84-9.26,1S73,122.15,72.12,122.78Z"/><path class="cls-29" d="M48.08,122.23a13.52,13.52,0,0,1,.16-2.79c-.4-.12-1.11-.32-1.69-.47,0,1.21-.1,2.48-.1,2.48Z"/><path class="cls-29" d="M57.09,122a2.41,2.41,0,0,1-.44,2c-.65.51-2.54.15-2.54.15a2.61,2.61,0,0,0,.15,1.2s2.4.72,3.35.2c.59-.32.91-2.11,1-3.55C58.16,122,57.51,122,57.09,122Z"/><path class="cls-29" d="M83,33.42S85.8,22.08,84.5,16.8a11.43,11.43,0,0,0-9.74-8.63c-.47.52-.22.85-.22.85,8.39,4.36,3.42,15.87,2.2,18.39A19.79,19.79,0,0,1,83,33.42Z"/><path class="cls-29" d="M19.82,80.76c.41,1.08.41,4.39.8,4.88s1.24.77,1.64,1.6.75,3.17,1.09,3.48a6.5,6.5,0,0,0,5,.51,3,3,0,0,0,.44-.22,5,5,0,0,1-1.18-2.9,6.44,6.44,0,0,1-4.16-1.35,6.22,6.22,0,0,1,3.73-1.22,2.16,2.16,0,0,0,1.08-.3,5.26,5.26,0,0,1-2.8-3.75c-1,.12-3.07.31-3.73-.26a2.43,2.43,0,0,1-.92-1.61,10,10,0,0,0,3.27.12A7.34,7.34,0,0,1,20.06,78c.33,0,2.34-1.28,3.16-1.28a2.93,2.93,0,0,1,.47.12,11.77,11.77,0,0,1-.75-2c-.47-.5-1-1-1.34-1-.58,0-3.31,2.09-4.88,2.66A3.67,3.67,0,0,0,17.07,78C17.3,78.24,19.41,79.67,19.82,80.76Z"/><path class="cls-29" d="M104.11,124.91a13.16,13.16,0,0,1-4.36,2.25,7.88,7.88,0,0,0-2.9-3.23s3,5,.59,8.54c0,0,.35-5.64-2.55-8.07,0,0,.91,4.86-.27,7.27-1.5,2.93-7.28,5.66-7.28,5.66a12.55,12.55,0,0,1-1.51-1.39,9.81,9.81,0,0,0,3.06-1.79s-3,1.34-4.27.68-1.79-2.93-1.79-2.93A13.34,13.34,0,0,0,86,130.63s-6.23-1-6.87-2a3.13,3.13,0,0,1,0-2.13c-.42,0-.87.09-1.34.12,0,.84.25,3.49.58,3.89s3.51.76,4.36,1.48a4.59,4.59,0,0,1-2.49.14s1.23,2.88,1.83,3.2a13.32,13.32,0,0,0,3.22.28,1.74,1.74,0,0,1-1.25,1,34.82,34.82,0,0,0,3.34,2.66c.28,0,6.8-4,7.11-4.25A25.66,25.66,0,0,0,96.8,133a5.78,5.78,0,0,1-.75,1.72s2.07-.45,2.24-.47,1.34-2.6,7.74-3.07a12.94,12.94,0,0,0-.37-3.93q.11.44.18.84A27.7,27.7,0,0,0,104.11,124.91Z"/><path class="cls-30" d="M76.56,55.17c1.07-1.44.91-3,1.92-4.44a11.52,11.52,0,0,0-3.42,2.05c.1.86.29,2.53.31,3.5A5.38,5.38,0,0,0,76.56,55.17Z"/><path class="cls-30" d="M59.62,87.67c7.37,2.12,18.1,0,18.1,0a98.59,98.59,0,0,1,8.06-10.11q-1.38.52-2.61,1c-2,2-8.09,7.68-14.53,8.15-3.8.17-3.61-3.11-3.34-4.58a5.67,5.67,0,0,1-1-2.27A80.65,80.65,0,0,0,59.62,87.67Z"/><path class="cls-30" d="M60.6,122.12c-.38.58-.43,4.73-.67,4.92a6.73,6.73,0,0,1-2.84-.26c-2,.12-4.56-.43-5.82-1.85a2.81,2.81,0,0,0,1.63.11,10.13,10.13,0,0,1,.57-5.88s-.89-.55-1.3-.76c-.22.19-.89,1-.72,3.71a6.7,6.7,0,0,0-1.59-.17c-.15,1.87-.13,3.6.19,4,.73,1,10.14,2.77,10.8,2.42.42-.22.75-3.82.83-6.64A1.08,1.08,0,0,0,60.6,122.12Z"/><path class="cls-30" d="M84,34.45s1.93.9,2.31,1.11c0,0,2.89-4,5.51-4.39.87,0,2.12,1.56,2.12,1.56s2-7.72,1.25-9.51a.69.69,0,0,0,0-.13c-1.94-.38-7-1.7-7.83-5.3a19.41,19.41,0,0,0-3.74-7A15.42,15.42,0,0,0,81.39,10S90.41,14.44,84,34.45Z"/><path class="cls-30" d="M90.56,86.93s-1.41,6.51,2.52,11.48A9.49,9.49,0,0,1,93.21,96a74.91,74.91,0,0,1,5.63-10.2s-3.71,9.6-3.78,11.56,1,1.44,2.68,6.67c.06.5,12.24-6.14,13.53-8l0,0c-.94.58-5.85,3.51-8.88,3.14-.92-.1-3.91-8.68-3.91-8.68a50.45,50.45,0,0,1,3.18-7.85,57.94,57.94,0,0,0-8.53,8.91s1-9.43,5.76-14a15.15,15.15,0,0,0-1.38-.65A119.31,119.31,0,0,1,90.56,86.93Z"/><path class="cls-30" d="M51.34,87.3,52.16,86a44,44,0,0,1-8.91,5.4,10,10,0,0,1,1.83,2.53S49.79,87,51.34,87.3Z"/><path class="cls-30" d="M112.91,99.17l-.54-1.08a38.45,38.45,0,0,1-13.94,7.56l.73,1.47S109.8,102.79,112.91,99.17Z"/><path class="cls-31" d="M77.36,37.62c2.09.38,1.9,6,2.25,6.47a2.29,2.29,0,0,0,1.32.47.53.53,0,0,1-.12-.17c-.22-.59,0-6.13-.25-7.1a6.47,6.47,0,0,0-1.2-1.37s-1,.44-2.61,1C76.86,37.19,77.06,37.56,77.36,37.62Z"/><path class="cls-31" d="M90.59,39.38c.15.57-.83,2.74-.83,2.74s.11-1.61.06-1.75-.7-.39-.7-.39A10.94,10.94,0,0,0,88,42.76a3.6,3.6,0,0,1,.61,1.35,36.17,36.17,0,0,0,3.6-6.1c0-.4-.71-1.28-.93-1.52a18.92,18.92,0,0,1-1.28,2A1.61,1.61,0,0,1,90.59,39.38Z"/><path class="cls-31" d="M72.63,68.78s10.74-8.74,14.05-14c0,0-2,8.07-11.71,14.59,0,0,.09,4.53-2.46,6.46-.47.32.52-3,.52-3s-2.29,1.49-2.41,2.15a21.69,21.69,0,0,0,.19,3.24S79,74.94,87.67,71.9c0,0-1.47-2-1.44-2.84s2.6-12.7,3.11-17.67c0,0-2.1.51-3-2a8.8,8.8,0,0,0,2.19.5,8.35,8.35,0,0,0,2-1.58c-1.63,1.74-4,.35-4.9-1.3,0,0,.22,4.43-1,6.53S76,65.41,70.72,68.79C71.34,68.8,72,68.8,72.63,68.78ZM85.4,70.57a55.43,55.43,0,0,1-9,3.62C77.56,72.29,86.25,58,86.25,58,84.41,66.65,85.4,70.57,85.4,70.57Z"/><path class="cls-31" d="M67.22,55.58a1.45,1.45,0,0,1-.17.5h0a2.42,2.42,0,0,0,.55-2.58c-1.6,1.35-4.74,1.8-4.7.15a12.34,12.34,0,0,0-.36-2.88,7,7,0,0,1-1.31,4.51A5.82,5.82,0,0,0,67.22,55.58Z"/><path class="cls-31" d="M44.39,102.85a6.15,6.15,0,0,0-.16,1.48l-3.3,1.51-.7-2.6,2.37-1.55c.5-2.79-1.44-7.46-1.44-7.46l-2.91,1.49h0l-.31-1.16h0a25.31,25.31,0,0,0,4.14-1.88l2.14,2.73a15.06,15.06,0,0,0-1.54,4.38C42.69,100.52,44.39,102.85,44.39,102.85Z"/><polygon class="cls-31" points="40.23 103.24 31.18 106.44 27.93 93.32 29.57 92.36 30.52 91.22 34.12 87.86 36.23 95.07 37.93 94.57 38.24 95.73 38.25 95.72 40.23 103.24"/><path class="cls-31" d="M31.84,109.1l-4.75,1.8c-.5-.79-5.48-6.34-5.71-9.12A63.11,63.11,0,0,1,22,92.25a5,5,0,0,0,2.05.82c-.15,1.82-.52,6.26-.49,8.84,0,1.13,2.08,3.78,2.08,3.78s.06-4.22.28-5.7c0,0,1.7,6,2.3,6.39a4.68,4.68,0,0,0,3,.06Z"/><path class="cls-31" d="M114.53,120.05a25.83,25.83,0,0,1-3.28,2.55c.07-1,5.34-5.72,5.34-6.58s-3-10.41-5.32-12.66a35.86,35.86,0,0,1-8.16,4.63s2.12,4.34,2.66,5.78a35.58,35.58,0,0,1,3.64.74,10.37,10.37,0,0,0-1.06.18,34,34,0,0,1,4.79.76s-4.38,4-8.13,5.48a15.87,15.87,0,0,1,3,6.82S113.54,123.12,114.53,120.05Zm-8.78-11.85a23.16,23.16,0,0,0,4.44-2.69,14.72,14.72,0,0,1,3.35,7.37A8.26,8.26,0,0,1,105.75,108.2Z"/><path class="cls-31" d="M74.49,61.7s-2.88,2.74-9.34,3.21C65.15,64.91,68.17,68.17,74.49,61.7Z"/><path class="cls-31" d="M65.55,42.15c.8,1.39,1.59,7.66,1.59,7.66a11,11,0,0,1,2.3-1.8,6,6,0,0,1-1.87-3.26v0h0S66.42,43,67,38.93c-4.68-.19-11.44-5-14.69-7.76l.31.27c-.16,1-.58,2.79-.85,3.93,3.16.18,6,2.85,8,6.24C61.15,37.92,64.12,39.54,65.55,42.15Z"/><path class="cls-3" d="M59.85,14.75c.79,1.37,3.86,1.36,7-.05s5.28-3.85,4.61-5.34l0,0c1.42-.56,2.54-1,3.1-1.17C70.59,8,54,14.49,52.16,19l3.36.78a10.49,10.49,0,0,1,1.22-2.48A10.89,10.89,0,0,1,59.85,14.75Z"/><path class="cls-3" d="M63.4,119.76s0,.26,0,.69a19.46,19.46,0,0,0,8.08-.53C69.09,120,66.39,119.93,63.4,119.76Z"/><path class="cls-3" d="M48.56,117.53l-1.92-.69c0,.13,0,.45,0,.86a13.76,13.76,0,0,0,1.85.43C48.51,117.76,48.56,117.53,48.56,117.53Z"/><path class="cls-3" d="M26.27,79.73a5,5,0,0,1-.77.07,5.08,5.08,0,0,0,2.79,5.44c.19-.1.38-.22.57-.34a6.29,6.29,0,0,1-1.94-3.45,8.64,8.64,0,0,0,4.76,0,4.81,4.81,0,0,0-.15-.67C29.39,80.69,27.82,79.73,26.27,79.73Z"/><path class="cls-3" d="M34.13,72.57C32,77.31,30.93,77,31.07,78c0,.05,0,.1,0,.15A12.74,12.74,0,0,0,34.91,74a12,12,0,0,1,3.28,2.81C37.06,73.42,34.16,72.4,34.13,72.57Z"/><path class="cls-3" d="M23.69,76.85l.69.25A11.66,11.66,0,0,1,24,74s2.37,2.18,4.56,2.45a2.2,2.2,0,0,0-.08-1c-2.9-.93-4.69-3.59-5.32-3.63C22.78,72.39,22.26,73.81,23.69,76.85Z"/><path class="cls-3" d="M29.62,90.21a13.54,13.54,0,0,1-.81-2.06,7.92,7.92,0,0,1,3-2.37,1,1,0,0,0-.53-.62c-.82-.3-3,1.5-3,1.5l-.55,0A5.46,5.46,0,0,0,28.82,91,3.19,3.19,0,0,0,29.62,90.21Z"/><path class="cls-3" d="M98.57,118.73s-3.16,3.73-4.95,3.64-2.18-1-2.81-1.05a57.48,57.48,0,0,0-6.94,0,1.86,1.86,0,0,0-.48.36,34,34,0,0,1,5.6.36c2,.43,5,5.53,5,5.53a21.73,21.73,0,0,0-.74-4.31s2.48-.14,3-.14a14.37,14.37,0,0,1,2.8,1.43,9.37,9.37,0,0,0-2.47-2.27,9.13,9.13,0,0,0,2.48-2.21c3.22,1.28,5.64,5.62,6.75,8A12.22,12.22,0,0,0,98.57,118.73Z"/><path class="cls-3" d="M85.46,123.53c-.28.65-6.26,1.83-7.71,2.87,0,0,0,.1,0,.26C83.89,126.35,85.46,123.53,85.46,123.53Z"/><path class="cls-4" d="M88.59,44.11A3.6,3.6,0,0,0,88,42.76,10.94,10.94,0,0,1,89.12,40s.66.25.7.39-.06,1.75-.06,1.75,1-2.17.83-2.74A1.61,1.61,0,0,0,90,38.5a20.14,20.14,0,0,0,1.29-2l.06.07.06-.52S85.78,41.16,86,43c.28,1.09,1.46.45,1.23,3.95,0,0,1.42-.53,1.48-3Z"/><path class="cls-4" d="M72.31,38.89c-.93,0-1.69,1.46-1.69,3.26s.76,3.26,1.69,3.26S74,44,74,42.15,73.23,38.89,72.31,38.89ZM72,41.82c-.25,0-.44-.44-.44-1s.19-1,.44-1,.43.44.43,1S72.25,41.82,72,41.82Z"/><path class="cls-4" d="M52.76,94.45c-.85.63-3.81,7.65-4,9.91s6.11,6.17,7.68,6.37,12-3.38,14-4.42S75,96.08,75,96.08A115.21,115.21,0,0,1,52.76,94.45Zm17.06,10.07c-4.15,2.3-13.63,4.28-13.63,4.28-2.77-.72-5.51-3.65-5.66-4.72s1.66-6,1.66-6c9.49,2.9,19.9,1.92,19.9,1.92A23.64,23.64,0,0,1,69.82,104.52ZM52.51,97.38c.19-.63.75-1.92.75-1.92,4.32,2,19.58,1.92,19.58,1.92L72.28,99C63.43,100.27,52.51,97.38,52.51,97.38Z"/><path class="cls-4" d="M59.34,119.46C57.54,118,52,118.32,52,118.32c.24.08,1.47.84,1.47.84A10.13,10.13,0,0,0,52.9,125a2.81,2.81,0,0,1-1.63-.11c1.55,1.75,5.09,2.17,7.06,1.66S60.2,120.32,59.34,119.46Zm-5.23,2.29a9.12,9.12,0,0,1,1.91.18c.16.16.2,1.35-.11,1.45a6.9,6.9,0,0,1-1.87-.12S54.11,121.75,54.11,121.75Zm3.5,3.81c-1,.52-3.35-.2-3.35-.2a2.61,2.61,0,0,1-.15-1.2s1.89.36,2.54-.15a2.45,2.45,0,0,0,.1-2.76,4.57,4.57,0,0,0-2.49-.53,9.52,9.52,0,0,1,.33-1.41s3.51.32,3.87.89S58.55,125,57.61,125.56Z"/><path class="cls-4" d="M67.23,149h-.11l.25.12Z"/><path class="cls-31" d="M56.62,52.43a17.46,17.46,0,0,1-.49,7.71s-.35,1.36,5.55,2.91c0,0-3.71-1-3.94-3.71A67.52,67.52,0,0,0,56.62,52.43Z"/><polygon class="cls-31" points="40.23 103.24 31.17 106.44 31.84 109.1 40.92 105.84 40.23 103.24"/><polygon class="cls-32" points="38.25 95.72 38.24 95.73 37.93 94.57 37.95 94.57 37.95 94.57 38.25 95.72"/><polygon class="cls-3" points="38.22 95.73 36.05 96.56 33.73 88.22 30.25 91.53 29.65 92.25 27.91 93.33 29.69 100.52 31.16 106.45 40.22 103.24 38.22 95.73"/><path class="cls-33" d="M188.17,59s14.58-29.55,9.17-28.91c-3.27.38-17,14.61-17,25.91,0,11.79,11.13,25.37,11.13,38.31,0,7.2-3.93,16-19.16,17.81-16.7,2-21.61-6.29-21.61-6.29L159,90.26s5.08,6.44,12.28,5.59c13.92-1.65-2.95-19.63-2.95-37.15,0-11.62,13.76-35.19,31.6-37.29,20-2.36,2,36,2,36Z"/><path class="cls-34" d="M304.09,37.77s-17.52,44.47-21,44.88c-7.2.85,14.9-44.17,14.9-44.17l-14.41,1.7s-4.73,11.44-8.95,23.66c-3.18,6-11.54,21.17-15.61,21.65-7.2.85,15.07-44.19,15.07-44.19L254,43.68a28.56,28.56,0,0,0,1.47-7.21l-10.31,1.21c-2.09,9.78-6.74,23-11.62,33.74-3.69,6.91-10.83,18.2-18.51,19.1-3.93.47-5.4-2.8-4.91-7.28a4.33,4.33,0,0,0,3.11.78c16.21-1.91,26-38.6,11.3-36.86C200.61,50,181.3,111,210.28,107.62a11.14,11.14,0,0,0,3.63-1.14c13.82-4.87,29.66-32.82,37.3-53.14l4.74-.56c-4.25,11.31-11,29.29-11.78,37.9-.49,6.12,1.14,12.8,6.71,12.15,5.88-.7,12.52-9.63,18-19.08a40.22,40.22,0,0,0-.62,4.09C267.74,94,273.31,100.18,279,99.5c12.61-1.49,37.82-63.24,37.82-63.24ZM222.72,57.52c1.8-.21-2.78,16-8.19,16.69a6.06,6.06,0,0,1-2.29-.22C215,66,219.44,57.91,222.72,57.52Z"/><path class="cls-33" d="M332.09,16.62a8,8,0,0,0-7,7.7,6.07,6.07,0,0,0,7,6.05A8,8,0,0,0,339,22.68,6,6,0,0,0,332.09,16.62Z"/><path class="cls-34" d="M428.19,47.68s11.63-25.93-4.25-24.06C408.79,25.41,403.27,41.52,402.7,49c-3,6.13-11.09,20.71-19.86,21.74-3.93.47-5.41-2.8-4.91-7.28a4.33,4.33,0,0,0,3.11.78c16.21-1.91,26-38.6,11.3-36.86-12.16,1.43-23.13,17.94-27.17,33.36C361.36,67,355.88,73.9,349.93,74.6c-11.79,1.39.16-32.11,6.88-32.9,2.94-.35-2.46,12.89-4.42,15.41L362.21,56c3.11-3.47,9.82-26.2-3.6-24.62-12,1.42-22.47,17-26.63,32-3.86,6.67-9,14.59-11.85,14.93-7.2.85,14.9-44.16,14.9-44.16l-14.41,1.7s-14.24,34.42-15.38,47.66c-.5,6.27,1.63,12.74,7.85,12,5.68-.67,11.9-9.22,17-18.41.28,9.25,4.47,15.88,14.26,14.72,7-.82,13.77-8.9,19.22-17.76.47,8.78,4.75,14.93,14.51,13.78s20-18.94,25.84-31c3,8,9.94,12.89,3.79,13.61-4.74.57-6.38-4.64-6.38-4.64s-5.89,11-9,14.48c0,0,3.28,5.51,15.23,4.1,11.63-1.37,16.38-12.24,16.38-18.47,0-8.68-8.85-15.16-8.85-21.55,0-6.22,3.6-12.54,5.9-12.81,3.6-.43-1.64,13-1.64,13Zm-37.66-10c1.81-.22-2.78,16-8.18,16.68a6.24,6.24,0,0,1-2.29-.22C382.84,46.15,387.26,38.1,390.53,37.72Z"/><path class="cls-35" d="M188.17,61s14.58-29.55,9.17-28.91c-3.27.38-17,14.61-17,25.91,0,11.79,11.13,25.37,11.13,38.31,0,7.2-3.93,16-19.16,17.81-16.7,2-21.61-6.29-21.61-6.29L159,92.26s5.08,6.44,12.28,5.59c13.92-1.65-2.95-19.63-2.95-37.15,0-11.62,13.76-35.19,31.6-37.29,20-2.36,2,36,2,36Z"/><path class="cls-35" d="M304.09,39.77s-17.52,44.47-21,44.88c-7.2.85,14.9-44.17,14.9-44.17l-14.41,1.7s-4.73,11.44-8.95,23.66c-3.18,6-11.54,21.17-15.61,21.65-7.2.85,15.07-44.19,15.07-44.19L254,45.68a28.56,28.56,0,0,0,1.47-7.21l-10.31,1.21c-2.09,9.78-6.74,23-11.62,33.74-3.69,6.91-10.83,18.2-18.51,19.1-3.93.47-5.4-2.8-4.91-7.28a4.33,4.33,0,0,0,3.11.78c16.21-1.91,26-38.6,11.3-36.86C200.61,52,181.3,113,210.28,109.62a11.14,11.14,0,0,0,3.63-1.14c13.82-4.87,29.66-32.82,37.3-53.14l4.74-.56c-4.25,11.31-11,29.29-11.78,37.9-.49,6.12,1.14,12.8,6.71,12.15,5.88-.7,12.52-9.63,18-19.08a40.22,40.22,0,0,0-.62,4.09c-.49,6.12,5.08,12.34,10.81,11.66,12.61-1.49,37.82-63.24,37.82-63.24ZM222.72,59.52c1.8-.21-2.78,16-8.19,16.69a6.06,6.06,0,0,1-2.29-.22C215,68,219.44,59.91,222.72,59.52Z"/><path class="cls-35" d="M332.09,18.62a8,8,0,0,0-7,7.7,6.07,6.07,0,0,0,7,6A8,8,0,0,0,339,24.68,6,6,0,0,0,332.09,18.62Z"/><path class="cls-35" d="M428.19,49.68s11.63-25.93-4.25-24.06C408.79,27.41,403.27,43.52,402.7,51c-3,6.13-11.09,20.71-19.86,21.74-3.93.47-5.41-2.8-4.91-7.28a4.33,4.33,0,0,0,3.11.78c16.21-1.91,26-38.6,11.3-36.86-12.16,1.43-23.13,17.94-27.17,33.36C361.36,69,355.88,75.9,349.93,76.6c-11.79,1.39.16-32.11,6.88-32.9,2.94-.35-2.46,12.89-4.42,15.41L362.21,58c3.11-3.47,9.82-26.2-3.6-24.62-12,1.42-22.47,17-26.63,32-3.86,6.67-9,14.59-11.85,14.93-7.2.85,14.9-44.16,14.9-44.16l-14.41,1.7s-14.24,34.42-15.38,47.66c-.5,6.27,1.63,12.74,7.85,12,5.68-.67,11.9-9.22,17-18.41.28,9.25,4.47,15.88,14.26,14.72,7-.82,13.77-8.9,19.22-17.76.47,8.78,4.75,14.93,14.51,13.78s20-18.94,25.84-31c3,8,9.94,12.89,3.79,13.61-4.74.57-6.38-4.64-6.38-4.64s-5.89,11-9,14.48c0,0,3.28,5.51,15.23,4.1,11.63-1.37,16.38-12.24,16.38-18.47,0-8.68-8.85-15.16-8.85-21.55,0-6.22,3.6-12.54,5.9-12.81,3.6-.43-1.64,13-1.64,13Zm-37.66-10c1.81-.22-2.78,16-8.18,16.68a6.24,6.24,0,0,1-2.29-.22C382.84,48.15,387.26,40.1,390.53,39.72Z"/><path class="cls-34" d="M188.17,59s14.58-29.55,9.17-28.91c-3.27.38-17,14.61-17,25.91,0,11.79,11.13,25.37,11.13,38.31,0,7.2-3.93,16-19.16,17.81-16.7,2-21.61-6.29-21.61-6.29L159,90.26s5.08,6.44,12.28,5.59c13.92-1.65-2.95-19.63-2.95-37.15,0-11.62,13.76-35.19,31.6-37.29,20-2.36,2,36,2,36Z"/><path class="cls-34" d="M304.09,37.77s-17.52,44.47-21,44.88c-7.2.85,14.9-44.17,14.9-44.17l-14.41,1.7s-4.73,11.44-8.95,23.66c-3.18,6-11.54,21.17-15.61,21.65-7.2.85,15.07-44.19,15.07-44.19L254,43.68a28.56,28.56,0,0,0,1.47-7.21l-10.31,1.21c-2.09,9.78-6.74,23-11.62,33.74-3.69,6.91-10.83,18.2-18.51,19.1-3.93.47-5.4-2.8-4.91-7.28a4.33,4.33,0,0,0,3.11.78c16.21-1.91,26-38.6,11.3-36.86C200.61,50,181.3,111,210.28,107.62a11.14,11.14,0,0,0,3.63-1.14c13.82-4.87,29.66-32.82,37.3-53.14l4.74-.56c-4.25,11.31-11,29.29-11.78,37.9-.49,6.12,1.14,12.8,6.71,12.15,5.88-.7,12.52-9.63,18-19.08a40.22,40.22,0,0,0-.62,4.09C267.74,94,273.31,100.18,279,99.5c12.61-1.49,37.82-63.24,37.82-63.24ZM222.72,57.52c1.8-.21-2.78,16-8.19,16.69a6.06,6.06,0,0,1-2.29-.22C215,66,219.44,57.91,222.72,57.52Z"/><path class="cls-34" d="M332.09,16.62a8,8,0,0,0-7,7.7,6.07,6.07,0,0,0,7,6.05A8,8,0,0,0,339,22.68,6,6,0,0,0,332.09,16.62Z"/><path class="cls-34" d="M428.19,47.68s11.63-25.93-4.25-24.06C408.79,25.41,403.27,41.52,402.7,49c-3,6.13-11.09,20.71-19.86,21.74-3.93.47-5.41-2.8-4.91-7.28a4.33,4.33,0,0,0,3.11.78c16.21-1.91,26-38.6,11.3-36.86-12.16,1.43-23.13,17.94-27.17,33.36C361.36,67,355.88,73.9,349.93,74.6c-11.79,1.39.16-32.11,6.88-32.9,2.94-.35-2.46,12.89-4.42,15.41L362.21,56c3.11-3.47,9.82-26.2-3.6-24.62-12,1.42-22.47,17-26.63,32-3.86,6.67-9,14.59-11.85,14.93-7.2.85,14.9-44.16,14.9-44.16l-14.41,1.7s-14.24,34.42-15.38,47.66c-.5,6.27,1.63,12.74,7.85,12,5.68-.67,11.9-9.22,17-18.41.28,9.25,4.47,15.88,14.26,14.72,7-.82,13.77-8.9,19.22-17.76.47,8.78,4.75,14.93,14.51,13.78s20-18.94,25.84-31c3,8,9.94,12.89,3.79,13.61-4.74.57-6.38-4.64-6.38-4.64s-5.89,11-9,14.48c0,0,3.28,5.51,15.23,4.1,11.63-1.37,16.38-12.24,16.38-18.47,0-8.68-8.85-15.16-8.85-21.55,0-6.22,3.6-12.54,5.9-12.81,3.6-.43-1.64,13-1.64,13Zm-37.66-10c1.81-.22-2.78,16-8.18,16.68a6.24,6.24,0,0,1-2.29-.22C382.84,46.15,387.26,38.1,390.53,37.72Z"/><path class="cls-33" d="M275.66,21.34c0-.45-.13-.74-.4-.87a1.9,1.9,0,0,0-1.08-.12A8.47,8.47,0,0,0,271,21.52a16.92,16.92,0,0,0-3.24,2.53,15.34,15.34,0,0,0-2.68,3.5,9.39,9.39,0,0,0-1.23,4.06,2.83,2.83,0,0,1-1.69-.2,1,1,0,0,1-.52-1,5.81,5.81,0,0,1,1.31-3,22.22,22.22,0,0,1,3.27-3.63,26.86,26.86,0,0,1,4.3-3.18A11.9,11.9,0,0,1,274.91,19a3.25,3.25,0,0,1,1.58.12,1.63,1.63,0,0,1,.93,1,3.71,3.71,0,0,1,.15.95A16.72,16.72,0,0,1,276.51,26c-.07.18-.24.66-.53,1.43s-.51,1.37-.66,1.82a11.18,11.18,0,0,0-.73,3.24.72.72,0,0,0,.12.44.39.39,0,0,0,.39.17,2.67,2.67,0,0,0,1.58-1,7.11,7.11,0,0,0,.81-1.48l1.27-3.11a1.37,1.37,0,0,1,.34-.51,1,1,0,0,1,.54-.22h.06l-1.65,4a11.72,11.72,0,0,1-.88,1.74,4.11,4.11,0,0,1-2.91,2.06,1.29,1.29,0,0,1-1.28-.51,2.33,2.33,0,0,1-.4-1.39,10.19,10.19,0,0,1,.28-2.28,3.09,3.09,0,0,1-.7.55,2.51,2.51,0,0,1-1,.33,3.15,3.15,0,0,1-.58,0,3,3,0,0,1-.77-.25q-4,7-7.17,7.4a3.6,3.6,0,0,1-2-.22,1.43,1.43,0,0,1-.78-1.37,2.26,2.26,0,0,1,.77-1.53.94.94,0,0,0,.68.91,3,3,0,0,0,1.38.12q2.61-.32,6.34-6.19a1.58,1.58,0,0,1-.05-.38.92.92,0,0,1,.22-.59,1.16,1.16,0,0,1,.68-.42c.77-1.29,1.55-2.73,2.36-4.31l1-1.94c.25-.52.51-1.06.77-1.63a1.17,1.17,0,0,1,.6,0c.09,0,.13.1.13.17a8.88,8.88,0,0,1-.67,1.51c-.44.9-.81,1.67-1.11,2.32-.88,1.9-1.71,3.56-2.48,5a1.4,1.4,0,0,0,1.23.34,4.18,4.18,0,0,0,1.28-.41c.16-.62.39-1.34.68-2.15.1-.3.29-.79.55-1.48.46-1.18.76-2,.92-2.45A9.25,9.25,0,0,0,275.66,21.34Z"/><path class="cls-33" d="M279.2,32.45a.43.43,0,0,0,.41.16,2.39,2.39,0,0,0,1.51-1,6.6,6.6,0,0,0,.81-1.49L283.21,27a1.37,1.37,0,0,1,.34-.51.91.91,0,0,1,.51-.19l-.65,1.59-1,2.38a11.84,11.84,0,0,1-.88,1.75,3.92,3.92,0,0,1-2.78,2,1.26,1.26,0,0,1-1.28-.55,2.27,2.27,0,0,1-.37-1.33,8.51,8.51,0,0,1,.22-1.72c.11-.47.27-1.05.49-1.74.27-.86.43-1.38.48-1.57a4.45,4.45,0,0,0,.22-1.14.82.82,0,0,0,0-.14.82.82,0,0,1,0-.14.11.11,0,0,1,0-.07l.06,0,.57-.05c.26,0,.5,0,.7,0,.57,0,.85.18.85.42a4.55,4.55,0,0,1-.26,1.15c-.07.21-.26.75-.58,1.64A11.63,11.63,0,0,0,279,32,.77.77,0,0,0,279.2,32.45Zm2.44-9a1.76,1.76,0,0,1-.84,1.37,1.31,1.31,0,0,1-.46.15.88.88,0,0,1-.43,0,.87.87,0,0,1-.57-.63,1,1,0,0,1,0-.33,1.69,1.69,0,0,1,.83-1.44,1.2,1.2,0,0,1,.45-.15.91.91,0,0,1,.44,0,.88.88,0,0,1,.58.63A1.75,1.75,0,0,1,281.64,23.41Z"/><path class="cls-33" d="M284.35,26.28a.83.83,0,0,0,.39-.16.7.7,0,0,0,.23-.25l.06-.15a.36.36,0,0,1,.35-.23,2.81,2.81,0,0,1,.43,0,4.89,4.89,0,0,1,.57.08c.47.1.7.24.7.44a3.32,3.32,0,0,1-.22.88c-.05.14-.19.56-.44,1.24s-.42,1.24-.53,1.65a6.08,6.08,0,0,0-.21,1.4.76.76,0,0,0,.14.5.44.44,0,0,0,.41.15,2.29,2.29,0,0,0,1.51-1,6.47,6.47,0,0,0,.82-1.5l1.28-3.12a1.32,1.32,0,0,1,.33-.51.9.9,0,0,1,.51-.19l-1.63,4a11.38,11.38,0,0,1-.88,1.75,4,4,0,0,1-2.78,2,1.27,1.27,0,0,1-1.27-.55,2.27,2.27,0,0,1-.37-1.33,10.15,10.15,0,0,1,.29-2.28,24.42,24.42,0,0,1,.67-2.37,3.47,3.47,0,0,1-.65.51,2,2,0,0,1-.7.27,1.11,1.11,0,0,1-1.07-.37A1.82,1.82,0,0,1,282,26a2.41,2.41,0,0,1,.32-1.22,2.22,2.22,0,0,1,.31-.4.64.64,0,0,1,.34-.17,1.23,1.23,0,0,1,.93.4,1.68,1.68,0,0,1,.34.37.54.54,0,0,1,.13.29,1.4,1.4,0,0,1-.09.4l-.1.27a.64.64,0,0,0-.06.16l-.07.18A.81.81,0,0,0,284.35,26.28Z"/><path class="cls-33" d="M290.51,31a1,1,0,0,0,.92.33,3.39,3.39,0,0,0,1.89-.89,4.86,4.86,0,0,0,1.27-1.82l1.28-3.12a1.14,1.14,0,0,1,.34-.51.92.92,0,0,1,.51-.2l-.65,1.59-1,2.39a7.63,7.63,0,0,1-1.73,2.62,4.68,4.68,0,0,1-2.78,1.37,1.81,1.81,0,0,1-.86-.1,2.1,2.1,0,0,1-.79-.48,2.51,2.51,0,0,1-.55-.83,3.06,3.06,0,0,1-.21-1.15,7.2,7.2,0,0,1,.34-2.19,7.47,7.47,0,0,1,.92-1.93,5.94,5.94,0,0,1,1.38-1.44,3.77,3.77,0,0,1,1.72-.68,1.25,1.25,0,0,1,1,.28,1.09,1.09,0,0,1,.37.85,2,2,0,0,1-.58,1.47,2.34,2.34,0,0,1-1.46.66,1.7,1.7,0,0,0,.3-.66,3,3,0,0,0,.13-.85c0-.32-.07-.48-.22-.46s-.25.14-.45.37a4.44,4.44,0,0,0-.63,1,6.21,6.21,0,0,0-.57,1.49A7.11,7.11,0,0,0,290.2,30,1.49,1.49,0,0,0,290.51,31Z"/><path class="cls-33" d="M303.31,24.6a1.22,1.22,0,0,1,.34-.51.92.92,0,0,1,.51-.2L303.69,25a7.33,7.33,0,0,1-1.2,2.09,3.51,3.51,0,0,1-2.12,1.18A7,7,0,0,1,299,30.68a4.42,4.42,0,0,1-1.07.9,3.1,3.1,0,0,1-1.25.45,1.89,1.89,0,0,1-.88-.1,2,2,0,0,1-.77-.48,2.39,2.39,0,0,1-.56-.83,3.1,3.1,0,0,1-.22-1.15,8.43,8.43,0,0,1,.25-1.91,10.55,10.55,0,0,1,.67-1.94,5.72,5.72,0,0,1,1-1.53,2.05,2.05,0,0,1,1.23-.72.8.8,0,0,1,.49.08,1.23,1.23,0,0,1,.54-.2,1.83,1.83,0,0,1,.87.1,2.14,2.14,0,0,1,.78.49,2.22,2.22,0,0,1,.56.83,3.06,3.06,0,0,1,.21,1.15,7.55,7.55,0,0,1-.23,1.81,3,3,0,0,0,1.51-.93,5.12,5.12,0,0,0,1-1.61Zm-6.92,5.62c.14.3.32.43.55.4s.55-.31.85-.84A7.25,7.25,0,0,0,298.5,28a2.74,2.74,0,0,1-1-.85A2.63,2.63,0,0,1,297,26a7.25,7.25,0,0,0-.77,3.27A2.58,2.58,0,0,0,296.39,30.22Zm2.28-4.82a1.07,1.07,0,0,0-.31-.5c-.16.08-.25.3-.25.66a2.78,2.78,0,0,0,.16.88,1.59,1.59,0,0,0,.42.68,6.68,6.68,0,0,0,.09-1.09A1.9,1.9,0,0,0,298.67,25.4Z"/><path class="cls-33" d="M303,22.93l0-.11a.13.13,0,0,1,0-.08.09.09,0,0,1,.06,0l.44,0c.23,0,.44,0,.63,0q.84.09.84.36a5.12,5.12,0,0,1-.23,1.07c-.06.18-.28.9-.67,2.16a10.84,10.84,0,0,0-.58,3,16.93,16.93,0,0,1,.43-1.82A19.85,19.85,0,0,1,305,25a12.43,12.43,0,0,1,1.45-2.3,2.66,2.66,0,0,1,1.54-1.1.63.63,0,0,1,.41.1,1.53,1.53,0,0,1,.35.33,2,2,0,0,1,.26.45,1.15,1.15,0,0,1,.1.45,4.69,4.69,0,0,1-.25,1l-.7,2a9.27,9.27,0,0,0-.62,2.72.82.82,0,0,0,.14.5.44.44,0,0,0,.41.15,2.31,2.31,0,0,0,1.52-1,6.86,6.86,0,0,0,.82-1.5l1.28-3.12a1.13,1.13,0,0,1,.33-.51,1,1,0,0,1,.51-.2l-.66,1.6-1,2.38a10.17,10.17,0,0,1-.88,1.75,3.91,3.91,0,0,1-2.77,2,1.27,1.27,0,0,1-1.28-.55,2.27,2.27,0,0,1-.37-1.33,10.62,10.62,0,0,1,.34-2.36c.16-.7.39-1.54.68-2.52-.12,0-.33.27-.65.77s-.61,1.06-1,1.75a21.7,21.7,0,0,0-.85,2,5.26,5.26,0,0,0-.38,1.57,1,1,0,0,0,0,.27.43.43,0,0,1,0,.14.14.14,0,0,1,0,.07l-.06,0c-.37,0-.64.06-.83.06a1.84,1.84,0,0,1-.68-.1.83.83,0,0,1-.46-.4,1.65,1.65,0,0,1-.17-.83,6.81,6.81,0,0,1,.2-1.43c.08-.35.29-1.09.63-2.23a10.28,10.28,0,0,0,.51-2.51A1,1,0,0,0,303,22.93Z"/><path class="cls-33" d="M316.58,28a.42.42,0,0,0,.4.15,2.52,2.52,0,0,0,1.52-1,6.47,6.47,0,0,0,.81-1.5l1.28-3.12a1.14,1.14,0,0,1,.34-.51.84.84,0,0,1,.51-.19l-.65,1.59-1,2.38a11.36,11.36,0,0,1-.89,1.75,3.93,3.93,0,0,1-2.77,2,1.28,1.28,0,0,1-1.28-.55,2.27,2.27,0,0,1-.37-1.33,10.36,10.36,0,0,1,.25-2.14,16.62,16.62,0,0,1-1.64,3c-.72,1-1.37,1.54-1.95,1.61a.63.63,0,0,1-.4-.11,1.39,1.39,0,0,1-.36-.33,1.74,1.74,0,0,1-.27-.45,1.11,1.11,0,0,1-.1-.44,11.18,11.18,0,0,1,.3-2.44,11.38,11.38,0,0,1,1.11-2.6,8.22,8.22,0,0,1,1.74-2.13,4.53,4.53,0,0,1,2.39-1.06.42.42,0,0,1,.37.12.82.82,0,0,1,.22.39c.32-.89.53-1.44.61-1.65.22-.6.4-1.12.54-1.55a9.46,9.46,0,0,0,.51-2.6.8.8,0,0,0-.14-.5.43.43,0,0,0-.42-.16l-.24.06a1.35,1.35,0,0,1,.28-.52.91.91,0,0,1,.59-.3,1.28,1.28,0,0,1,1.28.55,2.34,2.34,0,0,1,.37,1.33,11.31,11.31,0,0,1-.49,3c-.21.78-.76,2.38-1.64,4.78-.21.58-.37,1.07-.5,1.48a9.17,9.17,0,0,0-.49,2.47A.72.72,0,0,0,316.58,28Zm-1-5.29a2.43,2.43,0,0,0-1.32.75A7,7,0,0,0,313.12,25a10.16,10.16,0,0,0-.79,1.71,4.3,4.3,0,0,0-.29,1.37c.4-.05,1-.65,1.77-1.83a17.26,17.26,0,0,0,1.49-2.67Z"/><path class="cls-36" d="M275.66,23.34c0-.45-.13-.74-.4-.87a1.9,1.9,0,0,0-1.08-.12A8.47,8.47,0,0,0,271,23.52a16.92,16.92,0,0,0-3.24,2.53,15.34,15.34,0,0,0-2.68,3.5,9.39,9.39,0,0,0-1.23,4.06,2.83,2.83,0,0,1-1.69-.2,1,1,0,0,1-.52-1,5.81,5.81,0,0,1,1.31-3,22.22,22.22,0,0,1,3.27-3.63,26.86,26.86,0,0,1,4.3-3.18A11.9,11.9,0,0,1,274.91,21a3.25,3.25,0,0,1,1.58.12,1.63,1.63,0,0,1,.93,1,3.71,3.71,0,0,1,.15.95A16.72,16.72,0,0,1,276.51,28c-.07.18-.24.66-.53,1.43s-.51,1.37-.66,1.82a11.18,11.18,0,0,0-.73,3.24.72.72,0,0,0,.12.44.39.39,0,0,0,.39.17,2.67,2.67,0,0,0,1.58-1,7.11,7.11,0,0,0,.81-1.48l1.27-3.11a1.37,1.37,0,0,1,.34-.51,1,1,0,0,1,.54-.22h.06l-1.65,4a11.72,11.72,0,0,1-.88,1.74,4.11,4.11,0,0,1-2.91,2.06,1.29,1.29,0,0,1-1.28-.51,2.33,2.33,0,0,1-.4-1.39,10.19,10.19,0,0,1,.28-2.28,3.09,3.09,0,0,1-.7.55,2.51,2.51,0,0,1-1,.33,3.15,3.15,0,0,1-.58,0,3,3,0,0,1-.77-.25q-4,7-7.17,7.4a3.6,3.6,0,0,1-2-.22,1.43,1.43,0,0,1-.78-1.37,2.26,2.26,0,0,1,.77-1.53.94.94,0,0,0,.68.91,3,3,0,0,0,1.38.12q2.61-.32,6.34-6.19a1.58,1.58,0,0,1-.05-.38.92.92,0,0,1,.22-.59,1.16,1.16,0,0,1,.68-.42c.77-1.29,1.55-2.73,2.36-4.31l1-1.94c.25-.52.51-1.06.77-1.63a1.17,1.17,0,0,1,.6,0c.09,0,.13.1.13.17a8.88,8.88,0,0,1-.67,1.51c-.44.9-.81,1.67-1.11,2.32-.88,1.9-1.71,3.56-2.48,5a1.4,1.4,0,0,0,1.23.34,4.18,4.18,0,0,0,1.28-.41c.16-.62.39-1.34.68-2.15.1-.3.29-.79.55-1.48.46-1.18.76-2,.92-2.45A9.25,9.25,0,0,0,275.66,23.34Z"/><path class="cls-36" d="M279.2,34.45a.43.43,0,0,0,.41.16,2.39,2.39,0,0,0,1.51-1,6.6,6.6,0,0,0,.81-1.49L283.21,29a1.37,1.37,0,0,1,.34-.51.91.91,0,0,1,.51-.19l-.65,1.59-1,2.38a11.84,11.84,0,0,1-.88,1.75,3.92,3.92,0,0,1-2.78,2,1.26,1.26,0,0,1-1.28-.55,2.27,2.27,0,0,1-.37-1.33,8.51,8.51,0,0,1,.22-1.72c.11-.47.27-1.05.49-1.74.27-.86.43-1.38.48-1.57a4.45,4.45,0,0,0,.22-1.14.82.82,0,0,0,0-.14.82.82,0,0,1,0-.14.11.11,0,0,1,0-.07l.06,0,.57-.05c.26,0,.5,0,.7,0,.57,0,.85.18.85.42a4.55,4.55,0,0,1-.26,1.15c-.07.21-.26.75-.58,1.64A11.63,11.63,0,0,0,279,34,.77.77,0,0,0,279.2,34.45Zm2.44-9a1.76,1.76,0,0,1-.84,1.37,1.31,1.31,0,0,1-.46.15.88.88,0,0,1-.43,0,.87.87,0,0,1-.57-.63,1,1,0,0,1,0-.33,1.69,1.69,0,0,1,.83-1.44,1.2,1.2,0,0,1,.45-.15.91.91,0,0,1,.44,0,.88.88,0,0,1,.58.63A1.75,1.75,0,0,1,281.64,25.41Z"/><path class="cls-36" d="M284.35,28.28a.83.83,0,0,0,.39-.16.7.7,0,0,0,.23-.25l.06-.15a.36.36,0,0,1,.35-.23,2.81,2.81,0,0,1,.43,0,4.89,4.89,0,0,1,.57.08c.47.1.7.24.7.44a3.32,3.32,0,0,1-.22.88c-.05.14-.19.56-.44,1.24s-.42,1.24-.53,1.65a6.08,6.08,0,0,0-.21,1.4.76.76,0,0,0,.14.5.44.44,0,0,0,.41.15,2.29,2.29,0,0,0,1.51-1,6.47,6.47,0,0,0,.82-1.5l1.28-3.12a1.32,1.32,0,0,1,.33-.51.9.9,0,0,1,.51-.19l-1.63,4a11.38,11.38,0,0,1-.88,1.75,4,4,0,0,1-2.78,2,1.27,1.27,0,0,1-1.27-.55,2.27,2.27,0,0,1-.37-1.33,10.15,10.15,0,0,1,.29-2.28,24.42,24.42,0,0,1,.67-2.37,3.47,3.47,0,0,1-.65.51,2,2,0,0,1-.7.27,1.11,1.11,0,0,1-1.07-.37A1.82,1.82,0,0,1,282,28a2.41,2.41,0,0,1,.32-1.22,2.22,2.22,0,0,1,.31-.4.64.64,0,0,1,.34-.17,1.23,1.23,0,0,1,.93.4,1.68,1.68,0,0,1,.34.37.54.54,0,0,1,.13.29,1.4,1.4,0,0,1-.09.4l-.1.27a.64.64,0,0,0-.06.16l-.07.18A.81.81,0,0,0,284.35,28.28Z"/><path class="cls-36" d="M290.51,33a1,1,0,0,0,.92.33,3.39,3.39,0,0,0,1.89-.89,4.86,4.86,0,0,0,1.27-1.82l1.28-3.12a1.14,1.14,0,0,1,.34-.51.92.92,0,0,1,.51-.2l-.65,1.59-1,2.39a7.63,7.63,0,0,1-1.73,2.62,4.68,4.68,0,0,1-2.78,1.37,1.81,1.81,0,0,1-.86-.1,2.1,2.1,0,0,1-.79-.48,2.51,2.51,0,0,1-.55-.83,3.06,3.06,0,0,1-.21-1.15,7.2,7.2,0,0,1,.34-2.19,7.47,7.47,0,0,1,.92-1.93,5.94,5.94,0,0,1,1.38-1.44,3.77,3.77,0,0,1,1.72-.68,1.25,1.25,0,0,1,1,.28,1.09,1.09,0,0,1,.37.85,2,2,0,0,1-.58,1.47,2.34,2.34,0,0,1-1.46.66,1.7,1.7,0,0,0,.3-.66,3,3,0,0,0,.13-.85c0-.32-.07-.48-.22-.46s-.25.14-.45.37a4.44,4.44,0,0,0-.63,1,6.21,6.21,0,0,0-.57,1.49A7.11,7.11,0,0,0,290.2,32,1.49,1.49,0,0,0,290.51,33Z"/><path class="cls-36" d="M303.31,26.6a1.22,1.22,0,0,1,.34-.51.92.92,0,0,1,.51-.2L303.69,27a7.33,7.33,0,0,1-1.2,2.09,3.51,3.51,0,0,1-2.12,1.18A7,7,0,0,1,299,32.68a4.42,4.42,0,0,1-1.07.9,3.1,3.1,0,0,1-1.25.45,1.89,1.89,0,0,1-.88-.1,2,2,0,0,1-.77-.48,2.39,2.39,0,0,1-.56-.83,3.1,3.1,0,0,1-.22-1.15,8.43,8.43,0,0,1,.25-1.91,10.55,10.55,0,0,1,.67-1.94,5.72,5.72,0,0,1,1-1.53,2.05,2.05,0,0,1,1.23-.72.8.8,0,0,1,.49.08,1.23,1.23,0,0,1,.54-.2,1.83,1.83,0,0,1,.87.1,2.14,2.14,0,0,1,.78.49,2.22,2.22,0,0,1,.56.83,3.06,3.06,0,0,1,.21,1.15,7.55,7.55,0,0,1-.23,1.81,3,3,0,0,0,1.51-.93,5.12,5.12,0,0,0,1-1.61Zm-6.92,5.62c.14.3.32.43.55.4s.55-.31.85-.84A7.25,7.25,0,0,0,298.5,30a2.74,2.74,0,0,1-1-.85A2.63,2.63,0,0,1,297,28a7.25,7.25,0,0,0-.77,3.27A2.58,2.58,0,0,0,296.39,32.22Zm2.28-4.82a1.07,1.07,0,0,0-.31-.5c-.16.08-.25.3-.25.66a2.78,2.78,0,0,0,.16.88,1.59,1.59,0,0,0,.42.68,6.68,6.68,0,0,0,.09-1.09A1.9,1.9,0,0,0,298.67,27.4Z"/><path class="cls-36" d="M303,24.93l0-.11a.13.13,0,0,1,0-.08.09.09,0,0,1,.06,0l.44,0c.23,0,.44,0,.63,0q.84.09.84.36a5.12,5.12,0,0,1-.23,1.07c-.06.18-.28.9-.67,2.16a10.84,10.84,0,0,0-.58,3,16.93,16.93,0,0,1,.43-1.82A19.85,19.85,0,0,1,305,27a12.43,12.43,0,0,1,1.45-2.3,2.66,2.66,0,0,1,1.54-1.1.63.63,0,0,1,.41.1,1.53,1.53,0,0,1,.35.33,2,2,0,0,1,.26.45,1.15,1.15,0,0,1,.1.45,4.69,4.69,0,0,1-.25,1l-.7,2a9.27,9.27,0,0,0-.62,2.72.82.82,0,0,0,.14.5.44.44,0,0,0,.41.15,2.31,2.31,0,0,0,1.52-1,6.86,6.86,0,0,0,.82-1.5l1.28-3.12a1.13,1.13,0,0,1,.33-.51,1,1,0,0,1,.51-.2l-.66,1.6-1,2.38a10.17,10.17,0,0,1-.88,1.75,3.91,3.91,0,0,1-2.77,2,1.27,1.27,0,0,1-1.28-.55,2.27,2.27,0,0,1-.37-1.33,10.62,10.62,0,0,1,.34-2.36c.16-.7.39-1.54.68-2.52-.12,0-.33.27-.65.77s-.61,1.06-1,1.75a21.7,21.7,0,0,0-.85,2,5.26,5.26,0,0,0-.38,1.57,1,1,0,0,0,0,.27.43.43,0,0,1,0,.14.14.14,0,0,1,0,.07l-.06,0c-.37,0-.64.06-.83.06a1.84,1.84,0,0,1-.68-.1.83.83,0,0,1-.46-.4,1.65,1.65,0,0,1-.17-.83,6.81,6.81,0,0,1,.2-1.43c.08-.35.29-1.09.63-2.23a10.28,10.28,0,0,0,.51-2.51A1,1,0,0,0,303,24.93Z"/><path class="cls-36" d="M316.58,30a.42.42,0,0,0,.4.15,2.52,2.52,0,0,0,1.52-1,6.47,6.47,0,0,0,.81-1.5l1.28-3.12a1.14,1.14,0,0,1,.34-.51.84.84,0,0,1,.51-.19l-.65,1.59-1,2.38a11.36,11.36,0,0,1-.89,1.75,3.93,3.93,0,0,1-2.77,2,1.28,1.28,0,0,1-1.28-.55,2.27,2.27,0,0,1-.37-1.33,10.36,10.36,0,0,1,.25-2.14,16.62,16.62,0,0,1-1.64,3c-.72,1-1.37,1.54-1.95,1.61a.63.63,0,0,1-.4-.11,1.39,1.39,0,0,1-.36-.33,1.74,1.74,0,0,1-.27-.45,1.11,1.11,0,0,1-.1-.44,11.18,11.18,0,0,1,.3-2.44,11.38,11.38,0,0,1,1.11-2.6,8.22,8.22,0,0,1,1.74-2.13,4.53,4.53,0,0,1,2.39-1.06.42.42,0,0,1,.37.12.82.82,0,0,1,.22.39c.32-.89.53-1.44.61-1.65.22-.6.4-1.12.54-1.55a9.46,9.46,0,0,0,.51-2.6.8.8,0,0,0-.14-.5.43.43,0,0,0-.42-.16l-.24.06a1.35,1.35,0,0,1,.28-.52.91.91,0,0,1,.59-.3,1.28,1.28,0,0,1,1.28.55,2.34,2.34,0,0,1,.37,1.33,11.31,11.31,0,0,1-.49,3c-.21.78-.76,2.38-1.64,4.78-.21.58-.37,1.07-.5,1.48a9.17,9.17,0,0,0-.49,2.47A.72.72,0,0,0,316.58,30Zm-1-5.29a2.43,2.43,0,0,0-1.32.75A7,7,0,0,0,313.12,27a10.16,10.16,0,0,0-.79,1.71,4.3,4.3,0,0,0-.29,1.37c.4-.05,1-.65,1.77-1.83a17.26,17.26,0,0,0,1.49-2.67Z"/><path class="cls-37" d="M275.66,21.34c0-.45-.13-.74-.4-.87a1.9,1.9,0,0,0-1.08-.12A8.47,8.47,0,0,0,271,21.52a16.92,16.92,0,0,0-3.24,2.53,15.34,15.34,0,0,0-2.68,3.5,9.39,9.39,0,0,0-1.23,4.06,2.83,2.83,0,0,1-1.69-.2,1,1,0,0,1-.52-1,5.81,5.81,0,0,1,1.31-3,22.22,22.22,0,0,1,3.27-3.63,26.86,26.86,0,0,1,4.3-3.18A11.9,11.9,0,0,1,274.91,19a3.25,3.25,0,0,1,1.58.12,1.63,1.63,0,0,1,.93,1,3.71,3.71,0,0,1,.15.95A16.72,16.72,0,0,1,276.51,26c-.07.18-.24.66-.53,1.43s-.51,1.37-.66,1.82a11.18,11.18,0,0,0-.73,3.24.72.72,0,0,0,.12.44.39.39,0,0,0,.39.17,2.67,2.67,0,0,0,1.58-1,7.11,7.11,0,0,0,.81-1.48l1.27-3.11a1.37,1.37,0,0,1,.34-.51,1,1,0,0,1,.54-.22h.06l-1.65,4a11.72,11.72,0,0,1-.88,1.74,4.11,4.11,0,0,1-2.91,2.06,1.29,1.29,0,0,1-1.28-.51,2.33,2.33,0,0,1-.4-1.39,10.19,10.19,0,0,1,.28-2.28,3.09,3.09,0,0,1-.7.55,2.51,2.51,0,0,1-1,.33,3.15,3.15,0,0,1-.58,0,3,3,0,0,1-.77-.25q-4,7-7.17,7.4a3.6,3.6,0,0,1-2-.22,1.43,1.43,0,0,1-.78-1.37,2.26,2.26,0,0,1,.77-1.53.94.94,0,0,0,.68.91,3,3,0,0,0,1.38.12q2.61-.32,6.34-6.19a1.58,1.58,0,0,1-.05-.38.92.92,0,0,1,.22-.59,1.16,1.16,0,0,1,.68-.42c.77-1.29,1.55-2.73,2.36-4.31l1-1.94c.25-.52.51-1.06.77-1.63a1.17,1.17,0,0,1,.6,0c.09,0,.13.1.13.17a8.88,8.88,0,0,1-.67,1.51c-.44.9-.81,1.67-1.11,2.32-.88,1.9-1.71,3.56-2.48,5a1.4,1.4,0,0,0,1.23.34,4.18,4.18,0,0,0,1.28-.41c.16-.62.39-1.34.68-2.15.1-.3.29-.79.55-1.48.46-1.18.76-2,.92-2.45A9.25,9.25,0,0,0,275.66,21.34Z"/><path class="cls-37" d="M279.2,32.45a.43.43,0,0,0,.41.16,2.39,2.39,0,0,0,1.51-1,6.6,6.6,0,0,0,.81-1.49L283.21,27a1.37,1.37,0,0,1,.34-.51.91.91,0,0,1,.51-.19l-.65,1.59-1,2.38a11.84,11.84,0,0,1-.88,1.75,3.92,3.92,0,0,1-2.78,2,1.26,1.26,0,0,1-1.28-.55,2.27,2.27,0,0,1-.37-1.33,8.51,8.51,0,0,1,.22-1.72c.11-.47.27-1.05.49-1.74.27-.86.43-1.38.48-1.57a4.45,4.45,0,0,0,.22-1.14.82.82,0,0,0,0-.14.82.82,0,0,1,0-.14.11.11,0,0,1,0-.07l.06,0,.57-.05c.26,0,.5,0,.7,0,.57,0,.85.18.85.42a4.55,4.55,0,0,1-.26,1.15c-.07.21-.26.75-.58,1.64A11.63,11.63,0,0,0,279,32,.77.77,0,0,0,279.2,32.45Zm2.44-9a1.76,1.76,0,0,1-.84,1.37,1.31,1.31,0,0,1-.46.15.88.88,0,0,1-.43,0,.87.87,0,0,1-.57-.63,1,1,0,0,1,0-.33,1.69,1.69,0,0,1,.83-1.44,1.2,1.2,0,0,1,.45-.15.91.91,0,0,1,.44,0,.88.88,0,0,1,.58.63A1.75,1.75,0,0,1,281.64,23.41Z"/><path class="cls-37" d="M284.35,26.28a.83.83,0,0,0,.39-.16.7.7,0,0,0,.23-.25l.06-.15a.36.36,0,0,1,.35-.23,2.81,2.81,0,0,1,.43,0,4.89,4.89,0,0,1,.57.08c.47.1.7.24.7.44a3.32,3.32,0,0,1-.22.88c-.05.14-.19.56-.44,1.24s-.42,1.24-.53,1.65a6.08,6.08,0,0,0-.21,1.4.76.76,0,0,0,.14.5.44.44,0,0,0,.41.15,2.29,2.29,0,0,0,1.51-1,6.47,6.47,0,0,0,.82-1.5l1.28-3.12a1.32,1.32,0,0,1,.33-.51.9.9,0,0,1,.51-.19l-1.63,4a11.38,11.38,0,0,1-.88,1.75,4,4,0,0,1-2.78,2,1.27,1.27,0,0,1-1.27-.55,2.27,2.27,0,0,1-.37-1.33,10.15,10.15,0,0,1,.29-2.28,24.42,24.42,0,0,1,.67-2.37,3.47,3.47,0,0,1-.65.51,2,2,0,0,1-.7.27,1.11,1.11,0,0,1-1.07-.37A1.82,1.82,0,0,1,282,26a2.41,2.41,0,0,1,.32-1.22,2.22,2.22,0,0,1,.31-.4.64.64,0,0,1,.34-.17,1.23,1.23,0,0,1,.93.4,1.68,1.68,0,0,1,.34.37.54.54,0,0,1,.13.29,1.4,1.4,0,0,1-.09.4l-.1.27a.64.64,0,0,0-.06.16l-.07.18A.81.81,0,0,0,284.35,26.28Z"/><path class="cls-37" d="M290.51,31a1,1,0,0,0,.92.33,3.39,3.39,0,0,0,1.89-.89,4.86,4.86,0,0,0,1.27-1.82l1.28-3.12a1.14,1.14,0,0,1,.34-.51.92.92,0,0,1,.51-.2l-.65,1.59-1,2.39a7.63,7.63,0,0,1-1.73,2.62,4.68,4.68,0,0,1-2.78,1.37,1.81,1.81,0,0,1-.86-.1,2.1,2.1,0,0,1-.79-.48,2.51,2.51,0,0,1-.55-.83,3.06,3.06,0,0,1-.21-1.15,7.2,7.2,0,0,1,.34-2.19,7.47,7.47,0,0,1,.92-1.93,5.94,5.94,0,0,1,1.38-1.44,3.77,3.77,0,0,1,1.72-.68,1.25,1.25,0,0,1,1,.28,1.09,1.09,0,0,1,.37.85,2,2,0,0,1-.58,1.47,2.34,2.34,0,0,1-1.46.66,1.7,1.7,0,0,0,.3-.66,3,3,0,0,0,.13-.85c0-.32-.07-.48-.22-.46s-.25.14-.45.37a4.44,4.44,0,0,0-.63,1,6.21,6.21,0,0,0-.57,1.49A7.11,7.11,0,0,0,290.2,30,1.49,1.49,0,0,0,290.51,31Z"/><path class="cls-37" d="M303.31,24.6a1.22,1.22,0,0,1,.34-.51.92.92,0,0,1,.51-.2L303.69,25a7.33,7.33,0,0,1-1.2,2.09,3.51,3.51,0,0,1-2.12,1.18A7,7,0,0,1,299,30.68a4.42,4.42,0,0,1-1.07.9,3.1,3.1,0,0,1-1.25.45,1.89,1.89,0,0,1-.88-.1,2,2,0,0,1-.77-.48,2.39,2.39,0,0,1-.56-.83,3.1,3.1,0,0,1-.22-1.15,8.43,8.43,0,0,1,.25-1.91,10.55,10.55,0,0,1,.67-1.94,5.72,5.72,0,0,1,1-1.53,2.05,2.05,0,0,1,1.23-.72.8.8,0,0,1,.49.08,1.23,1.23,0,0,1,.54-.2,1.83,1.83,0,0,1,.87.1,2.14,2.14,0,0,1,.78.49,2.22,2.22,0,0,1,.56.83,3.06,3.06,0,0,1,.21,1.15,7.55,7.55,0,0,1-.23,1.81,3,3,0,0,0,1.51-.93,5.12,5.12,0,0,0,1-1.61Zm-6.92,5.62c.14.3.32.43.55.4s.55-.31.85-.84A7.25,7.25,0,0,0,298.5,28a2.74,2.74,0,0,1-1-.85A2.63,2.63,0,0,1,297,26a7.25,7.25,0,0,0-.77,3.27A2.58,2.58,0,0,0,296.39,30.22Zm2.28-4.82a1.07,1.07,0,0,0-.31-.5c-.16.08-.25.3-.25.66a2.78,2.78,0,0,0,.16.88,1.59,1.59,0,0,0,.42.68,6.68,6.68,0,0,0,.09-1.09A1.9,1.9,0,0,0,298.67,25.4Z"/><path class="cls-37" d="M303,22.93l0-.11a.13.13,0,0,1,0-.08.09.09,0,0,1,.06,0l.44,0c.23,0,.44,0,.63,0q.84.09.84.36a5.12,5.12,0,0,1-.23,1.07c-.06.18-.28.9-.67,2.16a10.84,10.84,0,0,0-.58,3,16.93,16.93,0,0,1,.43-1.82A19.85,19.85,0,0,1,305,25a12.43,12.43,0,0,1,1.45-2.3,2.66,2.66,0,0,1,1.54-1.1.63.63,0,0,1,.41.1,1.53,1.53,0,0,1,.35.33,2,2,0,0,1,.26.45,1.15,1.15,0,0,1,.1.45,4.69,4.69,0,0,1-.25,1l-.7,2a9.27,9.27,0,0,0-.62,2.72.82.82,0,0,0,.14.5.44.44,0,0,0,.41.15,2.31,2.31,0,0,0,1.52-1,6.86,6.86,0,0,0,.82-1.5l1.28-3.12a1.13,1.13,0,0,1,.33-.51,1,1,0,0,1,.51-.2l-.66,1.6-1,2.38a10.17,10.17,0,0,1-.88,1.75,3.91,3.91,0,0,1-2.77,2,1.27,1.27,0,0,1-1.28-.55,2.27,2.27,0,0,1-.37-1.33,10.62,10.62,0,0,1,.34-2.36c.16-.7.39-1.54.68-2.52-.12,0-.33.27-.65.77s-.61,1.06-1,1.75a21.7,21.7,0,0,0-.85,2,5.26,5.26,0,0,0-.38,1.57,1,1,0,0,0,0,.27.43.43,0,0,1,0,.14.14.14,0,0,1,0,.07l-.06,0c-.37,0-.64.06-.83.06a1.84,1.84,0,0,1-.68-.1.83.83,0,0,1-.46-.4,1.65,1.65,0,0,1-.17-.83,6.81,6.81,0,0,1,.2-1.43c.08-.35.29-1.09.63-2.23a10.28,10.28,0,0,0,.51-2.51A1,1,0,0,0,303,22.93Z"/><path class="cls-37" d="M316.58,28a.42.42,0,0,0,.4.15,2.52,2.52,0,0,0,1.52-1,6.47,6.47,0,0,0,.81-1.5l1.28-3.12a1.14,1.14,0,0,1,.34-.51.84.84,0,0,1,.51-.19l-.65,1.59-1,2.38a11.36,11.36,0,0,1-.89,1.75,3.93,3.93,0,0,1-2.77,2,1.28,1.28,0,0,1-1.28-.55,2.27,2.27,0,0,1-.37-1.33,10.36,10.36,0,0,1,.25-2.14,16.62,16.62,0,0,1-1.64,3c-.72,1-1.37,1.54-1.95,1.61a.63.63,0,0,1-.4-.11,1.39,1.39,0,0,1-.36-.33,1.74,1.74,0,0,1-.27-.45,1.11,1.11,0,0,1-.1-.44,11.18,11.18,0,0,1,.3-2.44,11.38,11.38,0,0,1,1.11-2.6,8.22,8.22,0,0,1,1.74-2.13,4.53,4.53,0,0,1,2.39-1.06.42.42,0,0,1,.37.12.82.82,0,0,1,.22.39c.32-.89.53-1.44.61-1.65.22-.6.4-1.12.54-1.55a9.46,9.46,0,0,0,.51-2.6.8.8,0,0,0-.14-.5.43.43,0,0,0-.42-.16l-.24.06a1.35,1.35,0,0,1,.28-.52.91.91,0,0,1,.59-.3,1.28,1.28,0,0,1,1.28.55,2.34,2.34,0,0,1,.37,1.33,11.31,11.31,0,0,1-.49,3c-.21.78-.76,2.38-1.64,4.78-.21.58-.37,1.07-.5,1.48a9.17,9.17,0,0,0-.49,2.47A.72.72,0,0,0,316.58,28Zm-1-5.29a2.43,2.43,0,0,0-1.32.75A7,7,0,0,0,313.12,25a10.16,10.16,0,0,0-.79,1.71,4.3,4.3,0,0,0-.29,1.37c.4-.05,1-.65,1.77-1.83a17.26,17.26,0,0,0,1.49-2.67Z"/><path class="cls-33" d="M216.4,35.21a2.24,2.24,0,0,1-.81-.81,5.53,5.53,0,0,1-.65-2.88,11.46,11.46,0,0,1,1.45-5.39A7.26,7.26,0,0,1,218.18,24a5,5,0,0,1,2.46-1,7.77,7.77,0,0,1,1.67,0c.36.05.88.14,1.54.29s1.09.23,1.29.25a5.7,5.7,0,0,0,1.42,0,4.5,4.5,0,0,0,1.85-.64,4.17,4.17,0,0,0,1.43-1.4,1.9,1.9,0,0,1,.53,1.25,2,2,0,0,1-.24.95,2.61,2.61,0,0,1-.65.81,3.94,3.94,0,0,1-2.17.9,6.75,6.75,0,0,1-2.2-.1,10.4,10.4,0,0,1-1.85-.65c-.71-.32-1.16-.51-1.34-.57a3,3,0,0,0-1.29-.21,2.68,2.68,0,0,0-1.65.91,6.71,6.71,0,0,0-1.2,2,12.84,12.84,0,0,0-.73,2.54A14,14,0,0,0,216.8,32a9.28,9.28,0,0,0,.19,2,3.11,3.11,0,0,0,.56,1.4A1.92,1.92,0,0,1,216.4,35.21Zm6,5.91a.45.45,0,0,0,0,.13.43.43,0,0,0,0,0,.11.11,0,0,1,0,.07.12.12,0,0,1-.07.05,3.63,3.63,0,0,1-1.4-.19,3,3,0,0,1-.66-.28.52.52,0,0,1-.27-.39,14.77,14.77,0,0,1,.5-3.21c.23-.93.6-2.27,1.12-4l-1.69-.21c-.11,0-.18,0-.2-.07a.36.36,0,0,1,0-.18c0-.12,0-.2.08-.24a.65.65,0,0,1,.29-.09,6.44,6.44,0,0,1,1.74.2c.69-2.32,1.12-3.78,1.27-4.38a13.69,13.69,0,0,0,.46-2.52,1,1,0,0,0,0-.15l0-.13a.09.09,0,0,1,0-.07.1.1,0,0,1,.07,0,2.78,2.78,0,0,1,1.15.13,1.72,1.72,0,0,1,.49.24.46.46,0,0,1,.2.33,17.59,17.59,0,0,1-.34,2.43c-.21.95-.55,2.36-1,4.23a12.85,12.85,0,0,0,6-2,.72.72,0,0,1,0,.19,1.32,1.32,0,0,1-.07.3,1,1,0,0,1-.41.54c-.88.77-2.79,1.32-5.72,1.67A40.16,40.16,0,0,0,222.37,41.12Z"/><path class="cls-33" d="M250.6,28.92a1.5,1.5,0,0,1,.36-.56,1.12,1.12,0,0,1,.57-.21l-.72,1.74-1.08,2.63a16,16,0,0,1-2.65,4.53,4.86,4.86,0,0,1-2.94,1.81,2.27,2.27,0,0,1-2.09-.94,8.08,8.08,0,0,1-1.19-2.45c-.12-.35-.29-.95-.53-1.8a9.93,9.93,0,0,0-.5-1.53c-.11-.2-.22-.3-.34-.28a3.18,3.18,0,0,1-1.56,1.45,20.46,20.46,0,0,0-1.21,6,.91.91,0,0,0,0,.21.32.32,0,0,1,0,.07.09.09,0,0,1,0,.07s0,0-.07,0a3.36,3.36,0,0,1-1.39-.19,2.37,2.37,0,0,1-.67-.28.49.49,0,0,1-.27-.39q0-3.44,2.34-9T239,22.07a.84.84,0,0,0-.08-.4,6.4,6.4,0,0,0-2.47,1.11A10.36,10.36,0,0,0,234,25.2a12.87,12.87,0,0,0-1.86,3.68,15.66,15.66,0,0,0-.75,4.9A1.36,1.36,0,0,1,230,33.2a3.16,3.16,0,0,1-.45-1.84,9.19,9.19,0,0,1,.64-3.13,13.47,13.47,0,0,1,1.84-3.42,11.76,11.76,0,0,1,3-2.86,9.36,9.36,0,0,1,4.09-1.5,1.46,1.46,0,0,1,1.43.58,2.49,2.49,0,0,1,.45,1.54,11.54,11.54,0,0,1-.42,2.84c-.2.76-.6,2-1.2,3.65s-1,2.79-1.18,3.33a3,3,0,0,0,.83-1,13.17,13.17,0,0,0,.78-1.59c.2-.46.49-1.2.86-2.21s.63-1.68.76-2a20.27,20.27,0,0,1,2-4,4,4,0,0,1,2.69-2,3,3,0,0,1,2.6.65,2.26,2.26,0,0,1,.58.89,3,3,0,0,1,.18,1,4.55,4.55,0,0,1-.31,1.68,4.67,4.67,0,0,1-.79,1.37,4,4,0,0,1-1.1,1,3.08,3.08,0,0,1-1.25.44,1,1,0,0,1,.2-.33l0,0,0,0,.05-.06.11-.15.22-.36a5,5,0,0,0,.62-2.49c0-1.21-.43-1.77-1.28-1.67a2.58,2.58,0,0,0-1.53.87,9.21,9.21,0,0,0-1.33,1.9c-.35.62-.79,1.54-1.33,2.77s-.88,2-1,2.3c.46-.05.88.37,1.27,1.25a24,24,0,0,1,1,3.12c.41,1.51.68,2.44.81,2.78a3.68,3.68,0,0,0,.51.95.67.67,0,0,0,.6.31c1.4-.16,2.91-2.23,4.54-6.19Z"/><path class="cls-36" d="M216.4,37.21a2.24,2.24,0,0,1-.81-.81,5.53,5.53,0,0,1-.65-2.88,11.46,11.46,0,0,1,1.45-5.39A7.26,7.26,0,0,1,218.18,26a5,5,0,0,1,2.46-1,7.77,7.77,0,0,1,1.67,0c.36.05.88.14,1.54.29s1.09.23,1.29.25a5.7,5.7,0,0,0,1.42,0,4.5,4.5,0,0,0,1.85-.64,4.17,4.17,0,0,0,1.43-1.4,1.9,1.9,0,0,1,.53,1.25,2,2,0,0,1-.24.95,2.61,2.61,0,0,1-.65.81,3.94,3.94,0,0,1-2.17.9,6.75,6.75,0,0,1-2.2-.1,10.4,10.4,0,0,1-1.85-.65c-.71-.32-1.16-.51-1.34-.57a3,3,0,0,0-1.29-.21,2.68,2.68,0,0,0-1.65.91,6.71,6.71,0,0,0-1.2,2,12.84,12.84,0,0,0-.73,2.54A14,14,0,0,0,216.8,34a9.28,9.28,0,0,0,.19,2,3.11,3.11,0,0,0,.56,1.4A1.92,1.92,0,0,1,216.4,37.21Zm6,5.91a.45.45,0,0,0,0,.13.43.43,0,0,0,0,0,.11.11,0,0,1,0,.07.12.12,0,0,1-.07.05,3.63,3.63,0,0,1-1.4-.19,3,3,0,0,1-.66-.28.52.52,0,0,1-.27-.39,14.77,14.77,0,0,1,.5-3.21c.23-.93.6-2.27,1.12-4l-1.69-.21c-.11,0-.18,0-.2-.07a.36.36,0,0,1,0-.18c0-.12,0-.2.08-.24a.65.65,0,0,1,.29-.09,6.44,6.44,0,0,1,1.74.2c.69-2.32,1.12-3.78,1.27-4.38a13.69,13.69,0,0,0,.46-2.52,1,1,0,0,0,0-.15l0-.13a.09.09,0,0,1,0-.07.1.1,0,0,1,.07,0,2.78,2.78,0,0,1,1.15.13,1.72,1.72,0,0,1,.49.24.46.46,0,0,1,.2.33,17.59,17.59,0,0,1-.34,2.43c-.21.95-.55,2.36-1,4.23a12.85,12.85,0,0,0,6-2,.72.72,0,0,1,0,.19,1.32,1.32,0,0,1-.07.3,1,1,0,0,1-.41.54c-.88.77-2.79,1.32-5.72,1.67A40.16,40.16,0,0,0,222.37,43.12Z"/><path class="cls-36" d="M250.6,30.92a1.5,1.5,0,0,1,.36-.56,1.12,1.12,0,0,1,.57-.21l-.72,1.74-1.08,2.63a16,16,0,0,1-2.65,4.53,4.86,4.86,0,0,1-2.94,1.81,2.27,2.27,0,0,1-2.09-.94,8.08,8.08,0,0,1-1.19-2.45c-.12-.35-.29-.95-.53-1.8a9.93,9.93,0,0,0-.5-1.53c-.11-.2-.22-.3-.34-.28a3.18,3.18,0,0,1-1.56,1.45,20.46,20.46,0,0,0-1.21,6,.91.91,0,0,0,0,.21.32.32,0,0,1,0,.07.09.09,0,0,1,0,.07s0,0-.07,0a3.36,3.36,0,0,1-1.39-.19,2.37,2.37,0,0,1-.67-.28.49.49,0,0,1-.27-.39q0-3.44,2.34-9T239,24.07a.84.84,0,0,0-.08-.4,6.4,6.4,0,0,0-2.47,1.11A10.36,10.36,0,0,0,234,27.2a12.87,12.87,0,0,0-1.86,3.68,15.66,15.66,0,0,0-.75,4.9A1.36,1.36,0,0,1,230,35.2a3.16,3.16,0,0,1-.45-1.84,9.19,9.19,0,0,1,.64-3.13,13.47,13.47,0,0,1,1.84-3.42,11.76,11.76,0,0,1,3-2.86,9.36,9.36,0,0,1,4.09-1.5,1.46,1.46,0,0,1,1.43.58,2.49,2.49,0,0,1,.45,1.54,11.54,11.54,0,0,1-.42,2.84c-.2.76-.6,2-1.2,3.65s-1,2.79-1.18,3.33a3,3,0,0,0,.83-1,13.17,13.17,0,0,0,.78-1.59c.2-.46.49-1.2.86-2.21s.63-1.68.76-2a20.27,20.27,0,0,1,2-4,4,4,0,0,1,2.69-2,3,3,0,0,1,2.6.65,2.26,2.26,0,0,1,.58.89,3,3,0,0,1,.18,1,4.55,4.55,0,0,1-.31,1.68,4.67,4.67,0,0,1-.79,1.37,4,4,0,0,1-1.1,1,3.08,3.08,0,0,1-1.25.44,1,1,0,0,1,.2-.33l0,0,0,0,.05-.06.11-.15.22-.36a5,5,0,0,0,.62-2.49c0-1.21-.43-1.77-1.28-1.67a2.58,2.58,0,0,0-1.53.87,9.21,9.21,0,0,0-1.33,1.9c-.35.62-.79,1.54-1.33,2.77s-.88,2-1,2.3c.46-.05.88.37,1.27,1.25a24,24,0,0,1,1,3.12c.41,1.51.68,2.44.81,2.78a3.68,3.68,0,0,0,.51.95.67.67,0,0,0,.6.31c1.4-.16,2.91-2.23,4.54-6.19Z"/><path class="cls-38" d="M216.4,35.21a2.24,2.24,0,0,1-.81-.81,5.53,5.53,0,0,1-.65-2.88,11.46,11.46,0,0,1,1.45-5.39A7.26,7.26,0,0,1,218.18,24a5,5,0,0,1,2.46-1,7.77,7.77,0,0,1,1.67,0c.36.05.88.14,1.54.29s1.09.23,1.29.25a5.7,5.7,0,0,0,1.42,0,4.5,4.5,0,0,0,1.85-.64,4.17,4.17,0,0,0,1.43-1.4,1.9,1.9,0,0,1,.53,1.25,2,2,0,0,1-.24.95,2.61,2.61,0,0,1-.65.81,3.94,3.94,0,0,1-2.17.9,6.75,6.75,0,0,1-2.2-.1,10.4,10.4,0,0,1-1.85-.65c-.71-.32-1.16-.51-1.34-.57a3,3,0,0,0-1.29-.21,2.68,2.68,0,0,0-1.65.91,6.71,6.71,0,0,0-1.2,2,12.84,12.84,0,0,0-.73,2.54A14,14,0,0,0,216.8,32a9.28,9.28,0,0,0,.19,2,3.11,3.11,0,0,0,.56,1.4A1.92,1.92,0,0,1,216.4,35.21Zm6,5.91a.45.45,0,0,0,0,.13.43.43,0,0,0,0,0,.11.11,0,0,1,0,.07.12.12,0,0,1-.07.05,3.63,3.63,0,0,1-1.4-.19,3,3,0,0,1-.66-.28.52.52,0,0,1-.27-.39,14.77,14.77,0,0,1,.5-3.21c.23-.93.6-2.27,1.12-4l-1.69-.21c-.11,0-.18,0-.2-.07a.36.36,0,0,1,0-.18c0-.12,0-.2.08-.24a.65.65,0,0,1,.29-.09,6.44,6.44,0,0,1,1.74.2c.69-2.32,1.12-3.78,1.27-4.38a13.69,13.69,0,0,0,.46-2.52,1,1,0,0,0,0-.15l0-.13a.09.09,0,0,1,0-.07.1.1,0,0,1,.07,0,2.78,2.78,0,0,1,1.15.13,1.72,1.72,0,0,1,.49.24.46.46,0,0,1,.2.33,17.59,17.59,0,0,1-.34,2.43c-.21.95-.55,2.36-1,4.23a12.85,12.85,0,0,0,6-2,.72.72,0,0,1,0,.19,1.32,1.32,0,0,1-.07.3,1,1,0,0,1-.41.54c-.88.77-2.79,1.32-5.72,1.67A40.16,40.16,0,0,0,222.37,41.12Z"/><path class="cls-38" d="M250.6,28.92a1.5,1.5,0,0,1,.36-.56,1.12,1.12,0,0,1,.57-.21l-.72,1.74-1.08,2.63a16,16,0,0,1-2.65,4.53,4.86,4.86,0,0,1-2.94,1.81,2.27,2.27,0,0,1-2.09-.94,8.08,8.08,0,0,1-1.19-2.45c-.12-.35-.29-.95-.53-1.8a9.93,9.93,0,0,0-.5-1.53c-.11-.2-.22-.3-.34-.28a3.18,3.18,0,0,1-1.56,1.45,20.46,20.46,0,0,0-1.21,6,.91.91,0,0,0,0,.21.32.32,0,0,1,0,.07.09.09,0,0,1,0,.07s0,0-.07,0a3.36,3.36,0,0,1-1.39-.19,2.37,2.37,0,0,1-.67-.28.49.49,0,0,1-.27-.39q0-3.44,2.34-9T239,22.07a.84.84,0,0,0-.08-.4,6.4,6.4,0,0,0-2.47,1.11A10.36,10.36,0,0,0,234,25.2a12.87,12.87,0,0,0-1.86,3.68,15.66,15.66,0,0,0-.75,4.9A1.36,1.36,0,0,1,230,33.2a3.16,3.16,0,0,1-.45-1.84,9.19,9.19,0,0,1,.64-3.13,13.47,13.47,0,0,1,1.84-3.42,11.76,11.76,0,0,1,3-2.86,9.36,9.36,0,0,1,4.09-1.5,1.46,1.46,0,0,1,1.43.58,2.49,2.49,0,0,1,.45,1.54,11.54,11.54,0,0,1-.42,2.84c-.2.76-.6,2-1.2,3.65s-1,2.79-1.18,3.33a3,3,0,0,0,.83-1,13.17,13.17,0,0,0,.78-1.59c.2-.46.49-1.2.86-2.21s.63-1.68.76-2a20.27,20.27,0,0,1,2-4,4,4,0,0,1,2.69-2,3,3,0,0,1,2.6.65,2.26,2.26,0,0,1,.58.89,3,3,0,0,1,.18,1,4.55,4.55,0,0,1-.31,1.68,4.67,4.67,0,0,1-.79,1.37,4,4,0,0,1-1.1,1,3.08,3.08,0,0,1-1.25.44,1,1,0,0,1,.2-.33l0,0,0,0,.05-.06.11-.15.22-.36a5,5,0,0,0,.62-2.49c0-1.21-.43-1.77-1.28-1.67a2.58,2.58,0,0,0-1.53.87,9.21,9.21,0,0,0-1.33,1.9c-.35.62-.79,1.54-1.33,2.77s-.88,2-1,2.3c.46-.05.88.37,1.27,1.25a24,24,0,0,1,1,3.12c.41,1.51.68,2.44.81,2.78a3.68,3.68,0,0,0,.51.95.67.67,0,0,0,.6.31c1.4-.16,2.91-2.23,4.54-6.19Z"/><path class="cls-3" d="M38,95.8l.42-.18L40.54,103s-.11.15-.66.33Z"/></g></g></svg>